<?xml version="1.0" encoding="UTF-8" standalone="no"?>
<svg
   xmlns:dc="http://purl.org/dc/elements/1.1/"
   xmlns:cc="http://creativecommons.org/ns#"
   xmlns:rdf="http://www.w3.org/1999/02/22-rdf-syntax-ns#"
   xmlns:svg="http://www.w3.org/2000/svg"
   xmlns="http://www.w3.org/2000/svg"
   xmlns:sodipodi="http://sodipodi.sourceforge.net/DTD/sodipodi-0.dtd"
   xmlns:inkscape="http://www.inkscape.org/namespaces/inkscape"
   inkscape:version="1.0 (4035a4fb49, 2020-05-01)"
   sodipodi:docname="scikit-rf-logo-flat-docs.svg"
   xml:space="preserve"
   enable-background="new 0 0 532.627 498.523"
   overflow="visible"
   viewBox="0 0 559.99999 559.99999"
   height="560"
   width="560"
   id="Layer_1"
   version="1.1"><metadata
   id="metadata1506"><rdf:RDF><cc:Work
       rdf:about=""><dc:format>image/svg+xml</dc:format><dc:type
         rdf:resource="http://purl.org/dc/dcmitype/StillImage" /><dc:title></dc:title></cc:Work></rdf:RDF></metadata>
   <defs
   id="defs11"><inkscape:path-effect
   lpeversion="1"
   is_visible="true"
   id="path-effect8468"
   effect="spiro" /><inkscape:path-effect
   lpeversion="1"
   is_visible="true"
   id="path-effect7851"
   effect="spiro" /><inkscape:path-effect
   lpeversion="1"
   is_visible="true"
   id="path-effect7814"
   effect="spiro" /><inkscape:path-effect
   lpeversion="1"
   is_visible="true"
   id="path-effect3145"
   effect="spiro" /><inkscape:path-effect
   lpeversion="1"
   is_visible="true"
   id="path-effect2367"
   effect="spiro" /><inkscape:path-effect
   lpeversion="1"
   is_visible="true"
   id="path-effect23506"
   effect="spiro" /><inkscape:path-effect
   lpeversion="1"
   is_visible="true"
   id="path-effect21836"
   effect="spiro" /><inkscape:path-effect
   lpeversion="1"
   is_visible="true"
   id="path-effect21073"
   effect="spiro" /><inkscape:path-effect
   lpeversion="1"
   is_visible="true"
   id="path-effect20956"
   effect="spiro" /><inkscape:path-effect
   lpeversion="1"
   is_visible="true"
   id="path-effect20952"
   effect="spiro" />


<clipPath
   id="clipPath23113"
   clipPathUnits="userSpaceOnUse"><circle
     r="252.57939"
     cy="279.8804"
     cx="280.01196"
     id="circle23115"
     style="fill:#0054a6;fill-opacity:1;stroke-width:2.963;stroke-miterlimit:4;stroke-dasharray:none" /></clipPath><clipPath
   id="clipPath3227"
   clipPathUnits="userSpaceOnUse"><path
     inkscape:original-d="m 435.44688,177.4754 c -29.31969,-7.20912 24.21445,54.8491 36.32017,82.27215 12.10572,27.42305 34.42495,-40.43086 51.63592,-60.64779 17.21098,-20.21693 -58.63639,-14.41524 -87.95609,-21.62436 z"
     inkscape:path-effect="#path-effect3145"
     id="path3229"
     d="m 435.44688,177.4754 c -5.90951,7.14809 -9.78357,15.96041 -11.05524,25.14738 -1.27167,9.18697 0.063,18.72029 3.80859,27.20485 3.74562,8.48456 9.89071,15.89424 17.53598,21.1447 7.64527,5.25046 16.76719,8.32554 26.03084,8.77522 15.30311,0.74286 30.79637,-5.96322 40.72859,-17.62889 9.93223,-11.66566 14.0814,-28.03017 10.90733,-43.0189 -1.94656,-9.19211 -6.53149,-17.80994 -13.06697,-24.56061 -6.53547,-6.75067 -15.00029,-11.6123 -24.12453,-13.85553 -9.12424,-2.24323 -18.87834,-1.8608 -27.79894,1.08994 -8.9206,2.95073 -16.97879,8.46019 -22.96565,15.70184 z"
     style="fill:none;stroke:#000000;stroke-width:1px;stroke-linecap:butt;stroke-linejoin:miter;stroke-opacity:1" /></clipPath><clipPath
   id="clipPath7261"
   clipPathUnits="userSpaceOnUse"><ellipse
     ry="40.11541"
     rx="52.731018"
     cy="211.43802"
     cx="483.82855"
     id="ellipse7263"
     style="fill:#ff00ff;stroke:#009b42;stroke-width:1.88976" /></clipPath><clipPath
   id="clipPath8189"
   clipPathUnits="userSpaceOnUse"><ellipse
     ry="41.832676"
     rx="48.457283"
     cy="210.98299"
     cx="473.60403"
     id="ellipse8191"
     style="fill:#ff00ff;stroke:#eeb54d;stroke-width:0.1;stroke-miterlimit:4;stroke-dasharray:none;stroke-opacity:1" /></clipPath></defs><sodipodi:namedview
   inkscape:document-rotation="0"
   inkscape:snap-global="false"
   inkscape:current-layer="Layer_1"
   inkscape:window-maximized="0"
   inkscape:window-y="7"
   inkscape:window-x="144"
   inkscape:window-height="728"
   inkscape:window-width="1350"
   inkscape:cy="226.19314"
   inkscape:cx="254.7718"
   inkscape:zoom="0.73571289"
   fit-margin-bottom="0"
   fit-margin-right="0"
   fit-margin-left="0"
   fit-margin-top="0"
   showgrid="false"
   inkscape:pagecheckerboard="0"
   inkscape:pageopacity="0.0"
   inkscape:pageshadow="2"
   borderopacity="1.0"
   bordercolor="#666666"
   pagecolor="#ffffff"
   id="namedview9" />


<path
   d="M 279.42736,27.299983 A 252.57939,252.57939 0 0 0 26.84728,279.88006 252.57939,252.57939 0 0 0 57.15978,399.76482 c 1.451094,0.33906 2.843351,0.89254 4.197265,1.51563 4.898813,2.2545 9.52728,5.5132 12.273438,10.1543 1.373078,2.32054 2.243289,4.9602 2.353515,7.65429 0.109208,2.66918 -0.559217,5.3831 -2.007812,7.62696 A 252.57939,252.57939 0 0 0 279.42736,532.45818 252.57939,252.57939 0 0 0 532.00744,279.88006 252.57939,252.57939 0 0 0 279.42736,27.299983 Z"
   style="fill:#133f52;fill-opacity:1;stroke:none;stroke-width:2.963;stroke-miterlimit:4;stroke-dasharray:none"
   id="circle" /><path
   sodipodi:nodetypes="ccccccccc"
   style="fill:#133f52;fill-opacity:1"
   id="tongue"
   d="m 513.56686,184.93081 12.891,-5.996 8.711,-23.809 9.141,3.203 -7.852,21.289 21.758,7.5 -3.281,8.916 -24.297,-8.486 -13.398,6.162"
   fill="#0054a6"
   clip-rule="evenodd"
   fill-rule="evenodd" /><switch
   style="fill:#0054a6;fill-opacity:1"
   transform="translate(548.0469,-157.95312)"
   id="switch8080" /><path
   clip-path="url(#clipPath23113)"
   sodipodi:nodetypes="czssccccczzzscccccccccccccccczccssccccccccccccccc"
   style="fill:#ffffff;fill-opacity:1;stroke:none"
   id="snake"
   d="m 373.90992,313.03486 c -17.39799,-23.797 -51.77696,-37.63286 -81.2681,-44.12822 -29.49115,-6.49535 -47.44014,-11.51901 -61.77612,-19.27626 -16.36281,-8.85397 -29.22641,-34.96222 -24.20294,-57.598 7.88381,-35.52446 39.61017,-61.08652 75.84117,-56.02752 18.094,2.559 33.438,12.139 43.55499,25.625 l 40.117,52.705 c 22.93,29.531 48.71101,38.32 76.758,24.375 l 13.64756,-6.45002 c 1.133,-0.527 2.50681,-1.59041 4.73081,-0.88308 2.224,0.70733 3.31502,2.62611 4.56297,4.87011 1.24794,2.244 2.56705,4.31231 4.91495,4.87732 2.34789,0.56501 5.6182,0.177 7.14707,-1.28038 10.39551,-9.90944 31.48264,-30.08895 31.48264,-30.08895 5.703,-4.883 4.023,-9.365 4.023,-9.365 l -7.852,-17.881 c 0,0 -2.148,-4.287 -9.57,-3.301 l -43.672,4.014 c -2.539,0.361 -4.805,2.051 -5.781,4.629 -0.586,1.504 -0.625,3.076 -0.195,4.502 l 1.563,5.029 c 0.313,1.045 0.313,2.217 -0.117,3.291 -0.508,1.328 -1.523,2.266 -2.734,2.764 l -12.344,5.225 c -14.22674,4.82612 -27.617,2.734 -37.422,-9.258 l -11.211,-14.893 -31.914,-42.354 c -15.156,-20.098 -38.00799,-34.434 -64.99999,-38.203 -54.043,-7.568 -104.199,29.854 -112.051,83.584 -3.965,27.08 -0.23964,49.98277 20.21927,73.38016 20.45892,23.39738 60.24695,32.31062 94.71373,40.20984 3.688,0.875 14.063,3.438 20.203,5.656 5.676,2.055 18.74999,6.875 29.37499,15.57 v 0 c 12.695,12.906 19.414,31.344 16.563,50.68 -4.805,32.969 -35.586,55.938 -68.74999,51.289 -16.611,-2.305 -30.635,-11.109 -39.922,-23.438 l -38.32,-50.859 c -7.813,-10.367 -19.629,-17.773 -33.594,-19.766 -13.945,-1.953 -27.441,1.914 -37.9,9.75 l -80.043417,59.73605 c 3.392949,9.65154 7.686724,19.24315 16.84366,27.03872 l 82.523757,-61.87477 c 3.779,-2.578 8.467,-3.75 13.33,-3.086 5.176,0.742 9.58,3.461 12.471,7.305 l 40.537,54.477 c 14.277,17.516 35.02,29.922 59.307,33.336 51.09399,7.148 98.51599,-28.242 105.93799,-79.063 3.436,-23.649 -2.345,-46.485 -14.728,-64.844"
   fill="#0054a6"
   clip-rule="evenodd"
   fill-rule="evenodd" /><g
   style="stroke-width:2.23204851;stroke-miterlimit:4;stroke-dasharray:none"
   transform="matrix(2.657839,0,0,2.7187331,689.59605,-747.54731)"
   id="g2109"><path
     sodipodi:nodetypes="cc"
     inkscape:connector-curvature="0"
     id="path3973"
     d="m -61.140192,377.87006 -188.397188,0.0479"
     style="display:inline;overflow:visible;fill:none;stroke:#ffffff;stroke-width:2.23204851;stroke-linecap:butt;stroke-linejoin:miter;stroke-miterlimit:4;stroke-dasharray:none;stroke-opacity:1" /><circle
     r="70.125412"
     cy="377.00952"
     cx="-131.68747"
     id="path3068-5-8"
     style="display:inline;overflow:visible;fill:#ffffff;fill-opacity:0;fill-rule:evenodd;stroke:#ffffff;stroke-width:2.23204851;stroke-linecap:butt;stroke-linejoin:miter;stroke-miterlimit:4;stroke-dasharray:none;stroke-opacity:1" /><circle
     r="48.656181"
     cy="377.94299"
     cx="-110.21825"
     id="path3068-5"
     style="display:inline;overflow:visible;fill:#ffffff;fill-opacity:0;fill-rule:evenodd;stroke:#ffffff;stroke-width:2.23204851;stroke-linecap:butt;stroke-linejoin:miter;stroke-miterlimit:4;stroke-dasharray:none;stroke-opacity:1" /><path
     sodipodi:arc-type="arc"
     sodipodi:open="true"
     sodipodi:end="1.5707963"
     sodipodi:start="0"
     d="M 377.8648,61.562103 A 92.994804,92.994804 0 0 1 284.87,154.55691"
     sodipodi:ry="92.994804"
     sodipodi:rx="92.994804"
     sodipodi:cy="61.562103"
     sodipodi:cx="284.87"
     id="path3068-9"
     style="display:inline;overflow:visible;fill:#ffffff;fill-opacity:0;fill-rule:evenodd;stroke:#ffffff;stroke-width:2.23204851;stroke-linecap:butt;stroke-linejoin:miter;stroke-miterlimit:4;stroke-dasharray:none;stroke-opacity:1"
     sodipodi:type="arc"
     transform="rotate(90)" /><path
     sodipodi:arc-type="arc"
     sodipodi:open="true"
     sodipodi:end="1.5707963"
     sodipodi:start="0"
     d="m -377.86481,61.562103 a 92.994804,92.994804 0 0 1 -92.99481,92.994807"
     sodipodi:ry="92.994804"
     sodipodi:rx="92.994804"
     sodipodi:cy="61.562103"
     sodipodi:cx="-470.85962"
     id="path3068-9-5"
     style="display:inline;overflow:visible;fill:#ffffff;fill-opacity:0;fill-rule:evenodd;stroke:#ffffff;stroke-width:2.23204851;stroke-linecap:butt;stroke-linejoin:miter;stroke-miterlimit:4;stroke-dasharray:none;stroke-opacity:1"
     sodipodi:type="arc"
     transform="matrix(0,-1,-1,0,0,0)" /><path
     sodipodi:arc-type="arc"
     sodipodi:open="true"
     sodipodi:end="0.83171948"
     sodipodi:start="0"
     d="M 377.94296,61.562057 A 212.12817,212.12817 0 0 1 308.70558,218.34402"
     sodipodi:ry="212.12817"
     sodipodi:rx="212.12817"
     sodipodi:cy="61.562057"
     sodipodi:cx="165.81479"
     id="path3068-9-3"
     style="display:inline;overflow:visible;fill:#ffffff;fill-opacity:0;fill-rule:evenodd;stroke:#ffffff;stroke-width:2.23204851;stroke-linecap:butt;stroke-linejoin:miter;stroke-miterlimit:4;stroke-dasharray:none;stroke-opacity:1"
     sodipodi:type="arc"
     transform="rotate(90)" /><path
     sodipodi:arc-type="arc"
     sodipodi:open="true"
     sodipodi:end="0.83171948"
     sodipodi:start="0"
     d="M -377.94299,61.562057 A 212.12817,212.12817 0 0 1 -447.18038,218.34402"
     sodipodi:ry="212.12817"
     sodipodi:rx="212.12817"
     sodipodi:cy="61.562057"
     sodipodi:cx="-590.07117"
     id="path3068-9-3-6"
     style="display:inline;overflow:visible;fill:#ffffff;fill-opacity:0;fill-rule:evenodd;stroke:#ffffff;stroke-width:2.23204851;stroke-linecap:butt;stroke-linejoin:miter;stroke-miterlimit:4;stroke-dasharray:none;stroke-opacity:1"
     sodipodi:type="arc"
     transform="matrix(0,-1,-1,0,0,0)" /></g></svg>
