<?xml version="1.0" encoding="UTF-8" standalone="no"?><!DOCTYPE svg PUBLIC "-//W3C//DTD SVG 1.1//EN" "http://www.w3.org/Graphics/SVG/1.1/DTD/svg11.dtd"><svg width="100%" height="100%" viewBox="0 0 1130 913" version="1.1" xmlns="http://www.w3.org/2000/svg" xmlns:xlink="http://www.w3.org/1999/xlink" xml:space="preserve" xmlns:serif="http://www.serif.com/" style="fill-rule:evenodd;clip-rule:evenodd;stroke-linecap:round;stroke-linejoin:round;stroke-miterlimit:1.5;"><g><g><g><rect x="191.155" y="520.047" width="69.432" height="231.439" style="fill:#d2d2d2;"/><rect x="367.628" y="518.601" width="81.004" height="231.439" style="fill:#d2d2d2;"/><rect x="600.513" y="518.601" width="69.432" height="231.439" style="fill:#d2d2d2;"/><rect x="133.137" y="74.526" width="208.295" height="231.439" style="fill:#d2d2d2;"/><rect x="734.879" y="74.526" width="135.971" height="231.439" style="fill:#d2d2d2;"/><rect x="19.521" y="16.667" width="108.684" height="108.684" style="fill:none;stroke:#3d3d3d;stroke-width:13.04px;"/><rect x="19.521" y="16.667" width="108.684" height="108.684" style="fill:#fff;stroke:#3d3d3d;stroke-width:13.04px;"/><rect x="19.521" y="143.465" width="108.684" height="108.684" style="fill:#fff;stroke:#3d3d3d;stroke-width:13.04px;"/><rect x="19.521" y="270.264" width="108.684" height="108.684" style="fill:#fff;stroke:#3d3d3d;stroke-width:13.04px;"/><rect x="345.575" y="16.667" width="108.684" height="108.684" style="fill:none;stroke:#3d3d3d;stroke-width:13.04px;"/><rect x="345.575" y="16.667" width="108.684" height="108.684" style="fill:#fff;stroke:#3d3d3d;stroke-width:13.04px;"/><rect x="345.575" y="143.465" width="108.684" height="108.684" style="fill:#fff;stroke:#3d3d3d;stroke-width:13.04px;"/><rect x="345.575" y="270.264" width="108.684" height="108.684" style="fill:#fff;stroke:#3d3d3d;stroke-width:13.04px;"/><path d="M128.206,71.009l108.684,-0" style="fill:none;stroke:#3d3d3d;stroke-width:69.64px;stroke-linecap:butt;stroke-linejoin:miter;"/><path d="M128.206,197.807l72.456,0" style="fill:none;stroke:#3d3d3d;stroke-width:69.64px;stroke-linecap:butt;stroke-linejoin:miter;"/><path d="M128.206,324.606l108.684,-0" style="fill:none;stroke:#3d3d3d;stroke-width:69.64px;stroke-linecap:butt;stroke-linejoin:miter;"/><path d="M236.89,71.009l108.685,-0" style="fill:none;stroke:#3d3d3d;stroke-width:69.64px;stroke-linecap:butt;stroke-linejoin:miter;"/><path d="M273.118,197.807l72.457,0" style="fill:none;stroke:#3d3d3d;stroke-width:69.64px;stroke-linecap:butt;stroke-linejoin:miter;"/><path d="M236.89,324.606l108.685,-0" style="fill:none;stroke:#3d3d3d;stroke-width:69.64px;stroke-linecap:butt;stroke-linejoin:miter;"/><rect x="200.662" y="161.579" width="73.362" height="72.456" style="fill:#ff9797;stroke:#000;stroke-width:6.41px;stroke-linecap:butt;stroke-linejoin:miter;"/><path d="M75.679,76.04l-0,-5.477l19.773,-0.032l-0,17.322c-3.036,2.42 -6.167,4.24 -9.393,5.461c-3.227,1.22 -6.538,1.83 -9.935,1.83c-4.585,0 -8.751,-0.981 -12.497,-2.945c-3.747,-1.963 -6.576,-4.803 -8.486,-8.517c-1.91,-3.715 -2.866,-7.865 -2.866,-12.45c0,-4.543 0.95,-8.783 2.85,-12.721c1.9,-3.937 4.633,-6.862 8.199,-8.772c3.566,-1.91 7.674,-2.866 12.323,-2.866c3.375,0 6.426,0.547 9.154,1.64c2.728,1.093 4.866,2.616 6.416,4.569c1.55,1.953 2.728,4.501 3.534,7.642l-5.572,1.529c-0.7,-2.378 -1.571,-4.246 -2.611,-5.604c-1.04,-1.359 -2.526,-2.447 -4.458,-3.264c-1.931,-0.817 -4.075,-1.226 -6.431,-1.226c-2.824,-0 -5.265,0.43 -7.324,1.29c-2.059,0.859 -3.72,1.99 -4.983,3.391c-1.263,1.401 -2.245,2.94 -2.945,4.617c-1.189,2.886 -1.783,6.018 -1.783,9.393c-0,4.16 0.716,7.642 2.149,10.444c1.433,2.802 3.518,4.882 6.257,6.24c2.738,1.359 5.646,2.038 8.724,2.038c2.675,0 5.286,-0.514 7.833,-1.544c2.547,-1.03 4.479,-2.128 5.795,-3.296l0,-8.692l-13.723,-0Z" style="fill-rule:nonzero;"/><path d="M75.679,329.637l-0,-5.477l19.773,-0.032l-0,17.322c-3.036,2.42 -6.167,4.24 -9.393,5.461c-3.227,1.22 -6.538,1.831 -9.935,1.831c-4.585,-0 -8.751,-0.982 -12.497,-2.946c-3.747,-1.963 -6.576,-4.802 -8.486,-8.517c-1.91,-3.715 -2.866,-7.865 -2.866,-12.45c0,-4.543 0.95,-8.783 2.85,-12.721c1.9,-3.937 4.633,-6.861 8.199,-8.772c3.566,-1.91 7.674,-2.866 12.323,-2.866c3.375,0 6.426,0.547 9.154,1.64c2.728,1.093 4.866,2.616 6.416,4.569c1.55,1.953 2.728,4.501 3.534,7.642l-5.572,1.529c-0.7,-2.378 -1.571,-4.246 -2.611,-5.604c-1.04,-1.359 -2.526,-2.447 -4.458,-3.264c-1.931,-0.817 -4.075,-1.226 -6.431,-1.226c-2.824,-0 -5.265,0.43 -7.324,1.29c-2.059,0.859 -3.72,1.99 -4.983,3.391c-1.263,1.401 -2.245,2.94 -2.945,4.617c-1.189,2.887 -1.783,6.018 -1.783,9.393c-0,4.16 0.716,7.642 2.149,10.444c1.433,2.802 3.518,4.882 6.257,6.241c2.738,1.358 5.646,2.037 8.724,2.037c2.675,0 5.286,-0.514 7.833,-1.544c2.547,-1.029 4.479,-2.128 5.795,-3.296l0,-8.692l-13.723,-0Z" style="fill-rule:nonzero;"/><path d="M55.284,206.15l5.827,-0.51c0.276,2.335 0.918,4.251 1.927,5.748c1.008,1.496 2.573,2.706 4.696,3.63c2.123,0.923 4.511,1.385 7.164,1.385c2.357,-0 4.437,-0.351 6.241,-1.051c1.805,-0.701 3.147,-1.661 4.028,-2.882c0.881,-1.22 1.322,-2.552 1.322,-3.996c-0,-1.464 -0.425,-2.743 -1.274,-3.837c-0.849,-1.093 -2.25,-2.011 -4.203,-2.754c-1.252,-0.488 -4.023,-1.247 -8.311,-2.277c-4.288,-1.029 -7.291,-2 -9.011,-2.913c-2.229,-1.168 -3.89,-2.616 -4.983,-4.346c-1.093,-1.73 -1.64,-3.667 -1.64,-5.811c0,-2.357 0.669,-4.559 2.006,-6.607c1.338,-2.049 3.291,-3.604 5.859,-4.665c2.569,-1.061 5.424,-1.592 8.565,-1.592c3.461,-0 6.512,0.557 9.155,1.671c2.643,1.115 4.675,2.755 6.097,4.92c1.423,2.165 2.187,4.617 2.293,7.355l-5.923,0.446c-0.318,-2.951 -1.395,-5.179 -3.231,-6.687c-1.837,-1.507 -4.548,-2.26 -8.136,-2.26c-3.736,-0 -6.458,0.684 -8.167,2.053c-1.709,1.37 -2.563,3.02 -2.563,4.952c-0,1.677 0.605,3.056 1.815,4.139c1.188,1.083 4.293,2.192 9.313,3.327c5.02,1.136 8.465,2.129 10.333,2.978c2.717,1.252 4.723,2.839 6.018,4.76c1.294,1.921 1.942,4.134 1.942,6.639c-0,2.483 -0.711,4.824 -2.133,7.021c-1.423,2.197 -3.466,3.906 -6.13,5.126c-2.664,1.221 -5.662,1.831 -8.995,1.831c-4.224,0 -7.764,-0.616 -10.619,-1.847c-2.855,-1.231 -5.095,-3.083 -6.718,-5.556c-1.624,-2.473 -2.479,-5.27 -2.564,-8.39Z" style="fill-rule:nonzero;"/><path d="M208.969,208.004l0,-20.747l7.147,0c1.613,0 2.844,0.099 3.693,0.298c1.189,0.273 2.203,0.768 3.043,1.485c1.094,0.925 1.913,2.107 2.455,3.545c0.543,1.439 0.814,3.083 0.814,4.932c-0,1.576 -0.184,2.972 -0.552,4.189c-0.368,1.217 -0.84,2.224 -1.415,3.022c-0.576,0.797 -1.205,1.424 -1.889,1.882c-0.684,0.457 -1.51,0.804 -2.477,1.04c-0.967,0.236 -2.078,0.354 -3.333,0.354l-7.486,-0Zm2.746,-2.449l4.429,0c1.368,0 2.441,-0.127 3.22,-0.382c0.778,-0.254 1.398,-0.613 1.86,-1.075c0.651,-0.651 1.159,-1.526 1.522,-2.625c0.363,-1.099 0.545,-2.432 0.545,-3.998c-0,-2.17 -0.357,-3.838 -1.069,-5.003c-0.712,-1.165 -1.578,-1.946 -2.597,-2.342c-0.736,-0.283 -1.92,-0.424 -3.552,-0.424l-4.358,-0l-0,15.849Z" style="fill-rule:nonzero;"/><path d="M243.513,187.257l2.746,0l-0,11.987c-0,2.085 -0.236,3.741 -0.708,4.967c-0.472,1.227 -1.323,2.224 -2.554,2.993c-1.231,0.769 -2.847,1.153 -4.847,1.153c-1.944,0 -3.533,-0.334 -4.769,-1.004c-1.236,-0.67 -2.118,-1.64 -2.647,-2.908c-0.528,-1.269 -0.792,-3.003 -0.792,-5.201l-0,-11.987l2.745,0l0,11.973c0,1.802 0.168,3.13 0.503,3.983c0.335,0.854 0.91,1.512 1.726,1.974c0.816,0.463 1.814,0.694 2.993,0.694c2.019,-0 3.458,-0.458 4.316,-1.373c0.859,-0.915 1.288,-2.674 1.288,-5.278l0,-11.973Z" style="fill-rule:nonzero;"/><path d="M256.108,208.004l0,-18.298l-6.835,-0l-0,-2.449l16.444,0l0,2.449l-6.863,-0l-0,18.298l-2.746,-0Z" style="fill-rule:nonzero;"/><path d="M401.732,76.04l-0,-5.477l19.773,-0.032l0,17.322c-3.035,2.42 -6.166,4.24 -9.393,5.461c-3.226,1.22 -6.538,1.83 -9.934,1.83c-4.585,0 -8.751,-0.981 -12.498,-2.945c-3.747,-1.963 -6.575,-4.803 -8.486,-8.517c-1.91,-3.715 -2.865,-7.865 -2.865,-12.45c-0,-4.543 0.95,-8.783 2.849,-12.721c1.9,-3.937 4.633,-6.862 8.2,-8.772c3.566,-1.91 7.673,-2.866 12.322,-2.866c3.375,0 6.427,0.547 9.154,1.64c2.728,1.093 4.867,2.616 6.416,4.569c1.55,1.953 2.728,4.501 3.535,7.642l-5.572,1.529c-0.701,-2.378 -1.571,-4.246 -2.611,-5.604c-1.041,-1.359 -2.526,-2.447 -4.458,-3.264c-1.932,-0.817 -4.076,-1.226 -6.432,-1.226c-2.823,-0 -5.264,0.43 -7.324,1.29c-2.059,0.859 -3.72,1.99 -4.983,3.391c-1.263,1.401 -2.244,2.94 -2.945,4.617c-1.189,2.886 -1.783,6.018 -1.783,9.393c-0,4.16 0.716,7.642 2.149,10.444c1.433,2.802 3.519,4.882 6.257,6.24c2.738,1.359 5.646,2.038 8.724,2.038c2.675,0 5.286,-0.514 7.833,-1.544c2.548,-1.03 4.479,-2.128 5.795,-3.296l0,-8.692l-13.723,-0Z" style="fill-rule:nonzero;"/><path d="M401.732,329.637l-0,-5.477l19.773,-0.032l0,17.322c-3.035,2.42 -6.166,4.24 -9.393,5.461c-3.226,1.22 -6.538,1.831 -9.934,1.831c-4.585,-0 -8.751,-0.982 -12.498,-2.946c-3.747,-1.963 -6.575,-4.802 -8.486,-8.517c-1.91,-3.715 -2.865,-7.865 -2.865,-12.45c-0,-4.543 0.95,-8.783 2.849,-12.721c1.9,-3.937 4.633,-6.861 8.2,-8.772c3.566,-1.91 7.673,-2.866 12.322,-2.866c3.375,0 6.427,0.547 9.154,1.64c2.728,1.093 4.867,2.616 6.416,4.569c1.55,1.953 2.728,4.501 3.535,7.642l-5.572,1.529c-0.701,-2.378 -1.571,-4.246 -2.611,-5.604c-1.041,-1.359 -2.526,-2.447 -4.458,-3.264c-1.932,-0.817 -4.076,-1.226 -6.432,-1.226c-2.823,-0 -5.264,0.43 -7.324,1.29c-2.059,0.859 -3.72,1.99 -4.983,3.391c-1.263,1.401 -2.244,2.94 -2.945,4.617c-1.189,2.887 -1.783,6.018 -1.783,9.393c-0,4.16 0.716,7.642 2.149,10.444c1.433,2.802 3.519,4.882 6.257,6.241c2.738,1.358 5.646,2.037 8.724,2.037c2.675,0 5.286,-0.514 7.833,-1.544c2.548,-1.029 4.479,-2.128 5.795,-3.296l0,-8.692l-13.723,-0Z" style="fill-rule:nonzero;"/><path d="M381.338,206.15l5.827,-0.51c0.276,2.335 0.918,4.251 1.926,5.748c1.008,1.496 2.574,2.706 4.697,3.63c2.122,0.923 4.51,1.385 7.164,1.385c2.356,-0 4.436,-0.351 6.241,-1.051c1.804,-0.701 3.147,-1.661 4.028,-2.882c0.881,-1.22 1.321,-2.552 1.321,-3.996c-0,-1.464 -0.425,-2.743 -1.274,-3.837c-0.849,-1.093 -2.25,-2.011 -4.203,-2.754c-1.252,-0.488 -4.022,-1.247 -8.31,-2.277c-4.288,-1.029 -7.292,-2 -9.011,-2.913c-2.229,-1.168 -3.89,-2.616 -4.983,-4.346c-1.094,-1.73 -1.64,-3.667 -1.64,-5.811c-0,-2.357 0.668,-4.559 2.006,-6.607c1.337,-2.049 3.29,-3.604 5.859,-4.665c2.568,-1.061 5.423,-1.592 8.565,-1.592c3.46,-0 6.511,0.557 9.154,1.671c2.643,1.115 4.675,2.755 6.098,4.92c1.422,2.165 2.186,4.617 2.292,7.355l-5.922,0.446c-0.319,-2.951 -1.396,-5.179 -3.232,-6.687c-1.836,-1.507 -4.548,-2.26 -8.135,-2.26c-3.737,-0 -6.459,0.684 -8.168,2.053c-1.709,1.37 -2.563,3.02 -2.563,4.952c0,1.677 0.605,3.056 1.815,4.139c1.189,1.083 4.293,2.192 9.314,3.327c5.02,1.136 8.464,2.129 10.332,2.978c2.717,1.252 4.723,2.839 6.018,4.76c1.295,1.921 1.942,4.134 1.942,6.639c0,2.483 -0.711,4.824 -2.133,7.021c-1.422,2.197 -3.465,3.906 -6.129,5.126c-2.665,1.221 -5.663,1.831 -8.996,1.831c-4.224,0 -7.764,-0.616 -10.619,-1.847c-2.855,-1.231 -5.094,-3.083 -6.718,-5.556c-1.624,-2.473 -2.478,-5.27 -2.563,-8.39Z" style="fill-rule:nonzero;"/><rect x="621.593" y="16.667" width="108.684" height="108.684" style="fill:none;stroke:#3d3d3d;stroke-width:13.04px;"/><rect x="621.593" y="16.667" width="108.684" height="108.684" style="fill:none;stroke:#3d3d3d;stroke-width:13.04px;"/><rect x="621.593" y="143.465" width="108.684" height="108.684" style="fill:none;stroke:#3d3d3d;stroke-width:13.04px;"/><rect x="621.593" y="270.264" width="108.684" height="108.684" style="fill:none;stroke:#3d3d3d;stroke-width:13.04px;"/><rect x="875.19" y="16.667" width="108.684" height="108.684" style="fill:none;stroke:#3d3d3d;stroke-width:13.04px;"/><rect x="875.19" y="16.667" width="108.684" height="108.684" style="fill:none;stroke:#3d3d3d;stroke-width:13.04px;"/><rect x="875.19" y="143.465" width="108.684" height="108.684" style="fill:none;stroke:#3d3d3d;stroke-width:13.04px;"/><rect x="875.19" y="270.264" width="108.684" height="108.684" style="fill:none;stroke:#3d3d3d;stroke-width:13.04px;"/><path d="M730.277,71.009l108.685,-0" style="fill:none;stroke:#3d3d3d;stroke-width:69.64px;stroke-linecap:butt;stroke-linejoin:miter;"/><path d="M730.277,197.807l72.456,0" style="fill:none;stroke:#3d3d3d;stroke-width:69.64px;stroke-linecap:butt;stroke-linejoin:miter;"/><path d="M730.277,324.606l108.685,-0" style="fill:none;stroke:#3d3d3d;stroke-width:69.64px;stroke-linecap:butt;stroke-linejoin:miter;"/><path d="M766.505,71.009l108.685,-0" style="fill:none;stroke:#3d3d3d;stroke-width:69.64px;stroke-linecap:butt;stroke-linejoin:miter;"/><path d="M802.733,197.807l72.457,0" style="fill:none;stroke:#3d3d3d;stroke-width:69.64px;stroke-linecap:butt;stroke-linejoin:miter;"/><path d="M766.505,324.606l108.685,-0" style="fill:none;stroke:#3d3d3d;stroke-width:69.64px;stroke-linecap:butt;stroke-linejoin:miter;"/><path d="M677.75,76.04l-0,-5.477l19.773,-0.032l0,17.322c-3.035,2.42 -6.166,4.24 -9.393,5.461c-3.226,1.22 -6.538,1.83 -9.934,1.83c-4.585,0 -8.751,-0.981 -12.498,-2.945c-3.747,-1.963 -6.575,-4.803 -8.486,-8.517c-1.91,-3.715 -2.865,-7.865 -2.865,-12.45c-0,-4.543 0.95,-8.783 2.849,-12.721c1.9,-3.937 4.633,-6.862 8.2,-8.772c3.566,-1.91 7.673,-2.866 12.322,-2.866c3.375,0 6.427,0.547 9.154,1.64c2.728,1.093 4.867,2.616 6.416,4.569c1.55,1.953 2.728,4.501 3.535,7.642l-5.572,1.529c-0.701,-2.378 -1.571,-4.246 -2.611,-5.604c-1.041,-1.359 -2.527,-2.447 -4.458,-3.264c-1.932,-0.817 -4.076,-1.226 -6.432,-1.226c-2.823,-0 -5.265,0.43 -7.324,1.29c-2.059,0.859 -3.72,1.99 -4.983,3.391c-1.263,1.401 -2.245,2.94 -2.945,4.617c-1.189,2.886 -1.783,6.018 -1.783,9.393c-0,4.16 0.716,7.642 2.149,10.444c1.433,2.802 3.519,4.882 6.257,6.24c2.738,1.359 5.646,2.038 8.724,2.038c2.675,0 5.286,-0.514 7.833,-1.544c2.548,-1.03 4.479,-2.128 5.795,-3.296l0,-8.692l-13.723,-0Z" style="fill-rule:nonzero;"/><path d="M677.75,329.637l-0,-5.477l19.773,-0.032l0,17.322c-3.035,2.42 -6.166,4.24 -9.393,5.461c-3.226,1.22 -6.538,1.831 -9.934,1.831c-4.585,-0 -8.751,-0.982 -12.498,-2.946c-3.747,-1.963 -6.575,-4.802 -8.486,-8.517c-1.91,-3.715 -2.865,-7.865 -2.865,-12.45c-0,-4.543 0.95,-8.783 2.849,-12.721c1.9,-3.937 4.633,-6.861 8.2,-8.772c3.566,-1.91 7.673,-2.866 12.322,-2.866c3.375,0 6.427,0.547 9.154,1.64c2.728,1.093 4.867,2.616 6.416,4.569c1.55,1.953 2.728,4.501 3.535,7.642l-5.572,1.529c-0.701,-2.378 -1.571,-4.246 -2.611,-5.604c-1.041,-1.359 -2.527,-2.447 -4.458,-3.264c-1.932,-0.817 -4.076,-1.226 -6.432,-1.226c-2.823,-0 -5.265,0.43 -7.324,1.29c-2.059,0.859 -3.72,1.99 -4.983,3.391c-1.263,1.401 -2.245,2.94 -2.945,4.617c-1.189,2.887 -1.783,6.018 -1.783,9.393c-0,4.16 0.716,7.642 2.149,10.444c1.433,2.802 3.519,4.882 6.257,6.241c2.738,1.358 5.646,2.037 8.724,2.037c2.675,0 5.286,-0.514 7.833,-1.544c2.548,-1.029 4.479,-2.128 5.795,-3.296l0,-8.692l-13.723,-0Z" style="fill-rule:nonzero;"/><path d="M657.356,206.15l5.827,-0.51c0.276,2.335 0.918,4.251 1.926,5.748c1.008,1.496 2.574,2.706 4.697,3.63c2.122,0.923 4.51,1.385 7.164,1.385c2.356,-0 4.436,-0.351 6.241,-1.051c1.804,-0.701 3.147,-1.661 4.028,-2.882c0.88,-1.22 1.321,-2.552 1.321,-3.996c-0,-1.464 -0.425,-2.743 -1.274,-3.837c-0.849,-1.093 -2.25,-2.011 -4.203,-2.754c-1.252,-0.488 -4.022,-1.247 -8.31,-2.277c-4.288,-1.029 -7.292,-2 -9.011,-2.913c-2.229,-1.168 -3.89,-2.616 -4.983,-4.346c-1.094,-1.73 -1.64,-3.667 -1.64,-5.811c-0,-2.357 0.668,-4.559 2.006,-6.607c1.337,-2.049 3.29,-3.604 5.858,-4.665c2.569,-1.061 5.424,-1.592 8.566,-1.592c3.46,-0 6.511,0.557 9.154,1.671c2.643,1.115 4.675,2.755 6.098,4.92c1.422,2.165 2.186,4.617 2.292,7.355l-5.922,0.446c-0.319,-2.951 -1.396,-5.179 -3.232,-6.687c-1.836,-1.507 -4.548,-2.26 -8.136,-2.26c-3.736,-0 -6.458,0.684 -8.167,2.053c-1.709,1.37 -2.563,3.02 -2.563,4.952c0,1.677 0.605,3.056 1.815,4.139c1.189,1.083 4.293,2.192 9.314,3.327c5.02,1.136 8.464,2.129 10.332,2.978c2.717,1.252 4.723,2.839 6.018,4.76c1.295,1.921 1.942,4.134 1.942,6.639c0,2.483 -0.711,4.824 -2.133,7.021c-1.422,2.197 -3.465,3.906 -6.13,5.126c-2.664,1.221 -5.662,1.831 -8.995,1.831c-4.224,0 -7.764,-0.616 -10.619,-1.847c-2.855,-1.231 -5.094,-3.083 -6.718,-5.556c-1.624,-2.473 -2.478,-5.27 -2.563,-8.39Z" style="fill-rule:nonzero;"/><path d="M931.347,76.04l-0,-5.477l19.773,-0.032l0,17.322c-3.035,2.42 -6.166,4.24 -9.393,5.461c-3.226,1.22 -6.538,1.83 -9.934,1.83c-4.585,0 -8.751,-0.981 -12.498,-2.945c-3.747,-1.963 -6.575,-4.803 -8.486,-8.517c-1.91,-3.715 -2.865,-7.865 -2.865,-12.45c-0,-4.543 0.95,-8.783 2.849,-12.721c1.9,-3.937 4.633,-6.862 8.2,-8.772c3.566,-1.91 7.673,-2.866 12.322,-2.866c3.375,0 6.427,0.547 9.154,1.64c2.728,1.093 4.867,2.616 6.416,4.569c1.55,1.953 2.728,4.501 3.535,7.642l-5.572,1.529c-0.701,-2.378 -1.571,-4.246 -2.611,-5.604c-1.041,-1.359 -2.526,-2.447 -4.458,-3.264c-1.932,-0.817 -4.076,-1.226 -6.432,-1.226c-2.823,-0 -5.264,0.43 -7.324,1.29c-2.059,0.859 -3.72,1.99 -4.983,3.391c-1.263,1.401 -2.244,2.94 -2.945,4.617c-1.189,2.886 -1.783,6.018 -1.783,9.393c-0,4.16 0.716,7.642 2.149,10.444c1.433,2.802 3.519,4.882 6.257,6.24c2.738,1.359 5.646,2.038 8.724,2.038c2.675,0 5.286,-0.514 7.833,-1.544c2.548,-1.03 4.479,-2.128 5.795,-3.296l0,-8.692l-13.723,-0Z" style="fill-rule:nonzero;"/><path d="M931.347,329.637l-0,-5.477l19.773,-0.032l0,17.322c-3.035,2.42 -6.166,4.24 -9.393,5.461c-3.226,1.22 -6.538,1.831 -9.934,1.831c-4.585,-0 -8.751,-0.982 -12.498,-2.946c-3.747,-1.963 -6.575,-4.802 -8.486,-8.517c-1.91,-3.715 -2.865,-7.865 -2.865,-12.45c-0,-4.543 0.95,-8.783 2.849,-12.721c1.9,-3.937 4.633,-6.861 8.2,-8.772c3.566,-1.91 7.673,-2.866 12.322,-2.866c3.375,0 6.427,0.547 9.154,1.64c2.728,1.093 4.867,2.616 6.416,4.569c1.55,1.953 2.728,4.501 3.535,7.642l-5.572,1.529c-0.701,-2.378 -1.571,-4.246 -2.611,-5.604c-1.041,-1.359 -2.526,-2.447 -4.458,-3.264c-1.932,-0.817 -4.076,-1.226 -6.432,-1.226c-2.823,-0 -5.264,0.43 -7.324,1.29c-2.059,0.859 -3.72,1.99 -4.983,3.391c-1.263,1.401 -2.244,2.94 -2.945,4.617c-1.189,2.887 -1.783,6.018 -1.783,9.393c-0,4.16 0.716,7.642 2.149,10.444c1.433,2.802 3.519,4.882 6.257,6.241c2.738,1.358 5.646,2.037 8.724,2.037c2.675,0 5.286,-0.514 7.833,-1.544c2.548,-1.029 4.479,-2.128 5.795,-3.296l0,-8.692l-13.723,-0Z" style="fill-rule:nonzero;"/><path d="M910.953,206.15l5.827,-0.51c0.276,2.335 0.918,4.251 1.926,5.748c1.008,1.496 2.574,2.706 4.697,3.63c2.122,0.923 4.51,1.385 7.164,1.385c2.356,-0 4.436,-0.351 6.241,-1.051c1.804,-0.701 3.147,-1.661 4.028,-2.882c0.881,-1.22 1.321,-2.552 1.321,-3.996c0,-1.464 -0.425,-2.743 -1.274,-3.837c-0.849,-1.093 -2.25,-2.011 -4.203,-2.754c-1.252,-0.488 -4.022,-1.247 -8.31,-2.277c-4.288,-1.029 -7.292,-2 -9.011,-2.913c-2.229,-1.168 -3.89,-2.616 -4.983,-4.346c-1.094,-1.73 -1.64,-3.667 -1.64,-5.811c-0,-2.357 0.668,-4.559 2.006,-6.607c1.337,-2.049 3.29,-3.604 5.859,-4.665c2.568,-1.061 5.423,-1.592 8.565,-1.592c3.46,-0 6.511,0.557 9.154,1.671c2.643,1.115 4.675,2.755 6.098,4.92c1.422,2.165 2.186,4.617 2.292,7.355l-5.922,0.446c-0.319,-2.951 -1.396,-5.179 -3.232,-6.687c-1.836,-1.507 -4.548,-2.26 -8.135,-2.26c-3.736,-0 -6.459,0.684 -8.168,2.053c-1.709,1.37 -2.563,3.02 -2.563,4.952c0,1.677 0.605,3.056 1.815,4.139c1.189,1.083 4.293,2.192 9.314,3.327c5.02,1.136 8.464,2.129 10.332,2.978c2.717,1.252 4.723,2.839 6.018,4.76c1.295,1.921 1.942,4.134 1.942,6.639c0,2.483 -0.711,4.824 -2.133,7.021c-1.422,2.197 -3.465,3.906 -6.129,5.126c-2.665,1.221 -5.663,1.831 -8.996,1.831c-4.224,0 -7.764,-0.616 -10.619,-1.847c-2.855,-1.231 -5.094,-3.083 -6.718,-5.556c-1.624,-2.473 -2.478,-5.27 -2.563,-8.39Z" style="fill-rule:nonzero;"/><path d="M367.599,504.74l81.004,-0" style="fill:none;stroke:#3d3d3d;stroke-width:69.64px;stroke-linecap:butt;stroke-linejoin:miter;"/><path d="M367.599,758.337l81.004,0" style="fill:none;stroke:#3d3d3d;stroke-width:69.64px;stroke-linecap:butt;stroke-linejoin:miter;"/><g><rect x="371.42" y="595.31" width="73.362" height="72.456" style="fill:#ff9797;stroke:#000;stroke-width:6.41px;stroke-linecap:butt;stroke-linejoin:miter;"/><path d="M379.727,641.735l0,-20.747l7.147,0c1.613,0 2.844,0.1 3.693,0.298c1.189,0.273 2.203,0.769 3.043,1.486c1.094,0.924 1.913,2.106 2.455,3.545c0.543,1.438 0.814,3.082 0.814,4.931c0,1.576 -0.184,2.972 -0.552,4.189c-0.368,1.217 -0.84,2.224 -1.415,3.022c-0.576,0.797 -1.205,1.424 -1.889,1.882c-0.684,0.457 -1.51,0.804 -2.477,1.04c-0.967,0.236 -2.078,0.354 -3.332,0.354l-7.487,-0Zm2.746,-2.448l4.429,-0c1.368,-0 2.441,-0.128 3.22,-0.383c0.778,-0.254 1.398,-0.613 1.861,-1.075c0.651,-0.651 1.158,-1.526 1.521,-2.625c0.363,-1.099 0.545,-2.432 0.545,-3.998c-0,-2.17 -0.356,-3.838 -1.069,-5.003c-0.712,-1.165 -1.578,-1.946 -2.597,-2.342c-0.735,-0.283 -1.919,-0.424 -3.552,-0.424l-4.358,-0l-0,15.85Z" style="fill-rule:nonzero;"/><path d="M414.271,620.988l2.746,0l-0,11.987c-0,2.085 -0.236,3.741 -0.708,4.967c-0.471,1.227 -1.323,2.224 -2.554,2.993c-1.231,0.769 -2.847,1.154 -4.847,1.154c-1.944,-0 -3.533,-0.335 -4.769,-1.005c-1.236,-0.67 -2.118,-1.639 -2.646,-2.908c-0.529,-1.269 -0.793,-3.003 -0.793,-5.201l0,-11.987l2.745,0l0,11.973c0,1.802 0.168,3.13 0.503,3.983c0.335,0.854 0.91,1.512 1.726,1.975c0.816,0.462 1.814,0.693 2.993,0.693c2.019,0 3.458,-0.458 4.317,-1.373c0.858,-0.915 1.287,-2.674 1.287,-5.278l0,-11.973Z" style="fill-rule:nonzero;"/><path d="M426.866,641.735l0,-18.298l-6.835,-0l0,-2.449l16.444,0l0,2.449l-6.863,-0l-0,18.298l-2.746,-0Z" style="fill-rule:nonzero;"/></g><rect x="78.887" y="450.398" width="108.684" height="108.684" style="fill:none;stroke:#3d3d3d;stroke-width:13.04px;"/><rect x="78.887" y="450.398" width="108.684" height="108.684" style="fill:none;stroke:#3d3d3d;stroke-width:13.04px;"/><rect x="78.887" y="577.196" width="108.684" height="108.684" style="fill:none;stroke:#3d3d3d;stroke-width:13.04px;"/><rect x="78.887" y="703.995" width="108.684" height="108.684" style="fill:none;stroke:#3d3d3d;stroke-width:13.04px;"/><rect x="672.81" y="450.398" width="108.684" height="108.684" style="fill:none;stroke:#3d3d3d;stroke-width:13.04px;"/><rect x="672.81" y="450.398" width="108.684" height="108.684" style="fill:none;stroke:#3d3d3d;stroke-width:13.04px;"/><rect x="672.81" y="577.196" width="108.684" height="108.684" style="fill:none;stroke:#3d3d3d;stroke-width:13.04px;"/><rect x="672.81" y="703.995" width="108.684" height="108.684" style="fill:none;stroke:#3d3d3d;stroke-width:13.04px;"/><path d="M600.513,504.74l72.297,-0" style="fill:none;stroke:#3d3d3d;stroke-width:69.64px;stroke-linecap:butt;stroke-linejoin:miter;"/><path d="M600.354,631.539l72.456,-0" style="fill:none;stroke:#3d3d3d;stroke-width:69.64px;stroke-linecap:butt;stroke-linejoin:miter;"/><path d="M600.513,758.337l72.297,0" style="fill:none;stroke:#3d3d3d;stroke-width:69.64px;stroke-linecap:butt;stroke-linejoin:miter;"/><path d="M728.968,509.771l-0,-5.477l19.773,-0.032l-0,17.322c-3.036,2.42 -6.167,4.24 -9.393,5.461c-3.227,1.22 -6.538,1.831 -9.935,1.831c-4.585,-0 -8.751,-0.982 -12.497,-2.946c-3.747,-1.963 -6.575,-4.802 -8.486,-8.517c-1.91,-3.715 -2.866,-7.865 -2.866,-12.45c0,-4.543 0.95,-8.783 2.85,-12.721c1.9,-3.937 4.633,-6.861 8.199,-8.772c3.566,-1.91 7.674,-2.866 12.323,-2.866c3.375,0 6.426,0.547 9.154,1.64c2.728,1.093 4.866,2.616 6.416,4.569c1.55,1.953 2.728,4.501 3.534,7.642l-5.572,1.529c-0.7,-2.378 -1.571,-4.246 -2.611,-5.604c-1.04,-1.359 -2.526,-2.447 -4.458,-3.264c-1.931,-0.817 -4.075,-1.226 -6.431,-1.226c-2.824,0 -5.265,0.43 -7.324,1.29c-2.059,0.859 -3.72,1.99 -4.983,3.391c-1.263,1.401 -2.245,2.94 -2.945,4.617c-1.189,2.887 -1.783,6.018 -1.783,9.393c-0,4.16 0.716,7.642 2.149,10.444c1.433,2.802 3.518,4.882 6.257,6.241c2.738,1.358 5.646,2.037 8.724,2.037c2.675,0 5.286,-0.514 7.833,-1.544c2.547,-1.029 4.479,-2.128 5.795,-3.295l0,-8.693l-13.723,-0Z" style="fill-rule:nonzero;"/><path d="M728.968,763.368l-0,-5.477l19.773,-0.032l-0,17.322c-3.036,2.42 -6.167,4.24 -9.393,5.461c-3.227,1.22 -6.538,1.831 -9.935,1.831c-4.585,-0 -8.751,-0.982 -12.497,-2.946c-3.747,-1.963 -6.575,-4.802 -8.486,-8.517c-1.91,-3.715 -2.866,-7.865 -2.866,-12.45c0,-4.543 0.95,-8.783 2.85,-12.721c1.9,-3.937 4.633,-6.861 8.199,-8.772c3.566,-1.91 7.674,-2.866 12.323,-2.866c3.375,0 6.426,0.547 9.154,1.64c2.728,1.093 4.866,2.617 6.416,4.569c1.55,1.953 2.728,4.501 3.534,7.642l-5.572,1.529c-0.7,-2.378 -1.571,-4.246 -2.611,-5.604c-1.04,-1.359 -2.526,-2.447 -4.458,-3.264c-1.931,-0.817 -4.075,-1.226 -6.431,-1.226c-2.824,0 -5.265,0.43 -7.324,1.29c-2.059,0.859 -3.72,1.99 -4.983,3.391c-1.263,1.401 -2.245,2.94 -2.945,4.617c-1.189,2.887 -1.783,6.018 -1.783,9.393c-0,4.16 0.716,7.642 2.149,10.444c1.433,2.802 3.518,4.882 6.257,6.241c2.738,1.358 5.646,2.037 8.724,2.037c2.675,0 5.286,-0.514 7.833,-1.544c2.547,-1.029 4.479,-2.128 5.795,-3.295l0,-8.693l-13.723,-0Z" style="fill-rule:nonzero;"/><path d="M708.573,639.881l5.827,-0.51c0.276,2.335 0.918,4.251 1.927,5.748c1.008,1.496 2.573,2.706 4.696,3.63c2.123,0.923 4.511,1.385 7.164,1.385c2.357,-0 4.437,-0.351 6.241,-1.051c1.805,-0.701 3.147,-1.661 4.028,-2.882c0.881,-1.22 1.322,-2.552 1.322,-3.996c-0,-1.464 -0.425,-2.743 -1.274,-3.837c-0.849,-1.093 -2.25,-2.011 -4.203,-2.754c-1.252,-0.488 -4.023,-1.247 -8.311,-2.276c-4.288,-1.03 -7.291,-2.001 -9.011,-2.914c-2.229,-1.167 -3.89,-2.616 -4.983,-4.346c-1.093,-1.73 -1.64,-3.667 -1.64,-5.811c0,-2.357 0.669,-4.559 2.006,-6.607c1.338,-2.049 3.291,-3.604 5.859,-4.665c2.569,-1.061 5.424,-1.592 8.565,-1.592c3.461,-0 6.512,0.557 9.155,1.672c2.643,1.114 4.675,2.754 6.097,4.919c1.423,2.165 2.187,4.617 2.293,7.355l-5.923,0.446c-0.318,-2.95 -1.395,-5.179 -3.231,-6.687c-1.837,-1.507 -4.548,-2.26 -8.136,-2.26c-3.736,-0 -6.458,0.684 -8.167,2.054c-1.709,1.369 -2.563,3.019 -2.563,4.951c-0,1.677 0.605,3.057 1.815,4.139c1.188,1.083 4.293,2.192 9.313,3.328c5.02,1.135 8.465,2.128 10.333,2.977c2.717,1.252 4.723,2.839 6.018,4.76c1.295,1.921 1.942,4.134 1.942,6.639c-0,2.483 -0.711,4.824 -2.133,7.021c-1.423,2.197 -3.466,3.906 -6.13,5.126c-2.664,1.221 -5.662,1.831 -8.995,1.831c-4.224,0 -7.764,-0.615 -10.619,-1.847c-2.855,-1.231 -5.095,-3.083 -6.718,-5.556c-1.624,-2.473 -2.479,-5.27 -2.564,-8.39Z" style="fill-rule:nonzero;"/><path d="M189.079,504.74l70.949,-0" style="fill:none;stroke:#3d3d3d;stroke-width:69.64px;stroke-linecap:butt;stroke-linejoin:miter;"/><path d="M187.572,631.539l72.456,-0" style="fill:none;stroke:#3d3d3d;stroke-width:69.64px;stroke-linecap:butt;stroke-linejoin:miter;"/><path d="M189.079,758.337l70.949,0" style="fill:none;stroke:#3d3d3d;stroke-width:69.64px;stroke-linecap:butt;stroke-linejoin:miter;"/><path d="M135.045,509.771l-0,-5.477l19.773,-0.032l-0,17.322c-3.036,2.42 -6.167,4.24 -9.393,5.461c-3.227,1.22 -6.538,1.831 -9.935,1.831c-4.585,-0 -8.751,-0.982 -12.497,-2.946c-3.747,-1.963 -6.575,-4.802 -8.486,-8.517c-1.91,-3.715 -2.866,-7.865 -2.866,-12.45c0,-4.543 0.95,-8.783 2.85,-12.721c1.9,-3.937 4.633,-6.861 8.199,-8.772c3.566,-1.91 7.674,-2.866 12.323,-2.866c3.375,0 6.426,0.547 9.154,1.64c2.728,1.093 4.867,2.616 6.416,4.569c1.55,1.953 2.728,4.501 3.534,7.642l-5.572,1.529c-0.7,-2.378 -1.571,-4.246 -2.611,-5.604c-1.04,-1.359 -2.526,-2.447 -4.457,-3.264c-1.932,-0.817 -4.076,-1.226 -6.432,-1.226c-2.824,0 -5.265,0.43 -7.324,1.29c-2.059,0.859 -3.72,1.99 -4.983,3.391c-1.263,1.401 -2.245,2.94 -2.945,4.617c-1.189,2.887 -1.783,6.018 -1.783,9.393c-0,4.16 0.716,7.642 2.149,10.444c1.433,2.802 3.518,4.882 6.257,6.241c2.738,1.358 5.646,2.037 8.724,2.037c2.675,0 5.286,-0.514 7.833,-1.544c2.547,-1.029 4.479,-2.128 5.795,-3.295l0,-8.693l-13.723,-0Z" style="fill-rule:nonzero;"/><path d="M135.045,763.368l-0,-5.477l19.773,-0.032l-0,17.322c-3.036,2.42 -6.167,4.24 -9.393,5.461c-3.227,1.22 -6.538,1.831 -9.935,1.831c-4.585,-0 -8.751,-0.982 -12.497,-2.946c-3.747,-1.963 -6.575,-4.802 -8.486,-8.517c-1.91,-3.715 -2.866,-7.865 -2.866,-12.45c0,-4.543 0.95,-8.783 2.85,-12.721c1.9,-3.937 4.633,-6.861 8.199,-8.772c3.566,-1.91 7.674,-2.866 12.323,-2.866c3.375,0 6.426,0.547 9.154,1.64c2.728,1.093 4.867,2.617 6.416,4.569c1.55,1.953 2.728,4.501 3.534,7.642l-5.572,1.529c-0.7,-2.378 -1.571,-4.246 -2.611,-5.604c-1.04,-1.359 -2.526,-2.447 -4.457,-3.264c-1.932,-0.817 -4.076,-1.226 -6.432,-1.226c-2.824,0 -5.265,0.43 -7.324,1.29c-2.059,0.859 -3.72,1.99 -4.983,3.391c-1.263,1.401 -2.245,2.94 -2.945,4.617c-1.189,2.887 -1.783,6.018 -1.783,9.393c-0,4.16 0.716,7.642 2.149,10.444c1.433,2.802 3.518,4.882 6.257,6.241c2.738,1.358 5.646,2.037 8.724,2.037c2.675,0 5.286,-0.514 7.833,-1.544c2.547,-1.029 4.479,-2.128 5.795,-3.295l0,-8.693l-13.723,-0Z" style="fill-rule:nonzero;"/><path d="M114.65,639.881l5.827,-0.51c0.276,2.335 0.918,4.251 1.927,5.748c1.008,1.496 2.574,2.706 4.696,3.63c2.123,0.923 4.511,1.385 7.165,1.385c2.356,-0 4.436,-0.351 6.24,-1.051c1.805,-0.701 3.147,-1.661 4.028,-2.882c0.881,-1.22 1.322,-2.552 1.322,-3.996c-0,-1.464 -0.425,-2.743 -1.274,-3.837c-0.849,-1.093 -2.25,-2.011 -4.203,-2.754c-1.252,-0.488 -4.023,-1.247 -8.311,-2.276c-4.287,-1.03 -7.291,-2.001 -9.011,-2.914c-2.228,-1.167 -3.889,-2.616 -4.983,-4.346c-1.093,-1.73 -1.64,-3.667 -1.64,-5.811c0,-2.357 0.669,-4.559 2.006,-6.607c1.338,-2.049 3.291,-3.604 5.859,-4.665c2.569,-1.061 5.424,-1.592 8.566,-1.592c3.46,-0 6.511,0.557 9.154,1.672c2.643,1.114 4.675,2.754 6.097,4.919c1.423,2.165 2.187,4.617 2.293,7.355l-5.922,0.446c-0.319,-2.95 -1.396,-5.179 -3.232,-6.687c-1.837,-1.507 -4.548,-2.26 -8.136,-2.26c-3.736,-0 -6.458,0.684 -8.167,2.054c-1.709,1.369 -2.563,3.019 -2.563,4.951c-0,1.677 0.605,3.057 1.815,4.139c1.188,1.083 4.293,2.192 9.313,3.328c5.021,1.135 8.465,2.128 10.333,2.977c2.717,1.252 4.723,2.839 6.018,4.76c1.295,1.921 1.942,4.134 1.942,6.639c0,2.483 -0.711,4.824 -2.133,7.021c-1.423,2.197 -3.466,3.906 -6.13,5.126c-2.664,1.221 -5.662,1.831 -8.995,1.831c-4.224,0 -7.764,-0.615 -10.619,-1.847c-2.855,-1.231 -5.094,-3.083 -6.718,-5.556c-1.624,-2.473 -2.479,-5.27 -2.564,-8.39Z" style="fill-rule:nonzero;"/><path d="M298.693,647.557l16.019,-16.018l-15.968,-15.968l6.204,-6.205l15.968,15.968l15.917,-15.917l6.103,6.154l-15.867,15.917l15.968,15.968l-6.204,6.204l-15.968,-15.968l-16.019,16.019l-6.153,-6.154Z" style="fill-rule:nonzero;"/><path d="M49.421,624.521l-49.226,-0l0,-8.544l49.226,0l0,8.544Zm0,22.629l-49.226,0l0,-8.543l49.226,0l0,8.543Z" style="fill-rule:nonzero;"/><path d="M999.701,613.18l-49.226,0l-0,-8.492l49.226,-0l-0,8.492Zm-0,22.681l-49.226,0l-0,-8.543l49.226,-0l-0,8.543Zm-0,22.63l-49.226,-0l-0,-8.544l49.226,0l-0,8.544Z" style="fill-rule:nonzero;"/><path d="M1037.27,681.29l-0,-99.401l13.154,-0l-0,40.818l51.667,-0l-0,-40.818l13.154,-0l-0,99.401l-13.154,0l-0,-46.853l-51.667,0l-0,46.853l-13.154,0Z" style="fill-rule:nonzero;"/><path d="M487.687,647.557l16.019,-16.018l-15.968,-15.968l6.204,-6.205l15.968,15.968l15.917,-15.917l6.102,6.154l-15.866,15.917l15.968,15.968l-6.204,6.204l-15.968,-15.968l-16.019,16.019l-6.153,-6.154Z" style="fill-rule:nonzero;"/><path d="M489.947,206.265l16.019,-16.019l-15.968,-15.968l6.204,-6.204l15.968,15.968l15.917,-15.917l6.102,6.153l-15.866,15.917l15.968,15.968l-6.204,6.204l-15.968,-15.968l-16.019,16.019l-6.153,-6.153Z" style="fill-rule:nonzero;"/><rect x="853.249" y="496.5" width="28.122" height="9.204" style="fill-rule:nonzero;"/><path d="M923.427,528.08l-9.154,-0l-0,-58.329c-2.204,2.102 -5.094,4.204 -8.671,6.306c-3.576,2.102 -6.788,3.678 -9.636,4.729l-0,-8.849c5.119,-2.407 9.594,-5.322 13.425,-8.746c3.831,-3.424 6.543,-6.747 8.137,-9.968l5.899,0l-0,74.857Z" style="fill-rule:nonzero;"/><rect x="1055.63" y="62.769" width="28.122" height="9.204" style="fill-rule:nonzero;"/><path d="M1125.81,94.348l-9.154,0l0,-58.328c-2.203,2.102 -5.094,4.204 -8.67,6.305c-3.577,2.102 -6.789,3.679 -9.637,4.73l0,-8.849c5.119,-2.407 9.594,-5.322 13.425,-8.746c3.831,-3.425 6.544,-6.747 8.137,-9.968l5.899,0l-0,74.856Z" style="fill-rule:nonzero;"/><path d="M599.039,450.398l-26.899,-0l0,361.841l26.899,0" style="fill:none;stroke:#000;stroke-width:17.88px;stroke-linecap:butt;stroke-linejoin:miter;"/><path d="M803.579,450.398l26.899,-0l-0,361.841l-26.899,0" style="fill:none;stroke:#000;stroke-width:17.88px;stroke-linecap:butt;stroke-linejoin:miter;"/><path d="M596.877,16.667l-26.898,-0l-0,362.586l26.898,-0" style="fill:none;stroke:#000;stroke-width:17.88px;stroke-linecap:butt;stroke-linejoin:miter;"/><path d="M1005.96,16.667l26.898,-0l0,362.586l-26.898,-0" style="fill:none;stroke:#000;stroke-width:17.88px;stroke-linecap:butt;stroke-linejoin:miter;"/></g></g><path d="M312.072,908.761c-3.037,-3.831 -5.605,-8.315 -7.704,-13.452c-2.1,-5.136 -3.149,-10.456 -3.149,-15.959c-0,-4.851 0.784,-9.498 2.354,-13.941c1.834,-5.157 4.667,-10.293 8.499,-15.409l3.944,-0c-2.466,4.239 -4.097,7.266 -4.892,9.08c-1.243,2.813 -2.221,5.748 -2.935,8.805c-0.876,3.812 -1.314,7.644 -1.314,11.496c-0,9.804 3.047,19.597 9.141,29.38l-3.944,0Z" style="fill-rule:nonzero;"/><path d="M343.593,883.692l5.411,0.703c-0.591,3.73 -2.104,6.649 -4.54,8.759c-2.435,2.109 -5.427,3.164 -8.973,3.164c-4.443,0 -8.015,-1.452 -10.716,-4.356c-2.7,-2.905 -4.051,-7.068 -4.051,-12.49c0,-3.505 0.581,-6.573 1.743,-9.202c1.162,-2.629 2.93,-4.601 5.304,-5.916c2.375,-1.315 4.958,-1.972 7.751,-1.972c3.526,0 6.41,0.892 8.652,2.675c2.242,1.784 3.679,4.316 4.311,7.598l-5.351,0.825c-0.509,-2.181 -1.411,-3.822 -2.705,-4.922c-1.295,-1.101 -2.859,-1.651 -4.693,-1.651c-2.772,-0 -5.025,0.994 -6.757,2.981c-1.733,1.987 -2.599,5.131 -2.599,9.432c0,4.361 0.836,7.531 2.507,9.508c1.672,1.977 3.852,2.965 6.543,2.965c2.16,0 3.964,-0.662 5.411,-1.987c1.447,-1.325 2.365,-3.363 2.752,-6.114Z" style="fill-rule:nonzero;"/><path d="M357.32,908.761l-3.944,0c6.094,-9.783 9.142,-19.576 9.142,-29.38c-0,-3.832 -0.439,-7.633 -1.315,-11.404c-0.693,-3.057 -1.661,-5.992 -2.904,-8.805c-0.795,-1.834 -2.436,-4.892 -4.923,-9.172l3.944,-0c3.832,5.116 6.665,10.252 8.5,15.409c1.569,4.443 2.354,9.09 2.354,13.941c-0,5.503 -1.055,10.823 -3.165,15.959c-2.109,5.137 -4.672,9.621 -7.689,13.452Z" style="fill-rule:nonzero;"/><path d="M424.642,879.87l5.931,1.498c-1.243,4.871 -3.48,8.586 -6.71,11.144c-3.231,2.558 -7.18,3.837 -11.848,3.837c-4.83,-0 -8.759,-0.984 -11.785,-2.951c-3.027,-1.966 -5.33,-4.815 -6.91,-8.545c-1.58,-3.73 -2.369,-7.735 -2.369,-12.015c-0,-4.667 0.891,-8.739 2.675,-12.214c1.783,-3.475 4.321,-6.114 7.612,-7.918c3.292,-1.804 6.915,-2.706 10.869,-2.706c4.484,-0 8.255,1.141 11.312,3.424c3.058,2.283 5.187,5.493 6.39,9.631l-5.839,1.375c-1.04,-3.261 -2.548,-5.635 -4.525,-7.123c-1.977,-1.488 -4.464,-2.232 -7.46,-2.232c-3.445,0 -6.324,0.826 -8.637,2.477c-2.313,1.65 -3.939,3.867 -4.876,6.649c-0.938,2.782 -1.407,5.651 -1.407,8.607c0,3.811 0.556,7.138 1.666,9.982c1.111,2.843 2.839,4.968 5.183,6.374c2.344,1.406 4.881,2.11 7.612,2.11c3.323,-0 6.135,-0.958 8.438,-2.874c2.304,-1.916 3.863,-4.759 4.678,-8.53Z" style="fill-rule:nonzero;"/><path d="M458.364,891.579c-2.038,1.733 -4,2.956 -5.885,3.669c-1.885,0.714 -3.908,1.07 -6.069,1.07c-3.567,0 -6.308,-0.871 -8.224,-2.614c-1.916,-1.742 -2.874,-3.969 -2.874,-6.68c0,-1.59 0.362,-3.042 1.085,-4.357c0.724,-1.314 1.672,-2.369 2.844,-3.164c1.172,-0.795 2.491,-1.396 3.959,-1.804c1.08,-0.285 2.711,-0.56 4.892,-0.825c4.443,-0.53 7.714,-1.162 9.814,-1.896c0.02,-0.754 0.03,-1.233 0.03,-1.437c0,-2.242 -0.52,-3.821 -1.559,-4.739c-1.406,-1.243 -3.496,-1.865 -6.268,-1.865c-2.588,0 -4.499,0.454 -5.732,1.361c-1.233,0.907 -2.145,2.512 -2.736,4.815l-5.381,-0.734c0.489,-2.303 1.294,-4.163 2.415,-5.579c1.121,-1.417 2.742,-2.507 4.861,-3.271c2.12,-0.765 4.576,-1.147 7.368,-1.147c2.772,0 5.025,0.326 6.757,0.978c1.733,0.653 3.006,1.473 3.822,2.462c0.815,0.988 1.386,2.237 1.712,3.745c0.183,0.937 0.275,2.629 0.275,5.075l-0,7.337c-0,5.116 0.117,8.352 0.352,9.707c0.234,1.356 0.698,2.655 1.391,3.898l-5.748,0c-0.571,-1.141 -0.938,-2.476 -1.101,-4.005Zm-0.458,-12.29c-1.998,0.815 -4.994,1.508 -8.989,2.079c-2.262,0.326 -3.862,0.693 -4.8,1.101c-0.937,0.407 -1.661,1.003 -2.171,1.788c-0.509,0.785 -0.764,1.656 -0.764,2.614c0,1.468 0.556,2.691 1.666,3.669c1.111,0.978 2.737,1.467 4.877,1.467c2.12,0 4.005,-0.463 5.656,-1.391c1.651,-0.927 2.863,-2.196 3.638,-3.806c0.591,-1.243 0.887,-3.078 0.887,-5.503l-0,-2.018Z" style="fill-rule:nonzero;"/><rect x="471.878" y="850.764" width="5.503" height="44.82" style="fill-rule:nonzero;"/><path d="M507.098,883.692l5.411,0.703c-0.591,3.73 -2.104,6.649 -4.54,8.759c-2.436,2.109 -5.427,3.164 -8.973,3.164c-4.443,0 -8.015,-1.452 -10.716,-4.356c-2.701,-2.905 -4.051,-7.068 -4.051,-12.49c0,-3.505 0.581,-6.573 1.743,-9.202c1.161,-2.629 2.93,-4.601 5.304,-5.916c2.375,-1.315 4.958,-1.972 7.75,-1.972c3.527,0 6.411,0.892 8.653,2.675c2.242,1.784 3.679,4.316 4.31,7.598l-5.35,0.825c-0.509,-2.181 -1.411,-3.822 -2.706,-4.922c-1.294,-1.101 -2.858,-1.651 -4.693,-1.651c-2.772,-0 -5.024,0.994 -6.756,2.981c-1.733,1.987 -2.599,5.131 -2.599,9.432c0,4.361 0.836,7.531 2.507,9.508c1.671,1.977 3.852,2.965 6.543,2.965c2.16,0 3.964,-0.662 5.411,-1.987c1.447,-1.325 2.364,-3.363 2.752,-6.114Z" style="fill-rule:nonzero;"/><path d="M538.496,895.584l0,-4.769c-2.527,3.669 -5.961,5.503 -10.303,5.503c-1.916,0 -3.704,-0.367 -5.365,-1.1c-1.662,-0.734 -2.895,-1.656 -3.7,-2.767c-0.805,-1.111 -1.37,-2.472 -1.697,-4.082c-0.224,-1.08 -0.336,-2.792 -0.336,-5.136l0,-20.117l5.503,-0l0,18.007c0,2.874 0.112,4.811 0.337,5.809c0.346,1.447 1.08,2.584 2.201,3.409c1.121,0.826 2.507,1.238 4.158,1.238c1.651,0 3.2,-0.423 4.647,-1.268c1.447,-0.846 2.471,-1.998 3.072,-3.455c0.602,-1.457 0.902,-3.572 0.902,-6.344l0,-17.396l5.504,-0l-0,32.468l-4.923,0Z" style="fill-rule:nonzero;"/><rect x="551.918" y="850.764" width="5.503" height="44.82" style="fill-rule:nonzero;"/><path d="M587.138,891.579c-2.038,1.733 -4,2.956 -5.885,3.669c-1.886,0.714 -3.909,1.07 -6.069,1.07c-3.567,0 -6.308,-0.871 -8.224,-2.614c-1.916,-1.742 -2.874,-3.969 -2.874,-6.68c-0,-1.59 0.362,-3.042 1.085,-4.357c0.724,-1.314 1.672,-2.369 2.844,-3.164c1.172,-0.795 2.491,-1.396 3.959,-1.804c1.08,-0.285 2.711,-0.56 4.891,-0.825c4.444,-0.53 7.715,-1.162 9.814,-1.896c0.021,-0.754 0.031,-1.233 0.031,-1.437c0,-2.242 -0.52,-3.821 -1.559,-4.739c-1.407,-1.243 -3.496,-1.865 -6.268,-1.865c-2.588,0 -4.499,0.454 -5.732,1.361c-1.233,0.907 -2.145,2.512 -2.736,4.815l-5.381,-0.734c0.489,-2.303 1.294,-4.163 2.415,-5.579c1.121,-1.417 2.741,-2.507 4.861,-3.271c2.12,-0.765 4.576,-1.147 7.368,-1.147c2.772,0 5.024,0.326 6.757,0.978c1.732,0.653 3.006,1.473 3.822,2.462c0.815,0.988 1.385,2.237 1.712,3.745c0.183,0.937 0.275,2.629 0.275,5.075l-0,7.337c-0,5.116 0.117,8.352 0.351,9.707c0.235,1.356 0.698,2.655 1.391,3.898l-5.747,0c-0.571,-1.141 -0.938,-2.476 -1.101,-4.005Zm-0.459,-12.29c-1.997,0.815 -4.993,1.508 -8.988,2.079c-2.262,0.326 -3.862,0.693 -4.8,1.101c-0.938,0.407 -1.661,1.003 -2.171,1.788c-0.509,0.785 -0.764,1.656 -0.764,2.614c-0,1.468 0.555,2.691 1.666,3.669c1.111,0.978 2.737,1.467 4.877,1.467c2.119,0 4.005,-0.463 5.656,-1.391c1.651,-0.927 2.863,-2.196 3.638,-3.806c0.591,-1.243 0.886,-3.078 0.886,-5.503l0,-2.018Z" style="fill-rule:nonzero;"/><path d="M612.789,890.662l0.795,4.861c-1.549,0.326 -2.935,0.489 -4.158,0.489c-1.998,0 -3.547,-0.315 -4.647,-0.947c-1.101,-0.632 -1.875,-1.463 -2.324,-2.492c-0.448,-1.029 -0.672,-3.195 -0.672,-6.497l-0,-18.68l-4.036,0l-0,-4.28l4.036,-0l-0,-8.041l5.472,-3.302l0,11.343l5.534,-0l-0,4.28l-5.534,0l0,18.986c0,1.569 0.097,2.578 0.291,3.027c0.193,0.448 0.509,0.805 0.947,1.07c0.439,0.265 1.065,0.397 1.881,0.397c0.611,0 1.416,-0.071 2.415,-0.214Z" style="fill-rule:nonzero;"/><path d="M618.2,857.093l0,-6.329l5.503,0l0,6.329l-5.503,-0Zm0,38.491l0,-32.468l5.503,-0l0,32.468l-5.503,0Z" style="fill-rule:nonzero;"/><path d="M630.032,879.35c0,-6.013 1.671,-10.466 5.014,-13.36c2.792,-2.405 6.196,-3.608 10.211,-3.608c4.464,0 8.113,1.463 10.946,4.387c2.833,2.925 4.249,6.966 4.249,12.123c0,4.178 -0.626,7.464 -1.88,9.859c-1.253,2.395 -3.078,4.255 -5.473,5.58c-2.394,1.325 -5.008,1.987 -7.842,1.987c-4.545,0 -8.219,-1.457 -11.021,-4.372c-2.803,-2.914 -4.204,-7.113 -4.204,-12.596Zm5.656,0c0,4.158 0.907,7.271 2.721,9.34c1.814,2.069 4.097,3.103 6.848,3.103c2.732,0 5.004,-1.039 6.818,-3.118c1.814,-2.079 2.721,-5.248 2.721,-9.508c0,-4.016 -0.912,-7.058 -2.736,-9.126c-1.824,-2.069 -4.092,-3.104 -6.803,-3.104c-2.751,0 -5.034,1.03 -6.848,3.088c-1.814,2.059 -2.721,5.167 -2.721,9.325Z" style="fill-rule:nonzero;"/><path d="M666.903,895.584l0,-32.468l4.953,-0l0,4.616c2.385,-3.566 5.829,-5.35 10.334,-5.35c1.956,0 3.755,0.352 5.396,1.055c1.641,0.703 2.869,1.625 3.684,2.767c0.815,1.141 1.386,2.497 1.712,4.066c0.204,1.019 0.306,2.802 0.306,5.35l-0,19.964l-5.503,0l-0,-19.75c-0,-2.242 -0.214,-3.918 -0.642,-5.029c-0.428,-1.111 -1.188,-1.997 -2.278,-2.66c-1.091,-0.662 -2.37,-0.994 -3.837,-0.994c-2.344,0 -4.367,0.744 -6.069,2.232c-1.702,1.488 -2.553,4.311 -2.553,8.469l0,17.732l-5.503,0Z" style="fill-rule:nonzero;"/><path d="M717.074,879.35c-0,-6.013 1.671,-10.466 5.014,-13.36c2.792,-2.405 6.196,-3.608 10.211,-3.608c4.464,0 8.112,1.463 10.945,4.387c2.833,2.925 4.25,6.966 4.25,12.123c-0,4.178 -0.627,7.464 -1.88,9.859c-1.254,2.395 -3.078,4.255 -5.473,5.58c-2.395,1.325 -5.009,1.987 -7.842,1.987c-4.545,0 -8.219,-1.457 -11.022,-4.372c-2.802,-2.914 -4.203,-7.113 -4.203,-12.596Zm5.656,0c-0,4.158 0.907,7.271 2.721,9.34c1.814,2.069 4.096,3.103 6.848,3.103c2.731,0 5.004,-1.039 6.818,-3.118c1.814,-2.079 2.721,-5.248 2.721,-9.508c-0,-4.016 -0.912,-7.058 -2.736,-9.126c-1.825,-2.069 -4.092,-3.104 -6.803,-3.104c-2.752,0 -5.034,1.03 -6.848,3.088c-1.814,2.059 -2.721,5.167 -2.721,9.325Z" style="fill-rule:nonzero;"/><path d="M755.259,895.584l0,-28.188l-4.861,0l0,-4.28l4.861,-0l0,-3.455c0,-2.181 0.194,-3.801 0.581,-4.861c0.53,-1.427 1.463,-2.583 2.798,-3.47c1.335,-0.887 3.205,-1.33 5.61,-1.33c1.549,-0 3.261,0.183 5.136,0.55l-0.825,4.8c-1.142,-0.204 -2.222,-0.305 -3.241,-0.305c-1.671,-0 -2.854,0.356 -3.547,1.07c-0.692,0.713 -1.039,2.048 -1.039,4.005l0,2.996l6.329,-0l-0,4.28l-6.329,0l0,28.188l-5.473,0Z" style="fill-rule:nonzero;"/><path d="M789.624,895.584l-0,-44.82l5.931,0l-0,18.405l23.296,0l0,-18.405l5.932,0l-0,44.82l-5.932,0l0,-21.126l-23.296,0l-0,21.126l-5.931,0Z" style="fill-rule:nonzero;"/></g></svg>