<?xml version="1.0" encoding="UTF-8" standalone="no"?><!DOCTYPE svg PUBLIC "-//W3C//DTD SVG 1.1//EN" "http://www.w3.org/Graphics/SVG/1.1/DTD/svg11.dtd"><svg width="100%" height="100%" viewBox="0 0 2109 980" version="1.1" xmlns="http://www.w3.org/2000/svg" xmlns:xlink="http://www.w3.org/1999/xlink" xml:space="preserve" xmlns:serif="http://www.serif.com/" style="fill-rule:evenodd;clip-rule:evenodd;stroke-linecap:round;stroke-linejoin:round;stroke-miterlimit:1.5;"><g><g><rect x="12.5" y="12.5" width="250" height="250" style="fill:none;stroke:#3d3d3d;stroke-width:20.83px;"/><rect x="12.5" y="12.5" width="250" height="250" style="fill:none;stroke:#3d3d3d;stroke-width:20.83px;"/><rect x="12.5" y="304.167" width="250" height="250" style="fill:none;stroke:#3d3d3d;stroke-width:20.83px;"/><rect x="12.5" y="595.833" width="250" height="250" style="fill:none;stroke:#3d3d3d;stroke-width:20.83px;"/><rect x="762.5" y="12.5" width="250" height="250" style="fill:none;stroke:#3d3d3d;stroke-width:20.83px;"/><rect x="762.5" y="12.5" width="250" height="250" style="fill:none;stroke:#3d3d3d;stroke-width:20.83px;"/><rect x="762.5" y="304.167" width="250" height="250" style="fill:none;stroke:#3d3d3d;stroke-width:20.83px;"/><rect x="762.5" y="595.833" width="250" height="250" style="fill:none;stroke:#3d3d3d;stroke-width:20.83px;"/><path d="M262.5,179.167l250,-0" style="fill:none;stroke:#3d3d3d;stroke-width:111.23px;stroke-linecap:butt;stroke-linejoin:miter;"/><path d="M262.5,429.167l166.667,-0" style="fill:none;stroke:#3d3d3d;stroke-width:111.23px;stroke-linecap:butt;stroke-linejoin:miter;"/><path d="M262.5,679.167l250,-0" style="fill:none;stroke:#3d3d3d;stroke-width:111.23px;stroke-linecap:butt;stroke-linejoin:miter;"/><path d="M512.5,179.167l250,-0" style="fill:none;stroke:#3d3d3d;stroke-width:111.23px;stroke-linecap:butt;stroke-linejoin:miter;"/><path d="M595.833,429.167l166.667,-0" style="fill:none;stroke:#3d3d3d;stroke-width:111.23px;stroke-linecap:butt;stroke-linejoin:miter;"/><path d="M512.5,679.167l250,-0" style="fill:none;stroke:#3d3d3d;stroke-width:111.23px;stroke-linecap:butt;stroke-linejoin:miter;"/><rect x="429.167" y="345.833" width="168.75" height="166.667" style="fill:#ff9797;stroke:#000;stroke-width:10.24px;stroke-linecap:butt;stroke-linejoin:miter;"/><path d="M141.675,149.072l-0,-12.597l45.483,-0.074l0,39.844c-6.982,5.567 -14.184,9.754 -21.606,12.561c-7.422,2.808 -15.039,4.212 -22.852,4.212c-10.547,-0 -20.129,-2.259 -28.747,-6.775c-8.619,-4.517 -15.125,-11.048 -19.519,-19.593c-4.395,-8.545 -6.592,-18.09 -6.592,-28.637c-0,-10.45 2.185,-20.203 6.555,-29.261c4.37,-9.057 10.657,-15.783 18.86,-20.178c8.203,-4.394 17.651,-6.592 28.345,-6.592c7.763,0 14.782,1.258 21.057,3.772c6.274,2.515 11.194,6.018 14.758,10.511c3.564,4.492 6.274,10.351 8.13,17.578l-12.818,3.515c-1.611,-5.468 -3.613,-9.765 -6.005,-12.89c-2.393,-3.125 -5.811,-5.628 -10.254,-7.508c-4.444,-1.879 -9.375,-2.819 -14.795,-2.819c-6.494,-0 -12.11,0.988 -16.846,2.966c-4.736,1.977 -8.557,4.578 -11.462,7.8c-2.906,3.223 -5.164,6.763 -6.775,10.62c-2.735,6.641 -4.102,13.843 -4.102,21.607c0,9.57 1.648,17.578 4.944,24.023c3.296,6.446 8.093,11.231 14.392,14.356c6.299,3.125 12.988,4.687 20.069,4.687c6.152,0 12.158,-1.184 18.017,-3.552c5.859,-2.368 10.303,-4.895 13.33,-7.581l0,-19.995l-31.567,0Z" style="fill-rule:nonzero;"/><path d="M141.675,732.406l-0,-12.598l45.483,-0.073l0,39.843c-6.982,5.567 -14.184,9.754 -21.606,12.561c-7.422,2.808 -15.039,4.212 -22.852,4.212c-10.547,-0 -20.129,-2.258 -28.747,-6.775c-8.619,-4.517 -15.125,-11.047 -19.519,-19.592c-4.395,-8.545 -6.592,-18.091 -6.592,-28.638c-0,-10.449 2.185,-20.203 6.555,-29.26c4.37,-9.058 10.657,-15.784 18.86,-20.178c8.203,-4.395 17.651,-6.592 28.345,-6.592c7.763,-0 14.782,1.257 21.057,3.772c6.274,2.514 11.194,6.018 14.758,10.51c3.564,4.492 6.274,10.352 8.13,17.578l-12.818,3.516c-1.611,-5.469 -3.613,-9.766 -6.005,-12.891c-2.393,-3.125 -5.811,-5.627 -10.254,-7.507c-4.444,-1.88 -9.375,-2.82 -14.795,-2.82c-6.494,-0 -12.11,0.989 -16.846,2.966c-4.736,1.978 -8.557,4.578 -11.462,7.801c-2.906,3.222 -5.164,6.762 -6.775,10.62c-2.735,6.64 -4.102,13.842 -4.102,21.606c0,9.57 1.648,17.578 4.944,24.024c3.296,6.445 8.093,11.23 14.392,14.355c6.299,3.125 12.988,4.688 20.069,4.688c6.152,-0 12.158,-1.185 18.017,-3.553c5.859,-2.368 10.303,-4.895 13.33,-7.58l0,-19.995l-31.567,-0Z" style="fill-rule:nonzero;"/><path d="M94.763,448.356l13.404,-1.172c0.634,5.371 2.111,9.778 4.431,13.22c2.319,3.443 5.92,6.226 10.803,8.35c4.883,2.124 10.376,3.186 16.479,3.186c5.42,0 10.205,-0.806 14.356,-2.417c4.15,-1.611 7.239,-3.821 9.265,-6.628c2.026,-2.808 3.04,-5.872 3.04,-9.192c-0,-3.369 -0.977,-6.311 -2.93,-8.826c-1.953,-2.515 -5.176,-4.626 -9.668,-6.335c-2.881,-1.123 -9.253,-2.869 -19.116,-5.237c-9.864,-2.368 -16.773,-4.602 -20.728,-6.702c-5.127,-2.685 -8.948,-6.018 -11.462,-9.997c-2.515,-3.98 -3.772,-8.435 -3.772,-13.367c-0,-5.42 1.538,-10.486 4.614,-15.198c3.076,-4.712 7.568,-8.288 13.477,-10.73c5.908,-2.441 12.475,-3.662 19.702,-3.662c7.959,0 14.978,1.282 21.057,3.845c6.079,2.564 10.754,6.336 14.026,11.316c3.271,4.981 5.029,10.62 5.273,16.919l-13.623,1.026c-0.732,-6.788 -3.21,-11.915 -7.434,-15.381c-4.224,-3.467 -10.461,-5.2 -18.713,-5.2c-8.594,-0 -14.856,1.574 -18.787,4.724c-3.931,3.149 -5.896,6.945 -5.896,11.389c0,3.857 1.392,7.031 4.175,9.521c2.734,2.491 9.875,5.042 21.423,7.654c11.548,2.612 19.47,4.895 23.767,6.848c6.25,2.881 10.865,6.531 13.843,10.95c2.979,4.419 4.468,9.509 4.468,15.271c-0,5.713 -1.636,11.096 -4.907,16.15c-3.272,5.054 -7.972,8.984 -14.1,11.792c-6.127,2.807 -13.024,4.211 -20.69,4.211c-9.717,0 -17.859,-1.416 -24.427,-4.248c-6.567,-2.832 -11.718,-7.092 -15.454,-12.781c-3.735,-5.688 -5.701,-12.121 -5.896,-19.299Z" style="fill-rule:nonzero;"/><path d="M448.275,452.62l-0,-47.721l16.439,0c3.71,0 6.543,0.228 8.496,0.684c2.734,0.629 5.067,1.768 6.998,3.418c2.518,2.126 4.4,4.844 5.648,8.154c1.248,3.309 1.872,7.091 1.872,11.344c-0,3.624 -0.423,6.836 -1.27,9.636c-0.846,2.799 -1.931,5.116 -3.255,6.95c-1.324,1.833 -2.772,3.277 -4.346,4.329c-1.573,1.053 -3.472,1.85 -5.696,2.393c-2.225,0.542 -4.78,0.813 -7.666,0.813l-17.22,0Zm6.315,-5.631l10.189,-0c3.146,-0 5.615,-0.293 7.405,-0.879c1.791,-0.586 3.217,-1.411 4.281,-2.474c1.497,-1.497 2.664,-3.51 3.499,-6.038c0.836,-2.529 1.253,-5.594 1.253,-9.196c0,-4.992 -0.819,-8.827 -2.457,-11.507c-1.639,-2.681 -3.63,-4.476 -5.974,-5.388c-1.692,-0.651 -4.416,-0.976 -8.17,-0.976l-10.026,-0l-0,36.458Z" style="fill-rule:nonzero;"/><path d="M527.734,404.899l6.315,0l0,27.572c0,4.796 -0.542,8.604 -1.627,11.425c-1.085,2.822 -3.044,5.117 -5.876,6.885c-2.832,1.769 -6.548,2.653 -11.149,2.653c-4.47,0 -8.127,-0.77 -10.97,-2.311c-2.843,-1.541 -4.872,-3.771 -6.087,-6.689c-1.215,-2.919 -1.823,-6.907 -1.823,-11.963l-0,-27.572l6.315,0l0,27.539c0,4.145 0.385,7.2 1.156,9.164c0.77,1.964 2.094,3.477 3.971,4.541c1.877,1.063 4.172,1.595 6.885,1.595c4.644,-0 7.953,-1.053 9.928,-3.158c1.975,-2.105 2.962,-6.152 2.962,-12.142l0,-27.539Z" style="fill-rule:nonzero;"/><path d="M556.706,452.62l-0,-42.089l-15.723,-0l0,-5.632l37.826,0l-0,5.632l-15.788,-0l-0,42.089l-6.315,0Z" style="fill-rule:nonzero;"/><path d="M891.675,149.072l-0,-12.597l45.483,-0.074l0,39.844c-6.982,5.567 -14.184,9.754 -21.606,12.561c-7.422,2.808 -15.039,4.212 -22.852,4.212c-10.547,-0 -20.129,-2.259 -28.747,-6.775c-8.619,-4.517 -15.125,-11.048 -19.519,-19.593c-4.395,-8.545 -6.592,-18.09 -6.592,-28.637c-0,-10.45 2.185,-20.203 6.555,-29.261c4.37,-9.057 10.657,-15.783 18.86,-20.178c8.203,-4.394 17.651,-6.592 28.345,-6.592c7.763,0 14.782,1.258 21.057,3.772c6.274,2.515 11.194,6.018 14.758,10.511c3.564,4.492 6.274,10.351 8.13,17.578l-12.818,3.515c-1.611,-5.468 -3.613,-9.765 -6.005,-12.89c-2.393,-3.125 -5.811,-5.628 -10.254,-7.508c-4.444,-1.879 -9.375,-2.819 -14.795,-2.819c-6.494,-0 -12.11,0.988 -16.846,2.966c-4.736,1.977 -8.557,4.578 -11.462,7.8c-2.906,3.223 -5.164,6.763 -6.775,10.62c-2.735,6.641 -4.102,13.843 -4.102,21.607c0,9.57 1.648,17.578 4.944,24.023c3.296,6.446 8.093,11.231 14.392,14.356c6.299,3.125 12.988,4.687 20.069,4.687c6.152,0 12.158,-1.184 18.017,-3.552c5.859,-2.368 10.303,-4.895 13.33,-7.581l0,-19.995l-31.567,0Z" style="fill-rule:nonzero;"/><path d="M891.675,732.406l-0,-12.598l45.483,-0.073l0,39.843c-6.982,5.567 -14.184,9.754 -21.606,12.561c-7.422,2.808 -15.039,4.212 -22.852,4.212c-10.547,-0 -20.129,-2.258 -28.747,-6.775c-8.619,-4.517 -15.125,-11.047 -19.519,-19.592c-4.395,-8.545 -6.592,-18.091 -6.592,-28.638c-0,-10.449 2.185,-20.203 6.555,-29.26c4.37,-9.058 10.657,-15.784 18.86,-20.178c8.203,-4.395 17.651,-6.592 28.345,-6.592c7.763,-0 14.782,1.257 21.057,3.772c6.274,2.514 11.194,6.018 14.758,10.51c3.564,4.492 6.274,10.352 8.13,17.578l-12.818,3.516c-1.611,-5.469 -3.613,-9.766 -6.005,-12.891c-2.393,-3.125 -5.811,-5.627 -10.254,-7.507c-4.444,-1.88 -9.375,-2.82 -14.795,-2.82c-6.494,-0 -12.11,0.989 -16.846,2.966c-4.736,1.978 -8.557,4.578 -11.462,7.801c-2.906,3.222 -5.164,6.762 -6.775,10.62c-2.735,6.64 -4.102,13.842 -4.102,21.606c0,9.57 1.648,17.578 4.944,24.024c3.296,6.445 8.093,11.23 14.392,14.355c6.299,3.125 12.988,4.688 20.069,4.688c6.152,-0 12.158,-1.185 18.017,-3.553c5.859,-2.368 10.303,-4.895 13.33,-7.58l0,-19.995l-31.567,-0Z" style="fill-rule:nonzero;"/><path d="M844.763,448.356l13.404,-1.172c0.634,5.371 2.111,9.778 4.431,13.22c2.319,3.443 5.92,6.226 10.803,8.35c4.883,2.124 10.376,3.186 16.479,3.186c5.42,0 10.205,-0.806 14.356,-2.417c4.15,-1.611 7.239,-3.821 9.265,-6.628c2.026,-2.808 3.04,-5.872 3.04,-9.192c-0,-3.369 -0.977,-6.311 -2.93,-8.826c-1.953,-2.515 -5.176,-4.626 -9.668,-6.335c-2.881,-1.123 -9.253,-2.869 -19.116,-5.237c-9.864,-2.368 -16.773,-4.602 -20.728,-6.702c-5.127,-2.685 -8.948,-6.018 -11.462,-9.997c-2.515,-3.98 -3.772,-8.435 -3.772,-13.367c-0,-5.42 1.538,-10.486 4.614,-15.198c3.076,-4.712 7.568,-8.288 13.477,-10.73c5.908,-2.441 12.475,-3.662 19.702,-3.662c7.959,0 14.978,1.282 21.057,3.845c6.079,2.564 10.754,6.336 14.026,11.316c3.271,4.981 5.029,10.62 5.273,16.919l-13.623,1.026c-0.732,-6.788 -3.21,-11.915 -7.434,-15.381c-4.224,-3.467 -10.461,-5.2 -18.713,-5.2c-8.594,-0 -14.856,1.574 -18.787,4.724c-3.931,3.149 -5.896,6.945 -5.896,11.389c0,3.857 1.392,7.031 4.175,9.521c2.734,2.491 9.875,5.042 21.423,7.654c11.548,2.612 19.47,4.895 23.767,6.848c6.25,2.881 10.865,6.531 13.843,10.95c2.979,4.419 4.468,9.509 4.468,15.271c-0,5.713 -1.636,11.096 -4.907,16.15c-3.272,5.054 -7.972,8.984 -14.1,11.792c-6.127,2.807 -13.024,4.211 -20.69,4.211c-9.717,0 -17.859,-1.416 -24.427,-4.248c-6.567,-2.832 -11.718,-7.092 -15.454,-12.781c-3.735,-5.688 -5.701,-12.121 -5.896,-19.299Z" style="fill-rule:nonzero;"/></g><g><rect x="1262.5" y="12.5" width="250" height="250" style="fill:none;stroke:#3d3d3d;stroke-width:20.83px;"/><rect x="1262.5" y="12.5" width="250" height="250" style="fill:none;stroke:#3d3d3d;stroke-width:20.83px;"/><rect x="1262.5" y="304.167" width="250" height="250" style="fill:none;stroke:#3d3d3d;stroke-width:20.83px;"/><rect x="1262.5" y="595.833" width="250" height="250" style="fill:none;stroke:#3d3d3d;stroke-width:20.83px;"/><rect x="1845.83" y="12.5" width="250" height="250" style="fill:none;stroke:#3d3d3d;stroke-width:20.83px;"/><rect x="1845.83" y="12.5" width="250" height="250" style="fill:none;stroke:#3d3d3d;stroke-width:20.83px;"/><rect x="1845.83" y="304.167" width="250" height="250" style="fill:none;stroke:#3d3d3d;stroke-width:20.83px;"/><rect x="1845.83" y="595.833" width="250" height="250" style="fill:none;stroke:#3d3d3d;stroke-width:20.83px;"/><path d="M1512.5,179.167l250,-0" style="fill:none;stroke:#3d3d3d;stroke-width:111.23px;stroke-linecap:butt;stroke-linejoin:miter;"/><path d="M1512.5,429.167l166.667,-0" style="fill:none;stroke:#3d3d3d;stroke-width:111.23px;stroke-linecap:butt;stroke-linejoin:miter;"/><path d="M1512.5,679.167l250,-0" style="fill:none;stroke:#3d3d3d;stroke-width:111.23px;stroke-linecap:butt;stroke-linejoin:miter;"/><path d="M1595.83,179.167l250,-0" style="fill:none;stroke:#3d3d3d;stroke-width:111.23px;stroke-linecap:butt;stroke-linejoin:miter;"/><path d="M1679.17,429.167l166.666,-0" style="fill:none;stroke:#3d3d3d;stroke-width:111.23px;stroke-linecap:butt;stroke-linejoin:miter;"/><path d="M1595.83,679.167l250,-0" style="fill:none;stroke:#3d3d3d;stroke-width:111.23px;stroke-linecap:butt;stroke-linejoin:miter;"/><path d="M1391.67,149.072l-0,-12.597l45.483,-0.074l0,39.844c-6.982,5.567 -14.184,9.754 -21.606,12.561c-7.422,2.808 -15.039,4.212 -22.852,4.212c-10.547,-0 -20.129,-2.259 -28.747,-6.775c-8.619,-4.517 -15.125,-11.048 -19.519,-19.593c-4.395,-8.545 -6.592,-18.09 -6.592,-28.637c-0,-10.45 2.185,-20.203 6.555,-29.261c4.37,-9.057 10.657,-15.783 18.86,-20.178c8.203,-4.394 17.651,-6.592 28.345,-6.592c7.763,0 14.782,1.258 21.057,3.772c6.274,2.515 11.194,6.018 14.758,10.511c3.564,4.492 6.274,10.351 8.13,17.578l-12.818,3.515c-1.611,-5.468 -3.613,-9.765 -6.005,-12.89c-2.393,-3.125 -5.811,-5.628 -10.254,-7.508c-4.444,-1.879 -9.375,-2.819 -14.795,-2.819c-6.494,-0 -12.11,0.988 -16.846,2.966c-4.736,1.977 -8.557,4.578 -11.462,7.8c-2.906,3.223 -5.164,6.763 -6.775,10.62c-2.735,6.641 -4.102,13.843 -4.102,21.607c0,9.57 1.648,17.578 4.944,24.023c3.296,6.446 8.093,11.231 14.392,14.356c6.299,3.125 12.988,4.687 20.069,4.687c6.152,0 12.158,-1.184 18.017,-3.552c5.859,-2.368 10.303,-4.895 13.33,-7.581l0,-19.995l-31.567,0Z" style="fill-rule:nonzero;"/><path d="M1391.67,732.406l-0,-12.598l45.483,-0.073l0,39.843c-6.982,5.567 -14.184,9.754 -21.606,12.561c-7.422,2.808 -15.039,4.212 -22.852,4.212c-10.547,-0 -20.129,-2.258 -28.747,-6.775c-8.619,-4.517 -15.125,-11.047 -19.519,-19.592c-4.395,-8.545 -6.592,-18.091 -6.592,-28.638c-0,-10.449 2.185,-20.203 6.555,-29.26c4.37,-9.058 10.657,-15.784 18.86,-20.178c8.203,-4.395 17.651,-6.592 28.345,-6.592c7.763,-0 14.782,1.257 21.057,3.772c6.274,2.514 11.194,6.018 14.758,10.51c3.564,4.492 6.274,10.352 8.13,17.578l-12.818,3.516c-1.611,-5.469 -3.613,-9.766 -6.005,-12.891c-2.393,-3.125 -5.811,-5.627 -10.254,-7.507c-4.444,-1.88 -9.375,-2.82 -14.795,-2.82c-6.494,-0 -12.11,0.989 -16.846,2.966c-4.736,1.978 -8.557,4.578 -11.462,7.801c-2.906,3.222 -5.164,6.762 -6.775,10.62c-2.735,6.64 -4.102,13.842 -4.102,21.606c0,9.57 1.648,17.578 4.944,24.024c3.296,6.445 8.093,11.23 14.392,14.355c6.299,3.125 12.988,4.688 20.069,4.688c6.152,-0 12.158,-1.185 18.017,-3.553c5.859,-2.368 10.303,-4.895 13.33,-7.58l0,-19.995l-31.567,-0Z" style="fill-rule:nonzero;"/><path d="M1344.76,448.356l13.404,-1.172c0.634,5.371 2.111,9.778 4.431,13.22c2.319,3.443 5.92,6.226 10.803,8.35c4.883,2.124 10.376,3.186 16.479,3.186c5.42,0 10.205,-0.806 14.356,-2.417c4.15,-1.611 7.239,-3.821 9.265,-6.628c2.026,-2.808 3.04,-5.872 3.04,-9.192c-0,-3.369 -0.977,-6.311 -2.93,-8.826c-1.953,-2.515 -5.176,-4.626 -9.668,-6.335c-2.881,-1.123 -9.253,-2.869 -19.116,-5.237c-9.864,-2.368 -16.773,-4.602 -20.728,-6.702c-5.127,-2.685 -8.948,-6.018 -11.462,-9.997c-2.515,-3.98 -3.772,-8.435 -3.772,-13.367c-0,-5.42 1.538,-10.486 4.614,-15.198c3.076,-4.712 7.568,-8.288 13.477,-10.73c5.908,-2.441 12.475,-3.662 19.702,-3.662c7.959,0 14.978,1.282 21.057,3.845c6.079,2.564 10.754,6.336 14.026,11.316c3.271,4.981 5.029,10.62 5.273,16.919l-13.623,1.026c-0.732,-6.788 -3.21,-11.915 -7.434,-15.381c-4.224,-3.467 -10.461,-5.2 -18.713,-5.2c-8.594,-0 -14.856,1.574 -18.787,4.724c-3.931,3.149 -5.896,6.945 -5.896,11.389c0,3.857 1.392,7.031 4.175,9.521c2.734,2.491 9.875,5.042 21.423,7.654c11.548,2.612 19.47,4.895 23.767,6.848c6.25,2.881 10.865,6.531 13.843,10.95c2.979,4.419 4.468,9.509 4.468,15.271c-0,5.713 -1.636,11.096 -4.907,16.15c-3.272,5.054 -7.972,8.984 -14.1,11.792c-6.127,2.807 -13.024,4.211 -20.69,4.211c-9.717,0 -17.859,-1.416 -24.427,-4.248c-6.567,-2.832 -11.718,-7.092 -15.454,-12.781c-3.735,-5.688 -5.701,-12.121 -5.896,-19.299Z" style="fill-rule:nonzero;"/><path d="M1975.01,149.072l0,-12.597l45.484,-0.074l-0,39.844c-6.983,5.567 -14.185,9.754 -21.607,12.561c-7.422,2.808 -15.039,4.212 -22.851,4.212c-10.547,-0 -20.13,-2.259 -28.748,-6.775c-8.618,-4.517 -15.125,-11.048 -19.519,-19.593c-4.395,-8.545 -6.592,-18.09 -6.592,-28.637c0,-10.45 2.185,-20.203 6.555,-29.261c4.37,-9.057 10.657,-15.783 18.86,-20.178c8.203,-4.394 17.652,-6.592 28.345,-6.592c7.764,0 14.783,1.258 21.057,3.772c6.274,2.515 11.194,6.018 14.758,10.511c3.565,4.492 6.275,10.351 8.13,17.578l-12.817,3.515c-1.612,-5.468 -3.613,-9.765 -6.006,-12.89c-2.393,-3.125 -5.811,-5.628 -10.254,-7.508c-4.443,-1.879 -9.375,-2.819 -14.795,-2.819c-6.494,-0 -12.109,0.988 -16.846,2.966c-4.736,1.977 -8.557,4.578 -11.462,7.8c-2.905,3.223 -5.164,6.763 -6.775,10.62c-2.734,6.641 -4.101,13.843 -4.101,21.607c-0,9.57 1.648,17.578 4.943,24.023c3.296,6.446 8.094,11.231 14.393,14.356c6.298,3.125 12.988,4.687 20.068,4.687c6.152,0 12.158,-1.184 18.017,-3.552c5.86,-2.368 10.303,-4.895 13.331,-7.581l-0,-19.995l-31.568,0Z" style="fill-rule:nonzero;"/><path d="M1975.01,732.406l0,-12.598l45.484,-0.073l-0,39.843c-6.983,5.567 -14.185,9.754 -21.607,12.561c-7.422,2.808 -15.039,4.212 -22.851,4.212c-10.547,-0 -20.13,-2.258 -28.748,-6.775c-8.618,-4.517 -15.125,-11.047 -19.519,-19.592c-4.395,-8.545 -6.592,-18.091 -6.592,-28.638c0,-10.449 2.185,-20.203 6.555,-29.26c4.37,-9.058 10.657,-15.784 18.86,-20.178c8.203,-4.395 17.652,-6.592 28.345,-6.592c7.764,-0 14.783,1.257 21.057,3.772c6.274,2.514 11.194,6.018 14.758,10.51c3.565,4.492 6.275,10.352 8.13,17.578l-12.817,3.516c-1.612,-5.469 -3.613,-9.766 -6.006,-12.891c-2.393,-3.125 -5.811,-5.627 -10.254,-7.507c-4.443,-1.88 -9.375,-2.82 -14.795,-2.82c-6.494,-0 -12.109,0.989 -16.846,2.966c-4.736,1.978 -8.557,4.578 -11.462,7.801c-2.905,3.222 -5.164,6.762 -6.775,10.62c-2.734,6.64 -4.101,13.842 -4.101,21.606c-0,9.57 1.648,17.578 4.943,24.024c3.296,6.445 8.094,11.23 14.393,14.355c6.298,3.125 12.988,4.688 20.068,4.688c6.152,-0 12.158,-1.185 18.017,-3.553c5.86,-2.368 10.303,-4.895 13.331,-7.58l-0,-19.995l-31.568,-0Z" style="fill-rule:nonzero;"/><path d="M1928.1,448.356l13.403,-1.172c0.635,5.371 2.112,9.778 4.431,13.22c2.319,3.443 5.92,6.226 10.803,8.35c4.883,2.124 10.376,3.186 16.48,3.186c5.42,0 10.205,-0.806 14.355,-2.417c4.151,-1.611 7.239,-3.821 9.265,-6.628c2.027,-2.808 3.04,-5.872 3.04,-9.192c-0,-3.369 -0.977,-6.311 -2.93,-8.826c-1.953,-2.515 -5.176,-4.626 -9.668,-6.335c-2.881,-1.123 -9.253,-2.869 -19.116,-5.237c-9.863,-2.368 -16.772,-4.602 -20.728,-6.702c-5.126,-2.685 -8.947,-6.018 -11.462,-9.997c-2.515,-3.98 -3.772,-8.435 -3.772,-13.367c0,-5.42 1.538,-10.486 4.614,-15.198c3.077,-4.712 7.569,-8.288 13.477,-10.73c5.908,-2.441 12.475,-3.662 19.702,-3.662c7.959,0 14.978,1.282 21.057,3.845c6.079,2.564 10.755,6.336 14.026,11.316c3.272,4.981 5.029,10.62 5.273,16.919l-13.623,1.026c-0.732,-6.788 -3.21,-11.915 -7.434,-15.381c-4.223,-3.467 -10.461,-5.2 -18.713,-5.2c-8.594,-0 -14.856,1.574 -18.787,4.724c-3.93,3.149 -5.896,6.945 -5.896,11.389c0,3.857 1.392,7.031 4.175,9.521c2.735,2.491 9.876,5.042 21.424,7.654c11.547,2.612 19.47,4.895 23.767,6.848c6.25,2.881 10.864,6.531 13.842,10.95c2.979,4.419 4.468,9.509 4.468,15.271c0,5.713 -1.636,11.096 -4.907,16.15c-3.272,5.054 -7.971,8.984 -14.099,11.792c-6.128,2.807 -13.025,4.211 -20.691,4.211c-9.717,0 -17.859,-1.416 -24.426,-4.248c-6.568,-2.832 -11.719,-7.092 -15.454,-12.781c-3.736,-5.688 -5.701,-12.121 -5.896,-19.299Z" style="fill-rule:nonzero;"/></g><path d="M210.718,976.09c-4.85,-6.119 -8.952,-13.281 -12.305,-21.484c-3.353,-8.203 -5.029,-16.699 -5.029,-25.488c-0,-7.748 1.253,-15.169 3.76,-22.266c2.929,-8.235 7.454,-16.439 13.574,-24.609l6.299,-0c-3.939,6.771 -6.543,11.605 -7.813,14.502c-1.986,4.492 -3.548,9.179 -4.687,14.062c-1.4,6.088 -2.1,12.207 -2.1,18.36c-0,15.657 4.867,31.298 14.6,46.923l-6.299,0Z" style="fill-rule:nonzero;"/><path d="M261.06,948.649c-3.256,2.767 -6.389,4.72 -9.4,5.859c-3.011,1.14 -6.242,1.709 -9.692,1.709c-5.697,0 -10.075,-1.391 -13.135,-4.174c-3.06,-2.784 -4.59,-6.34 -4.59,-10.669c0,-2.539 0.578,-4.859 1.734,-6.958c1.155,-2.1 2.669,-3.784 4.541,-5.054c1.871,-1.27 3.979,-2.23 6.323,-2.881c1.725,-0.456 4.329,-0.895 7.812,-1.318c7.097,-0.847 12.321,-1.856 15.674,-3.028c0.033,-1.204 0.049,-1.969 0.049,-2.295c-0,-3.58 -0.83,-6.103 -2.49,-7.568c-2.246,-1.986 -5.583,-2.978 -10.01,-2.978c-4.134,-0 -7.186,0.724 -9.155,2.172c-1.97,1.449 -3.426,4.013 -4.37,7.691l-8.594,-1.172c0.781,-3.678 2.067,-6.649 3.857,-8.911c1.791,-2.262 4.379,-4.004 7.764,-5.225c3.385,-1.22 7.308,-1.831 11.768,-1.831c4.427,0 8.024,0.521 10.791,1.563c2.766,1.041 4.801,2.352 6.103,3.93c1.302,1.579 2.214,3.573 2.734,5.982c0.293,1.497 0.44,4.199 0.44,8.105l-0,11.719c-0,8.171 0.187,13.338 0.561,15.503c0.375,2.165 1.115,4.24 2.222,6.226l-9.18,-0c-0.911,-1.823 -1.497,-3.956 -1.757,-6.397Zm-0.733,-19.629c-3.19,1.302 -7.975,2.409 -14.355,3.32c-3.614,0.521 -6.169,1.107 -7.666,1.758c-1.498,0.651 -2.653,1.603 -3.467,2.857c-0.814,1.253 -1.221,2.645 -1.221,4.175c0,2.343 0.887,4.296 2.661,5.859c1.774,1.562 4.37,2.344 7.788,2.344c3.386,-0 6.397,-0.741 9.034,-2.222c2.636,-1.481 4.573,-3.507 5.81,-6.079c0.944,-1.986 1.416,-4.915 1.416,-8.789l0,-3.223Z" style="fill-rule:nonzero;"/><path d="M288.599,976.09l-6.299,0c9.733,-15.625 14.599,-31.266 14.599,-46.923c0,-6.12 -0.699,-12.191 -2.099,-18.213c-1.107,-4.883 -2.653,-9.571 -4.639,-14.063c-1.269,-2.929 -3.89,-7.812 -7.861,-14.648l6.299,-0c6.119,8.17 10.644,16.374 13.574,24.609c2.506,7.097 3.76,14.518 3.76,22.266c-0,8.789 -1.685,17.285 -5.054,25.488c-3.369,8.203 -7.463,15.365 -12.28,21.484Z" style="fill-rule:nonzero;"/><path d="M361.45,955.046l0,-63.135l-23.584,-0l0,-8.447l56.738,-0l0,8.447l-23.681,-0l-0,63.135l-9.473,-0Z" style="fill-rule:nonzero;"/><path d="M427.612,938.346l9.082,1.123c-1.432,5.306 -4.085,9.424 -7.959,12.354c-3.873,2.93 -8.821,4.394 -14.843,4.394c-7.585,0 -13.599,-2.335 -18.042,-7.006c-4.444,-4.672 -6.665,-11.223 -6.665,-19.654c-0,-8.724 2.246,-15.495 6.738,-20.312c4.492,-4.818 10.319,-7.227 17.48,-7.227c6.934,0 12.598,2.36 16.993,7.08c4.394,4.72 6.591,11.361 6.591,19.922c0,0.521 -0.016,1.302 -0.049,2.344l-38.671,-0c0.325,5.697 1.936,10.059 4.834,13.086c2.897,3.027 6.51,4.541 10.839,4.541c3.223,-0 5.974,-0.846 8.252,-2.539c2.279,-1.693 4.086,-4.395 5.42,-8.106Zm-28.857,-14.209l28.955,0c-0.391,-4.362 -1.497,-7.633 -3.32,-9.814c-2.8,-3.386 -6.429,-5.078 -10.889,-5.078c-4.036,-0 -7.43,1.351 -10.181,4.053c-2.75,2.701 -4.272,6.315 -4.565,10.839Z" style="fill-rule:nonzero;"/><path d="M444.214,939.567l8.691,-1.367c0.489,3.483 1.848,6.152 4.077,8.008c2.23,1.855 5.347,2.783 9.351,2.783c4.036,-0 7.031,-0.822 8.984,-2.466c1.954,-1.644 2.93,-3.573 2.93,-5.786c0,-1.986 -0.863,-3.548 -2.588,-4.688c-1.204,-0.781 -4.199,-1.774 -8.984,-2.978c-6.446,-1.628 -10.913,-3.036 -13.404,-4.224c-2.49,-1.188 -4.378,-2.832 -5.664,-4.931c-1.285,-2.1 -1.928,-4.419 -1.928,-6.958c-0,-2.312 0.529,-4.452 1.587,-6.421c1.058,-1.97 2.498,-3.605 4.321,-4.907c1.367,-1.01 3.231,-1.864 5.591,-2.564c2.36,-0.7 4.891,-1.05 7.593,-1.05c4.069,0 7.641,0.586 10.717,1.758c3.076,1.172 5.347,2.759 6.812,4.761c1.465,2.002 2.474,4.679 3.027,8.032l-8.594,1.172c-0.39,-2.669 -1.521,-4.753 -3.393,-6.25c-1.872,-1.498 -4.517,-2.246 -7.935,-2.246c-4.036,-0 -6.917,0.667 -8.642,2.002c-1.726,1.334 -2.588,2.897 -2.588,4.687c-0,1.14 0.358,2.165 1.074,3.076c0.716,0.944 1.839,1.726 3.369,2.344c0.879,0.326 3.467,1.074 7.764,2.246c6.217,1.66 10.555,3.019 13.013,4.077c2.457,1.058 4.386,2.596 5.786,4.615c1.399,2.018 2.099,4.524 2.099,7.519c0,2.93 -0.854,5.689 -2.563,8.277c-1.709,2.587 -4.175,4.589 -7.398,6.005c-3.222,1.416 -6.868,2.124 -10.937,2.124c-6.738,0 -11.874,-1.399 -15.405,-4.199c-3.532,-2.799 -5.787,-6.95 -6.763,-12.451Z" style="fill-rule:nonzero;"/><path d="M516.919,947.184l1.269,7.764c-2.473,0.521 -4.687,0.781 -6.64,0.781c-3.19,0 -5.664,-0.504 -7.422,-1.514c-1.758,-1.009 -2.995,-2.335 -3.711,-3.979c-0.716,-1.644 -1.074,-5.103 -1.074,-10.376l-0,-29.834l-6.445,0l-0,-6.836l6.445,0l-0,-12.842l8.74,-5.273l0,18.115l8.838,0l-0,6.836l-8.838,0l0,30.322c0,2.507 0.155,4.118 0.464,4.834c0.309,0.716 0.814,1.286 1.514,1.709c0.699,0.423 1.7,0.635 3.003,0.635c0.976,0 2.262,-0.114 3.857,-0.342Z" style="fill-rule:nonzero;"/><path d="M586.938,955.046l0,-6.543c-3.287,5.143 -8.121,7.714 -14.501,7.714c-4.135,0 -7.935,-1.139 -11.402,-3.418c-3.467,-2.278 -6.152,-5.46 -8.056,-9.545c-1.905,-4.086 -2.857,-8.781 -2.857,-14.087c0,-5.176 0.863,-9.872 2.588,-14.087c1.725,-4.216 4.313,-7.447 7.764,-9.693c3.45,-2.246 7.308,-3.369 11.572,-3.369c3.125,0 5.908,0.659 8.35,1.978c2.441,1.318 4.427,3.035 5.957,5.151l-0,-25.683l8.74,-0l-0,71.582l-8.155,-0Zm-27.783,-25.879c0,6.64 1.4,11.604 4.199,14.892c2.8,3.288 6.104,4.932 9.913,4.932c3.841,-0 7.104,-1.571 9.79,-4.712c2.685,-3.141 4.028,-7.935 4.028,-14.38c-0,-7.096 -1.367,-12.305 -4.102,-15.625c-2.734,-3.32 -6.103,-4.98 -10.107,-4.98c-3.906,-0 -7.17,1.595 -9.79,4.785c-2.621,3.19 -3.931,8.219 -3.931,15.088Z" style="fill-rule:nonzero;"/><path d="M644.409,938.346l9.082,1.123c-1.432,5.306 -4.085,9.424 -7.959,12.354c-3.873,2.93 -8.821,4.394 -14.844,4.394c-7.584,0 -13.598,-2.335 -18.042,-7.006c-4.443,-4.672 -6.665,-11.223 -6.665,-19.654c0,-8.724 2.247,-15.495 6.739,-20.312c4.492,-4.818 10.319,-7.227 17.48,-7.227c6.934,0 12.598,2.36 16.992,7.08c4.395,4.72 6.592,11.361 6.592,19.922c0,0.521 -0.016,1.302 -0.049,2.344l-38.672,-0c0.326,5.697 1.937,10.059 4.834,13.086c2.898,3.027 6.511,4.541 10.84,4.541c3.223,-0 5.974,-0.846 8.252,-2.539c2.279,-1.693 4.086,-4.395 5.42,-8.106Zm-28.857,-14.209l28.955,0c-0.391,-4.362 -1.498,-7.633 -3.32,-9.814c-2.8,-3.386 -6.43,-5.078 -10.889,-5.078c-4.037,-0 -7.43,1.351 -10.181,4.053c-2.75,2.701 -4.272,6.315 -4.565,10.839Z" style="fill-rule:nonzero;"/><path d="M678.931,955.046l-19.727,-51.856l9.277,0l11.133,31.055c1.205,3.353 2.311,6.836 3.321,10.449c0.781,-2.734 1.871,-6.022 3.271,-9.863l11.523,-31.641l9.034,0l-19.629,51.856l-8.203,-0Z" style="fill-rule:nonzero;"/><path d="M714.575,893.571l0,-10.107l8.789,-0l0,10.107l-8.789,-0Zm0,61.475l0,-51.856l8.789,0l0,51.856l-8.789,-0Z" style="fill-rule:nonzero;"/><path d="M770.581,936.051l8.643,1.123c-0.944,5.958 -3.361,10.621 -7.251,13.99c-3.89,3.369 -8.667,5.053 -14.331,5.053c-7.097,0 -12.802,-2.319 -17.115,-6.958c-4.313,-4.638 -6.469,-11.287 -6.469,-19.946c-0,-5.599 0.927,-10.498 2.783,-14.697c1.855,-4.199 4.679,-7.349 8.472,-9.448c3.792,-2.1 7.918,-3.15 12.377,-3.15c5.632,0 10.238,1.424 13.819,4.273c3.581,2.848 5.875,6.893 6.885,12.133l-8.545,1.319c-0.814,-3.483 -2.255,-6.104 -4.322,-7.861c-2.067,-1.758 -4.565,-2.637 -7.495,-2.637c-4.427,-0 -8.024,1.587 -10.791,4.761c-2.767,3.173 -4.15,8.195 -4.15,15.063c-0,6.966 1.334,12.028 4.004,15.186c2.669,3.157 6.152,4.736 10.449,4.736c3.45,-0 6.331,-1.058 8.643,-3.174c2.311,-2.116 3.776,-5.371 4.394,-9.766Z" style="fill-rule:nonzero;"/><path d="M822.241,938.346l9.082,1.123c-1.432,5.306 -4.085,9.424 -7.959,12.354c-3.873,2.93 -8.821,4.394 -14.843,4.394c-7.585,0 -13.599,-2.335 -18.042,-7.006c-4.444,-4.672 -6.666,-11.223 -6.666,-19.654c0,-8.724 2.247,-15.495 6.739,-20.312c4.492,-4.818 10.319,-7.227 17.48,-7.227c6.934,0 12.598,2.36 16.992,7.08c4.395,4.72 6.592,11.361 6.592,19.922c0,0.521 -0.016,1.302 -0.049,2.344l-38.671,-0c0.325,5.697 1.936,10.059 4.833,13.086c2.898,3.027 6.511,4.541 10.84,4.541c3.223,-0 5.974,-0.846 8.252,-2.539c2.279,-1.693 4.086,-4.395 5.42,-8.106Zm-28.857,-14.209l28.955,0c-0.391,-4.362 -1.498,-7.633 -3.32,-9.814c-2.8,-3.386 -6.429,-5.078 -10.889,-5.078c-4.037,-0 -7.43,1.351 -10.181,4.053c-2.75,2.701 -4.272,6.315 -4.565,10.839Z" style="fill-rule:nonzero;"/><path d="M1345.26,976.09c-4.851,-6.119 -8.952,-13.281 -12.305,-21.484c-3.353,-8.203 -5.029,-16.699 -5.029,-25.488c-0,-7.748 1.253,-15.169 3.759,-22.266c2.93,-8.235 7.455,-16.439 13.575,-24.609l6.298,-0c-3.938,6.771 -6.543,11.605 -7.812,14.502c-1.986,4.492 -3.548,9.179 -4.688,14.062c-1.399,6.088 -2.099,12.207 -2.099,18.36c-0,15.657 4.866,31.298 14.599,46.923l-6.298,0Z" style="fill-rule:nonzero;"/><path d="M1369.87,955.046l-8.154,-0l-0,-71.582l8.789,-0l-0,25.537c3.711,-4.655 8.447,-6.983 14.209,-6.983c3.19,0 6.209,0.643 9.057,1.929c2.849,1.286 5.192,3.092 7.032,5.42c1.839,2.327 3.279,5.135 4.321,8.423c1.041,3.287 1.562,6.803 1.562,10.547c0,8.886 -2.197,15.755 -6.591,20.605c-4.395,4.85 -9.668,7.275 -15.821,7.275c-6.12,0 -10.921,-2.555 -14.404,-7.666l-0,6.495Zm-0.098,-26.319c0,6.218 0.847,10.71 2.539,13.477c2.767,4.525 6.511,6.787 11.231,6.787c3.841,-0 7.161,-1.668 9.961,-5.005c2.799,-3.337 4.199,-8.309 4.199,-14.917c-0,-6.771 -1.343,-11.768 -4.028,-14.99c-2.686,-3.223 -5.933,-4.834 -9.742,-4.834c-3.841,-0 -7.161,1.668 -9.961,5.005c-2.799,3.336 -4.199,8.162 -4.199,14.477Z" style="fill-rule:nonzero;"/><path d="M1423.14,976.09l-6.298,0c9.733,-15.625 14.599,-31.266 14.599,-46.923c0,-6.12 -0.7,-12.191 -2.099,-18.213c-1.107,-4.883 -2.653,-9.571 -4.639,-14.063c-1.27,-2.929 -3.89,-7.812 -7.861,-14.648l6.298,-0c6.12,8.17 10.645,16.374 13.575,24.609c2.506,7.097 3.759,14.518 3.759,22.266c0,8.789 -1.684,17.285 -5.053,25.488c-3.369,8.203 -7.463,15.365 -12.281,21.484Z" style="fill-rule:nonzero;"/><path d="M1495.99,955.046l-0,-63.135l-23.584,-0l-0,-8.447l56.738,-0l0,8.447l-23.681,-0l-0,63.135l-9.473,-0Z" style="fill-rule:nonzero;"/><path d="M1537.74,955.046l0,-71.582l8.789,-0l0,25.683c4.102,-4.752 9.277,-7.129 15.527,-7.129c3.842,0 7.178,0.757 10.01,2.271c2.832,1.513 4.859,3.605 6.079,6.274c1.221,2.669 1.831,6.543 1.831,11.621l0,32.862l-8.789,-0l0,-32.862c0,-4.394 -0.952,-7.593 -2.856,-9.594c-1.904,-2.002 -4.598,-3.003 -8.081,-3.003c-2.604,-0 -5.054,0.675 -7.349,2.026c-2.295,1.351 -3.931,3.182 -4.907,5.493c-0.977,2.311 -1.465,5.501 -1.465,9.57l0,28.37l-8.789,-0Z" style="fill-rule:nonzero;"/><path d="M1593.25,955.046l-0,-51.856l7.91,0l-0,7.861c2.018,-3.678 3.882,-6.103 5.591,-7.275c1.709,-1.172 3.588,-1.758 5.639,-1.758c2.962,0 5.974,0.944 9.033,2.832l-3.027,8.155c-2.148,-1.27 -4.297,-1.905 -6.445,-1.905c-1.921,0 -3.646,0.578 -5.176,1.734c-1.53,1.155 -2.62,2.758 -3.272,4.809c-0.976,3.125 -1.464,6.543 -1.464,10.254l-0,27.149l-8.789,-0Z" style="fill-rule:nonzero;"/><path d="M1660.64,955.046l0,-7.618c-4.036,5.86 -9.521,8.789 -16.455,8.789c-3.06,0 -5.916,-0.585 -8.569,-1.757c-2.653,-1.172 -4.622,-2.645 -5.908,-4.419c-1.286,-1.774 -2.189,-3.947 -2.71,-6.519c-0.358,-1.725 -0.537,-4.46 -0.537,-8.203l-0,-32.129l8.789,0l-0,28.76c-0,4.59 0.179,7.682 0.537,9.277c0.553,2.311 1.725,4.126 3.516,5.445c1.79,1.318 4.003,1.977 6.64,1.977c2.637,0 5.111,-0.675 7.422,-2.026c2.311,-1.351 3.947,-3.19 4.907,-5.518c0.961,-2.327 1.441,-5.705 1.441,-10.132l-0,-27.783l8.789,0l-0,51.856l-7.862,-0Z" style="fill-rule:nonzero;"/><path d="M1743.69,955.046l0,-6.543c-3.288,5.143 -8.122,7.714 -14.502,7.714c-4.134,0 -7.934,-1.139 -11.401,-3.418c-3.467,-2.278 -6.153,-5.46 -8.057,-9.545c-1.904,-4.086 -2.856,-8.781 -2.856,-14.087c-0,-5.176 0.862,-9.872 2.588,-14.087c1.725,-4.216 4.313,-7.447 7.763,-9.693c3.451,-2.246 7.308,-3.369 11.572,-3.369c3.125,0 5.909,0.659 8.35,1.978c2.441,1.318 4.427,3.035 5.957,5.151l0,-25.683l8.74,-0l0,71.582l-8.154,-0Zm-27.783,-25.879c-0,6.64 1.4,11.604 4.199,14.892c2.8,3.288 6.104,4.932 9.912,4.932c3.841,-0 7.105,-1.571 9.79,-4.712c2.686,-3.141 4.029,-7.935 4.029,-14.38c-0,-7.096 -1.368,-12.305 -4.102,-15.625c-2.734,-3.32 -6.104,-4.98 -10.107,-4.98c-3.907,-0 -7.17,1.595 -9.791,4.785c-2.62,3.19 -3.93,8.219 -3.93,15.088Z" style="fill-rule:nonzero;"/><path d="M1799.65,955.046l0,-7.618c-4.036,5.86 -9.521,8.789 -16.455,8.789c-3.06,0 -5.916,-0.585 -8.569,-1.757c-2.653,-1.172 -4.623,-2.645 -5.909,-4.419c-1.285,-1.774 -2.189,-3.947 -2.71,-6.519c-0.358,-1.725 -0.537,-4.46 -0.537,-8.203l0,-32.129l8.789,0l0,28.76c0,4.59 0.179,7.682 0.538,9.277c0.553,2.311 1.725,4.126 3.515,5.445c1.791,1.318 4.004,1.977 6.641,1.977c2.637,0 5.11,-0.675 7.422,-2.026c2.311,-1.351 3.947,-3.19 4.907,-5.518c0.96,-2.327 1.44,-5.705 1.44,-10.132l0,-27.783l8.789,0l0,51.856l-7.861,-0Z" style="fill-rule:nonzero;"/><path d="M1821.28,955.046l-0,-51.856l7.861,0l0,7.275c1.628,-2.539 3.793,-4.581 6.494,-6.127c2.702,-1.547 5.778,-2.32 9.229,-2.32c3.841,0 6.99,0.798 9.448,2.393c2.458,1.595 4.191,3.825 5.2,6.689c4.102,-6.054 9.44,-9.082 16.016,-9.082c5.143,0 9.098,1.424 11.865,4.273c2.767,2.848 4.151,7.234 4.151,13.159l-0,35.596l-8.741,-0l0,-32.666c0,-3.516 -0.284,-6.047 -0.854,-7.593c-0.57,-1.546 -1.603,-2.792 -3.101,-3.736c-1.497,-0.944 -3.255,-1.416 -5.273,-1.416c-3.646,0 -6.673,1.213 -9.082,3.638c-2.409,2.425 -3.613,6.307 -3.613,11.646l-0,30.127l-8.79,-0l0,-33.692c0,-3.906 -0.716,-6.836 -2.148,-8.789c-1.432,-1.953 -3.776,-2.93 -7.031,-2.93c-2.474,0 -4.761,0.651 -6.861,1.954c-2.099,1.302 -3.621,3.206 -4.565,5.712c-0.944,2.507 -1.416,6.12 -1.416,10.84l-0,26.905l-8.789,-0Z" style="fill-rule:nonzero;"/><path d="M1904.58,955.046l-0,-51.856l7.861,0l0,7.275c1.628,-2.539 3.792,-4.581 6.494,-6.127c2.702,-1.547 5.778,-2.32 9.229,-2.32c3.841,0 6.99,0.798 9.448,2.393c2.458,1.595 4.191,3.825 5.2,6.689c4.102,-6.054 9.44,-9.082 16.016,-9.082c5.143,0 9.098,1.424 11.865,4.273c2.767,2.848 4.15,7.234 4.15,13.159l0,35.596l-8.74,-0l0,-32.666c0,-3.516 -0.285,-6.047 -0.854,-7.593c-0.57,-1.546 -1.604,-2.792 -3.101,-3.736c-1.497,-0.944 -3.255,-1.416 -5.273,-1.416c-3.646,0 -6.674,1.213 -9.082,3.638c-2.409,2.425 -3.614,6.307 -3.614,11.646l0,30.127l-8.789,-0l0,-33.692c0,-3.906 -0.716,-6.836 -2.148,-8.789c-1.432,-1.953 -3.776,-2.93 -7.031,-2.93c-2.474,0 -4.761,0.651 -6.861,1.954c-2.099,1.302 -3.621,3.206 -4.565,5.712c-0.944,2.507 -1.416,6.12 -1.416,10.84l-0,26.905l-8.789,-0Z" style="fill-rule:nonzero;"/><path d="M1987.49,975.016l-0.977,-8.252c1.921,0.521 3.597,0.782 5.03,0.782c1.953,-0 3.515,-0.326 4.687,-0.977c1.172,-0.651 2.132,-1.562 2.881,-2.734c0.553,-0.879 1.449,-3.06 2.686,-6.543c0.162,-0.489 0.423,-1.205 0.781,-2.149l-19.678,-51.953l9.473,0l10.791,30.029c1.399,3.809 2.653,7.813 3.759,12.012c1.01,-4.036 2.214,-7.975 3.614,-11.816l11.084,-30.225l8.789,0l-19.727,52.734c-2.116,5.697 -3.76,9.62 -4.931,11.768c-1.563,2.897 -3.353,5.021 -5.372,6.372c-2.018,1.351 -4.427,2.026 -7.226,2.026c-1.693,0 -3.581,-0.358 -5.664,-1.074Z" style="fill-rule:nonzero;"/></g></svg>