<?xml version="1.0" encoding="UTF-8" standalone="no"?>
<svg
   xmlns:dc="http://purl.org/dc/elements/1.1/"
   xmlns:cc="http://creativecommons.org/ns#"
   xmlns:rdf="http://www.w3.org/1999/02/22-rdf-syntax-ns#"
   xmlns:svg="http://www.w3.org/2000/svg"
   xmlns="http://www.w3.org/2000/svg"
   xmlns:sodipodi="http://sodipodi.sourceforge.net/DTD/sodipodi-0.dtd"
   xmlns:inkscape="http://www.inkscape.org/namespaces/inkscape"
   width="78.581253mm"
   height="71.4375mm"
   version="1.2"
   id="svg54"
   sodipodi:docname="ngspice_190ghz_tx_sp_smith.svg"
   inkscape:version="1.0.1 (1.0.1+r74)">
  <metadata
     id="metadata58">
    <rdf:RDF>
      <cc:Work
         rdf:about="">
        <dc:format>image/svg+xml</dc:format>
        <dc:type
           rdf:resource="http://purl.org/dc/dcmitype/StillImage" />
        <dc:title>Qt Svg Document</dc:title>
      </cc:Work>
    </rdf:RDF>
  </metadata>
  <sodipodi:namedview
     pagecolor="#ffffff"
     bordercolor="#666666"
     borderopacity="1"
     objecttolerance="10"
     gridtolerance="10"
     guidetolerance="10"
     inkscape:pageopacity="0"
     inkscape:pageshadow="2"
     inkscape:window-width="1920"
     inkscape:window-height="1031"
     id="namedview56"
     showgrid="false"
     fit-margin-top="0"
     fit-margin-left="0"
     fit-margin-right="0"
     fit-margin-bottom="0"
     inkscape:zoom="2.2027778"
     inkscape:cx="198.90795"
     inkscape:cy="180"
     inkscape:window-x="0"
     inkscape:window-y="25"
     inkscape:window-maximized="1"
     inkscape:current-layer="svg54" />
  <title
     id="title2">Qt Svg Document</title>
  <desc
     id="desc4">Generated with Qt</desc>
  <defs
     id="defs6" />
  <g
     fill="none"
     stroke="#000000"
     stroke-width="1"
     fill-rule="evenodd"
     stroke-linecap="square"
     stroke-linejoin="bevel"
     id="g52">
    <g
       fill="#ffffff"
       fill-opacity="1"
       stroke="none"
       font-family="Helvetica"
       font-size="12px"
       font-weight="400"
       font-style="normal"
       id="g10">
      <path
         vector-effect="non-scaling-stroke"
         fill-rule="evenodd"
         d="M 0,0 H 297 V 270 H 0 V 0"
         id="path8" />
    </g>
    <g
       fill="none"
       stroke="#c0c0c0"
       stroke-opacity="1"
       stroke-width="1"
       stroke-linecap="square"
       stroke-linejoin="bevel"
       font-family="Helvetica"
       font-size="12px"
       font-weight="400"
       font-style="normal"
       id="g32">
      <polyline
         fill="none"
         vector-effect="non-scaling-stroke"
         points="44,115 244,115 "
         id="polyline12" />
      <path
         vector-effect="non-scaling-stroke"
         fill-rule="evenodd"
         d="M 214.187,44.1231 C 206.658,51.6356 202,62.0238 202,73.5 c 0,22.9198 18.58,41.5 41.5,41.5"
         id="path14" />
      <path
         vector-effect="non-scaling-stroke"
         fill-rule="evenodd"
         d="m 243.5,115 c -22.92,0 -41.5,18.58 -41.5,41.5 0,11.476 4.658,21.864 12.187,29.377"
         id="path16" />
      <path
         vector-effect="non-scaling-stroke"
         fill-rule="evenodd"
         d="m 144,14.8909 c 0,0.0364 0,0.0727 0,0.1091 0,55.2285 44.772,100 100,100"
         id="path18" />
      <path
         vector-effect="non-scaling-stroke"
         fill-rule="evenodd"
         d="m 244,115 c -55.228,0 -100,44.772 -100,100 0,0.037 0,0.073 0,0.11"
         id="path20" />
      <path
         vector-effect="non-scaling-stroke"
         fill-rule="evenodd"
         d="M 72.7337,44.2663 C 116.437,87.9692 176.812,115 243.5,115"
         id="path22" />
      <path
         vector-effect="non-scaling-stroke"
         fill-rule="evenodd"
         d="m 243.5,115 c -66.688,0 -127.063,27.031 -170.7663,70.734"
         id="path24" />
      <path
         vector-effect="non-scaling-stroke"
         fill-rule="evenodd"
         d="m 244,115 c 0,-41.4214 -33.579,-75 -75,-75 -41.421,0 -75,33.5786 -75,75 0,41.421 33.579,75 75,75 41.421,0 75,-33.579 75,-75"
         id="path26" />
      <path
         vector-effect="non-scaling-stroke"
         fill-rule="evenodd"
         d="m 244,115 c 0,-27.6142 -22.386,-50 -50,-50 -27.614,0 -50,22.3858 -50,50 0,27.614 22.386,50 50,50 27.614,0 50,-22.386 50,-50"
         id="path28" />
      <path
         vector-effect="non-scaling-stroke"
         fill-rule="evenodd"
         d="m 244,115 c 0,-13.807 -11.193,-25 -25,-25 -13.807,0 -25,11.193 -25,25 0,13.807 11.193,25 25,25 13.807,0 25,-11.193 25,-25"
         id="path30" />
    </g>
    <g
       fill="none"
       stroke="#000000"
       stroke-opacity="1"
       stroke-width="1"
       stroke-linecap="square"
       stroke-linejoin="bevel"
       font-family="Helvetica"
       font-size="12px"
       font-weight="400"
       font-style="normal"
       id="g36">
      <path
         vector-effect="non-scaling-stroke"
         fill-rule="evenodd"
         d="M 244,115 C 244,59.7715 199.228,15 144,15 88.7715,15 44,59.7715 44,115 c 0,55.228 44.7715,100 100,100 55.228,0 100,-44.772 100,-100"
         id="path34" />
    </g>
    <g
       fill="none"
       stroke="#0000ff"
       stroke-opacity="1"
       stroke-width="1"
       stroke-linecap="square"
       stroke-linejoin="bevel"
       font-family="Helvetica"
       font-size="12px"
       font-weight="400"
       font-style="normal"
       id="g40">
      <path
         vector-effect="non-scaling-stroke"
         fill-rule="evenodd"
         d="m 148.316,126.587 -0.226,0.017 -0.227,0.015 -0.228,0.012 -0.229,0.009 -0.23,0.006 -0.23,0.004 -0.231,10e-4 -0.232,-0.002 -0.232,-0.005 -0.233,-0.007 -0.234,-0.01 -0.234,-0.013 -0.234,-0.016 -0.235,-0.019 -0.235,-0.022 -0.236,-0.025 -0.235,-0.028 -0.236,-0.03 -0.236,-0.034 -0.237,-0.037 -0.236,-0.039 -0.236,-0.043 -0.237,-0.045 -0.236,-0.049 -0.236,-0.052 -0.236,-0.054 -0.236,-0.058 -0.235,-0.061 -0.235,-0.063 -0.235,-0.067 -0.235,-0.07 -0.233,-0.073 -0.234,-0.075 -0.232,-0.079 -0.233,-0.082 -0.231,-0.085 -0.231,-0.087 -0.23,-0.091 -0.229,-0.094 -0.228,-0.097 -0.228,-0.099 -0.226,-0.103 -0.226,-0.105 -0.224,-0.109 -0.223,-0.111 -0.222,-0.114 -0.221,-0.117 -0.22,-0.12 -0.218,-0.123 -0.217,-0.125 -0.216,-0.129 -0.214,-0.131 -0.213,-0.133 -0.211,-0.137 -0.21,-0.139 -0.208,-0.142 -0.207,-0.144 -0.205,-0.147 -0.203,-0.15 -0.201,-0.152 -0.2,-0.155 -0.197,-0.157 -0.196,-0.159 -0.194,-0.162 -0.193,-0.165 -0.19,-0.166 -0.188,-0.169 -0.186,-0.172 -0.184,-0.173 -0.182,-0.176 -0.18,-0.178 -0.178,-0.18 -0.176,-0.183 -0.173,-0.184 -0.171,-0.186 -0.17,-0.189 -0.166,-0.19 -0.165,-0.192 -0.162,-0.195 -0.16,-0.196 -0.157,-0.197 -0.155,-0.2 -0.153,-0.201 -0.15,-0.204 -0.148,-0.204 -0.146,-0.207 -0.143,-0.208 -0.141,-0.209 -0.138,-0.211 -0.135,-0.213 -0.133,-0.214 -0.131,-0.215 -0.128,-0.217 -0.126,-0.218 -0.123,-0.22 -0.12,-0.221 -0.118,-0.221 -0.116,-0.224 -0.112,-0.224 -0.111,-0.225 -0.107,-0.227 -0.106,-0.227 -0.102,-0.229 -0.1,-0.23 -0.097,-0.23 -0.095,-0.232 -0.092,-0.232 -0.09,-0.233 -0.087,-0.234 -0.084,-0.235 -0.082,-0.236 -0.079,-0.236 -0.077,-0.237 -0.074,-0.238 -0.071,-0.238 -0.069,-0.239 -0.067,-0.24 -0.063,-0.24 -0.061,-0.241 -0.059,-0.241 -0.056,-0.242 -0.053,-0.242 -0.051,-0.242 -0.049,-0.243 -0.045,-0.244 -0.044,-0.243 -0.04,-0.244 -0.038,-0.245 -0.036,-0.244 -0.033,-0.245 -0.031,-0.245 -0.028,-0.246 -0.025,-0.245 -0.023,-0.246 -0.021,-0.246 -0.018,-0.246 -0.015,-0.246 -0.013,-0.247 -0.011,-0.246 -0.008,-0.247 -0.006,-0.246 -0.003,-0.247 v -0.246 l 10e-4,-0.247 0.005,-0.246 0.007,-0.247 0.009,-0.246 0.011,-0.246 0.014,-0.247 0.017,-0.246 0.019,-0.246 0.021,-0.246 0.024,-0.245 0.027,-0.246 0.028,-0.245 0.032,-0.246 0.033,-0.245 0.036,-0.244 0.039,-0.245 0.041,-0.244 0.043,-0.244 0.046,-0.2436 0.048,-0.2434 0.051,-0.243 0.053,-0.2427 0.056,-0.2424 0.058,-0.242 0.06,-0.2416 0.063,-0.2412 0.065,-0.2408 0.068,-0.2403 0.07,-0.2399 0.073,-0.2395 0.075,-0.2389 0.078,-0.2385 0.08,-0.2379 0.083,-0.2375 0.085,-0.2368 0.088,-0.2363 0.09,-0.2357 0.092,-0.2351 0.096,-0.2345 0.097,-0.2338 0.1,-0.2332 0.103,-0.2325 0.105,-0.2317 0.108,-0.2311 0.11,-0.2303 0.113,-0.2295 0.116,-0.2287 0.118,-0.2278 0.12,-0.2271 0.123,-0.2261 0.126,-0.2253 0.128,-0.2243 0.131,-0.2234 0.134,-0.2224 0.136,-0.2214 0.139,-0.2204 0.141,-0.2193 0.144,-0.2182 0.147,-0.2171 0.149,-0.2159 0.152,-0.2147 0.154,-0.2135 0.158,-0.2123 0.16,-0.2109 0.162,-0.2097 0.165,-0.2082 0.168,-0.2069 0.171,-0.2055 0.173,-0.2039 0.176,-0.2025 0.179,-0.2009 0.181,-0.1993 0.184,-0.1977 0.187,-0.196 0.189,-0.1943 0.192,-0.1926 0.195,-0.1907 0.197,-0.1889 0.2,-0.187 0.203,-0.1851 0.205,-0.1831 0.208,-0.1811 0.21,-0.179 0.214,-0.1769 0.215,-0.1747 0.219,-0.1725 0.221,-0.1703 0.223,-0.1679 0.227,-0.1656 0.228,-0.1632 0.231,-0.1607 0.234,-0.1582 0.236,-0.1557 0.239,-0.153 0.241,-0.1504 0.243,-0.1476 0.246,-0.1449 0.248,-0.1421 0.251,-0.1393 0.252,-0.1363 0.255,-0.1333 0.258,-0.1304 0.259,-0.1272 0.262,-0.1242 0.263,-0.121 0.266,-0.1178 0.268,-0.1145 0.27,-0.1113 0.272,-0.1079 0.273,-0.1044 0.276,-0.1011 0.277,-0.0975 0.279,-0.0941 0.281,-0.0904 0.283,-0.0868 0.284,-0.0832 0.285,-0.0795 0.287,-0.0757 0.289,-0.072 0.29,-0.0682 0.291,-0.0643 0.292,-0.0604 0.294,-0.0565 0.295,-0.0526 0.296,-0.0486 0.296,-0.0447 0.298,-0.0406 0.299,-0.0365 0.299,-0.0325 0.3,-0.0284 0.301,-0.0243 0.301,-0.0201 0.302,-0.016 0.302,-0.0119 0.302,-0.0077 0.303,-0.0035 0.303,7e-4 0.303,0.0048 0.303,0.0091 0.303,0.0133 0.304,0.0174 0.302,0.0217 0.303,0.0258 0.302,0.03 0.302,0.0342 0.302,0.0384 0.3,0.0425 0.301,0.0466 0.299,0.0508 0.299,0.0549 0.298,0.059 0.297,0.063 0.296,0.0671 0.295,0.0711 0.294,0.0751 0.293,0.079 0.291,0.083 0.29,0.0869 0.289,0.0907 0.287,0.0945 0.286,0.0984 0.285,0.1021 0.282,0.1058 0.281,0.1095 0.279,0.1132 0.278,0.1167 0.275,0.1202 0.274,0.1238 0.272,0.1272 0.27,0.1306 0.267,0.1339 0.266,0.1373 0.263,0.1405 0.262,0.1438 0.259,0.1469 0.257,0.1499 0.254,0.153 0.252,0.1561 0.25,0.1589 0.248,0.1619 0.245,0.1647 0.242,0.1675 0.24,0.1702 0.238,0.1728 0.235,0.1755 0.232,0.178 0.23,0.1806 0.228,0.183 0.225,0.1854 0.222,0.1878 0.219,0.1901 0.217,0.1923 0.214,0.1945 0.212,0.1966 0.209,0.1988 0.206,0.2007 0.204,0.2028 0.2,0.2047 0.199,0.2066 0.195,0.2084 0.193,0.2103 0.19,0.212 0.187,0.2137 0.185,0.2154 0.182,0.2169 0.179,0.2186 0.177,0.2201 0.174,0.2216 0.171,0.2231 0.169,0.2244 0.166,0.2259 0.163,0.2272 0.161,0.2285 0.158,0.2297 0.155,0.2311 0.153,0.2322 0.15,0.2334 0.148,0.2345 0.145,0.2357 0.143,0.2367 0.14,0.2378 0.137,0.2389 0.135,0.2398 0.133,0.2409 0.13,0.2418 0.127,0.2427 0.126,0.2437 0.122,0.2445 0.12,0.2455 0.118,0.2463 0.116,0.2471 0.113,0.248 0.11,0.2488 0.108,0.2496 0.106,0.2503 0.104,0.2512 0.101,0.2519 0.099,0.2526 0.096,0.2534 0.094,0.254 0.092,0.2549 0.09,0.2555 0.087,0.2562 0.085,0.2569 0.083,0.2576 0.08,0.2582 0.079,0.259 0.076,0.2596 0.073,0.2602 0.072,0.2609 0.069,0.2612 0.067,0.263 0.065,0.262 0.062,0.264 0.06,0.264 0.059,0.265 0.055,0.265 0.054,0.266 0.051,0.267 0.049,0.267 0.047,0.268 0.045,0.268 0.042,0.269 0.04,0.27 0.038,0.27 0.035,0.271 0.033,0.272 0.031,0.272 0.029,0.273 0.026,0.273 0.024,0.274 0.022,0.274 0.019,0.275 0.017,0.276 0.014,0.276 0.012,0.277 0.01,0.277 0.007,0.278 0.005,0.278 0.003,0.279 v 0.279 l -0.003,0.28 -0.005,0.281 -0.008,0.281 -0.01,0.281 -0.013,0.282 -0.015,0.282 -0.018,0.283 -0.021,0.283 -0.023,0.283 -0.026,0.284 -0.028,0.284 -0.032,0.285 -0.034,0.285 -0.037,0.285 -0.039,0.285 -0.042,0.286 -0.046,0.286 -0.048,0.286 -0.05,0.287 -0.054,0.286 -0.057,0.287 -0.059,0.287 -0.063,0.287 -0.065,0.287 -0.069,0.286 -0.071,0.287 -0.074,0.287 -0.078,0.287 -0.08,0.287 -0.084,0.286 -0.086,0.287 -0.09,0.286 -0.093,0.286 -0.096,0.285 -0.099,0.285 -0.102,0.285 -0.105,0.285 -0.109,0.284 -0.112,0.283 -0.114,0.283 -0.118,0.282 -0.122,0.282 -0.124,0.281 -0.128,0.281 -0.131,0.279 -0.134,0.279 -0.137,0.278 -0.141,0.277 -0.143,0.276 -0.147,0.275 -0.151,0.274 -0.153,0.273 -0.156,0.272 -0.16,0.27 -0.163,0.27 -0.166,0.268 -0.17,0.267 -0.172,0.265 -0.176,0.264 -0.178,0.263 -0.182,0.261 -0.185,0.259 -0.188,0.258 -0.191,0.256 -0.195,0.255 -0.197,0.253 -0.2,0.251 -0.203,0.249 -0.206,0.248 -0.21,0.245 -0.212,0.244 -0.215,0.241 -0.218,0.24 -0.22,0.238 -0.224,0.235 -0.226,0.233 -0.229,0.232 -0.232,0.229 -0.234,0.226 -0.237,0.225 -0.24,0.222 -0.243,0.22 -0.245,0.217 -0.247,0.215 -0.25,0.213 -0.253,0.21 -0.255,0.207 -0.258,0.206 -0.259,0.202 -0.263,0.2 -0.264,0.198 -0.267,0.194 -0.269,0.193 -0.271,0.189 -0.274,0.187 -0.275,0.184 -0.278,0.181 -0.28,0.179 -0.282,0.176 -0.284,0.173 -0.286,0.17 -0.287,0.168 -0.29,0.164 -0.292,0.162 -0.293,0.159 -0.296,0.156 -0.297,0.153 -0.299,0.15 -0.3,0.148 -0.303,0.144 -0.304,0.142 -0.305,0.138 -0.308,0.136 -0.309,0.132 -0.31,0.13 -0.312,0.126 -0.313,0.124 -0.315,0.12 -0.317,0.118 -0.318,0.114 -0.319,0.112 -0.32,0.108 -0.322,0.105 -0.323,0.102 -0.325,0.099 -0.326,0.096 -0.327,0.093 -0.328,0.09 -0.33,0.087 -0.33,0.083 -0.332,0.08 -0.333,0.077 -0.334,0.074 -0.335,0.071 -0.336,0.068 -0.337,0.064 -0.339,0.061 -0.339,0.058 -0.34,0.054 -0.341,0.052 -0.342,0.048 -0.343,0.044 -0.344,0.042 -0.345,0.038 -0.345,0.035 -0.346,0.031 -0.348,0.028 -0.348,0.025 -0.348,0.021 -0.35,0.017 -0.35,0.015 -0.35,0.011 -0.352,0.007 -0.352,0.004 h -0.352 l -0.353,-0.003 -0.354,-0.007 -0.354,-0.01 -0.355,-0.014 -0.355,-0.018 -0.356,-0.021 -0.356,-0.025 -0.356,-0.029 -0.357,-0.033 -0.357,-0.036 -0.357,-0.04 -0.357,-0.043 -0.358,-0.048 -0.358,-0.051 -0.357,-0.056 -0.358,-0.059 -0.358,-0.063 -0.358,-0.067 -0.358,-0.071 -0.358,-0.075 -0.358,-0.078 -0.357,-0.083 -0.358,-0.087 -0.357,-0.091 -0.356,-0.096 -0.357,-0.099 -0.355,-0.103 -0.356,-0.108 -0.355,-0.112 -0.354,-0.115 -0.353,-0.121 -0.353,-0.124 -0.352,-0.128 -0.352,-0.133 -0.35,-0.137 -0.35,-0.142 -0.348,-0.146 -0.347,-0.15 -0.347,-0.154 -0.345,-0.159 -0.343,-0.163 -0.343,-0.167 -0.341,-0.172 -0.339,-0.176 -0.338,-0.18 -0.336,-0.185 -0.335,-0.189 -0.333,-0.194 -0.331,-0.197 -0.329,-0.203 -0.327,-0.206 -0.324,-0.211 -0.323,-0.215 -0.321,-0.22 -0.318,-0.223 -0.315,-0.228 -0.314,-0.233 -0.31,-0.236 -0.308,-0.241 -0.306,-0.245 -0.302,-0.249 -0.3,-0.253 -0.296,-0.257 -0.294,-0.261 -0.29,-0.266 -0.288,-0.269 -0.284,-0.273 -0.28,-0.277 -0.277,-0.281 -0.274,-0.285 -0.27,-0.288 -0.267,-0.292 -0.262,-0.296 -0.259,-0.299 -0.255,-0.303 -0.251,-0.307 -0.247,-0.309 -0.243,-0.314 -0.239,-0.316 -0.234,-0.319 -0.23,-0.323 -0.226,-0.326 -0.222,-0.329 -0.217,-0.331 -0.212,-0.335 -0.208,-0.337 -0.203,-0.34 -0.199,-0.342 -0.193,-0.345 -0.189,-0.348 -0.185,-0.35 -0.179,-0.352 -0.174,-0.354 -0.17,-0.356 -0.165,-0.358 -0.159,-0.36 -0.155,-0.362 -0.149,-0.364 -0.144,-0.365 -0.139,-0.367 -0.135,-0.368 -0.128,-0.37 -0.124,-0.371 -0.119,-0.372 -0.113,-0.373 -0.108,-0.374 -0.103,-0.375 -0.098,-0.376 -0.093,-0.376 -0.087,-0.377 -0.082,-0.378 -0.077,-0.378 -0.072,-0.378 -0.066,-0.378 -0.062,-0.379 -0.056,-0.379 -0.051,-0.379 -0.046,-0.378 -0.04,-0.379 -0.036,-0.378 -0.031,-0.378 -0.025,-0.378 -0.021,-0.377 -0.016,-0.376 -0.01,-0.376 -0.006,-0.375 -10e-4,-0.374 0.004,-0.374 0.009,-0.372 0.014,-0.372 0.018,-0.37 0.024,-0.369 0.027,-0.368 0.033,-0.367 0.037,-0.366 0.042,-0.364 0.046,-0.363 0.051,-0.361 0.055,-0.36 0.059,-0.358 0.064,-0.356 0.069,-0.355 0.072,-0.353 0.077,-0.351 0.081,-0.35 0.085,-0.348 0.09,-0.345 0.093,-0.344 0.098,-0.342 0.101,-0.34 0.106,-0.338 0.109,-0.3352 0.113,-0.3335 0.117,-0.3314 0.121,-0.3292 0.125,-0.327 0.128,-0.3248 0.133,-0.3224 0.136,-0.3202 0.139,-0.3179 0.143,-0.3155 0.147,-0.3131 0.15,-0.3107 0.154,-0.3082 0.158,-0.3058 0.16,-0.3034 0.165,-0.3008 0.168,-0.2982 0.171,-0.2957 0.174,-0.2931 0.178,-0.2905 0.181,-0.2878 0.185,-0.2852 0.188,-0.2825 0.191,-0.2797 0.195,-0.277 0.197,-0.2742 0.201,-0.2714 0.205,-0.2685 0.207,-0.2656 0.211,-0.2627 0.213,-0.2598 0.217,-0.2567 0.221,-0.2538 0.223,-0.2506 0.226,-0.2476 0.23,-0.2444 0.233,-0.2412 0.235,-0.2379 0.239,-0.2346 0.242,-0.2313 0.245,-0.2279 0.249,-0.2245 0.251,-0.2209 0.254,-0.2174 0.257,-0.2137 0.26,-0.21 0.264,-0.2063 0.266,-0.2025 0.269,-0.1986 0.272,-0.1946 0.275,-0.1905 0.277,-0.1864 0.281,-0.1823 0.283,-0.178 0.287,-0.1736 0.289,-0.1692 0.291,-0.1647 0.294,-0.1601 0.297,-0.1553 0.299,-0.1506 0.302,-0.1457 0.304,-0.1407 0.307,-0.1357 0.309,-0.1305 0.311,-0.1253 0.313,-0.12 0.315,-0.1145 0.318,-0.1089 0.319,-0.1034 0.321,-0.0976"
         id="path38" />
    </g>
    <g
       fill="none"
       stroke="#0000ff"
       stroke-opacity="1"
       stroke-width="1"
       stroke-linecap="square"
       stroke-linejoin="bevel"
       transform="translate(109,236)"
       font-family="Helvetica"
       font-size="12px"
       font-weight="400"
       font-style="normal"
       id="g44">
      <text
         fill="#0000ff"
         fill-opacity="1"
         stroke="none"
         xml:space="preserve"
         x="0"
         y="0"
         font-family="Helvetica"
         font-size="12px"
         font-weight="400"
         font-style="normal"
         id="text42">frequency</text>
    </g>
    <g
       fill="none"
       stroke="#0000ff"
       stroke-opacity="1"
       stroke-width="1"
       stroke-linecap="square"
       stroke-linejoin="bevel"
       transform="rotate(-90,101,67)"
       font-family="Helvetica"
       font-size="12px"
       font-weight="400"
       font-style="normal"
       id="g48">
      <text
         fill="#0000ff"
         fill-opacity="1"
         stroke="none"
         xml:space="preserve"
         x="0"
         y="0"
         font-family="Helvetica"
         font-size="12px"
         font-weight="400"
         font-style="normal"
         id="text46">ngspice/ac.s11</text>
    </g>
    <g
       fill="none"
       stroke="#0000ff"
       stroke-opacity="1"
       stroke-width="1"
       stroke-linecap="square"
       stroke-linejoin="bevel"
       font-family="Helvetica"
       font-size="12px"
       font-weight="400"
       font-style="normal"
       id="g50" />
  </g>
</svg>
