<?xml version="1.0" encoding="UTF-8" standalone="no"?>
<svg
   xmlns:dc="http://purl.org/dc/elements/1.1/"
   xmlns:cc="http://creativecommons.org/ns#"
   xmlns:rdf="http://www.w3.org/1999/02/22-rdf-syntax-ns#"
   xmlns:svg="http://www.w3.org/2000/svg"
   xmlns="http://www.w3.org/2000/svg"
   xmlns:sodipodi="http://sodipodi.sourceforge.net/DTD/sodipodi-0.dtd"
   xmlns:inkscape="http://www.inkscape.org/namespaces/inkscape"
   width="103.98125mm"
   height="70.114586mm"
   version="1.2"
   id="svg118"
   sodipodi:docname="ngspice_190ghz_tx_sp_mag.svg"
   inkscape:version="1.0.1 (1.0.1+r74)">
  <metadata
     id="metadata122">
    <rdf:RDF>
      <cc:Work
         rdf:about="">
        <dc:format>image/svg+xml</dc:format>
        <dc:type
           rdf:resource="http://purl.org/dc/dcmitype/StillImage" />
        <dc:title>Qt Svg Document</dc:title>
      </cc:Work>
    </rdf:RDF>
  </metadata>
  <sodipodi:namedview
     pagecolor="#ffffff"
     bordercolor="#666666"
     borderopacity="1"
     objecttolerance="10"
     gridtolerance="10"
     guidetolerance="10"
     inkscape:pageopacity="0"
     inkscape:pageshadow="2"
     inkscape:window-width="1920"
     inkscape:window-height="1031"
     id="namedview120"
     showgrid="false"
     fit-margin-top="0"
     fit-margin-left="0"
     fit-margin-right="0"
     fit-margin-bottom="0"
     inkscape:zoom="2.0267127"
     inkscape:cx="262.98745"
     inkscape:cy="176.66664"
     inkscape:window-x="0"
     inkscape:window-y="25"
     inkscape:window-maximized="1"
     inkscape:current-layer="svg118" />
  <title
     id="title2">Qt Svg Document</title>
  <desc
     id="desc4">Generated with Qt</desc>
  <defs
     id="defs6" />
  <g
     fill="none"
     stroke="#000000"
     stroke-width="1"
     fill-rule="evenodd"
     stroke-linecap="square"
     stroke-linejoin="bevel"
     id="g116">
    <g
       fill="#ffffff"
       fill-opacity="1"
       stroke="none"
       font-family="Helvetica"
       font-size="12px"
       font-weight="400"
       font-style="normal"
       id="g10">
      <path
         vector-effect="non-scaling-stroke"
         fill-rule="evenodd"
         d="M 0,0 H 393 V 265 H 0 V 0"
         id="path8" />
    </g>
    <g
       fill="none"
       stroke="#c0c0c0"
       stroke-opacity="1"
       stroke-width="1"
       stroke-linecap="square"
       stroke-linejoin="bevel"
       font-family="Helvetica"
       font-size="12px"
       font-weight="400"
       font-style="normal"
       id="g24">
      <polyline
         fill="none"
         vector-effect="non-scaling-stroke"
         points="89,63 329,63 "
         id="polyline12" />
      <polyline
         fill="none"
         vector-effect="non-scaling-stroke"
         points="89,111 329,111 "
         id="polyline14" />
      <polyline
         fill="none"
         vector-effect="non-scaling-stroke"
         points="89,160 329,160 "
         id="polyline16" />
      <polyline
         fill="none"
         vector-effect="non-scaling-stroke"
         points="269,15 269,175 "
         id="polyline18" />
      <polyline
         fill="none"
         vector-effect="non-scaling-stroke"
         points="209,15 209,175 "
         id="polyline20" />
      <polyline
         fill="none"
         vector-effect="non-scaling-stroke"
         points="149,15 149,175 "
         id="polyline22" />
    </g>
    <g
       fill="none"
       stroke="#000000"
       stroke-opacity="1"
       stroke-width="1"
       stroke-linecap="square"
       stroke-linejoin="bevel"
       font-family="Helvetica"
       font-size="12px"
       font-weight="400"
       font-style="normal"
       id="g52">
      <polyline
         fill="none"
         vector-effect="non-scaling-stroke"
         points="89,170 89,180 "
         id="polyline26" />
      <polyline
         fill="none"
         vector-effect="non-scaling-stroke"
         points="149,170 149,180 "
         id="polyline28" />
      <polyline
         fill="none"
         vector-effect="non-scaling-stroke"
         points="209,170 209,180 "
         id="polyline30" />
      <polyline
         fill="none"
         vector-effect="non-scaling-stroke"
         points="269,170 269,180 "
         id="polyline32" />
      <polyline
         fill="none"
         vector-effect="non-scaling-stroke"
         points="329,170 329,180 "
         id="polyline34" />
      <polyline
         fill="none"
         vector-effect="non-scaling-stroke"
         points="84,160 94,160 "
         id="polyline36" />
      <polyline
         fill="none"
         vector-effect="non-scaling-stroke"
         points="84,111 94,111 "
         id="polyline38" />
      <polyline
         fill="none"
         vector-effect="non-scaling-stroke"
         points="84,63 94,63 "
         id="polyline40" />
      <polyline
         fill="none"
         vector-effect="non-scaling-stroke"
         points="84,15 94,15 "
         id="polyline42" />
      <polyline
         fill="none"
         vector-effect="non-scaling-stroke"
         points="89,15 329,15 "
         id="polyline44" />
      <polyline
         fill="none"
         vector-effect="non-scaling-stroke"
         points="329,15 329,175 "
         id="polyline46" />
      <polyline
         fill="none"
         vector-effect="non-scaling-stroke"
         points="89,175 329,175 "
         id="polyline48" />
      <polyline
         fill="none"
         vector-effect="non-scaling-stroke"
         points="89,15 89,175 "
         id="polyline50" />
    </g>
    <g
       fill="none"
       stroke="#0000ff"
       stroke-opacity="1"
       stroke-width="1"
       stroke-linecap="square"
       stroke-linejoin="bevel"
       font-family="Helvetica"
       font-size="12px"
       font-weight="400"
       font-style="normal"
       id="g56">
      <path
         vector-effect="non-scaling-stroke"
         fill-rule="evenodd"
         d="m 89,147.712 0.3,0.059 0.3,0.058 0.3,0.056 0.3,0.056 0.3,0.054 0.3,0.053 0.3,0.052 0.3,0.05 0.3,0.049 0.3,0.048 0.3,0.046 0.3,0.044 0.3,0.043 0.3,0.042 0.3,0.04 0.3,0.038 0.3,0.036 0.3,0.035 0.3,0.033 0.3,0.031 0.3,0.029 0.3,0.027 0.3,0.025 0.3,0.024 0.3,0.021 0.3,0.019 0.3,0.017 0.3,0.015 0.3,0.013 0.3,0.01 0.3,0.009 0.3,0.006 0.3,0.004 0.3,10e-4 h 0.3 l 0.3,-0.003 0.3,-0.005 0.3,-0.008 0.3,-0.01 0.3,-0.012 0.3,-0.015 0.3,-0.017 0.3,-0.019 0.3,-0.021 0.3,-0.024 0.3,-0.026 0.3,-0.029 0.3,-0.031 0.3,-0.033 0.3,-0.035 0.3,-0.038 0.3,-0.039 0.3,-0.042 0.3,-0.045 0.3,-0.046 0.3,-0.049 0.3,-0.05 0.3,-0.053 0.3,-0.055 0.3,-0.056 0.3,-0.059 0.3,-0.061 0.3,-0.063 0.3,-0.064 0.3,-0.066 0.3,-0.069 0.3,-0.07 0.3,-0.071 0.3,-0.074 0.3,-0.075 0.3,-0.077 0.3,-0.078 0.3,-0.08 0.3,-0.081 0.3,-0.083 0.3,-0.084 0.3,-0.086 0.3,-0.087 0.3,-0.089 0.3,-0.089 0.3,-0.091 0.3,-0.092 0.3,-0.094 0.3,-0.094 0.3,-0.096 0.3,-0.096 0.3,-0.098 0.3,-0.099 0.3,-0.1 0.3,-0.1 0.3,-0.102 0.3,-0.102 0.3,-0.104 0.3,-0.104 0.3,-0.105 0.3,-0.106 0.3,-0.106 0.3,-0.107 0.3,-0.108 0.3,-0.109 0.3,-0.109 0.3,-0.109 0.3,-0.111 0.3,-0.111 0.3,-0.111 0.3,-0.112 0.3,-0.113 0.3,-0.113 0.3,-0.113 0.3,-0.114 0.3,-0.114 0.3,-0.115 0.3,-0.115 0.3,-0.115 0.3,-0.116 0.3,-0.116 0.3,-0.117 0.3,-0.116 0.3,-0.117 0.3,-0.117 0.3,-0.118 0.3,-0.118 0.3,-0.118 0.3,-0.118 0.3,-0.118 0.3,-0.119 0.3,-0.119 0.3,-0.119 0.3,-0.119 0.3,-0.119 0.3,-0.12 0.3,-0.119 0.3,-0.12 0.3,-0.12 0.3,-0.12 0.3,-0.12 0.3,-0.12 0.3,-0.12 0.3,-0.12 0.3,-0.12 0.3,-0.121 0.3,-0.12 0.3,-0.121 0.3,-0.12 0.3,-0.121 0.3,-0.12 0.3,-0.121 0.3,-0.121 0.3,-0.12 0.3,-0.121 0.3,-0.121 0.3,-0.12 0.3,-0.121 0.3,-0.121 0.3,-0.12 0.3,-0.121 0.3,-0.12 0.3,-0.121 0.3,-0.12 0.3,-0.121 0.3,-0.12 0.3,-0.121 0.3,-0.12 0.3,-0.12 0.3,-0.12 0.3,-0.12 0.3,-0.12 0.3,-0.12 0.3,-0.12 0.3,-0.12 0.3,-0.12 0.3,-0.119 0.3,-0.12 0.3,-0.119 0.3,-0.119 0.3,-0.12 0.3,-0.119 0.3,-0.119 0.3,-0.118 0.3,-0.119 0.3,-0.118 0.3,-0.119 0.3,-0.118 0.3,-0.118 0.3,-0.118 0.3,-0.117 0.3,-0.118 0.3,-0.117 0.3,-0.117 0.3,-0.117 0.3,-0.117 0.3,-0.116 0.3,-0.116 0.3,-0.116 0.3,-0.116 0.3,-0.116 0.3,-0.115 0.3,-0.115 0.3,-0.114 0.3,-0.115 0.3,-0.114 0.3,-0.113 0.3,-0.114 0.3,-0.113 0.3,-0.113 0.3,-0.112 0.3,-0.112 0.3,-0.112 0.3,-0.111 0.3,-0.111 0.3,-0.11 0.3,-0.11 0.3,-0.109 0.3,-0.109 0.3,-0.109 0.3,-0.108 0.3,-0.108 0.3,-0.107 0.3,-0.106 0.3,-0.106 0.3,-0.106 0.3,-0.104 0.3,-0.105 0.3,-0.103 0.3,-0.103 0.3,-0.102 0.3,-0.102 0.3,-0.101 0.3,-0.1 0.3,-0.1 0.3,-0.099 0.3,-0.098 0.3,-0.097 0.3,-0.097 0.3,-0.096 0.3,-0.095 0.3,-0.094 0.3,-0.093 0.3,-0.092 0.3,-0.092 0.3,-0.09 0.3,-0.09 0.3,-0.089 0.3,-0.087 0.3,-0.087 0.3,-0.086 0.3,-0.085 0.3,-0.083 0.3,-0.083 0.3,-0.081 0.3,-0.081 0.3,-0.079 0.3,-0.078 0.3,-0.077 0.3,-0.076 0.3,-0.075 0.3,-0.073 0.3,-0.072 0.3,-0.071 0.3,-0.07 0.3,-0.068 0.3,-0.068 0.3,-0.065 0.3,-0.065 0.3,-0.063 0.3,-0.062 0.3,-0.06 0.3,-0.06 0.3,-0.057 0.3,-0.057 0.3,-0.055 0.3,-0.053 0.3,-0.052 0.3,-0.051 0.3,-0.049 0.3,-0.048 0.3,-0.046 0.3,-0.045 0.3,-0.043 0.3,-0.042 0.3,-0.04 0.3,-0.039 0.3,-0.037 0.3,-0.036 0.3,-0.034 0.3,-0.033 0.3,-0.031 0.3,-0.03 0.3,-0.028 0.3,-0.027 0.3,-0.025 0.3,-0.024 0.3,-0.022 0.3,-0.02 0.3,-0.019 0.3,-0.018 0.3,-0.016 0.3,-0.015 0.3,-0.013 0.3,-0.011 0.3,-0.01 0.3,-0.009 0.3,-0.007 0.3,-0.006 0.3,-0.004 0.3,-0.003 0.3,-10e-4 h 0.3 l 0.3,10e-4 0.3,0.003 0.3,0.004 0.3,0.006 0.3,0.007 0.3,0.008 0.3,0.01 0.3,0.01 0.3,0.013 0.3,0.013 0.3,0.015 0.3,0.016 0.3,0.017 0.3,0.018 0.3,0.019 0.3,0.021 0.3,0.022 0.3,0.023 0.3,0.024 0.3,0.025 0.3,0.026 0.3,0.028 0.3,0.028 0.3,0.029 0.3,0.03 0.3,0.032 0.3,0.032 0.3,0.033 0.3,0.034 0.3,0.035 0.3,0.036 0.3,0.036 0.3,0.038 0.3,0.038 0.3,0.039 0.3,0.04 0.3,0.041 0.3,0.041 0.3,0.042 0.3,0.043 0.3,0.043 0.3,0.044 0.3,0.045 0.3,0.045 0.3,0.046 0.3,0.047 0.3,0.047 0.3,0.047 0.3,0.049 0.3,0.048 0.3,0.049 0.3,0.05 0.3,0.05 0.3,0.051 0.3,0.051 0.3,0.051 0.3,0.052 0.3,0.052 0.3,0.052 0.3,0.053 0.3,0.053 0.3,0.054 0.3,0.054 0.3,0.054 0.3,0.054 0.3,0.055 0.3,0.055 0.3,0.055 0.3,0.056 0.3,0.056 0.3,0.056 0.3,0.056 0.3,0.056 0.3,0.057 0.3,0.057 0.3,0.056 0.3,0.058 0.3,0.057 0.3,0.057 0.3,0.058 0.3,0.058 0.3,0.058 0.3,0.058 0.3,0.058 0.3,0.058 0.3,0.058 0.3,0.059 0.3,0.058 0.3,0.059 0.3,0.059 0.3,0.059 0.3,0.059 0.3,0.059 0.3,0.059 0.3,0.059 0.3,0.06 0.3,0.059 0.3,0.059 0.3,0.06 0.3,0.06 0.3,0.059 0.3,0.06 0.3,0.06 0.3,0.06 0.3,0.06 0.3,0.06 0.3,0.06 0.3,0.061 0.3,0.06 0.3,0.06 0.3,0.061 0.3,0.06 0.3,0.061 0.3,0.061 0.3,0.06 0.3,0.061 0.3,0.061 0.3,0.061 0.3,0.062 0.3,0.061 0.3,0.061 0.3,0.061 0.3,0.062 0.3,0.062 0.3,0.061 0.3,0.062 0.3,0.062 0.3,0.062 0.3,0.062 0.3,0.062 0.3,0.062 0.3,0.063 0.3,0.062 0.3,0.062 0.3,0.063 0.3,0.063 0.3,0.063 0.3,0.063 0.3,0.063 0.3,0.063 0.3,0.063 0.3,0.063 0.3,0.064 0.3,0.063 0.3,0.063 0.3,0.064 0.3,0.064 0.3,0.063 0.3,0.064 0.3,0.064 0.3,0.064 0.3,0.064 0.3,0.064 0.3,0.064 0.3,0.064 0.3,0.064 0.3,0.064 0.3,0.065 0.3,0.064 0.3,0.064 0.3,0.064 0.3,0.064 0.3,0.064 0.3,0.064 0.3,0.064 0.3,0.064 0.3,0.064 0.3,0.064 0.3,0.063 0.3,0.064 0.3,0.063 0.3,0.063 0.3,0.063 0.3,0.063 0.3,0.063 0.3,0.063 0.3,0.062 0.3,0.062 0.3,0.062 0.3,0.061 0.3,0.061 0.3,0.061 0.3,0.061 0.3,0.06 0.3,0.06 0.3,0.06 0.3,0.059 0.3,0.059 0.3,0.058 0.3,0.058 0.3,0.057 0.3,0.057 0.3,0.056 0.3,0.056 0.3,0.055 0.3,0.055 0.3,0.054 0.3,0.053 0.3,0.053 0.3,0.052 0.3,0.051 0.3,0.051 0.3,0.049 0.3,0.05 0.3,0.048 0.3,0.047 0.3,0.047 0.3,0.046 0.3,0.045 0.3,0.044 0.3,0.043 0.3,0.042 0.3,0.041 0.3,0.04 0.3,0.039 0.3,0.038 0.3,0.038 0.3,0.035 0.3,0.035 0.3,0.034 0.3,0.033 0.3,0.031 0.3,0.03 0.3,0.029 0.3,0.028 0.3,0.027 0.3,0.025 0.3,0.024 0.3,0.023 0.3,0.021 0.3,0.02 0.3,0.019 0.3,0.017 0.3,0.016 0.3,0.015 0.3,0.013 0.3,0.011 0.3,0.011 0.3,0.008 0.3,0.008 0.3,0.006 0.3,0.004 0.3,0.003 0.3,0.001 h 0.3 l 0.3,-0.002 0.3,-0.004 0.3,-0.004 0.3,-0.007 0.3,-0.008 0.3,-0.01 0.3,-0.011 0.3,-0.013 0.3,-0.014 0.3,-0.017 0.3,-0.017 0.3,-0.02 0.3,-0.02 0.3,-0.023 0.3,-0.024 0.3,-0.026 0.3,-0.027 0.3,-0.029 0.3,-0.031 0.3,-0.032 0.3,-0.034 0.3,-0.036 0.3,-0.037 0.3,-0.039 0.3,-0.04 0.3,-0.042 0.3,-0.043 0.3,-0.045 0.3,-0.047 0.3,-0.048 0.3,-0.05 0.3,-0.051 0.3,-0.053 0.3,-0.054 0.3,-0.056 0.3,-0.057 0.3,-0.059 0.3,-0.061 0.3,-0.061 0.3,-0.063 0.3,-0.065 0.3,-0.066 0.3,-0.067 0.3,-0.069 0.3,-0.07 0.3,-0.072 0.3,-0.072 0.3,-0.074 0.3,-0.076 0.3,-0.076 0.3,-0.078 0.3,-0.079 0.3,-0.08 0.3,-0.081 0.3,-0.083 0.3,-0.083 0.3,-0.085 0.3,-0.085 0.3,-0.087 0.3,-0.088 0.3,-0.089 0.3,-0.089 0.3,-0.091 0.3,-0.091 0.3,-0.093 0.3,-0.093 0.3,-0.094 0.3,-0.095 0.3,-0.095 0.3,-0.097 0.3,-0.097 0.3,-0.097 0.3,-0.099 0.3,-0.099 0.3,-0.099 0.3,-0.1 0.3,-0.101 0.3,-0.101 0.3,-0.101 0.3,-0.102 0.3,-0.102 0.3,-0.103 0.3,-0.103 0.3,-0.103 0.3,-0.104 0.3,-0.103 0.3,-0.104 0.3,-0.104 0.3,-0.104 0.3,-0.104 0.3,-0.105 0.3,-0.104 0.3,-0.104 0.3,-0.105 0.3,-0.104 0.3,-0.104 0.3,-0.104 0.3,-0.104 0.3,-0.104 0.3,-0.103 0.3,-0.103 0.3,-0.103 0.3,-0.103 0.3,-0.102 0.3,-0.102 0.3,-0.101 0.3,-0.101 0.3,-0.101 0.3,-0.1 0.3,-0.1 0.3,-0.099 0.3,-0.098 0.3,-0.098 0.3,-0.098 0.3,-0.096 0.3,-0.097 0.3,-0.095 0.3,-0.095 0.3,-0.094 0.3,-0.093 0.3,-0.092 0.3,-0.092 0.3,-0.091 0.3,-0.09 0.3,-0.09 0.3,-0.088 0.3,-0.088 0.3,-0.086 0.3,-0.086 0.3,-0.085 0.3,-0.084 0.3,-0.083 0.3,-0.082 0.3,-0.082 0.3,-0.08 0.3,-0.079 0.3,-0.078 0.3,-0.077 0.3,-0.077 0.3,-0.075 0.3,-0.074 0.3,-0.073 0.3,-0.073 0.3,-0.071 0.3,-0.07 0.3,-0.069 0.3,-0.068 0.3,-0.067 0.3,-0.066 0.3,-0.065 0.3,-0.063 0.3,-0.063 0.3,-0.062 0.3,-0.06 0.3,-0.06 0.3,-0.058 0.3,-0.058 0.3,-0.056 0.3,-0.055 0.3,-0.055 0.3,-0.053 0.3,-0.052 0.3,-0.051 0.3,-0.05 0.3,-0.049 0.3,-0.048 0.3,-0.047 0.3,-0.046 0.3,-0.045 0.3,-0.044 0.3,-0.042 0.3,-0.042 0.3,-0.041 0.3,-0.04 0.3,-0.038 0.3,-0.038 0.3,-0.037 0.3,-0.035 0.3,-0.035 0.3,-0.033 0.3,-0.033 0.3,-0.031 0.3,-0.031 0.3,-0.029 0.3,-0.029 0.3,-0.027 0.3,-0.027 0.3,-0.025 0.3,-0.025 0.3,-0.023 0.3,-0.022 0.3,-0.021 0.3,-0.021 0.3,-0.019 0.3,-0.018 0.3,-0.017 0.3,-0.016 0.3,-0.014 0.3,-0.014 0.3,-0.013 0.3,-0.011 0.3,-0.01 0.3,-0.009 0.3,-0.008 0.3,-0.007 0.3,-0.006 0.3,-0.004 0.3,-0.003 0.3,-0.002 h 0.3 l 0.3,0.001 0.3,0.002 0.3,0.003 0.3,0.005 0.3,0.006 0.3,0.008 0.3,0.009 0.3,0.011 0.3,0.012 0.3,0.014 0.3,0.016 0.3,0.017 0.3,0.019 0.3,0.02 0.3,0.022 0.3,0.025 0.3,0.025 0.3,0.028 0.3,0.03 0.3,0.031 0.3,0.034 0.3,0.036 0.3,0.038 0.3,0.04 0.3,0.042 0.3,0.044 0.3,0.047 0.3,0.049 0.3,0.051 0.3,0.054 0.3,0.056 0.3,0.059 0.3,0.061 0.3,0.064 0.3,0.066 0.3,0.07 0.3,0.072"
         id="path54" />
    </g>
    <g
       fill="none"
       stroke="#ff0000"
       stroke-opacity="1"
       stroke-width="1"
       stroke-linecap="square"
       stroke-linejoin="bevel"
       font-family="Helvetica"
       font-size="12px"
       font-weight="400"
       font-style="normal"
       id="g60">
      <path
         vector-effect="non-scaling-stroke"
         fill-rule="evenodd"
         d="m 89,134.79 0.3,-0.135 0.3,-0.136 0.3,-0.137 0.3,-0.139 0.3,-0.14 0.3,-0.141 0.3,-0.141 0.3,-0.144 0.3,-0.144 0.3,-0.145 0.3,-0.147 0.3,-0.148 0.3,-0.148 0.3,-0.15 0.3,-0.151 0.3,-0.152 0.3,-0.154 0.3,-0.154 0.3,-0.156 0.3,-0.156 0.3,-0.158 0.3,-0.159 0.3,-0.16 0.3,-0.161 0.3,-0.162 0.3,-0.163 0.3,-0.164 0.3,-0.166 0.3,-0.166 0.3,-0.168 0.3,-0.168 0.3,-0.17 0.3,-0.171 0.3,-0.171 0.3,-0.173 0.3,-0.174 0.3,-0.175 0.3,-0.176 0.3,-0.177 0.3,-0.178 0.3,-0.179 0.3,-0.18 0.3,-0.182 0.3,-0.182 0.3,-0.183 0.3,-0.184 0.3,-0.186 0.3,-0.186 0.3,-0.188 0.3,-0.188 0.3,-0.19 0.3,-0.19 0.3,-0.192 0.3,-0.192 0.3,-0.194 0.3,-0.195 0.3,-0.195 0.3,-0.197 0.3,-0.198 0.3,-0.199 0.3,-0.2 0.3,-0.201 0.3,-0.202 0.3,-0.203 0.3,-0.204 0.3,-0.205 0.3,-0.206 0.3,-0.207 0.3,-0.209 0.3,-0.209 0.3,-0.21 0.3,-0.212 0.3,-0.212 0.3,-0.214 0.3,-0.215 0.3,-0.216 0.3,-0.217 0.3,-0.218 0.3,-0.219 0.3,-0.22 0.3,-0.221 0.3,-0.223 0.3,-0.223 0.3,-0.225 0.3,-0.226 0.3,-0.227 0.3,-0.228 0.3,-0.229 0.3,-0.231 0.3,-0.231 0.3,-0.233 0.3,-0.234 0.3,-0.235 0.3,-0.236 0.3,-0.238 0.3,-0.239 0.3,-0.24 0.3,-0.241 0.3,-0.243 0.3,-0.243 0.3,-0.245 0.3,-0.247 0.3,-0.247 0.3,-0.249 0.3,-0.25 0.3,-0.252 0.3,-0.253 0.3,-0.254 0.3,-0.255 0.3,-0.257 0.3,-0.258 0.3,-0.26 0.3,-0.26 0.3,-0.263 0.3,-0.263 0.3,-0.266 0.3,-0.266 0.3,-0.268 0.3,-0.269 0.3,-0.271 0.3,-0.273 0.3,-0.273 0.3,-0.276 0.3,-0.276 0.3,-0.279 0.3,-0.28 0.3,-0.281 0.3,-0.283 0.3,-0.284 0.3,-0.286 0.3,-0.288 0.3,-0.289 0.3,-0.291 0.3,-0.292 0.3,-0.294 0.3,-0.295 0.3,-0.298 0.3,-0.299 0.3,-0.3 0.3,-0.302 0.3,-0.304 0.3,-0.306 0.3,-0.307 0.3,-0.309 0.3,-0.31 0.3,-0.313 0.3,-0.314 0.3,-0.316 0.3,-0.317 0.3,-0.32 0.3,-0.321 0.3,-0.323 0.3,-0.324 0.3,-0.327 0.3,-0.328 0.3,-0.3298 0.3,-0.3318 0.3,-0.3336 0.3,-0.3354 0.3,-0.3372 0.3,-0.3391 0.3,-0.3409 0.3,-0.3426 0.3,-0.3446 0.3,-0.3463 0.3,-0.3482 0.3,-0.3501 0.3,-0.3518 0.3,-0.3537 0.3,-0.3556 0.3,-0.3574 0.3,-0.3592 0.3,-0.361 0.3,-0.3629 0.3,-0.3648 0.3,-0.3665 0.3,-0.3684 0.3,-0.3702 0.3,-0.3719 0.3,-0.3738 0.3,-0.3757 0.3,-0.3773 0.3,-0.3792 0.3,-0.381 0.3,-0.3827 0.3,-0.3844 0.3,-0.3863 0.3,-0.3879 0.3,-0.3896 0.3,-0.3914 0.3,-0.393 0.3,-0.3947 0.3,-0.3964 0.3,-0.398 0.3,-0.3996 0.3,-0.4012 0.3,-0.4028 0.3,-0.4043 0.3,-0.4059 0.3,-0.4074 0.3,-0.4089 0.3,-0.4103 0.3,-0.4117 0.3,-0.4132 0.3,-0.4145 0.3,-0.4159 0.3,-0.4171 0.3,-0.4185 0.3,-0.4197 0.3,-0.4209 0.3,-0.4221 0.3,-0.4232 0.3,-0.4243 0.3,-0.4254 0.3,-0.4263 0.3,-0.4274 0.3,-0.4283 0.3,-0.4291 0.3,-0.4301 0.3,-0.4308 0.3,-0.4315 0.3,-0.4323 0.3,-0.4329 0.3,-0.4335 0.3,-0.434 0.3,-0.4345 0.3,-0.435 0.3,-0.4353 0.3,-0.4357 0.3,-0.4359 0.3,-0.4361 0.3,-0.4363 0.3,-0.4363 0.3,-0.4364 0.3,-0.4363 0.3,-0.4362 0.3,-0.4361 0.3,-0.4357 0.3,-0.4355 0.3,-0.4352 0.3,-0.4346 0.3,-0.4342 0.3,-0.4336 0.3,-0.4329 0.3,-0.4322 0.3,-0.4314 0.3,-0.4306 0.3,-0.4296 0.3,-0.4286 0.3,-0.4275 0.3,-0.4263 0.3,-0.4251 0.3,-0.4238 0.3,-0.4224 0.3,-0.4209 0.3,-0.4195 0.3,-0.4178 0.3,-0.4161 0.3,-0.4144 0.3,-0.4125 0.3,-0.4106 0.3,-0.4087 0.3,-0.4066 0.3,-0.4045 0.3,-0.4022 0.3,-0.4001 0.3,-0.3976 0.3,-0.3953 0.3,-0.3928 0.3,-0.3903 0.3,-0.3876 0.3,-0.3849 0.3,-0.3823 0.3,-0.3794 0.3,-0.3765 0.3,-0.3736 0.3,-0.3706 0.3,-0.3675 0.3,-0.3645 0.3,-0.3613 0.3,-0.358 0.3,-0.3548 0.3,-0.3515 0.3,-0.3481 0.3,-0.3446 0.3,-0.3412 0.3,-0.3377 0.3,-0.3341 0.3,-0.3305 0.3,-0.3269 0.3,-0.3233 0.3,-0.3195 0.3,-0.3158 0.3,-0.312 0.3,-0.3082 0.3,-0.3044 0.3,-0.3005 0.3,-0.2967 0.3,-0.2927 0.3,-0.2889 0.3,-0.2849 0.3,-0.281 0.3,-0.277 0.3,-0.2731 0.3,-0.269 0.3,-0.2651 0.3,-0.2611 0.3,-0.2572 0.3,-0.2531 0.3,-0.2491 0.3,-0.2452 0.3,-0.2412 0.3,-0.2372 0.3,-0.2332 0.3,-0.2293 0.3,-0.2253 0.3,-0.2214 0.3,-0.2175 0.3,-0.2135 0.3,-0.2097 0.3,-0.2059 0.3,-0.2019 0.3,-0.1982 0.3,-0.1944 0.3,-0.1906 0.3,-0.1868 0.3,-0.1832 0.3,-0.1794 0.3,-0.1757 0.3,-0.1722 0.3,-0.1685 0.3,-0.165 0.3,-0.1614 0.3,-0.1579 0.3,-0.1544 0.3,-0.151 0.3,-0.1475 0.3,-0.1442 0.3,-0.1409 0.3,-0.1375 0.3,-0.1343 0.3,-0.131 0.3,-0.1279 0.3,-0.1247 0.3,-0.1215 0.3,-0.1184 0.3,-0.1154 0.3,-0.1124 0.3,-0.1093 0.3,-0.1064 0.3,-0.1035 0.3,-0.1006 0.3,-0.0978 0.3,-0.0949 0.3,-0.0921 0.3,-0.0893 0.3,-0.0867 0.3,-0.0839 0.3,-0.0812 0.3,-0.0786 0.3,-0.076 0.3,-0.0734 0.3,-0.0708 0.3,-0.0682 0.3,-0.0658 0.3,-0.0632 0.3,-0.0608 0.3,-0.0583 0.3,-0.0559 0.3,-0.0534 0.3,-0.0511 0.3,-0.0486 0.3,-0.0463 0.3,-0.0439 0.3,-0.0415 0.3,-0.0392 0.3,-0.0369 0.3,-0.0345 0.3,-0.0323 0.3,-0.0299 0.3,-0.0276 0.3,-0.0252 0.3,-0.023 0.3,-0.0207 0.3,-0.0183 0.3,-0.016 0.3,-0.0137 0.3,-0.0114 0.3,-0.009 0.3,-0.0067 0.3,-0.0043 0.3,-0.0019 0.3,4e-4 0.3,0.0029 0.3,0.0052 0.3,0.0078 0.3,0.0101 0.3,0.0127 0.3,0.0151 0.3,0.0176 0.3,0.0202 0.3,0.0228 0.3,0.0254 0.3,0.028 0.3,0.0307 0.3,0.0333 0.3,0.0361 0.3,0.0388 0.3,0.0417 0.3,0.0444 0.3,0.0473 0.3,0.0502 0.3,0.0532 0.3,0.0561 0.3,0.0591 0.3,0.0622 0.3,0.0653 0.3,0.0684 0.3,0.0716 0.3,0.0749 0.3,0.078 0.3,0.0815 0.3,0.0847 0.3,0.0882 0.3,0.0917 0.3,0.0951 0.3,0.0987 0.3,0.1023 0.3,0.1059 0.3,0.1096 0.3,0.1133 0.3,0.1171 0.3,0.1209 0.3,0.1248 0.3,0.1287 0.3,0.1327 0.3,0.1367 0.3,0.1408 0.3,0.1448 0.3,0.149 0.3,0.1532 0.3,0.1574 0.3,0.1617 0.3,0.166 0.3,0.1703 0.3,0.1747 0.3,0.1792 0.3,0.1836 0.3,0.1881 0.3,0.1927 0.3,0.1972 0.3,0.2018 0.3,0.2064 0.3,0.2111 0.3,0.2158 0.3,0.2205 0.3,0.2252 0.3,0.2299 0.3,0.2347 0.3,0.2396 0.3,0.2443 0.3,0.2491 0.3,0.254 0.3,0.2588 0.3,0.2636 0.3,0.2685 0.3,0.2734 0.3,0.2782 0.3,0.283 0.3,0.2879 0.3,0.2928 0.3,0.2976 0.3,0.3024 0.3,0.3072 0.3,0.3121 0.3,0.3168 0.3,0.3216 0.3,0.3263 0.3,0.331 0.3,0.3357 0.3,0.3404 0.3,0.345 0.3,0.3496 0.3,0.3542 0.3,0.3587 0.3,0.3631 0.3,0.3676 0.3,0.372 0.3,0.3764 0.3,0.3807 0.3,0.3849 0.3,0.3891 0.3,0.3932 0.3,0.3973 0.3,0.4014 0.3,0.4053 0.3,0.4093 0.3,0.4131 0.3,0.4169 0.3,0.4205 0.3,0.4243 0.3,0.4278 0.3,0.4313 0.3,0.4348 0.3,0.4382 0.3,0.4414 0.3,0.4446 0.3,0.4478 0.3,0.4509 0.3,0.4539 0.3,0.4568 0.3,0.4596 0.3,0.4623 0.3,0.4651 0.3,0.4677 0.3,0.4701 0.3,0.4727 0.3,0.4749 0.3,0.4773 0.3,0.4795 0.3,0.4815 0.3,0.4837 0.3,0.4856 0.3,0.4874 0.3,0.4893 0.3,0.491 0.3,0.4926 0.3,0.4942 0.3,0.4957 0.3,0.4971 0.3,0.4985 0.3,0.4997 0.3,0.5008 0.3,0.502 0.3,0.5031 0.3,0.5039 0.3,0.5049 0.3,0.5057 0.3,0.5065 0.3,0.5071 0.3,0.5077 0.3,0.5083 0.3,0.5088 0.3,0.5092 0.3,0.5095 0.3,0.5098 0.3,0.5101 0.3,0.5102 0.3,0.5103 0.3,0.5104 0.3,0.5104 0.3,0.5103 0.3,0.5101 0.3,0.51 0.3,0.5098 0.3,0.5095 0.3,0.5092 0.3,0.5088 0.3,0.5083 0.3,0.5079 0.3,0.5074 0.3,0.5068 0.3,0.5062 0.3,0.5056 0.3,0.5049 0.3,0.5041 0.3,0.5034 0.3,0.5025 0.3,0.5017 0.3,0.5009 0.3,0.4999 0.3,0.4989 0.3,0.498 0.3,0.4969 0.3,0.4959 0.3,0.4948 0.3,0.4937 0.3,0.4926 0.3,0.4913 0.3,0.4902 0.3,0.4889 0.3,0.4876 0.3,0.4864 0.3,0.485 0.3,0.4837 0.3,0.4823 0.3,0.4809 0.3,0.4795 0.3,0.4781 0.3,0.4765 0.3,0.4751 0.3,0.4735 0.3,0.472 0.3,0.4704 0.3,0.4688 0.3,0.4672 0.3,0.4655 0.3,0.4636 0.3,0.462 0.3,0.461 0.3,0.458 0.3,0.457 0.3,0.455 0.3,0.454 0.3,0.451 0.3,0.449 0.3,0.448 0.3,0.445 0.3,0.444 0.3,0.442 0.3,0.439 0.3,0.438 0.3,0.435 0.3,0.433 0.3,0.431 0.3,0.429 0.3,0.426 0.3,0.425 0.3,0.421 0.3,0.42 0.3,0.417 0.3,0.415 0.3,0.412 0.3,0.409 0.3,0.407 0.3,0.405 0.3,0.401 0.3,0.399 0.3,0.396 0.3,0.394 0.3,0.39 0.3,0.388 0.3,0.384 0.3,0.381 0.3,0.378 0.3,0.375 0.3,0.372 0.3,0.369 0.3,0.365 0.3,0.361 0.3,0.358 0.3,0.355 0.3,0.351 0.3,0.347 0.3,0.343 0.3,0.339 0.3,0.336 0.3,0.331 0.3,0.327 0.3,0.323 0.3,0.319 0.3,0.314 0.3,0.31 0.3,0.305 0.3,0.301 0.3,0.296 0.3,0.292 0.3,0.286 0.3,0.282 0.3,0.276 0.3,0.271 0.3,0.267 0.3,0.26 0.3,0.256 0.3,0.25 0.3,0.245 0.3,0.238 0.3,0.234 0.3,0.227 0.3,0.222 0.3,0.216 0.3,0.209 0.3,0.204 0.3,0.198 0.3,0.191 0.3,0.186 0.3,0.179 0.3,0.172 0.3,0.166 0.3,0.16 0.3,0.154 0.3,0.147 0.3,0.14 0.3,0.134 0.3,0.127 0.3,0.121 0.3,0.114 0.3,0.107 0.3,0.101 0.3,0.094 0.3,0.088 0.3,0.081 0.3,0.074 0.3,0.068 0.3,0.061 0.3,0.055 0.3,0.048 0.3,0.042 0.3,0.036 0.3,0.029 0.3,0.024 0.3,0.016 0.3,0.011 0.3,0.005 0.3,-0.001 0.3,-0.007 0.3,-0.013 0.3,-0.018 0.3,-0.024 0.3,-0.03 0.3,-0.035 0.3,-0.04 0.3,-0.046 0.3,-0.05 0.3,-0.056 0.3,-0.06 0.3,-0.065 0.3,-0.07 0.3,-0.075 0.3,-0.079 0.3,-0.083 0.3,-0.087 0.3,-0.092 0.3,-0.095 0.3,-0.099 0.3,-0.103 0.3,-0.107 0.3,-0.11 0.3,-0.114 0.3,-0.116 0.3,-0.12 0.3,-0.123 0.3,-0.126 0.3,-0.128 0.3,-0.132 0.3,-0.134 0.3,-0.136 0.3,-0.139 0.3,-0.141 0.3,-0.143 0.3,-0.145 0.3,-0.147 0.3,-0.149 0.3,-0.15 0.3,-0.153 0.3,-0.153 0.3,-0.156 0.3,-0.156 0.3,-0.158 0.3,-0.158 0.3,-0.16 0.3,-0.161 0.3,-0.161 0.3,-0.162 0.3,-0.163 0.3,-0.163 0.3,-0.164 0.3,-0.164 0.3,-0.164 0.3,-0.165 0.3,-0.164 0.3,-0.164 0.3,-0.165 0.3,-0.163 0.3,-0.164 0.3,-0.163 0.3,-0.162 0.3,-0.162 0.3,-0.161 0.3,-0.16 0.3,-0.16 0.3,-0.158 0.3,-0.157 0.3,-0.155 0.3,-0.155 0.3,-0.152 0.3,-0.152 0.3,-0.149 0.3,-0.148 0.3,-0.145 0.3,-0.144 0.3,-0.142 0.3,-0.139 0.3,-0.137 0.3,-0.134 0.3,-0.131 0.3,-0.129 0.3,-0.126 0.3,-0.123 0.3,-0.12 0.3,-0.117 0.3,-0.113 0.3,-0.11 0.3,-0.106 0.3,-0.102 0.3,-0.099 0.3,-0.094 0.3,-0.091 0.3,-0.086 0.3,-0.082"
         id="path58" />
    </g>
    <g
       fill="none"
       stroke="#000000"
       stroke-opacity="1"
       stroke-width="1"
       stroke-linecap="square"
       stroke-linejoin="bevel"
       transform="translate(65,193)"
       font-family="Helvetica"
       font-size="12px"
       font-weight="400"
       font-style="normal"
       id="g64">
      <text
         fill="#000000"
         fill-opacity="1"
         stroke="none"
         xml:space="preserve"
         x="0"
         y="0"
         font-family="Helvetica"
         font-size="12px"
         font-weight="400"
         font-style="normal"
         id="text62">1.4e11</text>
    </g>
    <g
       fill="none"
       stroke="#000000"
       stroke-opacity="1"
       stroke-width="1"
       stroke-linecap="square"
       stroke-linejoin="bevel"
       transform="translate(125,193)"
       font-family="Helvetica"
       font-size="12px"
       font-weight="400"
       font-style="normal"
       id="g68">
      <text
         fill="#000000"
         fill-opacity="1"
         stroke="none"
         xml:space="preserve"
         x="0"
         y="0"
         font-family="Helvetica"
         font-size="12px"
         font-weight="400"
         font-style="normal"
         id="text66">1.6e11</text>
    </g>
    <g
       fill="none"
       stroke="#000000"
       stroke-opacity="1"
       stroke-width="1"
       stroke-linecap="square"
       stroke-linejoin="bevel"
       transform="translate(185,193)"
       font-family="Helvetica"
       font-size="12px"
       font-weight="400"
       font-style="normal"
       id="g72">
      <text
         fill="#000000"
         fill-opacity="1"
         stroke="none"
         xml:space="preserve"
         x="0"
         y="0"
         font-family="Helvetica"
         font-size="12px"
         font-weight="400"
         font-style="normal"
         id="text70">1.8e11</text>
    </g>
    <g
       fill="none"
       stroke="#000000"
       stroke-opacity="1"
       stroke-width="1"
       stroke-linecap="square"
       stroke-linejoin="bevel"
       transform="translate(251,193)"
       font-family="Helvetica"
       font-size="12px"
       font-weight="400"
       font-style="normal"
       id="g76">
      <text
         fill="#000000"
         fill-opacity="1"
         stroke="none"
         xml:space="preserve"
         x="0"
         y="0"
         font-family="Helvetica"
         font-size="12px"
         font-weight="400"
         font-style="normal"
         id="text74">2e11</text>
    </g>
    <g
       fill="none"
       stroke="#000000"
       stroke-opacity="1"
       stroke-width="1"
       stroke-linecap="square"
       stroke-linejoin="bevel"
       transform="translate(305,193)"
       font-family="Helvetica"
       font-size="12px"
       font-weight="400"
       font-style="normal"
       id="g80">
      <text
         fill="#000000"
         fill-opacity="1"
         stroke="none"
         xml:space="preserve"
         x="0"
         y="0"
         font-family="Helvetica"
         font-size="12px"
         font-weight="400"
         font-style="normal"
         id="text78">2.2e11</text>
    </g>
    <g
       fill="none"
       stroke="#000000"
       stroke-opacity="1"
       stroke-width="1"
       stroke-linecap="square"
       stroke-linejoin="bevel"
       transform="translate(73,166)"
       font-family="Helvetica"
       font-size="12px"
       font-weight="400"
       font-style="normal"
       id="g84">
      <text
         fill="#000000"
         fill-opacity="1"
         stroke="none"
         xml:space="preserve"
         x="0"
         y="0"
         font-family="Helvetica"
         font-size="12px"
         font-weight="400"
         font-style="normal"
         id="text82">0</text>
    </g>
    <g
       fill="none"
       stroke="#000000"
       stroke-opacity="1"
       stroke-width="1"
       stroke-linecap="square"
       stroke-linejoin="bevel"
       transform="translate(60,117)"
       font-family="Helvetica"
       font-size="12px"
       font-weight="400"
       font-style="normal"
       id="g88">
      <text
         fill="#000000"
         fill-opacity="1"
         stroke="none"
         xml:space="preserve"
         x="0"
         y="0"
         font-family="Helvetica"
         font-size="12px"
         font-weight="400"
         font-style="normal"
         id="text86">0.5</text>
    </g>
    <g
       fill="none"
       stroke="#000000"
       stroke-opacity="1"
       stroke-width="1"
       stroke-linecap="square"
       stroke-linejoin="bevel"
       transform="translate(73,69)"
       font-family="Helvetica"
       font-size="12px"
       font-weight="400"
       font-style="normal"
       id="g92">
      <text
         fill="#000000"
         fill-opacity="1"
         stroke="none"
         xml:space="preserve"
         x="0"
         y="0"
         font-family="Helvetica"
         font-size="12px"
         font-weight="400"
         font-style="normal"
         id="text90">1</text>
    </g>
    <g
       fill="none"
       stroke="#000000"
       stroke-opacity="1"
       stroke-width="1"
       stroke-linecap="square"
       stroke-linejoin="bevel"
       transform="translate(60,21)"
       font-family="Helvetica"
       font-size="12px"
       font-weight="400"
       font-style="normal"
       id="g96">
      <text
         fill="#000000"
         fill-opacity="1"
         stroke="none"
         xml:space="preserve"
         x="0"
         y="0"
         font-family="Helvetica"
         font-size="12px"
         font-weight="400"
         font-style="normal"
         id="text94">1.5</text>
    </g>
    <g
       fill="none"
       stroke="#0000ff"
       stroke-opacity="1"
       stroke-width="1"
       stroke-linecap="square"
       stroke-linejoin="bevel"
       transform="translate(174,212)"
       font-family="Helvetica"
       font-size="12px"
       font-weight="400"
       font-style="normal"
       id="g100">
      <text
         fill="#0000ff"
         fill-opacity="1"
         stroke="none"
         xml:space="preserve"
         x="0"
         y="0"
         font-family="Helvetica"
         font-size="12px"
         font-weight="400"
         font-style="normal"
         id="text98">frequency</text>
    </g>
    <g
       fill="none"
       stroke="#ff0000"
       stroke-opacity="1"
       stroke-width="1"
       stroke-linecap="square"
       stroke-linejoin="bevel"
       transform="translate(174,231)"
       font-family="Helvetica"
       font-size="12px"
       font-weight="400"
       font-style="normal"
       id="g104">
      <text
         fill="#ff0000"
         fill-opacity="1"
         stroke="none"
         xml:space="preserve"
         x="0"
         y="0"
         font-family="Helvetica"
         font-size="12px"
         font-weight="400"
         font-style="normal"
         id="text102">frequency</text>
    </g>
    <g
       fill="none"
       stroke="#0000ff"
       stroke-opacity="1"
       stroke-width="1"
       stroke-linecap="square"
       stroke-linejoin="bevel"
       transform="rotate(-90,100.5,47.5)"
       font-family="Helvetica"
       font-size="12px"
       font-weight="400"
       font-style="normal"
       id="g108">
      <text
         fill="#0000ff"
         fill-opacity="1"
         stroke="none"
         xml:space="preserve"
         x="0"
         y="0"
         font-family="Helvetica"
         font-size="12px"
         font-weight="400"
         font-style="normal"
         id="text106">ngspice/ac.s11</text>
    </g>
    <g
       fill="none"
       stroke="#ff0000"
       stroke-opacity="1"
       stroke-width="1"
       stroke-linecap="square"
       stroke-linejoin="bevel"
       transform="rotate(-90,91,57)"
       font-family="Helvetica"
       font-size="12px"
       font-weight="400"
       font-style="normal"
       id="g112">
      <text
         fill="#ff0000"
         fill-opacity="1"
         stroke="none"
         xml:space="preserve"
         x="0"
         y="0"
         font-family="Helvetica"
         font-size="12px"
         font-weight="400"
         font-style="normal"
         id="text110">ngspice/ac.s21</text>
    </g>
    <g
       fill="none"
       stroke="#ff0000"
       stroke-opacity="1"
       stroke-width="1"
       stroke-linecap="square"
       stroke-linejoin="bevel"
       font-family="Helvetica"
       font-size="12px"
       font-weight="400"
       font-style="normal"
       id="g114" />
  </g>
</svg>
