<?xml version="1.0" encoding="UTF-8" standalone="no"?>
<svg
   xmlns:dc="http://purl.org/dc/elements/1.1/"
   xmlns:cc="http://creativecommons.org/ns#"
   xmlns:rdf="http://www.w3.org/1999/02/22-rdf-syntax-ns#"
   xmlns:svg="http://www.w3.org/2000/svg"
   xmlns="http://www.w3.org/2000/svg"
   xmlns:sodipodi="http://sodipodi.sourceforge.net/DTD/sodipodi-0.dtd"
   xmlns:inkscape="http://www.inkscape.org/namespaces/inkscape"
   sodipodi:docname="scikit-rf-title-flat.svg"
   inkscape:version="1.0 (4035a4fb49, 2020-05-01)"
   id="svg1592"
   version="1.1"
   viewBox="0 0 105.2121 30.656448"
   height="30.656448mm"
   width="105.2121mm">
  <defs
     id="defs1586">
    <clipPath
       id="clipPath23113"
       clipPathUnits="userSpaceOnUse">
      <circle
         r="252.57939"
         cy="279.8804"
         cx="280.01196"
         id="circle23115"
         style="fill:#0054a6;fill-opacity:1;stroke-width:2.963;stroke-miterlimit:4;stroke-dasharray:none" />
    </clipPath>
  </defs>
  <sodipodi:namedview
     inkscape:window-maximized="1"
     inkscape:window-y="-8"
     inkscape:window-x="-8"
     inkscape:window-height="705"
     inkscape:window-width="1366"
     showgrid="false"
     inkscape:document-rotation="0"
     inkscape:current-layer="layer1"
     inkscape:document-units="mm"
     inkscape:cy="132.10097"
     inkscape:cx="100.88662"
     inkscape:zoom="1.4"
     inkscape:pageshadow="2"
     inkscape:pageopacity="0.0"
     borderopacity="1.0"
     bordercolor="#666666"
     pagecolor="#ffffff"
     id="base" />
  <metadata
     id="metadata1589">
    <rdf:RDF>
      <cc:Work
         rdf:about="">
        <dc:format>image/svg+xml</dc:format>
        <dc:type
           rdf:resource="http://purl.org/dc/dcmitype/StillImage" />
        <dc:title></dc:title>
      </cc:Work>
    </rdf:RDF>
  </metadata>
  <g
     transform="translate(-49.447522,-227.33249)"
     id="layer1"
     inkscape:groupmode="layer"
     inkscape:label="Calque 1">
    <g
       style="stroke-width:4.34657;stroke-miterlimit:4;stroke-dasharray:none"
       transform="matrix(0.2300665,0,0,0.2300665,54.643667,212.9684)"
       id="g2477">
      <path
         id="circle"
         style="fill:#204a87;fill-opacity:1;stroke:none;stroke-width:4.34657;stroke-miterlimit:4;stroke-dasharray:none"
         d="m 44.440535,62.178934 a 66.828297,66.828297 0 0 0 -66.828475,66.828476 66.828297,66.828297 0 0 0 8.020182,31.71951 c 0.383935,0.0897 0.752303,0.23615 1.110526,0.40101 1.296145,0.5965 2.52076,1.4587 3.247348,2.68666 0.3632931,0.61397 0.5935361,1.31238 0.6227001,2.02519 0.02889,0.70622 -0.147959,1.42428 -0.531233,2.01797 A 66.828297,66.828297 0 0 0 44.440535,195.83537 66.828297,66.828297 0 0 0 111.26902,129.00741 66.828297,66.828297 0 0 0 44.440535,62.178934 Z" />
      <path
         fill-rule="evenodd"
         clip-rule="evenodd"
         fill="#0054a6"
         d="m 106.38995,103.88542 3.41075,-1.58644 2.30478,-6.299466 2.41856,0.84746 -2.07751,5.632716 5.7568,1.98437 -0.86809,2.35903 -6.42859,-2.24526 -3.54488,1.63037"
         id="tongue"
         style="fill:#204a87;fill-opacity:1;stroke-width:4.34657;stroke-miterlimit:4;stroke-dasharray:none"
         sodipodi:nodetypes="ccccccccc" />
      <path
         fill-rule="evenodd"
         clip-rule="evenodd"
         fill="#0054a6"
         d="m 373.90992,313.03486 c -17.39799,-23.797 -51.77696,-37.63286 -81.2681,-44.12822 -29.49115,-6.49535 -47.44014,-11.51901 -61.77612,-19.27626 -16.36281,-8.85397 -29.22641,-34.96222 -24.20294,-57.598 7.88381,-35.52446 39.61017,-61.08652 75.84117,-56.02752 18.094,2.559 33.438,12.139 43.55499,25.625 l 40.117,52.705 c 22.93,29.531 48.71101,38.32 76.758,24.375 l 13.64756,-6.45002 c 1.133,-0.527 2.50681,-1.59041 4.73081,-0.88308 2.224,0.70733 3.31502,2.62611 4.56297,4.87011 1.24794,2.244 2.56705,4.31231 4.91495,4.87732 2.34789,0.56501 5.6182,0.177 7.14707,-1.28038 10.39551,-9.90944 31.48264,-30.08895 31.48264,-30.08895 5.703,-4.883 4.023,-9.365 4.023,-9.365 l -7.852,-17.881 c 0,0 -2.148,-4.287 -9.57,-3.301 l -43.672,4.014 c -2.539,0.361 -4.805,2.051 -5.781,4.629 -0.586,1.504 -0.625,3.076 -0.195,4.502 l 1.563,5.029 c 0.313,1.045 0.313,2.217 -0.117,3.291 -0.508,1.328 -1.523,2.266 -2.734,2.764 l -12.344,5.225 c -14.22674,4.82612 -27.617,2.734 -37.422,-9.258 l -11.211,-14.893 -31.914,-42.354 c -15.156,-20.098 -38.00799,-34.434 -64.99999,-38.203 -54.043,-7.568 -104.199,29.854 -112.051,83.584 -3.965,27.08 -0.23964,49.98277 20.21927,73.38016 20.45892,23.39738 60.24695,32.31062 94.71373,40.20984 3.688,0.875 14.063,3.438 20.203,5.656 5.676,2.055 18.74999,6.875 29.37499,15.57 v 0 c 12.695,12.906 19.414,31.344 16.563,50.68 -4.805,32.969 -35.586,55.938 -68.74999,51.289 -16.611,-2.305 -30.635,-11.109 -39.922,-23.438 l -38.32,-50.859 c -7.813,-10.367 -19.629,-17.773 -33.594,-19.766 -13.945,-1.953 -27.441,1.914 -37.9,9.75 l -80.043417,59.73605 c 3.392949,9.65154 7.686724,19.24315 16.84366,27.03872 l 82.523757,-61.87477 c 3.779,-2.578 8.467,-3.75 13.33,-3.086 5.176,0.742 9.58,3.461 12.471,7.305 l 40.537,54.477 c 14.277,17.516 35.02,29.922 59.307,33.336 51.09399,7.148 98.51599,-28.242 105.93799,-79.063 3.436,-23.649 -2.345,-46.485 -14.728,-64.844"
         id="snake"
         style="fill:#ffffff;fill-opacity:1;stroke:none;stroke-width:16.428;stroke-miterlimit:4;stroke-dasharray:none"
         sodipodi:nodetypes="czssccccczzzscccccccccccccccczccssccccccccccccccc"
         clip-path="url(#clipPath23113)"
         transform="matrix(0.26458333,0,0,0.26458333,-29.491283,54.955814)" />
      <g
         id="g2109"
         transform="matrix(0.7032199,0,0,0.71933147,152.96434,-142.83274)"
         style="stroke-width:2.42543841;stroke-miterlimit:4;stroke-dasharray:none">
        <path
           style="display:inline;overflow:visible;fill:none;stroke:#ffffff;stroke-width:2.42543841;stroke-linecap:butt;stroke-linejoin:miter;stroke-miterlimit:4;stroke-dasharray:none;stroke-opacity:1"
           d="m -61.140192,377.87006 -188.397188,0.0479"
           id="path3973-1"
           inkscape:connector-curvature="0"
           sodipodi:nodetypes="cc" />
        <circle
           style="display:inline;overflow:visible;fill:#ffffff;fill-opacity:0;fill-rule:evenodd;stroke:#ffffff;stroke-width:2.42543841;stroke-linecap:butt;stroke-linejoin:miter;stroke-miterlimit:4;stroke-dasharray:none;stroke-opacity:1"
           id="path3068-5-8-0"
           cx="-131.68747"
           cy="377.00952"
           r="70.125412" />
        <circle
           style="display:inline;overflow:visible;fill:#ffffff;fill-opacity:0;fill-rule:evenodd;stroke:#ffffff;stroke-width:2.42543841;stroke-linecap:butt;stroke-linejoin:miter;stroke-miterlimit:4;stroke-dasharray:none;stroke-opacity:1"
           id="path3068-5-2"
           cx="-110.21825"
           cy="377.94299"
           r="48.656181" />
        <path
           transform="rotate(90)"
           sodipodi:type="arc"
           style="display:inline;overflow:visible;fill:#ffffff;fill-opacity:0;fill-rule:evenodd;stroke:#ffffff;stroke-width:2.42543841;stroke-linecap:butt;stroke-linejoin:miter;stroke-miterlimit:4;stroke-dasharray:none;stroke-opacity:1"
           id="path3068-9-50"
           sodipodi:cx="284.87"
           sodipodi:cy="61.562103"
           sodipodi:rx="92.994804"
           sodipodi:ry="92.994804"
           d="M 377.8648,61.562103 A 92.994804,92.994804 0 0 1 284.87,154.55691"
           sodipodi:start="0"
           sodipodi:end="1.5707963"
           sodipodi:open="true"
           sodipodi:arc-type="arc" />
        <path
           transform="matrix(0,-1,-1,0,0,0)"
           sodipodi:type="arc"
           style="display:inline;overflow:visible;fill:#ffffff;fill-opacity:0;fill-rule:evenodd;stroke:#ffffff;stroke-width:2.42543841;stroke-linecap:butt;stroke-linejoin:miter;stroke-miterlimit:4;stroke-dasharray:none;stroke-opacity:1"
           id="path3068-9-5-5"
           sodipodi:cx="-470.85962"
           sodipodi:cy="61.562103"
           sodipodi:rx="92.994804"
           sodipodi:ry="92.994804"
           d="m -377.86481,61.562103 a 92.994804,92.994804 0 0 1 -92.99481,92.994807"
           sodipodi:start="0"
           sodipodi:end="1.5707963"
           sodipodi:open="true"
           sodipodi:arc-type="arc" />
        <path
           transform="rotate(90)"
           sodipodi:type="arc"
           style="display:inline;overflow:visible;fill:#ffffff;fill-opacity:0;fill-rule:evenodd;stroke:#ffffff;stroke-width:2.42543841;stroke-linecap:butt;stroke-linejoin:miter;stroke-miterlimit:4;stroke-dasharray:none;stroke-opacity:1"
           id="path3068-9-3-3"
           sodipodi:cx="165.81479"
           sodipodi:cy="61.562057"
           sodipodi:rx="212.12817"
           sodipodi:ry="212.12817"
           d="M 377.94296,61.562057 A 212.12817,212.12817 0 0 1 308.70558,218.34402"
           sodipodi:start="0"
           sodipodi:end="0.83171948"
           sodipodi:open="true"
           sodipodi:arc-type="arc" />
        <path
           transform="matrix(0,-1,-1,0,0,0)"
           sodipodi:type="arc"
           style="display:inline;overflow:visible;fill:#ffffff;fill-opacity:0;fill-rule:evenodd;stroke:#ffffff;stroke-width:2.42543841;stroke-linecap:butt;stroke-linejoin:miter;stroke-miterlimit:4;stroke-dasharray:none;stroke-opacity:1"
           id="path3068-9-3-6-9"
           sodipodi:cx="-590.07117"
           sodipodi:cy="61.562057"
           sodipodi:rx="212.12817"
           sodipodi:ry="212.12817"
           d="M -377.94299,61.562057 A 212.12817,212.12817 0 0 1 -447.18038,218.34402"
           sodipodi:start="0"
           sodipodi:end="0.83171948"
           sodipodi:open="true"
           sodipodi:arc-type="arc" />
      </g>
    </g>
    <g
       id="g2536">
      <path
         d="m 94.865447,242.13863 c 0.552214,0 0.959112,-0.0727 1.220692,-0.21798 0.271261,-0.14532 0.406895,-0.37784 0.4069,-0.69754 -5e-6,-0.3294 -0.130794,-0.59097 -0.392366,-0.78474 -0.261583,-0.19375 -0.692701,-0.41174 -1.293355,-0.65394 -0.290645,-0.11625 -0.571598,-0.23251 -0.842862,-0.34877 -0.261578,-0.12594 -0.489246,-0.27126 -0.683006,-0.43596 -0.193762,-0.16469 -0.348771,-0.3633 -0.465026,-0.59582 -0.116258,-0.23251 -0.174387,-0.5183 -0.174385,-0.85739 -2e-6,-0.66847 0.247044,-1.19647 0.741135,-1.584 0.494088,-0.3972 1.167408,-0.5958 2.019959,-0.59581 0.213132,1e-5 0.42627,0.0145 0.639411,0.0436 0.213132,0.0194 0.411736,0.0484 0.595815,0.0872 0.184068,0.0291 0.343921,0.063 0.479557,0.10172 0.145317,0.0388 0.256728,0.0727 0.33424,0.10173 l -0.247046,1.16256 c -0.145325,-0.0775 -0.372994,-0.155 -0.683006,-0.23251 -0.310023,-0.0872 -0.683014,-0.13078 -1.118971,-0.13079 -0.377838,1e-5 -0.707231,0.0775 -0.988182,0.23251 -0.280955,0.14533 -0.421431,0.37784 -0.421431,0.69754 0,0.16471 0.02906,0.31003 0.08719,0.43597 0.06781,0.12595 0.164695,0.2422 0.290642,0.34877 0.135628,0.0969 0.300326,0.18892 0.494091,0.27611 0.193757,0.0872 0.42627,0.17923 0.697539,0.2761 0.358453,0.13564 0.678159,0.27127 0.959118,0.4069 0.280947,0.12595 0.518305,0.27612 0.71207,0.4505 0.203443,0.17439 0.358452,0.38752 0.465026,0.63941 0.106564,0.2422 0.159848,0.54253 0.159854,0.90099 -6e-6,0.69754 -0.261583,1.22554 -0.784733,1.58399 -0.513472,0.35846 -1.249762,0.53769 -2.208874,0.53769 -0.668478,0 -1.191633,-0.0581 -1.569466,-0.17438 -0.377836,-0.10657 -0.634566,-0.18892 -0.7702,-0.24705 l 0.247044,-1.16257 c 0.155009,0.0581 0.402053,0.14533 0.741138,0.26158 0.339079,0.11626 0.789572,0.17439 1.351484,0.17439"
         style="font-style:normal;font-weight:normal;font-size:54.9244px;line-height:144%;font-family:Ubuntu;-inkscape-font-specification:Ubuntu;letter-spacing:0px;word-spacing:0px;fill:#000000;fill-opacity:1;stroke:none;stroke-width:0.264583"
         id="path3001" />
      <path
         d="m 103.24816,243.28666 c -0.61036,0 -1.14804,-0.0969 -1.61307,-0.29064 -0.45534,-0.19376 -0.84286,-0.46503 -1.16256,-0.8138 -0.31002,-0.34877 -0.542532,-0.76051 -0.697541,-1.23522 -0.155009,-0.4844 -0.232513,-1.01725 -0.232513,-1.59853 0,-0.58128 0.08235,-1.11412 0.247046,-1.59853 0.174385,-0.4844 0.416588,-0.90098 0.726608,-1.24976 0.31001,-0.35845 0.68784,-0.63456 1.1335,-0.82833 0.45533,-0.20344 0.95911,-0.30516 1.51133,-0.30517 0.33908,1e-5 0.67816,0.0291 1.01725,0.0872 0.33908,0.0581 0.66362,0.15017 0.97365,0.27611 l -0.30518,1.14803 c -0.20345,-0.0969 -0.44081,-0.17437 -0.71207,-0.23251 -0.26158,-0.0581 -0.54253,-0.0872 -0.84286,-0.0872 -0.75567,1e-5 -1.33695,0.23736 -1.74385,0.71207 -0.39721,0.47472 -0.59581,1.16742 -0.59581,2.07809 0,0.4069 0.0436,0.77989 0.13079,1.11897 0.0969,0.33908 0.24219,0.62972 0.43596,0.87192 0.20345,0.2422 0.46018,0.43112 0.7702,0.56675 0.31001,0.12595 0.68785,0.18892 1.1335,0.18892 0.35845,0 0.683,-0.0339 0.97365,-0.10172 0.29063,-0.0678 0.5183,-0.14048 0.68301,-0.21799 l 0.18891,1.13351 c -0.0775,0.0484 -0.18892,0.0969 -0.33423,0.14532 -0.14533,0.0387 -0.31003,0.0727 -0.49409,0.10172 -0.18408,0.0387 -0.38269,0.0678 -0.59582,0.0872 -0.20345,0.0291 -0.40206,0.0436 -0.59581,0.0436"
         style="font-style:normal;font-weight:normal;font-size:54.9244px;line-height:144%;font-family:Ubuntu;-inkscape-font-specification:Ubuntu;letter-spacing:0px;word-spacing:0px;fill:#000000;fill-opacity:1;stroke:none;stroke-width:0.264583"
         id="path3003" />
      <path
         d="m 108.45606,243.11228 h -1.35148 v -7.55668 h 1.35148 v 7.55668 m -0.68301,-8.9227 c -0.2422,1e-5 -0.45049,-0.0775 -0.62488,-0.23251 -0.16469,-0.16469 -0.24704,-0.38267 -0.24704,-0.65395 0,-0.27125 0.0824,-0.48439 0.24704,-0.63941 0.17439,-0.16468 0.38268,-0.24703 0.62488,-0.24704 0.2422,1e-5 0.44565,0.0824 0.61035,0.24704 0.17438,0.15502 0.26158,0.36816 0.26158,0.63941 0,0.27128 -0.0872,0.48926 -0.26158,0.65395 -0.1647,0.15502 -0.36815,0.23252 -0.61035,0.23251"
         style="font-style:normal;font-weight:normal;font-size:54.9244px;line-height:144%;font-family:Ubuntu;-inkscape-font-specification:Ubuntu;letter-spacing:0px;word-spacing:0px;fill:#000000;fill-opacity:1;stroke:none;stroke-width:0.264583"
         id="path3005" />
      <path
         d="m 113.91192,238.9561 c 0.29064,0.22283 0.59581,0.49894 0.91552,0.82833 0.32939,0.3294 0.6491,0.68785 0.95912,1.07537 0.3197,0.37784 0.62003,0.76536 0.90099,1.16257 0.28094,0.38752 0.5183,0.75082 0.71207,1.08991 h -1.584 c -0.20345,-0.33909 -0.44081,-0.68301 -0.71207,-1.03178 -0.26158,-0.35846 -0.53769,-0.69754 -0.82833,-1.01725 -0.29064,-0.32939 -0.58613,-0.62972 -0.88645,-0.90099 -0.30034,-0.27126 -0.58613,-0.49893 -0.8574,-0.683 v 3.63302 h -1.35148 V 232.0679 l 1.35148,-0.23252 v 6.88821 c 0.23251,-0.23251 0.48925,-0.48924 0.7702,-0.7702 0.28095,-0.28095 0.55706,-0.56675 0.82833,-0.85739 0.27126,-0.29064 0.528,-0.56675 0.7702,-0.82833 0.2422,-0.27126 0.45049,-0.50862 0.62488,-0.71207 h 1.584 c -0.22283,0.2422 -0.46504,0.50863 -0.72661,0.79926 -0.26158,0.29065 -0.53285,0.58613 -0.81379,0.88646 -0.28096,0.29064 -0.56676,0.58613 -0.85739,0.88645 -0.28096,0.29065 -0.54738,0.56676 -0.79927,0.82833"
         style="font-style:normal;font-weight:normal;font-size:54.9244px;line-height:144%;font-family:Ubuntu;-inkscape-font-specification:Ubuntu;letter-spacing:0px;word-spacing:0px;fill:#000000;fill-opacity:1;stroke:none;stroke-width:0.264583"
         id="path3007" />
      <path
         d="m 120.49515,243.11228 h -1.35148 v -7.55668 h 1.35148 v 7.55668 m -0.68301,-8.9227 c -0.2422,1e-5 -0.45049,-0.0775 -0.62488,-0.23251 -0.16469,-0.16469 -0.24704,-0.38267 -0.24704,-0.65395 0,-0.27125 0.0824,-0.48439 0.24704,-0.63941 0.17439,-0.16468 0.38268,-0.24703 0.62488,-0.24704 0.2422,1e-5 0.44565,0.0824 0.61035,0.24704 0.17438,0.15502 0.26157,0.36816 0.26158,0.63941 -1e-5,0.27128 -0.0872,0.48926 -0.26158,0.65395 -0.1647,0.15502 -0.36815,0.23252 -0.61035,0.23251"
         style="font-style:normal;font-weight:normal;font-size:54.9244px;line-height:144%;font-family:Ubuntu;-inkscape-font-specification:Ubuntu;letter-spacing:0px;word-spacing:0px;fill:#000000;fill-opacity:1;stroke:none;stroke-width:0.264583"
         id="path3009" />
      <path
         d="m 124.48327,235.5556 h 2.86282 v 1.1335 h -2.86282 v 3.4877 c 0,0.37783 0.0291,0.69269 0.0872,0.94458 0.0581,0.2422 0.14532,0.43596 0.26158,0.58128 0.11626,0.13564 0.26158,0.23252 0.43596,0.29065 0.17438,0.0581 0.37783,0.0872 0.61035,0.0872 0.40689,0 0.73144,-0.0436 0.97365,-0.13079 0.25188,-0.0969 0.42627,-0.1647 0.52316,-0.20345 l 0.26157,1.11897 c -0.13564,0.0678 -0.37299,0.15016 -0.71207,0.24705 -0.33909,0.10656 -0.72661,0.15985 -1.16257,0.15985 -0.51347,0 -0.93974,-0.063 -1.27882,-0.18892 -0.32939,-0.13563 -0.59582,-0.33424 -0.79926,-0.59581 -0.20345,-0.26158 -0.34877,-0.58129 -0.43597,-0.95912 -0.0775,-0.38752 -0.11625,-0.83317 -0.11625,-1.33695 v -6.74288 l 1.35148,-0.23252 v 2.33967"
         style="font-style:normal;font-weight:normal;font-size:54.9244px;line-height:144%;font-family:Ubuntu;-inkscape-font-specification:Ubuntu;letter-spacing:0px;word-spacing:0px;fill:#000000;fill-opacity:1;stroke:none;stroke-width:0.264583"
         id="path3011" />
      <path
         d="m 128.66667,238.12777 h 3.58942 v 1.26429 h -3.58942 v -1.26429"
         style="font-style:normal;font-weight:normal;font-size:54.9244px;line-height:144%;font-family:ubuntu;-inkscape-font-specification:ubuntu;letter-spacing:1.45711px;word-spacing:0px;fill:#000000;fill-opacity:1;stroke:none;stroke-width:0.264583"
         id="path3013" />
      <path
         d="m 136.96968,235.39574 c 0.11625,1e-5 0.24704,0.01 0.39236,0.0291 0.15501,0.01 0.30517,0.0291 0.4505,0.0581 0.14532,0.0194 0.2761,0.0436 0.39237,0.0727 0.12593,0.0194 0.21797,0.0388 0.2761,0.0581 l -0.23251,1.1771 c -0.10657,-0.0387 -0.2858,-0.0823 -0.53769,-0.13079 -0.2422,-0.0581 -0.55706,-0.0872 -0.94458,-0.0872 -0.25189,1e-5 -0.50378,0.0291 -0.75567,0.0872 -0.2422,0.0485 -0.40206,0.0824 -0.47956,0.10173 v 6.35052 h -1.35148 v -7.23698 c 0.31971,-0.11625 0.71691,-0.22282 1.19163,-0.3197 0.47471,-0.10657 1.00755,-0.15985 1.59853,-0.15986"
         style="font-style:normal;font-weight:normal;font-size:54.9244px;line-height:144%;font-family:ubuntu;-inkscape-font-specification:ubuntu;letter-spacing:1.45711px;word-spacing:0px;fill:#000000;fill-opacity:1;stroke:none;stroke-width:0.264583"
         id="path3015" />
      <path
         d="m 143.13488,231.83538 c 0.39721,2e-5 0.73629,0.0291 1.01725,0.0872 0.29063,0.0581 0.49408,0.11142 0.61034,0.15985 l -0.24704,1.16257 c -0.11626,-0.0581 -0.28096,-0.11141 -0.49409,-0.15986 -0.21314,-0.0581 -0.47472,-0.0872 -0.78473,-0.0872 -0.62973,1e-5 -1.07054,0.1744 -1.32242,0.52316 -0.25189,0.33909 -0.37784,0.79927 -0.37784,1.38054 v 0.65395 h 2.90642 v 1.1335 h -2.90642 v 6.42318 h -1.35148 v -8.23969 c 0,-0.9688 0.23736,-1.71478 0.71207,-2.23794 0.47471,-0.53283 1.22069,-0.79925 2.23794,-0.79927"
         style="font-style:normal;font-weight:normal;font-size:54.9244px;line-height:144%;font-family:ubuntu;-inkscape-font-specification:ubuntu;letter-spacing:1.45711px;word-spacing:0px;fill:#000000;fill-opacity:1;stroke:none;stroke-width:0.264583"
         id="path3017" />
    </g>
    <path
       style="overflow:visible;fill:none;stroke:#204a87;stroke-width:0.854829;stroke-linecap:butt;stroke-linejoin:miter;stroke-miterlimit:4;stroke-dasharray:none;stroke-opacity:1"
       d="M 82.628636,246.73812 H 154.65962"
       id="path5926"
       inkscape:connector-curvature="0"
       sodipodi:nodetypes="cc" />
    <g
       transform="matrix(0.26458333,0,0,0.26458333,36.024551,227.13863)"
       style="font-style:normal;font-weight:normal;font-size:18.0927px;line-height:125%;font-family:ubuntu;-inkscape-font-specification:ubuntu;letter-spacing:0px;word-spacing:0px;overflow:visible;fill:#204a87;fill-opacity:1;stroke:none"
       id="text5928">
      <path
         style="fill:#204a87;fill-opacity:1"
         d="m 182.72887,89.976023 c 0,-1.073495 0.1568,-2.020347 0.47041,-2.84056 0.32567,-0.820194 0.75989,-1.501686 1.30268,-2.044479 0.55484,-0.554833 1.19411,-0.970965 1.91783,-1.248399 0.73576,-0.27741 1.51375,-0.41612 2.33396,-0.416133 0.80813,1.3e-5 1.56803,0.138723 2.27969,0.416133 0.72369,0.277434 1.35694,0.693566 1.89973,1.248399 0.54277,0.542793 0.97097,1.224285 1.28459,2.044479 0.32565,0.820213 0.48849,1.767065 0.4885,2.84056 -10e-6,1.073508 -0.16285,2.02036 -0.4885,2.84056 -0.31362,0.820207 -0.74182,1.507731 -1.28459,2.062573 -0.54279,0.542783 -1.17604,0.952884 -1.89973,1.230306 -0.71166,0.277422 -1.47156,0.416133 -2.27969,0.416133 -0.82021,0 -1.5982,-0.138711 -2.33396,-0.416133 -0.72372,-0.277422 -1.36299,-0.687523 -1.91783,-1.230306 -0.54279,-0.554842 -0.97701,-1.242366 -1.30268,-2.062573 -0.31361,-0.8202 -0.47041,-1.767052 -0.47041,-2.84056 m 1.84546,0 c -1e-5,0.759901 0.0965,1.453455 0.28948,2.080665 0.19299,0.615157 0.46438,1.139846 0.81417,1.574069 0.36185,0.434228 0.79608,0.771958 1.30268,1.013193 0.51865,0.229176 1.09762,0.343763 1.7369,0.343762 0.63927,10e-7 1.21221,-0.114586 1.71881,-0.343762 0.50659,-0.241235 0.93479,-0.578965 1.28459,-1.013193 0.36184,-0.434223 0.63927,-0.958912 0.83227,-1.574069 0.19297,-0.62721 0.28947,-1.320764 0.28948,-2.080665 -1e-5,-0.759888 -0.0965,-1.447411 -0.28948,-2.062572 -0.193,-0.627206 -0.47043,-1.157926 -0.83227,-1.592161 -0.3498,-0.434215 -0.778,-0.765915 -1.28459,-0.995101 -0.5066,-0.241225 -1.07954,-0.361843 -1.71881,-0.361854 -0.63928,1.1e-5 -1.21825,0.120629 -1.7369,0.361854 -0.5066,0.229186 -0.94083,0.560886 -1.30268,0.995101 -0.34979,0.434235 -0.62118,0.964955 -0.81417,1.592161 -0.19299,0.615161 -0.28949,1.302684 -0.28948,2.062572"
         id="path3020" />
      <path
         style="fill:#204a87;fill-opacity:1"
         d="m 198.87381,87.262112 c 0.20505,-0.132671 0.51262,-0.271381 0.92273,-0.416133 0.42216,-0.144732 0.90463,-0.217103 1.44742,-0.217112 0.67546,9e-6 1.27252,0.120627 1.79118,0.361854 0.53071,0.241246 0.977,0.578977 1.33886,1.013194 0.36185,0.434233 0.63324,0.952891 0.81418,1.555975 0.19298,0.603098 0.28947,1.266497 0.28948,1.990202 -10e-6,0.759899 -0.1146,1.447422 -0.34376,2.062572 -0.21712,0.603093 -0.53073,1.11572 -0.94082,1.537883 -0.41011,0.422164 -0.90465,0.747833 -1.48361,0.977008 -0.57897,0.229174 -1.23031,0.343761 -1.95401,0.343762 -0.78403,-10e-7 -1.47758,-0.05428 -2.08067,-0.162835 -0.60309,-0.108556 -1.09763,-0.217113 -1.4836,-0.325669 V 82.503722 l 1.68262,-0.289484 v 5.047874 m 0,7.52658 c 0.16886,0.04825 0.40407,0.0965 0.70562,0.144742 0.3136,0.03619 0.69958,0.05428 1.15793,0.05428 0.90463,10e-7 1.62834,-0.295513 2.17113,-0.886544 0.54278,-0.603089 0.81417,-1.453447 0.81417,-2.551076 0,-0.482468 -0.0482,-0.934786 -0.14474,-1.356956 -0.0965,-0.422157 -0.2533,-0.784012 -0.47041,-1.085564 -0.21712,-0.3136 -0.50057,-0.554836 -0.85036,-0.72371 -0.33773,-0.180919 -0.74784,-0.271383 -1.2303,-0.271391 -0.45836,8e-6 -0.88052,0.07841 -1.2665,0.235206 -0.38598,0.156811 -0.68149,0.319646 -0.88654,0.488504 v 5.952511"
         id="path3022" />
      <path
         style="fill:#204a87;fill-opacity:1"
         d="m 206.32519,99.637546 c -0.14474,-3e-6 -0.3317,-0.0181 -0.56087,-0.05428 -0.22918,-0.03619 -0.42216,-0.08444 -0.57897,-0.144742 l 0.21711,-1.375048 c 0.12062,0.03618 0.25933,0.06634 0.41614,0.09046 0.1568,0.02412 0.30154,0.03618 0.43422,0.03619 0.57897,-2e-6 0.98907,-0.180929 1.23031,-0.542782 0.2533,-0.349794 0.37994,-0.868452 0.37995,-1.555976 v -9.24539 h 1.68262 v 9.227297 c 0,1.206182 -0.27742,2.098756 -0.83227,2.677726 -0.54278,0.591026 -1.33886,0.886541 -2.38824,0.886544 m 2.37015,-14.492284 c -0.30155,1.1e-5 -0.56087,-0.09648 -0.77799,-0.289484 -0.20505,-0.205039 -0.30757,-0.47643 -0.30757,-0.814173 0,-0.337719 0.10252,-0.603079 0.30757,-0.796081 0.21712,-0.205037 0.47644,-0.307563 0.77799,-0.307576 0.30155,1.3e-5 0.55484,0.102539 0.7599,0.307576 0.21711,0.193002 0.32566,0.458362 0.32567,0.796081 -1e-5,0.337743 -0.10856,0.609134 -0.32567,0.814173 -0.20506,0.193001 -0.45835,0.289495 -0.7599,0.289484"
         id="path3024" />
      <path
         style="fill:#204a87;fill-opacity:1"
         d="m 211.93225,91.568184 c -1e-5,-0.83226 0.12061,-1.555969 0.36185,-2.171128 0.24124,-0.627208 0.56087,-1.145866 0.95892,-1.555976 0.39803,-0.410093 0.85638,-0.717669 1.37504,-0.92273 0.51866,-0.205041 1.04938,-0.307567 1.59216,-0.307576 1.26649,9e-6 2.23747,0.398049 2.91294,1.194121 0.67545,0.784026 1.01318,1.984176 1.01319,3.600455 -1e-5,0.07238 -1e-5,0.16887 0,0.289484 -1e-5,0.10856 -0.006,0.211086 -0.0181,0.307576 h -6.44102 c 0.0724,0.977011 0.35582,1.718813 0.85036,2.225407 0.49453,0.506598 1.26649,0.759896 2.31587,0.759895 0.59102,10e-7 1.08556,-0.04825 1.48361,-0.144742 0.41009,-0.108555 0.71767,-0.21108 0.92272,-0.307576 l 0.23521,1.411233 c -0.20506,0.108557 -0.56691,0.223144 -1.08556,0.343762 -0.50661,0.120618 -1.08557,0.180927 -1.73691,0.180928 -0.82021,-10e-7 -1.53185,-0.120619 -2.13494,-0.361855 -0.59103,-0.253298 -1.07954,-0.59706 -1.46551,-1.031286 -0.38598,-0.434224 -0.67547,-0.946851 -0.86845,-1.537883 -0.18093,-0.603088 -0.2714,-1.260457 -0.27139,-1.972109 m 6.4591,-0.922729 c 0.0121,-0.759889 -0.18093,-1.381072 -0.57896,-1.863552 -0.38599,-0.494527 -0.92274,-0.741795 -1.61026,-0.741803 -0.38598,8e-6 -0.72974,0.07841 -1.03128,0.235206 -0.28949,0.14475 -0.53676,0.337739 -0.74181,0.578968 -0.20505,0.241243 -0.36789,0.518665 -0.4885,0.832266 -0.10856,0.313613 -0.18093,0.633251 -0.21711,0.958915 h 4.66792"
         id="path3026" />
      <path
         style="fill:#204a87;fill-opacity:1"
         d="m 226.65238,96.471317 c -0.7599,-10e-7 -1.42933,-0.120619 -2.00829,-0.361855 -0.56691,-0.241236 -1.04938,-0.578967 -1.44742,-1.013194 -0.38598,-0.434224 -0.67546,-0.946851 -0.86845,-1.537882 -0.19299,-0.603088 -0.28949,-1.266488 -0.28949,-1.990202 0,-0.723704 0.10253,-1.387104 0.30758,-1.990201 0.21711,-0.603084 0.51866,-1.121742 0.90464,-1.555975 0.38597,-0.446279 0.85638,-0.790041 1.41123,-1.031287 0.5669,-0.253288 1.19412,-0.379938 1.88165,-0.379947 0.42215,9e-6 0.84432,0.03619 1.26649,0.108556 0.42216,0.07238 0.82623,0.186968 1.21221,0.343762 l -0.37995,1.429327 c -0.2533,-0.120611 -0.54882,-0.217105 -0.88654,-0.289484 -0.32568,-0.07236 -0.67547,-0.108548 -1.04938,-0.108557 -0.94083,9e-6 -1.66453,0.295523 -2.17113,0.886545 -0.49454,0.591036 -0.7418,1.453456 -0.7418,2.587261 0,0.506601 0.0543,0.970981 0.16283,1.393141 0.12062,0.422167 0.30155,0.784021 0.54279,1.085565 0.25329,0.301547 0.57293,0.536753 0.95891,0.705616 0.38598,0.156806 0.85639,0.235207 1.41124,0.235206 0.44628,10e-7 0.85035,-0.04221 1.21221,-0.126649 0.36185,-0.08443 0.6453,-0.174895 0.85036,-0.271391 l 0.2352,1.411233 c -0.0965,0.06031 -0.23521,0.120619 -0.41613,0.180928 -0.18093,0.04825 -0.38598,0.09046 -0.61515,0.126649 -0.22918,0.04825 -0.47645,0.08443 -0.7418,0.108556 -0.25331,0.03619 -0.50058,0.05428 -0.74181,0.05428"
         id="path3028" />
      <path
         style="fill:#204a87;fill-opacity:1"
         d="m 232.54779,86.845979 h 3.56427 v 1.411234 h -3.56427 v 4.342257 c 0,0.470415 0.0362,0.862424 0.10856,1.176029 0.0724,0.301547 0.18092,0.542784 0.32567,0.723709 0.14473,0.168867 0.32566,0.289485 0.54278,0.361855 0.21711,0.07237 0.4704,0.108558 0.75989,0.108556 0.50659,2e-6 0.91066,-0.05428 1.21222,-0.162834 0.3136,-0.120617 0.53071,-0.20505 0.65133,-0.253299 l 0.32567,1.393141 c -0.16887,0.08443 -0.46438,0.186959 -0.88654,0.307577 -0.42217,0.13268 -0.90464,0.19902 -1.44742,0.19902 -0.63928,0 -1.17,-0.0784 -1.59216,-0.235206 -0.4101,-0.168865 -0.7418,-0.416132 -0.9951,-0.741802 -0.2533,-0.325668 -0.43423,-0.723708 -0.54278,-1.194121 -0.0965,-0.48247 -0.14475,-1.037314 -0.14474,-1.664532 v -8.395031 l 1.68262,-0.289484 v 2.912931"
         id="path3030" />
      <path
         style="fill:#204a87;fill-opacity:1"
         d="m 242.025,89.976023 c -1e-5,-1.073495 0.1568,-2.020347 0.47041,-2.84056 0.32566,-0.820194 0.75989,-1.501686 1.30267,-2.044479 0.55484,-0.554833 1.19412,-0.970965 1.91783,-1.248399 0.73577,-0.27741 1.51376,-0.41612 2.33397,-0.416133 0.80813,1.3e-5 1.56803,0.138723 2.27968,0.416133 0.7237,0.277434 1.35695,0.693566 1.89974,1.248399 0.54277,0.542793 0.97096,1.224285 1.28458,2.044479 0.32566,0.820213 0.4885,1.767065 0.48851,2.84056 -1e-5,1.073508 -0.16285,2.02036 -0.48851,2.84056 -0.31362,0.820207 -0.74181,1.507731 -1.28458,2.062573 -0.54279,0.542783 -1.17604,0.952884 -1.89974,1.230306 -0.71165,0.277422 -1.47155,0.416133 -2.27968,0.416133 -0.82021,0 -1.5982,-0.138711 -2.33397,-0.416133 -0.72371,-0.277422 -1.36299,-0.687523 -1.91783,-1.230306 -0.54278,-0.554842 -0.97701,-1.242366 -1.30267,-2.062573 -0.31361,-0.8202 -0.47042,-1.767052 -0.47041,-2.84056 m 1.84545,0 c 0,0.759901 0.0965,1.453455 0.28949,2.080665 0.19298,0.615157 0.46438,1.139846 0.81417,1.574069 0.36185,0.434228 0.79608,0.771958 1.30268,1.013193 0.51865,0.229176 1.09762,0.343763 1.7369,0.343762 0.63927,10e-7 1.21221,-0.114586 1.71881,-0.343762 0.50659,-0.241235 0.93478,-0.578965 1.28459,-1.013193 0.36184,-0.434223 0.63926,-0.958912 0.83226,-1.574069 0.19298,-0.62721 0.28948,-1.320764 0.28949,-2.080665 -10e-6,-0.759888 -0.0965,-1.447411 -0.28949,-2.062572 -0.193,-0.627206 -0.47042,-1.157926 -0.83226,-1.592161 -0.34981,-0.434215 -0.778,-0.765915 -1.28459,-0.995101 -0.5066,-0.241225 -1.07954,-0.361843 -1.71881,-0.361854 -0.63928,1.1e-5 -1.21825,0.120629 -1.7369,0.361854 -0.5066,0.229186 -0.94083,0.560886 -1.30268,0.995101 -0.34979,0.434235 -0.62119,0.964955 -0.81417,1.592161 -0.19299,0.615161 -0.28949,1.302684 -0.28949,2.062572"
         id="path3032" />
      <path
         style="fill:#204a87;fill-opacity:1"
         d="m 259.96112,86.646959 c 0.14474,1e-5 0.30757,0.01207 0.4885,0.03619 0.19299,0.01207 0.37994,0.0362 0.56088,0.07237 0.18092,0.02413 0.34375,0.05429 0.4885,0.09046 0.1568,0.02413 0.27139,0.04826 0.34376,0.07237 l -0.28948,1.465512 c -0.13269,-0.04824 -0.35583,-0.102517 -0.66943,-0.162834 -0.30155,-0.07236 -0.69356,-0.108549 -1.17603,-0.108557 -0.31361,8e-6 -0.62722,0.03619 -0.94082,0.108557 -0.30155,0.06032 -0.50057,0.102533 -0.59706,0.126649 v 7.906527 h -1.68263 v -9.010184 c 0.39804,-0.144733 0.89258,-0.277413 1.48361,-0.398041 0.59102,-0.13267 1.25442,-0.19901 1.9902,-0.19902"
         id="path3034" />
      <path
         style="fill:#204a87;fill-opacity:1"
         d="m 265.16674,96.254204 h -1.68262 v -9.408225 h 1.68262 v 9.408225 m -0.85036,-11.108942 c -0.30155,1.1e-5 -0.56087,-0.09648 -0.77799,-0.289484 -0.20505,-0.205039 -0.30757,-0.47643 -0.30757,-0.814173 0,-0.337719 0.10252,-0.603079 0.30757,-0.796081 0.21712,-0.205037 0.47644,-0.307563 0.77799,-0.307576 0.30155,1.3e-5 0.55484,0.102539 0.7599,0.307576 0.21711,0.193002 0.32566,0.458362 0.32567,0.796081 -10e-6,0.337743 -0.10856,0.609134 -0.32567,0.814173 -0.20506,0.193001 -0.45835,0.289495 -0.7599,0.289484"
         id="path3036" />
      <path
         style="fill:#204a87;fill-opacity:1"
         d="m 267.55328,91.568184 c 0,-0.83226 0.12062,-1.555969 0.36186,-2.171128 0.24123,-0.627208 0.56087,-1.145866 0.95891,-1.555976 0.39804,-0.410093 0.85639,-0.717669 1.37505,-0.92273 0.51866,-0.205041 1.04938,-0.307567 1.59216,-0.307576 1.26649,9e-6 2.23746,0.398049 2.91293,1.194121 0.67546,0.784026 1.01319,1.984176 1.0132,3.600455 -10e-6,0.07238 -10e-6,0.16887 0,0.289484 -10e-6,0.10856 -0.006,0.211086 -0.0181,0.307576 h -6.44101 c 0.0724,0.977011 0.35582,1.718813 0.85036,2.225407 0.49453,0.506598 1.26649,0.759896 2.31587,0.759895 0.59102,10e-7 1.08556,-0.04825 1.4836,-0.144742 0.4101,-0.108555 0.71767,-0.21108 0.92273,-0.307576 l 0.23521,1.411233 c -0.20506,0.108557 -0.56691,0.223144 -1.08557,0.343762 -0.5066,0.120618 -1.08557,0.180927 -1.7369,0.180928 -0.82021,-10e-7 -1.53185,-0.120619 -2.13494,-0.361855 -0.59103,-0.253298 -1.07954,-0.59706 -1.46551,-1.031286 -0.38598,-0.434224 -0.67547,-0.946851 -0.86846,-1.537883 -0.18092,-0.603088 -0.27139,-1.260457 -0.27139,-1.972109 m 6.45911,-0.922729 c 0.0121,-0.759889 -0.18093,-1.381072 -0.57897,-1.863552 -0.38598,-0.494527 -0.92273,-0.741795 -1.61025,-0.741803 -0.38598,8e-6 -0.72974,0.07841 -1.03129,0.235206 -0.28948,0.14475 -0.53675,0.337739 -0.7418,0.578968 -0.20505,0.241243 -0.36789,0.518665 -0.4885,0.832266 -0.10856,0.313613 -0.18093,0.633251 -0.21711,0.958915 h 4.66792"
         id="path3038" />
      <path
         style="fill:#204a87;fill-opacity:1"
         d="m 278.18446,87.117371 c 0.38598,-0.09649 0.89861,-0.199011 1.53789,-0.307577 0.63927,-0.108547 1.37504,-0.162825 2.20731,-0.162835 0.74783,1e-5 1.36901,0.108566 1.86355,0.32567 0.49453,0.20506 0.88654,0.500574 1.17603,0.886544 0.30154,0.373924 0.51262,0.826243 0.63325,1.356955 0.12061,0.530727 0.18092,1.115725 0.18092,1.754996 v 5.28308 h -1.68262 v -4.921225 c -1e-5,-0.578962 -0.0422,-1.073497 -0.12665,-1.483605 -0.0724,-0.410095 -0.19903,-0.741795 -0.37995,-0.9951 -0.18093,-0.253291 -0.42217,-0.434218 -0.72371,-0.542783 -0.30155,-0.12061 -0.67546,-0.180919 -1.12175,-0.180927 -0.18093,8e-6 -0.36789,0.006 -0.56087,0.01809 -0.19299,0.01207 -0.37995,0.03016 -0.56088,0.05428 -0.16887,0.01207 -0.32567,0.03016 -0.47041,0.05428 -0.13268,0.02413 -0.22917,0.04222 -0.28948,0.05428 v 7.942713 h -1.68263 v -9.136833"
         id="path3040" />
      <path
         style="fill:#204a87;fill-opacity:1"
         d="m 290.14772,86.845979 h 3.56427 v 1.411234 h -3.56427 v 4.342257 c 0,0.470415 0.0362,0.862424 0.10856,1.176029 0.0724,0.301547 0.18092,0.542784 0.32567,0.723709 0.14474,0.168867 0.32566,0.289485 0.54278,0.361855 0.21711,0.07237 0.47041,0.108558 0.7599,0.108556 0.50659,2e-6 0.91066,-0.05428 1.21221,-0.162834 0.3136,-0.120617 0.53071,-0.20505 0.65134,-0.253299 l 0.32567,1.393141 c -0.16887,0.08443 -0.46439,0.186959 -0.88655,0.307577 -0.42217,0.13268 -0.90464,0.19902 -1.44742,0.19902 -0.63928,0 -1.17,-0.0784 -1.59216,-0.235206 -0.4101,-0.168865 -0.7418,-0.416132 -0.9951,-0.741802 -0.2533,-0.325668 -0.43422,-0.723708 -0.54278,-1.194121 -0.0965,-0.48247 -0.14474,-1.037314 -0.14474,-1.664532 v -8.395031 l 1.68262,-0.289484 v 2.912931"
         id="path3042" />
      <path
         style="fill:#204a87;fill-opacity:1"
         d="m 295.15178,91.568184 c 0,-0.83226 0.12062,-1.555969 0.36185,-2.171128 0.24124,-0.627208 0.56088,-1.145866 0.95892,-1.555976 0.39804,-0.410093 0.85639,-0.717669 1.37505,-0.92273 0.51865,-0.205041 1.04937,-0.307567 1.59216,-0.307576 1.26648,9e-6 2.23746,0.398049 2.91293,1.194121 0.67545,0.784026 1.01318,1.984176 1.01319,3.600455 -1e-5,0.07238 -1e-5,0.16887 0,0.289484 -1e-5,0.10856 -0.006,0.211086 -0.0181,0.307576 h -6.44101 c 0.0724,0.977011 0.35582,1.718813 0.85035,2.225407 0.49453,0.506598 1.26649,0.759896 2.31587,0.759895 0.59103,10e-7 1.08556,-0.04825 1.48361,-0.144742 0.41009,-0.108555 0.71767,-0.21108 0.92273,-0.307576 l 0.2352,1.411233 c -0.20506,0.108557 -0.56691,0.223144 -1.08556,0.343762 -0.5066,0.120618 -1.08557,0.180927 -1.7369,0.180928 -0.82021,-10e-7 -1.53186,-0.120619 -2.13495,-0.361855 -0.59103,-0.253298 -1.07953,-0.59706 -1.46551,-1.031286 -0.38598,-0.434224 -0.67546,-0.946851 -0.86845,-1.537883 -0.18093,-0.603088 -0.27139,-1.260457 -0.27139,-1.972109 m 6.45911,-0.922729 c 0.0121,-0.759889 -0.18094,-1.381072 -0.57897,-1.863552 -0.38599,-0.494527 -0.92274,-0.741795 -1.61025,-0.741803 -0.38599,8e-6 -0.72975,0.07841 -1.03129,0.235206 -0.28949,0.14475 -0.53676,0.337739 -0.7418,0.578968 -0.20506,0.241243 -0.36789,0.518665 -0.48851,0.832266 -0.10856,0.313613 -0.18093,0.633251 -0.21711,0.958915 h 4.66793"
         id="path3044" />
      <path
         style="fill:#204a87;fill-opacity:1"
         d="m 311.86212,88.836181 c -0.20506,-0.168858 -0.50057,-0.331693 -0.88654,-0.488504 -0.38599,-0.156796 -0.80815,-0.235198 -1.2665,-0.235206 -0.48247,8e-6 -0.89861,0.09047 -1.24839,0.271391 -0.33774,0.168874 -0.61516,0.41011 -0.83227,0.72371 -0.21712,0.301552 -0.37392,0.663407 -0.47041,1.085564 -0.0965,0.42217 -0.14475,0.874488 -0.14474,1.356956 -10e-6,1.097629 0.27138,1.947987 0.81417,2.551076 0.54278,0.591031 1.26649,0.886545 2.17113,0.886544 0.45834,10e-7 0.83829,-0.01809 1.13984,-0.05428 0.3136,-0.04825 0.55484,-0.09649 0.72371,-0.144742 v -5.952511 m 0,-6.332459 1.68262,-0.289484 v 13.768575 c -0.38598,0.108556 -0.88052,0.217113 -1.4836,0.325669 -0.6031,0.108556 -1.29665,0.162834 -2.08066,0.162835 -0.72372,-10e-7 -1.37506,-0.114588 -1.95402,-0.343762 -0.57897,-0.229175 -1.07351,-0.554844 -1.48361,-0.977008 -0.4101,-0.422163 -0.72974,-0.93479 -0.95891,-1.537883 -0.21711,-0.61515 -0.32567,-1.302673 -0.32567,-2.062572 0,-0.723705 0.0905,-1.387104 0.27139,-1.990202 0.19299,-0.603084 0.47041,-1.121742 0.83227,-1.555975 0.36185,-0.434217 0.80211,-0.771948 1.32077,-1.013194 0.53071,-0.241227 1.1338,-0.361845 1.80927,-0.361854 0.54278,9e-6 1.01922,0.07238 1.42933,0.217112 0.42215,0.144752 0.73576,0.283462 0.94082,0.416133 v -4.75839"
         id="path3046" />
      <path
         style="fill:#204a87;fill-opacity:1"
         d="m 326.86666,91.007309 c 0.19298,0.241242 0.43422,0.56088 0.72371,0.958916 0.30154,0.385982 0.60911,0.820207 0.92273,1.302677 0.3136,0.470414 0.62117,0.964948 0.92273,1.483604 0.3136,0.51866 0.57896,1.019225 0.79608,1.501698 h -1.91783 c -0.24125,-0.458349 -0.50661,-0.922729 -0.79608,-1.393141 -0.27743,-0.470409 -0.56088,-0.916697 -0.85036,-1.338863 -0.28949,-0.434222 -0.57897,-0.838293 -0.86845,-1.212213 -0.27743,-0.373913 -0.53073,-0.699582 -0.7599,-0.977008 -0.15681,0.01207 -0.31964,0.0181 -0.4885,0.01809 -0.15681,5e-6 -0.31964,5e-6 -0.4885,0 h -1.57407 v 4.903133 h -1.755 V 83.896861 c 0.49453,-0.120606 1.04335,-0.199008 1.64644,-0.235206 0.61515,-0.04823 1.17602,-0.07236 1.68263,-0.07237 1.76102,1.3e-5 3.09988,0.331713 4.01658,0.995101 0.92875,0.663412 1.39313,1.65248 1.39314,2.967209 -1e-5,0.832274 -0.22315,1.543921 -0.66943,2.134944 -0.43423,0.591035 -1.07954,1.031291 -1.93592,1.320769 m -2.65963,-5.88014 c -0.74784,1.1e-5 -1.32078,0.0181 -1.71881,0.05428 v 4.722205 h 1.2484 c 0.60308,7e-6 1.14586,-0.03015 1.62834,-0.09046 0.48247,-0.0603 0.88654,-0.17489 1.21222,-0.343762 0.33772,-0.168859 0.59705,-0.404064 0.77798,-0.705617 0.18092,-0.3136 0.27139,-0.723702 0.2714,-1.230306 -10e-6,-0.470402 -0.0905,-0.862411 -0.2714,-1.176028 -0.18093,-0.313598 -0.4282,-0.560865 -0.7418,-0.741803 -0.30155,-0.180916 -0.66341,-0.307565 -1.08556,-0.379947 -0.41011,-0.07236 -0.85037,-0.108546 -1.32077,-0.108557"
         id="path3048" />
      <path
         style="fill:#204a87;fill-opacity:1"
         d="M 332.11185,96.254204 V 83.715936 h 7.56277 v 1.501697 h -5.80777 v 3.781382 h 5.15643 v 1.483605 h -5.15643 v 5.771584 h -1.755"
         id="path3050" />
      <path
         style="fill:#204a87;fill-opacity:1"
         d="M 345.99944,96.254204 V 83.715936 h 7.65323 v 1.501697 h -5.89823 v 3.727104 h 5.24689 v 1.465512 h -5.24689 v 4.342257 h 6.35055 v 1.501698 h -8.10555"
         id="path3052" />
      <path
         style="fill:#204a87;fill-opacity:1"
         d="m 356.2094,87.117371 c 0.38597,-0.09649 0.8986,-0.199011 1.53788,-0.307577 0.63927,-0.108547 1.37504,-0.162825 2.20731,-0.162835 0.74783,1e-5 1.36901,0.108566 1.86356,0.32567 0.49452,0.20506 0.88653,0.500574 1.17602,0.886544 0.30154,0.373924 0.51262,0.826243 0.63325,1.356955 0.12061,0.530727 0.18092,1.115725 0.18093,1.754996 v 5.28308 h -1.68263 v -4.921225 c 0,-0.578962 -0.0422,-1.073497 -0.12665,-1.483605 -0.0724,-0.410095 -0.19902,-0.741795 -0.37994,-0.9951 -0.18094,-0.253291 -0.42217,-0.434218 -0.72371,-0.542783 -0.30155,-0.12061 -0.67547,-0.180919 -1.12175,-0.180927 -0.18094,8e-6 -0.36789,0.006 -0.56088,0.01809 -0.19299,0.01207 -0.37995,0.03016 -0.56087,0.05428 -0.16887,0.01207 -0.32568,0.03016 -0.47041,0.05428 -0.13269,0.02413 -0.22918,0.04222 -0.28949,0.05428 v 7.942713 h -1.68262 v -9.136833"
         id="path3054" />
      <path
         style="fill:#204a87;fill-opacity:1"
         d="m 372.49682,95.313381 c -0.14475,0.0965 -0.4282,0.223145 -0.85036,0.379948 -0.41011,0.144742 -0.89258,0.217113 -1.44742,0.217113 -0.56691,0 -1.10366,-0.09046 -1.61025,-0.271391 -0.49454,-0.180927 -0.92876,-0.458349 -1.30268,-0.832266 -0.37392,-0.385977 -0.66943,-0.862419 -0.88654,-1.429327 -0.21712,-0.566902 -0.32567,-1.242364 -0.32567,-2.026387 0,-0.687518 0.10252,-1.314732 0.30758,-1.881644 0.20504,-0.578961 0.50056,-1.073495 0.88654,-1.483605 0.39804,-0.422155 0.88051,-0.747824 1.44742,-0.977008 0.5669,-0.241227 1.20618,-0.361845 1.91783,-0.361855 0.78401,1e-5 1.4655,0.06032 2.04448,0.180928 0.59102,0.108565 1.08555,0.211091 1.4836,0.307576 v 8.395031 c -1e-5,1.447419 -0.37392,2.496796 -1.12175,3.148137 -0.74784,0.651335 -1.88165,0.977004 -3.40143,0.977008 -0.59104,-4e-6 -1.15191,-0.04825 -1.68263,-0.144742 -0.51866,-0.0965 -0.97098,-0.211085 -1.35695,-0.343762 l 0.30757,-1.465512 c 0.33773,0.132678 0.74784,0.247266 1.23031,0.343762 0.49453,0.108555 1.00716,0.162833 1.53788,0.162835 1.00113,-2e-6 1.71881,-0.199022 2.15304,-0.597061 0.44628,-0.398041 0.66942,-1.031286 0.66943,-1.899737 v -0.398041 m -0.0181,-6.983797 c -0.16887,-0.04824 -0.39805,-0.09046 -0.68753,-0.126649 -0.27742,-0.04824 -0.65737,-0.07236 -1.13984,-0.07237 -0.90464,8e-6 -1.60423,0.295523 -2.09876,0.886544 -0.48247,0.591036 -0.72371,1.375054 -0.72371,2.352056 0,0.542787 0.0663,1.007167 0.19902,1.393141 0.14474,0.385982 0.3317,0.70562 0.56088,0.958915 0.24123,0.253301 0.51262,0.440259 0.81417,0.560875 0.31361,0.12062 0.63324,0.180929 0.95892,0.180928 0.44628,10e-7 0.85638,-0.06031 1.2303,-0.180928 0.37391,-0.132678 0.66943,-0.28345 0.88655,-0.452318 v -5.500193"
         id="path3056" />
      <path
         style="fill:#204a87;fill-opacity:1"
         d="m 378.74108,96.254204 h -1.68262 v -9.408225 h 1.68262 v 9.408225 m -0.85036,-11.108942 c -0.30154,1.1e-5 -0.56087,-0.09648 -0.77798,-0.289484 -0.20506,-0.205039 -0.30758,-0.47643 -0.30758,-0.814173 0,-0.337719 0.10252,-0.603079 0.30758,-0.796081 0.21711,-0.205037 0.47644,-0.307563 0.77798,-0.307576 0.30155,1.3e-5 0.55484,0.102539 0.7599,0.307576 0.21711,0.193002 0.32566,0.458362 0.32567,0.796081 -1e-5,0.337743 -0.10856,0.609134 -0.32567,0.814173 -0.20506,0.193001 -0.45835,0.289495 -0.7599,0.289484"
         id="path3058" />
      <path
         style="fill:#204a87;fill-opacity:1"
         d="m 381.65231,87.117371 c 0.38598,-0.09649 0.89861,-0.199011 1.53789,-0.307577 0.63927,-0.108547 1.37504,-0.162825 2.20731,-0.162835 0.74783,1e-5 1.36901,0.108566 1.86355,0.32567 0.49453,0.20506 0.88654,0.500574 1.17603,0.886544 0.30154,0.373924 0.51262,0.826243 0.63325,1.356955 0.12061,0.530727 0.18092,1.115725 0.18092,1.754996 v 5.28308 h -1.68262 v -4.921225 c -1e-5,-0.578962 -0.0422,-1.073497 -0.12665,-1.483605 -0.0724,-0.410095 -0.19903,-0.741795 -0.37995,-0.9951 -0.18093,-0.253291 -0.42217,-0.434218 -0.72371,-0.542783 -0.30155,-0.12061 -0.67546,-0.180919 -1.12175,-0.180927 -0.18093,8e-6 -0.36789,0.006 -0.56087,0.01809 -0.19299,0.01207 -0.37995,0.03016 -0.56088,0.05428 -0.16887,0.01207 -0.32567,0.03016 -0.47041,0.05428 -0.13268,0.02413 -0.22918,0.04222 -0.28948,0.05428 v 7.942713 h -1.68263 v -9.136833"
         id="path3060" />
      <path
         style="fill:#204a87;fill-opacity:1"
         d="m 391.51682,91.568184 c -10e-6,-0.83226 0.12061,-1.555969 0.36185,-2.171128 0.24124,-0.627208 0.56087,-1.145866 0.95892,-1.555976 0.39803,-0.410093 0.85638,-0.717669 1.37504,-0.92273 0.51866,-0.205041 1.04938,-0.307567 1.59216,-0.307576 1.26649,9e-6 2.23747,0.398049 2.91294,1.194121 0.67545,0.784026 1.01318,1.984176 1.01319,3.600455 -1e-5,0.07238 -1e-5,0.16887 0,0.289484 -1e-5,0.10856 -0.006,0.211086 -0.0181,0.307576 h -6.44102 c 0.0724,0.977011 0.35582,1.718813 0.85036,2.225407 0.49453,0.506598 1.26649,0.759896 2.31587,0.759895 0.59102,10e-7 1.08556,-0.04825 1.48361,-0.144742 0.41009,-0.108555 0.71767,-0.21108 0.92272,-0.307576 l 0.23521,1.411233 c -0.20506,0.108557 -0.56691,0.223144 -1.08556,0.343762 -0.50661,0.120618 -1.08557,0.180927 -1.73691,0.180928 -0.82021,-10e-7 -1.53185,-0.120619 -2.13494,-0.361855 -0.59103,-0.253298 -1.07954,-0.59706 -1.46551,-1.031286 -0.38598,-0.434224 -0.67547,-0.946851 -0.86845,-1.537883 -0.18093,-0.603088 -0.2714,-1.260457 -0.27139,-1.972109 m 6.4591,-0.922729 c 0.0121,-0.759889 -0.18093,-1.381072 -0.57896,-1.863552 -0.38599,-0.494527 -0.92274,-0.741795 -1.61026,-0.741803 -0.38598,8e-6 -0.72974,0.07841 -1.03128,0.235206 -0.28949,0.14475 -0.53676,0.337739 -0.74181,0.578968 -0.20505,0.241243 -0.36789,0.518665 -0.4885,0.832266 -0.10856,0.313613 -0.18093,0.633251 -0.21711,0.958915 h 4.66792"
         id="path3062" />
      <path
         style="fill:#204a87;fill-opacity:1"
         d="m 401.62331,91.568184 c 0,-0.83226 0.12061,-1.555969 0.36185,-2.171128 0.24124,-0.627208 0.56087,-1.145866 0.95892,-1.555976 0.39803,-0.410093 0.85638,-0.717669 1.37504,-0.92273 0.51866,-0.205041 1.04938,-0.307567 1.59217,-0.307576 1.26648,9e-6 2.23746,0.398049 2.91293,1.194121 0.67545,0.784026 1.01318,1.984176 1.01319,3.600455 -10e-6,0.07238 -10e-6,0.16887 0,0.289484 -10e-6,0.10856 -0.006,0.211086 -0.0181,0.307576 h -6.44102 c 0.0724,0.977011 0.35582,1.718813 0.85036,2.225407 0.49453,0.506598 1.26649,0.759896 2.31587,0.759895 0.59102,10e-7 1.08556,-0.04825 1.48361,-0.144742 0.41009,-0.108555 0.71767,-0.21108 0.92273,-0.307576 l 0.2352,1.411233 c -0.20506,0.108557 -0.56691,0.223144 -1.08556,0.343762 -0.50661,0.120618 -1.08557,0.180927 -1.73691,0.180928 -0.8202,-10e-7 -1.53185,-0.120619 -2.13494,-0.361855 -0.59103,-0.253298 -1.07953,-0.59706 -1.46551,-1.031286 -0.38598,-0.434224 -0.67546,-0.946851 -0.86845,-1.537883 -0.18093,-0.603088 -0.27139,-1.260457 -0.27139,-1.972109 m 6.4591,-0.922729 c 0.0121,-0.759889 -0.18093,-1.381072 -0.57896,-1.863552 -0.38599,-0.494527 -0.92274,-0.741795 -1.61026,-0.741803 -0.38598,8e-6 -0.72974,0.07841 -1.03128,0.235206 -0.28949,0.14475 -0.53676,0.337739 -0.74181,0.578968 -0.20505,0.241243 -0.36788,0.518665 -0.4885,0.832266 -0.10856,0.313613 -0.18093,0.633251 -0.21711,0.958915 h 4.66792"
         id="path3064" />
      <path
         style="fill:#204a87;fill-opacity:1"
         d="m 415.72829,86.646959 c 0.14474,1e-5 0.30757,0.01207 0.48851,0.03619 0.19298,0.01207 0.37994,0.0362 0.56087,0.07237 0.18092,0.02413 0.34376,0.05429 0.48851,0.09046 0.15679,0.02413 0.27138,0.04826 0.34376,0.07237 l -0.28949,1.465512 c -0.13268,-0.04824 -0.35583,-0.102517 -0.66943,-0.162834 -0.30155,-0.07236 -0.69356,-0.108549 -1.17603,-0.108557 -0.31361,8e-6 -0.62721,0.03619 -0.94082,0.108557 -0.30155,0.06032 -0.50057,0.102533 -0.59706,0.126649 v 7.906527 h -1.68262 v -9.010184 c 0.39804,-0.144733 0.89257,-0.277413 1.4836,-0.398041 0.59103,-0.13267 1.25443,-0.19901 1.9902,-0.19902"
         id="path3066" />
      <path
         style="fill:#204a87;fill-opacity:1"
         d="m 420.93391,96.254204 h -1.68263 v -9.408225 h 1.68263 v 9.408225 m -0.85036,-11.108942 c -0.30155,1.1e-5 -0.56088,-0.09648 -0.77799,-0.289484 -0.20505,-0.205039 -0.30758,-0.47643 -0.30758,-0.814173 0,-0.337719 0.10253,-0.603079 0.30758,-0.796081 0.21711,-0.205037 0.47644,-0.307563 0.77799,-0.307576 0.30154,1.3e-5 0.55484,0.102539 0.75989,0.307576 0.21711,0.193002 0.32567,0.458362 0.32567,0.796081 0,0.337743 -0.10856,0.609134 -0.32567,0.814173 -0.20505,0.193001 -0.45835,0.289495 -0.75989,0.289484"
         id="path3068" />
      <path
         style="fill:#204a87;fill-opacity:1"
         d="m 423.84514,87.117371 c 0.38598,-0.09649 0.8986,-0.199011 1.53788,-0.307577 0.63928,-0.108547 1.37505,-0.162825 2.20732,-0.162835 0.74782,1e-5 1.36901,0.108566 1.86355,0.32567 0.49453,0.20506 0.88653,0.500574 1.17603,0.886544 0.30153,0.373924 0.51262,0.826243 0.63324,1.356955 0.12061,0.530727 0.18092,1.115725 0.18093,1.754996 v 5.28308 h -1.68262 v -4.921225 c -10e-6,-0.578962 -0.0422,-1.073497 -0.12665,-1.483605 -0.0724,-0.410095 -0.19903,-0.741795 -0.37995,-0.9951 -0.18094,-0.253291 -0.42217,-0.434218 -0.72371,-0.542783 -0.30155,-0.12061 -0.67547,-0.180919 -1.12175,-0.180927 -0.18093,8e-6 -0.36789,0.006 -0.56088,0.01809 -0.19299,0.01207 -0.37995,0.03016 -0.56087,0.05428 -0.16887,0.01207 -0.32567,0.03016 -0.47041,0.05428 -0.13269,0.02413 -0.22918,0.04222 -0.28949,0.05428 v 7.942713 h -1.68262 v -9.136833"
         id="path3070" />
      <path
         style="fill:#204a87;fill-opacity:1"
         d="m 440.13256,95.313381 c -0.14475,0.0965 -0.4282,0.223145 -0.85036,0.379948 -0.4101,0.144742 -0.89258,0.217113 -1.44741,0.217113 -0.56692,0 -1.10367,-0.09046 -1.61026,-0.271391 -0.49454,-0.180927 -0.92876,-0.458349 -1.30268,-0.832266 -0.37391,-0.385977 -0.66943,-0.862419 -0.88654,-1.429327 -0.21711,-0.566902 -0.32567,-1.242364 -0.32567,-2.026387 0,-0.687518 0.10253,-1.314732 0.30758,-1.881644 0.20505,-0.578961 0.50056,-1.073495 0.88654,-1.483605 0.39804,-0.422155 0.88051,-0.747824 1.44742,-0.977008 0.5669,-0.241227 1.20618,-0.361845 1.91783,-0.361855 0.78401,1e-5 1.46551,0.06032 2.04448,0.180928 0.59102,0.108565 1.08556,0.211091 1.48361,0.307576 v 8.395031 c -10e-6,1.447419 -0.37393,2.496796 -1.12175,3.148137 -0.74785,0.651335 -1.88166,0.977004 -3.40144,0.977008 -0.59103,-4e-6 -1.15191,-0.04825 -1.68262,-0.144742 -0.51867,-0.0965 -0.97098,-0.211085 -1.35696,-0.343762 l 0.30758,-1.465512 c 0.33773,0.132678 0.74783,0.247266 1.2303,0.343762 0.49453,0.108555 1.00716,0.162833 1.53789,0.162835 1.00112,-2e-6 1.7188,-0.199022 2.15303,-0.597061 0.44628,-0.398041 0.66943,-1.031286 0.66943,-1.899737 v -0.398041 m -0.0181,-6.983797 c -0.16887,-0.04824 -0.39805,-0.09046 -0.68752,-0.126649 -0.27743,-0.04824 -0.65738,-0.07236 -1.13985,-0.07237 -0.90464,8e-6 -1.60422,0.295523 -2.09875,0.886544 -0.48248,0.591036 -0.72372,1.375054 -0.72371,2.352056 -10e-6,0.542787 0.0663,1.007167 0.19902,1.393141 0.14474,0.385982 0.33169,0.70562 0.56087,0.958915 0.24123,0.253301 0.51263,0.440259 0.81417,0.560875 0.31361,0.12062 0.63325,0.180929 0.95892,0.180928 0.44628,10e-7 0.85638,-0.06031 1.23031,-0.180928 0.37391,-0.132678 0.66942,-0.28345 0.88654,-0.452318 v -5.500193"
         id="path3072" />
    </g>
    <switch
       style="fill:#0054a6;fill-opacity:1"
       transform="matrix(0.26458333,0,0,0.26458333,115.5128,13.164057)"
       id="switch8080" />
  </g>
</svg>
