<svg xmlns="http://www.w3.org/2000/svg" viewBox="0 0 757.13 397.38"><defs><style>.cls-1{fill:#231f20;}.cls-2,.cls-4{font-size:36.15px;}.cls-2,.cls-3,.cls-4{font-family:TimesNewRomanPS-ItalicMT, Times New Roman;font-style:italic;}.cls-3{font-size:35.32px;}.cls-4{letter-spacing:0em;}</style></defs><g id="Layer_2" data-name="Layer 2"><g id="Circuits"><path class="cls-1" d="M397.9,132.85h1.65a1.8,1.8,0,0,0,.46,1.52c-.49.61.49,1.22-.49,1.3.06.29.48.18.48.53.2,1-.59.93-.73,1.57,0,1.3.35,1.56-.26,2.36a2,2,0,0,1,.23,2.09.51.51,0,0,1-.22-.11,2.74,2.74,0,0,1,.1.48c0,.23-.6,1.34,0,1.84-.1.84-.95,1.36,0,1.57.1.63-.44.57-.24,1.31s.21,1.85.7,2.36c-.62.47.14,2.45-.5,2.88.65,1.83-.14,3.41.69,4.2a2.4,2.4,0,0,0-.25,1.58c-.91-.13-.35,1.36-1,1.56.21.39.35.83,1,.8a4.13,4.13,0,0,0-.25,2.61c-2.14-.1.46,2-1,2.36.23.27.47.53.71.79a10.45,10.45,0,0,0,.21,5c-.59,1.17.25,2.4-.5,3.14,1.41,1.64,0,4.74.91,6.83a.7.7,0,0,1-.48.78c.48.84.26.93.46,1.84-.51.67-1.4.91-1.45,2.09-.05.56.85.12,1.2.27.06,1.65-.65,3.34.2,4.72a1.24,1.24,0,0,1-.72.78c1,.51,0,1.88-.5,2.35a.24.24,0,0,0,.48,0c.54.36.21,2-.25,2.09,0,.3.24.15.24,0,.1,1.37.63,2.94,0,4.45.08.35.42.42.47.79a10.6,10.6,0,0,0,.2,5.77,2,2,0,0,0-.48.79c0,.47.29.55.23,1.05.17.71-.48.52-.49,1-.12.82.64.7.71,1.32.16,2.34.09,4.94.68,6.82a9.47,9.47,0,0,0-.49,2.15H397.9a1,1,0,0,1,.21-.85c-.08-.35-.42-.42-.48-.8.14-.38-.27-1.35.25-1.3-.08-.35-.42-.42-.47-.79-.21-2.39.41-3.56.51-5h.48c0-.47-.63-1.53,0-1.83-.63-1.51-.33-2.13-.93-3.68.35-.06.09-.78.49-.78-.5-.77-.44-2.14-.7-3.16-.1-.55.17-.69.24-1-.06-.87-.67-2-.22-2.63-.12-1.92-.6-4,0-6.29a4.46,4.46,0,0,1-.23-1.84c.19.06.24.27.48.27.37-1.11-.63-2.08-.23-2.36,0-.26-.29-.21-.47-.27-.17-.7.49-.5.72-.78-.3-.31-.09-1,.25-1.31-.36-.14-.28-.26-1-.53-.07-.69.34-.86,1-.78,0-.43,0-.87,0-1.31-.61-.95,0-1.63-.95-2.1.07-.16.61-1,0-1a11.19,11.19,0,0,0,1-1.57c-.55-.54-.48-1.74-.94-2.36a4.53,4.53,0,0,1,1-2.62c-.76-.6-.55-2.76,0-3.41-.06-.28-.48-.18-.48-.52a17.11,17.11,0,0,0-.22-3.15c.34,0,.68.05.72-.26.08-.53-.69.05-.72.26-.84-.46.61-.53.49-1a.66.66,0,0,0-.72.52c-.29-2.49-.16-4.28-.43-7.08-.15-.61,1.42-1.21.24-1.31,0-.26.3-.2.49-.26s0-.46-.24-.53c.24-.34.65-.5.73-1-.28,0-.43.06-.48.26-.41-.17-.15-.6.24-.52,0-.26-.29-.21-.48-.27.71-1.28-.05-2.25.75-3.66-.05-.3-.24-.15-.24,0-.57-1.11.39-2,.74-3.93,0-.67-.89-.43-1.19-.8.06-.28.48-.17.48-.52a4.87,4.87,0,0,1,0-2.88c-.43-1.31-.59-2.07,0-3.15l0-.07s-.06,0-.09,0v-.15a3.23,3.23,0,0,1,0-2.7h0a25.82,25.82,0,0,0,0-3.71c-.09-.45.19-.49.48-.52A.92.92,0,0,1,397.9,132.85Zm.32,71.08c-.07.08.11.4.23.27S398.34,203.8,398.22,203.93Zm-.46-3.67c-.07.07.11.4.24.26S397.89,200.13,397.76,200.26Zm-.06-25.17c.58-.87-.81.63,0,0Zm-.19-7.87v.53c.24,0,.28.21.47.26C398,167.6,398,167.11,397.51,167.22Zm.26-3.4c-.13,0-.27.21,0,.26S398,163.87,397.77,163.82Zm.79-9.7c-.07.07.11.4.24.27S398.68,154,398.56,154.12Zm.5,31.47c.13-.14.31.19.24.26S399,185.66,399.06,185.59Zm.39-21c.16.35-.17.58-.25.26,0-.08,0-.2,0-.26C399,164.22,399.36,164.42,399.45,164.62Z" transform="translate(0 -0.5)"/><path class="cls-1" d="M398.12,193.7l.79-1.45a.91.91,0,0,0,1.08.07c.12.62.93,0,.51.83.19,0,.33-.36.53-.25.68.14.25.81.55,1.13.72.44,1.05.18,1.22.95.55-.14,1-.13,1.3.46a1.14,1.14,0,0,1-.17.15,1.29,1.29,0,0,1,.32.06c.14.07.48.95,1,.58.44.35.32,1.26.89.5.41.11.11.57.63.63s1.16.38,1.68.11c0,.68,1.47.63,1.41,1.33,1.35,0,1.87,1.18,2.72.7,0,.34.39.53.77.7-.5.76.61.74.43,1.34a1,1,0,0,0,.91-.59c.34.71.64.74,1.37,1-1.08,1.84,1.36.21.87,1.59l.8-.39a4.43,4.43,0,0,0,2.93,1.37c.39.87,1.49.52,1.55,1.41,1.62-.73,2.69,1.5,4.33,1.32.26.13.3.37.21.67.71-.16.66,0,1.27.16.14.65-.15,1.51.5,1.92.3.22.48-.71.72-1,1,.46,1.6,1.61,2.79,1.28a1.08,1.08,0,0,1,.1.88c.75-.68,1.07.58,1.11,1.17.21,0,.38-.34.23-.42.46-.36,1.22.43,1.07.87.19.06.2-.16.12-.21.83.33,2,.36,2.52,1.41.24,0,.44-.24.68-.17a4.53,4.53,0,0,0,3.38,1.61,1.36,1.36,0,0,0,.21.67c.26.18.46-.08.72.12.48.08.06.59.36.75.41.36.7-.34,1.09-.21,1.41.58,2.85,1.46,4.21,1.52a4.39,4.39,0,0,0,1,1.1l-.79,1.44a.5.5,0,0,1-.39-.44c-.23,0-.44.24-.68.17-.15-.24-.9-.18-.62-.63-.24,0-.44.25-.68.18-1.46-.56-1.83-1.47-2.59-2l.23-.42c-.26-.15-1.17.09-1-.58-1.16.09-1.37-.36-2.54-.32.13-.32-.4-.32-.21-.67-.68.2-1.43-.28-2.13-.36-.36-.09-.32-.36-.48-.54-.53-.22-1.47,0-1.6-.62-1.16-.49-2.59-.73-3.57-2-.38-.13-.74,0-1.15-.37.12-.15.26-.13.38-.34-.46-.67-1.49-.1-1.45-.53-.15-.08-.26.19-.38.33-.48-.07-.05-.59-.1-.88-.33.17-.61-.22-.63-.62-.25.27-.28.16-.76.67-.43-.15-.33-.56,0-1.08l-.74-.42c-.84.24-.92-.52-1.65.18-.06-.11-.29-.84-.6-.33a6.76,6.76,0,0,0-.43-1.34c-.57.31-1.22-.12-1.8.1-.67-.48-.73-.78-1-1.67-.7.48-1.84-.37-1.93-1.08-.19,0-.33.36-.53.25-.66-.55-1.25-.44-1.9-.78.18-.29.36-.58.2-.72s-.3.63-.2.72c-.66.6,0-.7-.36-.75-.2.35-.19.6-.05.79-1.56-.51-2.51-1.18-4.24-1.81-.42-.06,0-1.63-.63-.63-.14-.09,0-.32.09-.5s-.25-.17-.42,0c-.08-.32,0-.73-.24-1-.16.23-.18.39-.09.5-.29.31-.41-.06-.18-.37-.14-.08-.25.19-.38.34-.38-1-1.3-.66-1.73-1.8a.12.12,0,0,0-.11.21c-.9.16-1-1-1.88-1.87-.4-.19-.68.65-1,.8-.13-.14.13-.47-.06-.58-.63-.16-1.33-.27-1.64-.92-.95,0-1.46-.12-1.78-1h-.06l-.06.07-.08,0c-.64.06-1.46-.36-1.53-.86h0a10.74,10.74,0,0,0-2.1-1.18c-.3-.06-.19-.32-.07-.58A.54.54,0,0,1,398.12,193.7Zm40.65,21.76c0,.09.28,0,.27-.12S438.75,215.31,438.77,215.46Zm-2.31-.73c0,.08.28,0,.27-.13S436.44,214.57,436.46,214.73ZM422.09,207c-.22-.79,0,.91,0,0Zm-4.57-2.28.29.17c.12-.21.26-.18.38-.34C418,204.42,417.69,204.22,417.52,204.7Zm-1.82-1.28c-.06.11,0,.3.15.08S415.86,203.19,415.7,203.42Zm-5.14-3.7c0,.08.28,0,.26-.13S410.54,199.57,410.56,199.72ZM428.72,209c0-.15.26-.2.27-.12S428.73,209.11,428.72,209ZM417,202.19c.28,0,.25.33,0,.3-.05,0-.1-.09-.15-.09C416.53,202.44,416.8,202.21,417,202.19Z" transform="translate(0 -0.5)"/><path class="cls-1" d="M398.51,160.39l-.78-1.45a.92.92,0,0,0,.64-.87c.59.24.47-.81,1,0,.13-.14-.12-.47.07-.58.49-.49.81.23,1.25.16.76-.37.72-.8,1.46-.51.18-.54.44-.93,1.09-.85a1,1,0,0,1,0,.23,1.39,1.39,0,0,1,.22-.24c.13-.07,1.06.11,1.06-.56.53-.17,1.23.42.9-.47.31-.28.53.21.86-.19s1-.76,1-1.35c.56.39,1.33-.89,1.88-.46.74-1.14,2-.93,2.07-1.91.3.15.66,0,1-.26.36.83,1-.12,1.36.36a1,1,0,0,0,0-1.08c.79.1,1-.14,1.62-.59,1,1.91.92-1,1.81.13,0-.29.08-.58.11-.87a4.5,4.5,0,0,0,2.74-1.73c.94.15,1.25-1,2-.53.25-1.75,2.71-1.44,3.45-2.92.25-.14.47-.05.68.19.25-.69.4-.53.82-1,.62.25,1.19,1,1.88.64.35-.14-.33-.79-.41-1.14.9-.57,2.21-.47,2.59-1.65a1.14,1.14,0,0,1,.79.4c-.17-1,1.07-.59,1.58-.3.16-.15-.08-.5-.23-.42-.05-.58,1-.8,1.32-.43.14-.13,0-.25-.12-.21.73-.51,1.38-1.46,2.56-1.35.15-.18,0-.5.22-.66a4.59,4.59,0,0,0,3.19-2,1.32,1.32,0,0,0,.68.19c.28-.12.18-.43.49-.54.32-.37.53.27.83.11.52-.15.09-.78.41-1,1.25-.87,2.77-1.61,3.56-2.71a4.37,4.37,0,0,0,1.46-.24l.79,1.45a.51.51,0,0,1-.59.08c-.16.18,0,.5-.22.66-.28,0-.65.66-.87.19-.15.18,0,.5-.22.66-1.26.93-2.23.75-3.08,1.1l-.23-.43c-.27.14-.57,1-1.05.56-.56,1-1,1-1.65,2-.2-.29-.49.17-.68-.18-.2.67-1,1-1.46,1.59-.27.25-.48.07-.72.11-.46.32-.82,1.21-1.38,1-1,.71-2,1.79-3.61,1.92-.32.25-.38.63-.94.77-.06-.19,0-.29-.07-.51-.81,0-.89,1.2-1.24.93-.15.09,0,.32.07.5-.32.36-.52-.28-.79-.39,0,.36-.52.39-.86.19.09.35,0,.32.15,1-.36.28-.65,0-.9-.6l-.75.39c-.26.83-.94.49-.75,1.49-.13,0-.86-.22-.6.32a7.42,7.42,0,0,0-1.36-.37c-.05.64-.76,1-.9,1.56a2.38,2.38,0,0,1-1.95-.05c0,.86-1.31,1.35-2,1-.13.14.13.47-.07.58-.83.26-1.06.81-1.69,1.17-.15-.31-.3-.61-.49-.56-.34.1.36.6.49.56.14.88-.59-.37-.83-.11.19.37.41.49.64.48-1.28,1-2.36,1.47-3.82,2.57-.28.32-1.37-.87-.87.19-.15.07-.25-.19-.38-.34s-.27.12-.18.37c-.32-.11-.61-.42-1-.32.11.26.24.36.38.35.1.41-.27.31-.41-.06-.15.09,0,.33.07.51-1.06-.23-1.25.74-2.44.48-.15.13,0,.25.11.21-.36.84-1.35.29-2.59.56-.37.23.18.92.12,1.3-.19,0-.33-.37-.53-.27-.47.44-.95,1-1.65.88-.54.79-.9,1.16-1.81,1,0,0,0,0,0,0s0,.06,0,.09l-.08.05c-.28.56-1.08,1-1.55.81h0a10.54,10.54,0,0,0-2.12,1.13c-.22.21-.38,0-.53-.26A.56.56,0,0,1,398.51,160.39Zm40.36-22.32c.07,0,.17-.22,0-.29S438.73,138,438.87,138.07ZM437,139.61c.07,0,.17-.22,0-.29S436.85,139.55,437,139.61Zm-14.31,7.86c-.78-.24.75.52,0,0Zm-4.39,2.61.3-.16c-.12-.21,0-.32-.08-.5C418.29,149.56,418,149.66,418.29,150.08Zm-2.07.82c.06.12.25.18.15-.08C416.31,150.71,416.12,150.65,416.22,150.9Zm-5.9,2.32c.07,0,.18-.23,0-.29S410.19,153.15,410.32,153.22ZM428,143c-.14-.07,0-.33,0-.29S428.08,143.06,428,143Zm-12.13,6.16c.12-.25.41,0,.26.14s-.13,0-.15.07C415.85,149.68,415.81,149.32,415.88,149.18Z" transform="translate(0 -0.5)"/><polyline points="448.27 220.02 434.38 217.84 438.47 209.94 448.27 220.02"/><path d="M448.56,220.23l-1.18,1.15c-.15-.21-.38-.31-.77-.14.17-.53-.72,0,0-.73-.12,0-.39.27-.5.17-.44-.17.16-.7.07-1-.35-.42-.71-.23-.51-.89-.47.08-.81,0-.78-.48l.19-.12a.45.45,0,0,1-.21-.07c-.08-.07,0-.82-.54-.56-.17-.33.29-1.08-.45-.49-.25-.12.15-.48-.21-.57s-.69-.41-1.2-.22c.31-.57-.82-.64-.49-1.22-1-.1-.9-1.13-1.73-.79.11-.29-.07-.47-.28-.65.69-.6-.15-.66.24-1.15a1.14,1.14,0,0,0-.92.42c0-.62-.17-.67-.59-1,1.56-1.45-.92-.28,0-1.39l-.46.16.59-.09.18.24a2,2,0,0,0-.78,2c-.75.17-.25,1-1.06.95.94,1.26-.94,1.76-.51,3-.08.17-.3.17-.59.07.27.54.06.47.06.91-.58,0-1.42-.31-1.69.11-.15.19.73.44,1,.65a1.92,1.92,0,0,1-.18.31l-.71-1.39c.56.2,1.07.65,1.66,0a1.25,1.25,0,0,1,.21.76c.36-.91.78.13.91.65.14,0,.18-.45.07-.48.23-.5.86-.07.84.39.13,0,.09-.22,0-.23.59,0,1.33-.43,1.86.32.15-.06.24-.39.4-.42a2.06,2.06,0,0,0,2.44.18,1.05,1.05,0,0,0,.25.53c.19.07.27-.25.47-.16.33-.12.15.51.36.55s.39-.59.66-.61c1,0,2.07.24,2.95-.22a2.54,2.54,0,0,0,.82.62l-.26,1.63c-.13,0-.26-.05-.32-.26-.16.06-.24.39-.4.42-.14-.16-.61.17-.51-.34-.16.06-.24.39-.4.42-1,.05-1.42-.64-2-.83l.08-.48c-.2,0-.74.53-.77-.13-.72.52-.94.19-1.67.68,0-.34-.32-.14-.26-.53-.39.44-.95.29-1.42.48-.24.06-.26-.21-.4-.31-.37,0-.94.53-1.12,0-.83,0-1.78.33-2.62-.46-.27,0-.47.31-.8.11.05-.19.15-.22.18-.46-.4-.44-1,.48-1,.07-.11,0-.14.27-.19.45-.32.12-.13-.52-.21-.76a.47.47,0,0,1-.1.1l-.36.18-.24-1.37c0-.18.23-.28.53-.25-.29-.22-.19-.23-.74-.64.07-.29.47-.17,1,.15l.26-.48c-.36-.64.33-.6-.43-1.23.09,0,.73-.1.21-.39a6,6,0,0,0,1.16-.14c-.38-.45-.08-.87-.38-1.32.33-.43.6-.43,1.38-.53-.56-.57,0-1.29.68-1.27,0-.13-.38-.28-.32-.41.41-.42.21-.86.42-1.28.3.16.59.33.69.23s-.62-.3-.69-.23c-.37-.31-.13-.25.16-.18l1.58-.23c-.13.19-.27.41-.16.45.29-.28.38-.49.36-.65l-.06-.54-2,.84h0l.26-1.36,1.8,1.06c.94.55,1.37,1.18,2.39,1.84.28.08-.67,1.36.2.57.07.08-.15.26-.27.41s.12.16.33,0c-.07.27-.32.6-.22.82.21-.18.29-.32.27-.42.34-.23.28.08,0,.33.08.08.27-.14.42-.25-.14.88.7.64.54,1.63.12.06.22-.13.18-.17.73-.06.32.89.62,1.71.21.19.76-.49,1.09-.59,0,.13-.29.38-.2.49.4.18.88.33.84.89.69.09,1,.22.91,1h0l.07-.05,0,0c.5,0,.93.41.78.84h0a5,5,0,0,0,1.07,1.14c.2.07,0,.28-.19.49A.35.35,0,0,1,448.56,220.23Zm-7.22-.7c0,.07.18-.08.15-.22S441.3,219.4,441.34,219.53Zm-1.6.21c0,.07.18-.09.14-.22S439.7,219.61,439.74,219.74Zm-3.55-6.23c.69-.06-.84-.14,0,0Zm1.36-3-.11.2c.22.11.21.21.38.32C437.88,210.82,438,210.66,437.55,210.47Zm2,.3c.09-.09.13-.25-.08-.08S439.34,210.94,439.55,210.77Zm2.28,3.48c0-.07-.19,0-.24.09S441.78,214.38,441.83,214.25Zm-6.47,3.82c.14,0,.24.21.16.21S435.29,218.07,435.36,218.07Zm2.75-6.37c-.22,0-.05-.3.1-.25s0,.08.07.08C438.53,211.52,438.23,211.69,438.11,211.7Z" transform="translate(0 -0.5)"/><path d="M293.39,61.22l.94,1.36a5.08,5.08,0,0,0-2,1.94c-1.21.23-1.56,1.67-2.24.94-.4.35,0,.58-.53.94-1.41,1.21-1.73.47-2.76,1-2,1.3-2.16,1.9-3.67,2.22V68.48a6.36,6.36,0,0,1,3.28,2,.89.89,0,0,1-.3.06c.34.17.64.31.79.41.35.24,1.67,1.88,2.75,1.9,1.22,1,1.51,2.19,2.36,1.63,1,.57.6,1,1.82,1.55s2.91,1.74,4,1.86c.34,1,3.76,2.4,4.05,3.38a19.06,19.06,0,0,1,3.38,2l1.22.85-1.22.83c-1.33.9-2.44,1.59-2.86,2.45a7.7,7.7,0,0,0-2.51,1.42c-.32-.88-2.25,1.11-2.9.81-.46.56-1.05,1.15-.65,1.6a13.34,13.34,0,0,0-4.09,2.49c-1-1.88-2.74,2.44-4.08,1.61-.28.47-.54.94-.79,1.41a30.39,30.39,0,0,0-4.42,2.81v-.76a29.66,29.66,0,0,0,3.38,1.85c1.42,1.69,3.75,2.27,4.44,3.65,3.27.53,7.11,4.91,10.77,6.28.68.45.92.85.9,1.2a11.57,11.57,0,0,1,2.92,1.46l1.39.74-1.39,1.27-.09.08c-1.29.27-2.16-.21-4,1-.88.55.29.83.27,1.27-2.44,1.75-5.39,2.91-7,5a2.23,2.23,0,0,1-1.58.21c-.23,1.32-2.82,1.93-3.82,2-.47.38-.14.66.26.39-.24.82-2.85,2.21-3.29,2-.42.35-.09.35.13.2-1,.77-2.08,1.69-3.22,2.54v-1.17a14.77,14.77,0,0,1,3.16,2.53c.56.29.86.09,1.46.43a34.64,34.64,0,0,0,8.78,5.77,4.71,4.71,0,0,0,.9,1.21c.69.51,1,.33,1.72.89,1.17.6.51.93,1.29,1.48,1.17.94,1.41.19,2.38.77l2.54,1.63,1.37.89-1.37,1a70.72,70.72,0,0,0-7.43,5.8,31.46,31.46,0,0,0-3.5,1.82l-.94-1.36a3,3,0,0,1,1.41-.71c.47-.43.38-.78.92-1.21s1.88-1.62,2.1-1.14c.48-.42.39-.78.92-1.21a35.22,35.22,0,0,1,5.53-3.43v1c-.67-.58-1.29-1.12-2-1.64l.28-.39c-.7-.49-2.66-1-2.75-1.9-2.63-1-3.4-1.92-6.06-3,.11-.34-1.12-.87-.9-1.2-1.44-.39-3.46-1.84-5.13-2.67-.88-.49-1-.85-1.44-1.28-1.34-.84-3.4-1.52-4.07-2.52l-.16-.1-1.23-.78,1.23-.92c2.77-2.07,5.66-4.58,9.33-6.33A14.78,14.78,0,0,1,294,120c0,.21-.26.47-.13.66,1.88-.83,2.78-2.65,3.43-2.61.38-.27.14-.45.13-.67,1-.86,1-.11,1.58-.21a3.14,3.14,0,0,1,2.11-1.14c0-.44.24-.5.26-1.33,1-.77,1.48-.61,1.71,0l1.27-.86v.73l-.7-.49c-1.78-.48-2.44-1.69-3.7-1.39-.2-.22-1.17-1.53-1.57-1.08a26.12,26.12,0,0,0-1.81-2.41c-1.12-.11-2.89-1.4-4.09-1.66a13,13,0,0,1-3.38-3.5c-1.33,0-4.47-2.39-5.11-3.53-.46-.25-.54.2-1.06-.15-.27-.22-.54-.42-.76-.57l-.94-.67.94-.62c1.53-1,2.38-1.94,3.8-2.92.16.3.31.61.8.33.84-.49-.47-.52-.8-.33.21-1.17,1.13,0,1.85-.68-.21-.35-.64-.32-1.19-.06,3.58-2.8,6.34-4.54,10.4-7.65.84-.75,2.63-.07,2.11-1.14.39-.26.47,0,.66.13s.71-.46.66-.74a5,5,0,0,0,2-.47c-.09-.28-.32-.3-.66-.13,0-.52.83-.74.92-.34.38-.27.15-.45.13-.67a7.1,7.1,0,0,0,1.25-.52v1.54c-1.33-1.15-2.81-1.72-4.16-3.42-.47-.27-.35,0-.14.2-2-.67-2.84-2.43-5.48-4.66-1-.68-1.15.29-1.87.16-.39-.34,0-.57-.51-.93a16,16,0,0,1-4.32-3c-2.22-1-3.45-1.65-4.72-3.26a.65.65,0,0,1-.13,0l-.1,0-.21-.15-.21-.08-.9-.37.9-.94a10.31,10.31,0,0,1,3.92-2.6h0c2.15-1.4,4.18-2.69,5.59-3.8.63-.53.85-.36,1.06-.14A2.54,2.54,0,0,1,293.39,61.22Zm-2.76,73.62c.07.13.66.32.53.08S290.5,134.6,290.63,134.84Zm-5.78-3.41c.07.13.66.32.53.08S284.72,131.19,284.85,131.43Zm6.1-25.86c-1-1.38.49,1.31,0,0Zm-5.61-9.28-.79.54c.13.2-.17.46-.13.67C285,97.06,285.8,96.59,285.34,96.29ZM290.61,93c-.08-.11-.47,0-.4.27C290.28,93.38,290.68,93.28,290.61,93Zm13.29-9.73c.07.13.66.31.53.07S303.76,83,303.9,83.27Zm-1.32,33.22c.28,0-.11.45-.26.46S302.44,116.5,302.58,116.49ZM290.35,95.21c-.44.49-1,.46-.53.07.1-.09.31-.18.4-.27C290.72,94.45,290.59,94.93,290.35,95.21Z" transform="translate(0 -0.5)"/><path d="M448.5,364.47l-.93-1.35a5.24,5.24,0,0,0,2-1.95c1.21-.23,1.56-1.67,2.24-.94.39-.34,0-.58.52-.94,1.41-1.21,1.73-.47,2.77-1,2-1.3,2.15-1.89,3.67-2.21v1.14a6.37,6.37,0,0,1-3.29-2,.73.73,0,0,1,.3-.07c-.34-.17-.63-.31-.78-.41-.35-.23-1.68-1.87-2.75-1.9-1.22-.95-1.52-2.19-2.36-1.63-1-.57-.6-1-1.83-1.55s-2.91-1.73-3.95-1.86c-.35-1-3.76-2.4-4.05-3.37a19.32,19.32,0,0,1-3.38-2l-1.23-.85,1.23-.83c1.33-.9,2.44-1.59,2.86-2.45a7.51,7.51,0,0,0,2.5-1.41c.33.87,2.26-1.12,2.91-.81.46-.57,1-1.15.65-1.61A13.46,13.46,0,0,0,449.7,332c1.05,1.87,2.74-2.44,4.09-1.62.27-.47.54-.94.79-1.41a30.93,30.93,0,0,0,4.42-2.81V327a31.46,31.46,0,0,0-3.38-1.85c-1.43-1.69-3.75-2.27-4.44-3.65-3.27-.52-7.11-4.91-10.78-6.28-.68-.45-.91-.84-.9-1.2a12.24,12.24,0,0,1-2.92-1.45l-1.39-.75,1.39-1.27.1-.08c1.29-.27,2.16.22,3.95-.95.88-.55-.29-.83-.26-1.27,2.44-1.75,5.38-2.91,7-5a2.28,2.28,0,0,1,1.58-.21c.23-1.32,2.82-1.93,3.82-2,.46-.39.13-.67-.26-.4.23-.81,2.84-2.21,3.29-1.95.42-.34.08-.35-.14-.2,1-.77,2.08-1.69,3.22-2.54V297a14.65,14.65,0,0,1-3.15-2.53c-.57-.29-.87-.08-1.46-.42a34.3,34.3,0,0,0-8.79-5.78,4.29,4.29,0,0,0-.9-1.21c-.69-.51-1-.33-1.71-.89-1.17-.59-.51-.93-1.29-1.47-1.17-1-1.42-.19-2.39-.77l-2.54-1.64-1.37-.88,1.37-1a69.69,69.69,0,0,0,7.43-5.8,31.3,31.3,0,0,0,3.51-1.81l.93,1.35a3.19,3.19,0,0,1-1.4.72c-.47.42-.39.77-.92,1.2-.65.28-1.89,1.62-2.11,1.14-.47.43-.38.78-.92,1.21a36.2,36.2,0,0,1-5.53,3.44v-1c.68.59,1.3,1.12,2,1.64l-.27.39c.7.49,2.66,1.05,2.75,1.9,2.62,1,3.39,1.92,6.06,3-.12.34,1.12.88.9,1.2,1.43.39,3.45,1.85,5.13,2.67.88.49.95.86,1.43,1.29,1.34.84,3.4,1.51,4.07,2.52l.16.1,1.24.78-1.24.92c-2.77,2.06-5.65,4.58-9.32,6.33a15.87,15.87,0,0,1-2.64,2.08c0-.22.26-.47.13-.67-1.87.83-2.78,2.66-3.42,2.61-.38.27-.15.46-.13.67-1,.86-1,.11-1.59.21a3.06,3.06,0,0,1-2.1,1.14c0,.44-.24.5-.26,1.34-1,.77-1.48.6-1.72,0l-1.27.86v-.73l.71.49c1.78.48,2.43,1.69,3.7,1.39.2.22,1.17,1.53,1.57,1.08a28,28,0,0,0,1.8,2.42c1.12.1,2.89,1.4,4.1,1.66a12.89,12.89,0,0,1,3.37,3.49c1.33,0,4.47,2.39,5.11,3.53.46.25.54-.2,1.07.15.27.22.53.42.75.58l.94.66-.94.63c-1.53,1-2.37,1.93-3.8,2.92-.15-.31-.31-.61-.79-.33-.84.48.46.52.79.33-.21,1.16-1.13,0-1.84.67.2.35.63.32,1.18.06-3.58,2.81-6.34,4.54-10.4,7.65-.83.75-2.62.07-2.11,1.14-.38.26-.47,0-.66-.13s-.71.46-.66.74a5.08,5.08,0,0,0-2,.47c.09.28.32.3.66.14,0,.51-.83.74-.93.33-.38.27-.14.46-.13.67a7.33,7.33,0,0,0-1.24.52v-1.54c1.32,1.15,2.81,1.72,4.15,3.42.48.27.36,0,.14-.2,2,.68,2.85,2.43,5.48,4.67,1,.67,1.15-.3,1.87-.17.4.34,0,.57.51.93a16,16,0,0,1,4.33,3c2.21,1,3.44,1.65,4.71,3.26l.14,0s.07,0,.09,0l.22.15.21.08.9.37-.9.95a10.34,10.34,0,0,1-3.92,2.59h0c-2.15,1.4-4.18,2.69-5.6,3.81-.62.53-.85.35-1.05.13A2.6,2.6,0,0,1,448.5,364.47Zm2.77-73.62c-.07-.13-.67-.32-.53-.08S451.4,291.09,451.27,290.85Zm5.78,3.41c-.07-.13-.67-.32-.53-.08S457.18,294.5,457.05,294.26ZM451,320.12c1,1.39-.49-1.31,0,0Zm5.61,9.28.79-.54c-.14-.2.16-.45.13-.67C456.87,328.64,456.09,329.1,456.56,329.4Zm-5.27,3.29c.07.11.47,0,.39-.27C451.61,332.31,451.21,332.41,451.29,332.69ZM438,342.43c-.07-.13-.66-.32-.53-.08S438.13,342.67,438,342.43Zm1.31-33.22c-.27,0,.12-.45.26-.47S439.46,309.19,439.31,309.21Zm12.24,21.27c.44-.49,1-.46.52-.06-.1.09-.31.17-.39.26C451.18,331.24,451.3,330.76,451.55,330.48Z" transform="translate(0 -0.5)"/><path d="M574.6.5h1.65a1,1,0,0,0,.46,1.06c-.49.44.49.86-.49.92.06.2.48.12.48.37.2.71-.59.65-.73,1.09-.05.92.35,1.1-.26,1.65a1.1,1.1,0,0,1,.23,1.47.93.93,0,0,1-.22-.08,1.45,1.45,0,0,1,.1.34c0,.16-.6.94,0,1.28-.1.59-.95,1,0,1.1.09.45-.45.4-.25.92s.21,1.29.7,1.65c-.61.33.14,1.71-.5,2,.65,1.28-.14,2.38.69,2.94-.28.21-.28.64-.25,1.1-.9-.09-.35,1-1,1.09.21.27.35.58,1,.56-.47.69-.35,1-.26,1.83-2.14-.08.46,1.4-1,1.64.23.19.47.38.72.56a5.14,5.14,0,0,0,.2,3.48c-.58.82.25,1.68-.5,2.2,1.42,1.15,0,3.32.91,4.78,0,.31-.18.47-.48.54.48.59.27.65.46,1.29-.51.47-1.4.64-1.45,1.46,0,.4.85.09,1.2.19.06,1.15-.65,2.34.21,3.3a1.14,1.14,0,0,1-.73.55c1,.36,0,1.31-.5,1.65.06.23.48.18.48,0,.54.25.21,1.38-.25,1.46a.12.12,0,0,0,.24,0c.11.95.63,2.06,0,3.11.08.24.42.29.47.56a5.33,5.33,0,0,0,.2,4,1.41,1.41,0,0,0-.48.55c0,.33.29.39.23.74.17.5-.48.36-.49.73-.12.57.64.48.71.92.16,1.64.09,3.45.68,4.77a5.29,5.29,0,0,0-.49,1.5H574.6a.56.56,0,0,1,.21-.59c-.08-.25-.42-.3-.48-.56.14-.26-.27-1,.25-.91-.08-.24-.42-.29-.47-.56-.21-1.67.41-2.49.51-3.48h.48c0-.32-.63-1.07,0-1.28-.64-1.06-.34-1.49-.94-2.57.35,0,.09-.55.49-.55-.5-.54-.44-1.49-.7-2.2-.1-.39.17-.49.25-.74-.07-.6-.68-1.4-.23-1.83-.12-1.35-.6-2.83,0-4.4-.08-.43-.38-.69-.23-1.29.19,0,.24.19.48.19.37-.78-.63-1.46-.23-1.65,0-.18-.29-.15-.47-.19-.16-.5.5-.35.72-.55-.3-.22-.09-.69.25-.91a9.83,9.83,0,0,0-1-.38c-.06-.48.34-.59,1-.54,0-.31,0-.61,0-.92-.61-.67,0-1.14-1-1.47.07-.11.61-.7,0-.73a7.72,7.72,0,0,0,1-1.1c-.55-.38-.48-1.22-.94-1.65a2.65,2.65,0,0,1,1-1.83c-.77-.42-.56-1.94,0-2.39-.06-.2-.48-.12-.48-.37.17-.91-.21-1.42-.22-2.2.34,0,.68,0,.73-.18.07-.37-.7,0-.73.18-.84-.32.61-.37.49-.73-.41,0-.62.13-.72.36-.29-1.74-.16-3-.43-4.95-.15-.43,1.42-.85.25-.92,0-.18.29-.14.48-.18s0-.32-.24-.37c.24-.24.65-.35.73-.73-.28,0-.43,0-.48.19-.41-.13-.15-.43.24-.37,0-.18-.29-.14-.48-.19.72-.89,0-1.57.75-2.56a.12.12,0,0,0-.24,0c-.57-.77.39-1.43.74-2.75,0-.47-.89-.3-1.19-.56.06-.19.48-.12.48-.36a2.45,2.45,0,0,1,0-2c-.43-.91-.58-1.45,0-2.2a.1.1,0,0,1,0,0l-.09,0v-.1a1.68,1.68,0,0,1,0-1.89h0a12.7,12.7,0,0,0,0-2.6c-.09-.31.19-.34.48-.36A.64.64,0,0,1,574.6.5Zm.32,49.73c-.07.05.11.28.24.19S575,50.14,574.92,50.23Zm-.46-2.57c-.06.05.12.28.24.19S574.59,47.57,574.46,47.66Zm-.06-17.61c.58-.61-.81.44,0,0Zm-.19-5.5v.37c.24,0,.28.15.48.18C574.66,24.81,574.72,24.47,574.21,24.55Zm.26-2.38c-.13,0-.27.14,0,.18S574.75,22.2,574.47,22.17Zm.79-6.78c-.07,0,.11.27.24.18S575.39,15.29,575.26,15.39Zm.5,22c.13-.1.31.13.24.18S575.7,37.45,575.76,37.4Zm.39-14.67c.16.24-.17.41-.24.18,0-.05,0-.14,0-.18C575.73,22.45,576.06,22.59,576.15,22.73Z" transform="translate(0 -0.5)"/><path d="M603,.5h1.65a1,1,0,0,0,.46,1.06c-.49.44.49.86-.49.92.06.2.48.12.48.37.2.71-.6.65-.73,1.09,0,.92.34,1.1-.26,1.65a1.09,1.09,0,0,1,.22,1.47L604.12,7a1.17,1.17,0,0,1,.11.34c0,.16-.6.94,0,1.28-.1.59-1,1,0,1.1.1.45-.44.4-.25.92s.22,1.29.71,1.65c-.62.33.14,1.71-.5,2,.65,1.28-.14,2.38.69,2.94-.28.21-.28.64-.25,1.1-.91-.09-.36,1-1,1.09a1,1,0,0,0,1,.56c-.46.69-.34,1-.26,1.83-2.13-.08.47,1.4-1,1.64l.71.56a5.14,5.14,0,0,0,.21,3.48c-.59.82.25,1.68-.5,2.2,1.41,1.15,0,3.32.91,4.78,0,.31-.18.47-.49.54.48.59.27.65.47,1.29-.51.47-1.4.64-1.45,1.46-.05.4.85.09,1.2.19.06,1.15-.65,2.34.2,3.3a1.12,1.12,0,0,1-.72.55c1,.36,0,1.31-.5,1.65.06.23.48.18.48,0,.54.25.21,1.38-.25,1.46a.12.12,0,0,0,.24,0c.1.95.62,2.06,0,3.11.08.24.42.29.47.56a5.24,5.24,0,0,0,.2,4,1.44,1.44,0,0,0-.49.55c0,.33.29.39.24.74.17.5-.48.36-.49.73-.12.57.64.48.71.92.16,1.64.08,3.45.67,4.77a5.29,5.29,0,0,0-.48,1.5H603a.56.56,0,0,1,.21-.59c-.09-.25-.43-.3-.48-.56.14-.26-.27-1,.25-.91-.08-.24-.42-.29-.47-.56-.21-1.67.41-2.49.51-3.48h.48c0-.32-.64-1.07,0-1.28-.63-1.06-.34-1.49-.93-2.57.34,0,.09-.55.48-.55-.49-.54-.43-1.49-.69-2.2-.1-.39.16-.49.24-.74-.06-.6-.67-1.4-.22-1.83-.13-1.35-.6-2.83,0-4.4-.07-.43-.37-.69-.22-1.29.19,0,.23.19.47.19.37-.78-.62-1.46-.22-1.65,0-.18-.29-.15-.48-.19-.16-.5.5-.35.73-.55-.3-.22-.1-.69.25-.91a9.83,9.83,0,0,0-1-.38c-.07-.48.34-.59,1-.54,0-.31,0-.61,0-.92-.61-.67,0-1.14-1-1.47.07-.11.6-.7,0-.73a9.2,9.2,0,0,0,1-1.1c-.55-.38-.48-1.22-.95-1.65a2.72,2.72,0,0,1,1-1.83c-.76-.42-.56-1.94,0-2.39-.06-.2-.48-.12-.48-.37.17-.91-.21-1.42-.22-2.2.34,0,.68,0,.72-.18.08-.37-.69,0-.72.18-.84-.32.61-.37.49-.73a.69.69,0,0,0-.73.36c-.29-1.74-.16-3-.43-4.95-.14-.43,1.43-.85.25-.92,0-.18.3-.14.48-.18.34-.06,0-.32-.23-.37.24-.24.65-.35.72-.73-.27,0-.42,0-.48.19-.4-.13-.14-.43.25-.37,0-.18-.3-.14-.48-.19.71-.89-.05-1.57.74-2.56,0-.21-.24-.1-.24,0-.56-.77.4-1.43.75-2.75,0-.47-.89-.3-1.19-.56.06-.19.47-.12.48-.36a2.45,2.45,0,0,1,0-2c-.43-.91-.59-1.45,0-2.2l0,0-.08,0s0-.07,0-.1a1.67,1.67,0,0,1,0-1.89h0a12.62,12.62,0,0,0,0-2.6c-.08-.31.19-.34.49-.36A.58.58,0,0,1,603,.5Zm.31,49.73c-.06.05.12.28.24.19S603.45,50.14,603.32,50.23Zm-.45-2.57c-.07.05.11.28.24.19S603,47.57,602.87,47.66Zm-.07-17.61c.59-.61-.81.44,0,0Zm-.18-5.5c0,.12,0,.24,0,.37.24,0,.29.15.48.18C603.07,24.81,603.13,24.47,602.62,24.55Zm.26-2.38c-.13,0-.27.14,0,.18S603.15,22.2,602.88,22.17Zm.79-6.78c-.07,0,.11.27.24.18S603.79,15.29,603.67,15.39Zm.5,22c.12-.1.31.13.24.18S604.1,37.45,604.17,37.4Zm.39-14.67c.15.24-.17.41-.25.18,0-.05,0-.14,0-.18C604.14,22.45,604.47,22.59,604.56,22.73Z" transform="translate(0 -0.5)"/><path d="M110.17.5h1.64a1,1,0,0,0,.47,1.06c-.5.44.49.86-.49.92.06.2.47.12.47.37.21.71-.59.65-.73,1.09,0,.92.35,1.1-.25,1.65a1.09,1.09,0,0,1,.22,1.47L111.28,7a1.45,1.45,0,0,1,.1.34c0,.16-.6.94,0,1.28-.1.59-1,1,0,1.1.09.45-.44.4-.25.92s.21,1.29.71,1.65c-.62.33.14,1.71-.5,2,.65,1.28-.14,2.38.69,2.94-.28.21-.28.64-.25,1.1-.91-.09-.36,1-1,1.09a1,1,0,0,0,1,.56c-.46.69-.35,1-.26,1.83-2.13-.08.47,1.4-1,1.64l.71.56a5.14,5.14,0,0,0,.21,3.48c-.59.82.24,1.68-.51,2.2,1.42,1.15,0,3.32.92,4.78,0,.31-.19.47-.49.54.48.59.27.65.47,1.29-.51.47-1.4.64-1.46,1.46,0,.4.86.09,1.2.19.07,1.15-.64,2.34.21,3.3a1.14,1.14,0,0,1-.72.55c1,.36,0,1.31-.5,1.65.06.23.47.18.48,0,.53.25.21,1.38-.26,1.46,0,.21.24.11.24,0,.11.95.63,2.06,0,3.11.09.24.42.29.48.56a5.24,5.24,0,0,0,.2,4,1.36,1.36,0,0,0-.49.55c0,.33.29.39.24.74.16.5-.49.36-.49.73-.12.57.64.48.71.92.16,1.64.08,3.45.67,4.77a5.29,5.29,0,0,0-.49,1.5h-1.64a.55.55,0,0,1,.2-.59c-.08-.25-.42-.3-.47-.56.13-.26-.27-1,.25-.91-.09-.24-.42-.29-.48-.56-.2-1.67.41-2.49.52-3.48h.48c0-.32-.64-1.07,0-1.28-.63-1.06-.34-1.49-.94-2.57.35,0,.09-.55.49-.55-.49-.54-.43-1.49-.7-2.2-.1-.39.17-.49.25-.74-.06-.6-.67-1.4-.22-1.83-.13-1.35-.6-2.83,0-4.4-.07-.43-.37-.69-.23-1.29.2,0,.24.19.48.19.37-.78-.62-1.46-.22-1.65,0-.18-.29-.15-.48-.19-.16-.5.5-.35.73-.55-.31-.22-.1-.69.24-.91a9.32,9.32,0,0,0-1-.38c-.07-.48.34-.59,1-.54,0-.31,0-.61,0-.92-.61-.67,0-1.14-.94-1.47.07-.11.6-.7,0-.73a8.47,8.47,0,0,0,1-1.1c-.55-.38-.48-1.22-1-1.65a2.68,2.68,0,0,1,1-1.83c-.76-.42-.56-1.94,0-2.39,0-.2-.47-.12-.47-.37.17-.91-.21-1.42-.22-2.2.34,0,.68,0,.72-.18.08-.37-.69,0-.72.18-.84-.32.6-.37.49-.73-.41,0-.63.13-.73.36-.29-1.74-.16-3-.43-4.95-.15-.43,1.43-.85.25-.92,0-.18.29-.14.48-.18.34-.06,0-.32-.23-.37.24-.24.65-.35.72-.73-.28,0-.43,0-.48.19-.41-.13-.14-.43.24-.37,0-.18-.29-.14-.47-.19.71-.89-.06-1.57.74-2.56,0-.21-.24-.1-.24,0-.56-.77.4-1.43.75-2.75,0-.47-.89-.3-1.2-.56.07-.19.48-.12.49-.36a2.45,2.45,0,0,1,0-2c-.44-.91-.59-1.45,0-2.2a.1.1,0,0,1,0,0l-.08,0a.34.34,0,0,1,0-.1,1.67,1.67,0,0,1,0-1.89h0a12.62,12.62,0,0,0,0-2.6c-.08-.31.19-.34.48-.36A.56.56,0,0,1,110.17.5Zm.31,49.73c-.07.05.11.28.24.19S110.61,50.14,110.48,50.23ZM110,47.66c-.07.05.11.28.24.19S110.15,47.57,110,47.66ZM110,30.05c.59-.61-.81.44,0,0Zm-.19-5.5v.37c.24,0,.28.15.48.18C110.23,24.81,110.29,24.47,109.77,24.55Zm.27-2.38c-.14,0-.28.14,0,.18C110.17,22.35,110.31,22.2,110,22.17Zm.78-6.78c-.06,0,.12.27.24.18S111,15.29,110.82,15.39Zm.51,22c.12-.1.3.13.24.18S111.26,37.45,111.33,37.4Zm.38-14.67c.16.24-.16.41-.24.18,0-.05,0-.14,0-.18C111.29,22.45,111.62,22.59,111.71,22.73Z" transform="translate(0 -0.5)"/><path d="M138.57.5h1.65a1,1,0,0,0,.46,1.06c-.49.44.49.86-.49.92.06.2.48.12.48.37.2.71-.59.65-.73,1.09,0,.92.35,1.1-.26,1.65.39.45.61.9.23,1.47a.93.93,0,0,1-.22-.08,1.45,1.45,0,0,1,.1.34c0,.16-.6.94,0,1.28-.1.59-.95,1,0,1.1.09.45-.45.4-.25.92s.21,1.29.7,1.65c-.61.33.14,1.71-.5,2,.65,1.28-.14,2.38.69,2.94-.27.21-.27.64-.25,1.1-.9-.09-.35,1-1,1.09a1,1,0,0,0,1,.56c-.46.69-.35,1-.26,1.83-2.13-.08.46,1.4-1,1.64.24.19.47.38.72.56a5.14,5.14,0,0,0,.2,3.48c-.58.82.25,1.68-.5,2.2,1.42,1.15,0,3.32.91,4.78,0,.31-.18.47-.48.54.48.59.27.65.47,1.29-.52.47-1.41.64-1.46,1.46,0,.4.85.09,1.2.19.06,1.15-.65,2.34.21,3.3a1.14,1.14,0,0,1-.73.55c1,.36,0,1.31-.5,1.65.06.23.48.18.48,0,.54.25.22,1.38-.25,1.46a.12.12,0,0,0,.24,0c.11.95.63,2.06,0,3.11.08.24.42.29.47.56a5.29,5.29,0,0,0,.21,4,1.36,1.36,0,0,0-.49.55c0,.33.29.39.23.74.17.5-.48.36-.49.73-.11.57.65.48.72.92.16,1.64.08,3.45.67,4.77a5.29,5.29,0,0,0-.49,1.5h-1.65a.56.56,0,0,1,.21-.59c-.08-.25-.42-.3-.47-.56.13-.26-.28-1,.24-.91-.08-.24-.42-.29-.47-.56-.21-1.67.41-2.49.51-3.48h.48c0-.32-.63-1.07,0-1.28-.63-1.06-.34-1.49-.94-2.57.35,0,.09-.55.49-.55-.5-.54-.44-1.49-.7-2.2-.1-.39.17-.49.25-.74-.07-.6-.68-1.4-.23-1.83-.12-1.35-.6-2.83,0-4.4-.08-.43-.37-.69-.23-1.29.19,0,.24.19.48.19.37-.78-.62-1.46-.23-1.65,0-.18-.29-.15-.47-.19-.16-.5.5-.35.72-.55-.3-.22-.09-.69.25-.91a9.83,9.83,0,0,0-1-.38c-.06-.48.34-.59,1-.54,0-.31,0-.61,0-.92-.61-.67,0-1.14-1-1.47.07-.11.61-.7,0-.73a7.72,7.72,0,0,0,1-1.1c-.54-.38-.48-1.22-.94-1.65a2.65,2.65,0,0,1,1-1.83c-.76-.42-.56-1.94,0-2.39-.06-.2-.48-.12-.48-.37.17-.91-.21-1.42-.21-2.2.34,0,.67,0,.72-.18.07-.37-.7,0-.72.18-.85-.32.6-.37.48-.73-.41,0-.62.13-.72.36-.29-1.74-.16-3-.43-4.95-.15-.43,1.42-.85.25-.92,0-.18.29-.14.48-.18s0-.32-.24-.37c.24-.24.65-.35.73-.73-.28,0-.43,0-.48.19-.41-.13-.15-.43.24-.37,0-.18-.29-.14-.48-.19.72-.89-.05-1.57.75-2.56a.12.12,0,0,0-.24,0c-.57-.77.39-1.43.75-2.75,0-.47-.9-.3-1.2-.56.06-.19.48-.12.48-.36a2.45,2.45,0,0,1,0-2c-.43-.91-.58-1.45,0-2.2a.1.1,0,0,1,0,0l-.09,0v-.1a1.68,1.68,0,0,1,0-1.89h0a12.62,12.62,0,0,0,0-2.6c-.09-.31.19-.34.48-.36A.64.64,0,0,1,138.57.5Zm.32,49.73c-.07.05.11.28.24.19S139,50.14,138.89,50.23Zm-.46-2.57c-.06.05.12.28.24.19S138.56,47.57,138.43,47.66Zm-.06-17.61c.58-.61-.81.44,0,0Zm-.19-5.5v.37c.24,0,.28.15.48.18C138.64,24.81,138.69,24.47,138.18,24.55Zm.27-2.38c-.14,0-.28.14,0,.18S138.72,22.2,138.45,22.17Zm.78-6.78c-.07,0,.11.27.24.18S139.36,15.29,139.23,15.39Zm.51,22c.12-.1.3.13.23.18S139.67,37.45,139.74,37.4Zm.38-14.67c.16.24-.17.41-.24.18,0-.05,0-.14,0-.18C139.7,22.45,140,22.59,140.12,22.73Z" transform="translate(0 -0.5)"/><path d="M293.63,177.1v-1.65a2.41,2.41,0,0,0,1.81-.46c.74.49,1.47-.49,1.56.49.34-.06.22-.48.64-.48,1.21-.2,1.1.59,1.87.73,1.55,0,1.86-.35,2.81.26a2.83,2.83,0,0,1,2.51-.23.69.69,0,0,1-.14.22,3.9,3.9,0,0,1,.58-.1c.27,0,1.6.6,2.19,0,1,.1,1.63,1,1.88,0,.75-.09.67.45,1.56.25s2.21-.21,2.82-.7c.55.61,2.92-.14,3.44.5,2.19-.65,4.07.14,5-.69a3.46,3.46,0,0,0,1.87.25c-.15.9,1.63.35,1.87,1,.46-.21,1-.36.95-1a5.86,5.86,0,0,0,3.13.26c-.13,2.13,2.38-.46,2.81,1,.32-.24.63-.47.94-.72a14.67,14.67,0,0,0,5.95-.2c1.4.58,2.87-.25,3.75.5,2-1.42,5.66,0,8.15-.91.54,0,.81.18.94.48,1-.48,1.1-.27,2.19-.47.8.52,1.09,1.41,2.49,1.46.68,0,.15-.85.33-1.2,2-.06,4,.65,5.64-.21a1.44,1.44,0,0,1,.93.73c.61-1,2.24,0,2.81.5.39-.06.32-.48,0-.48.43-.54,2.36-.22,2.51.25.35,0,.17-.24,0-.24,1.63-.11,3.52-.63,5.32,0,.41-.08.5-.42.94-.47a15,15,0,0,0,6.89-.21,2.33,2.33,0,0,0,.94.49c.56,0,.66-.29,1.25-.23.86-.17.63.48,1.25.49,1,.11.83-.65,1.57-.72,2.8-.16,5.9-.08,8.15-.67a13.67,13.67,0,0,0,2.57.49v1.65a1.4,1.4,0,0,1-1-.21c-.42.08-.5.42-.95.47-.45-.13-1.62.28-1.56-.24-.41.08-.5.42-1,.47-2.85.21-4.25-.41-5.94-.51,0-.16,0-.32,0-.48-.56,0-1.83.63-2.2,0-1.8.63-2.54.34-4.39.94-.06-.35-.93-.09-.93-.49-.92.5-2.55.44-3.77.7-.65.1-.82-.17-1.24-.25-1,.07-2.4.68-3.14.23-2.29.12-4.83.6-7.51-.05a6.55,6.55,0,0,1-2.19.23c.06-.19.31-.24.31-.48-1.32-.37-2.48.62-2.82.23-.3,0-.24.29-.31.47-.85.16-.6-.5-.94-.72a1.44,1.44,0,0,1-1.56-.25c-.17.36-.31.28-.63,1-.83.06-1-.34-.93-1h-1.57c-1.14.61-1.94,0-2.51.95-.19-.07-1.2-.61-1.25,0a13.73,13.73,0,0,0-1.87-1c-.65.54-2.09.48-2.83.94a6,6,0,0,1-3.12-1c-.72.76-3.3.56-4.07,0-.34.06-.22.48-.63.48a25.8,25.8,0,0,0-3.76.21c0-.34.06-.67-.31-.72-.63-.07.06.7.31.72-.55.85-.63-.6-1.25-.48,0,.41.23.62.62.72-3,.29-5.11.16-8.46.43-.72.15-1.44-1.42-1.56-.25-.3,0-.24-.29-.31-.48s-.55,0-.63.24c-.41-.24-.6-.65-1.24-.73a.35.35,0,0,0,.31.48.34.34,0,0,1-.63-.24c-.3,0-.24.29-.31.48-1.53-.72-2.69.05-4.38-.75-.36.05-.18.24,0,.24-1.32.57-2.44-.39-4.69-.75-.8,0-.51.9-.95,1.2-.34-.06-.21-.48-.62-.48a6.94,6.94,0,0,1-3.45,0c-1.56.43-2.47.58-3.75,0l-.09,0,0,.09h-.17a4.58,4.58,0,0,1-3.22,0h0a36.74,36.74,0,0,0-4.44,0c-.53.09-.59-.19-.62-.48A1.35,1.35,0,0,1,293.63,177.1Zm84.88-.32c.09.07.48-.11.32-.24S378.35,176.66,378.51,176.78Zm-4.39.46c.09.06.48-.12.32-.24S374,177.11,374.12,177.24Zm-30.05.06c-1-.58.75.81,0,0Zm-9.39.19h.62c0-.24.26-.28.32-.48C335.13,177,334.54,177,334.68,177.49Zm-4.07-.27c0,.14.25.28.31,0A.16.16,0,1,0,330.61,177.22ZM319,176.44c.09.07.48-.11.32-.24S318.87,176.31,319,176.44Zm37.58-.51c-.16-.12.23-.3.31-.23S356.69,176,356.61,175.93Zm-25-.38c.42-.16.69.17.31.24-.09,0-.24,0-.32,0C331.09,176,331.33,175.64,331.57,175.55Z" transform="translate(0 -0.5)"/><path d="M294,176.68h-1.65c0-.17-.05-.33-.46-.43.5-.17-.49-.35.49-.37-.06-.08-.48,0-.48-.15-.2-.29.6-.26.74-.44,0-.37-.35-.45.25-.67-.39-.18-.6-.36-.22-.6l.22,0a.79.79,0,0,1-.11-.14c0-.06.6-.38,0-.52.1-.24,1-.39,0-.45-.1-.17.44-.16.25-.37s-.22-.52-.71-.67c.62-.13-.14-.69.5-.81-.65-.52.14-1-.69-1.19.28-.09.28-.26.25-.45.91,0,.36-.38,1-.44a1.44,1.44,0,0,0-.95-.23c.46-.28.35-.4.26-.74,2.13,0-.47-.56,1-.67l-.71-.22a1,1,0,0,0-.21-1.41c.59-.33-.25-.68.5-.89-1.41-.47,0-1.35-.91-1.94,0-.12.19-.19.49-.22-.48-.24-.27-.26-.47-.52.51-.19,1.4-.26,1.45-.59.05-.16-.85,0-1.19-.08-.07-.46.64-.94-.21-1.33a1.59,1.59,0,0,1,.72-.23c-1-.14,0-.53.5-.66-.06-.1-.48-.08-.48,0-.54-.11-.21-.56.25-.6,0-.08-.24,0-.24,0-.1-.39-.62-.83,0-1.26-.09-.1-.42-.12-.48-.23.58-.62.29-1.07-.2-1.63a1.18,1.18,0,0,0,.49-.22c0-.14-.29-.16-.24-.3-.17-.2.48-.15.49-.3s-.64-.19-.71-.37c-.16-.66-.08-1.4-.67-1.93.17-.16.44-.39.48-.61H294c0,.08,0,.18-.2.24.08.1.42.12.47.22-.13.11.27.39-.25.38.08.09.42.11.48.22.2.68-.42,1-.52,1.41h-.48c0,.13.64.43,0,.52.63.43.34.6.93,1-.34,0-.09.22-.48.22.49.22.43.61.7.9.09.15-.17.19-.25.29.06.25.67.57.22.75.13.54.6,1.14,0,1.78.07.17.37.28.23.52a3,3,0,0,0-.48-.08c-.37.32.62.59.22.67,0,.08.29.06.48.08.16.2-.5.14-.73.22.31.09.1.28-.25.37.36,0,.28.08,1,.15.07.2-.34.24-1,.22,0,.13,0,.25,0,.37.6.27,0,.46.94.6-.07,0-.6.28,0,.3a8.79,8.79,0,0,0-1,.44c.55.15.48.49,1,.67-.1.36-.34.45-1,.74.76.17.56.79,0,1,0,.08.47,0,.47.15-.17.37.21.57.22.89-.34,0-.68,0-.72.07s.69,0,.72-.07c.84.13-.61.15-.49.3a1.16,1.16,0,0,0,.73-.15c.29.7.16,1.21.43,2,.14.17-1.43.34-.25.37,0,.07-.29,0-.48.07-.34,0,0,.13.23.15-.24.1-.65.14-.72.29.27,0,.42,0,.48-.07.4.05.14.17-.25.15,0,.07.3.06.48.07-.71.37.06.64-.74,1,0,.09.24.05.24,0,.56.32-.4.58-.75,1.12,0,.19.89.12,1.19.22-.06.08-.47.05-.48.15.16.27.4.57,0,.82.43.37.59.58,0,.89l0,0h.08a.06.06,0,0,1,0,0c.36.23.38.63,0,.76h0a2.13,2.13,0,0,0,0,1.06c.08.12-.19.14-.48.14A.33.33,0,0,1,294,176.68Zm-.31-20.14c.07,0-.12-.11-.24-.08S293.6,156.58,293.73,156.54Zm.45,1c.07,0-.11-.11-.24-.08S294.06,157.62,294.18,157.58Zm.07,7.13c-.59.25.81-.18,0,0Zm.18,2.23c0-.05,0-.1,0-.15a4.56,4.56,0,0,1-.48-.07C294,166.83,293.92,167,294.43,166.94Zm-.26,1c.13,0,.27-.06,0-.08S293.9,167.89,294.17,167.91Zm-.79,2.74c.07,0-.11-.11-.23-.07S293.26,170.69,293.38,170.65Zm-.5-8.91c-.12,0-.3-.06-.24-.08S293,161.72,292.88,161.74Zm-.38,5.94c-.16-.1.16-.17.24-.07s0,0,0,.07S292.58,167.73,292.5,167.68Z" transform="translate(0 -0.5)"/><path d="M447.86,31.17h1.64a2.29,2.29,0,0,0,.46,1.76c-.49.72.49,1.42-.49,1.52.06.33.48.21.48.61.2,1.18-.59,1.07-.73,1.82,0,1.51.35,1.81-.26,2.73a2.67,2.67,0,0,1,.23,2.43.8.8,0,0,1-.22-.13,4,4,0,0,1,.1.56c0,.27-.6,1.55,0,2.13-.1,1-.95,1.58,0,1.82.09.74-.45.66-.25,1.52s.21,2.15.7,2.74c-.61.54.14,2.84-.5,3.34.65,2.13-.13,3.95.69,4.88a3.29,3.29,0,0,0-.25,1.82c-.9-.15-.35,1.58-1,1.81.21.45.36,1,1,.92a5.55,5.55,0,0,0-.26,3c-2.13-.12.46,2.32-1,2.73.24.31.47.62.72.92a14,14,0,0,0,.2,5.78c-.58,1.35.25,2.78-.5,3.64,1.42,1.9,0,5.5.91,7.91,0,.53-.18.79-.48.91.48,1,.27,1.08.47,2.14-.52.77-1.41,1-1.46,2.41,0,.66.85.15,1.2.32.06,1.91-.65,3.87.21,5.47a1.42,1.42,0,0,1-.73.91c1,.59,0,2.18-.49,2.73.05.38.47.31.47,0,.54.41.22,2.29-.25,2.43,0,.34.24.17.24,0,.11,1.59.63,3.42,0,5.17.08.4.42.48.47.91a14.22,14.22,0,0,0,.21,6.7,2.17,2.17,0,0,0-.49.9c0,.55.29.65.23,1.22.17.83-.48.61-.49,1.21-.11,1,.65.81.72,1.53.16,2.72.08,5.73.67,7.91a13.18,13.18,0,0,0-.49,2.5h-1.64a1.31,1.31,0,0,1,.2-1c-.08-.4-.42-.48-.47-.91.13-.44-.28-1.58.24-1.52-.08-.4-.42-.48-.47-.92-.21-2.77.41-4.13.51-5.77h.48c0-.54-.63-1.77,0-2.12-.63-1.75-.34-2.47-.94-4.27.35-.06.09-.91.49-.91-.5-.89-.44-2.47-.7-3.65-.1-.64.17-.81.25-1.22-.07-1-.68-2.33-.23-3-.12-2.23-.6-4.69.05-7.3a6.15,6.15,0,0,1-.23-2.13c.19.06.24.31.48.31.37-1.28-.62-2.41-.22-2.74,0-.29-.3-.24-.48-.31-.16-.81.5-.58.72-.9-.3-.36-.09-1.15.25-1.52-.36-.16-.28-.3-.95-.62-.07-.8.33-1,1-.9,0-.51,0-1,0-1.52-.61-1.11,0-1.89-.95-2.44.08-.19.61-1.16,0-1.22a12,12,0,0,0,1-1.81c-.54-.63-.48-2-.94-2.75a5.68,5.68,0,0,1,1-3c-.76-.69-.56-3.2,0-4-.06-.33-.48-.21-.48-.61a23.09,23.09,0,0,0-.21-3.65c.34,0,.67,0,.72-.3.07-.62-.7.05-.72.3-.85-.53.6-.61.48-1.22a.68.68,0,0,0-.72.61c-.29-2.89-.16-5-.43-8.22-.15-.7,1.42-1.4.25-1.52,0-.29.29-.23.48-.3s0-.53-.24-.61c.24-.4.65-.59.73-1.21a.36.36,0,0,0-.48.3.32.32,0,0,1,.24-.6c0-.3-.29-.24-.48-.31.72-1.48-.05-2.61.75-4.25-.05-.35-.24-.17-.24,0-.57-1.28.39-2.37.75-4.56,0-.78-.9-.49-1.2-.92.06-.33.48-.2.48-.6a6.55,6.55,0,0,1,0-3.35c-.43-1.52-.58-2.4,0-3.65a.3.3,0,0,1,0-.08l-.09,0v-.16a4.34,4.34,0,0,1,0-3.13h0a34.62,34.62,0,0,0,0-4.31c-.09-.52.19-.57.48-.6A1.21,1.21,0,0,1,447.86,31.17Zm.31,82.44c-.07.08.11.46.24.31S448.29,113.46,448.17,113.61Zm-.46-4.26c-.06.08.12.46.24.31S447.84,109.19,447.71,109.35Zm-.06-29.19c.58-1-.81.73,0,0ZM447.46,71v.6c.24,0,.28.25.48.31C447.92,71.47,448,70.9,447.46,71Zm.27-4c-.14,0-.28.24,0,.3S448,67.15,447.73,67.09Zm.78-11.25c-.06.09.11.47.24.31S448.64,55.69,448.51,55.84Zm.51,36.5c.12-.16.3.22.23.3S449,92.42,449,92.34ZM449.4,68c.16.41-.17.68-.24.31,0-.09,0-.23,0-.31C449,67.55,449.31,67.79,449.4,68Z" transform="translate(0 -0.5)"/><path d="M293.22,31.17h1.64c0,.21.06.4.46.52-.49.22.49.43-.49.46.06.1.48.06.48.18.2.35-.59.32-.73.54,0,.46.35.55-.26.82.39.22.61.44.23.73l-.22,0c.05.07.1.13.1.16s-.6.47,0,.64c-.1.29-.95.47,0,.55.09.22-.45.19-.25.45s.21.64.7.82c-.61.16.14.85-.5,1,.65.63-.14,1.18.69,1.45-.27.11-.27.32-.25.55-.9,0-.35.47-1,.54a1.29,1.29,0,0,0,1,.28c-.46.34-.35.49-.26.91-2.13,0,.46.69-1,.81.24.09.47.19.72.27a1.4,1.4,0,0,0,.2,1.73c-.58.41.25.83-.5,1.09,1.42.57,0,1.64.91,2.37,0,.15-.18.23-.48.27.48.29.27.32.47.64-.52.23-1.41.31-1.46.72,0,.2.85,0,1.2.09.06.57-.65,1.16.21,1.64a1.36,1.36,0,0,1-.73.27c1,.18,0,.65-.49.82,0,.11.47.09.47,0,.54.12.22.68-.25.72,0,.11.24.06.24,0,.11.48.63,1,0,1.55.08.12.42.14.47.27-.57.76-.28,1.32.21,2a1.31,1.31,0,0,0-.49.27c0,.17.29.2.23.37.17.25-.48.18-.49.36s.65.24.72.46c.16.81.08,1.71.67,2.36a2,2,0,0,0-.49.75h-1.64c-.06-.11,0-.22.2-.3-.08-.12-.42-.14-.47-.27.13-.13-.28-.47.24-.46-.08-.12-.42-.14-.47-.27-.21-.83.41-1.23.51-1.73h.48c0-.17-.63-.53,0-.64-.63-.52-.34-.74-.94-1.28.35,0,.09-.27.49-.27-.5-.26-.44-.74-.7-1.09-.1-.19.17-.24.25-.36-.07-.3-.68-.7-.23-.91-.12-.67-.6-1.4,0-2.18-.08-.22-.37-.34-.23-.64a2.75,2.75,0,0,0,.48.09c.37-.38-.62-.72-.22-.82,0-.08-.3-.07-.48-.09-.16-.24.5-.17.72-.27-.3-.11-.09-.34.25-.45-.36-.05-.28-.09-.95-.19-.07-.24.33-.29,1-.27,0-.15,0-.3,0-.45-.61-.33,0-.56-.95-.73.07-.06.61-.35,0-.36a7.29,7.29,0,0,0,1-.55c-.54-.18-.48-.6-.94-.82.09-.43.33-.54,1-.9-.76-.21-.56-1,0-1.18-.06-.1-.48-.07-.48-.19.17-.45-.2-.7-.21-1.09.34,0,.67,0,.72-.09s-.7,0-.72.09c-.85-.16.6-.18.48-.36-.41,0-.62.06-.72.18-.29-.86-.16-1.48-.43-2.46-.15-.21,1.42-.42.25-.45,0-.09.29-.07.48-.09s0-.16-.24-.18c.24-.12.65-.18.73-.36-.28,0-.43,0-.48.09-.41-.06-.15-.21.24-.19,0-.08-.29-.07-.48-.09.72-.44-.05-.78.75-1.27-.05-.1-.24,0-.24,0-.57-.38.39-.71.75-1.36,0-.23-.9-.15-1.2-.28.06-.09.48-.06.48-.18-.16-.33-.4-.69,0-1-.43-.45-.58-.71,0-1.09a.05.05,0,0,1,0,0h-.09v-.05c-.36-.28-.39-.77,0-.94h0a3.13,3.13,0,0,0,0-1.29c-.09-.15.19-.17.48-.18A.3.3,0,0,1,293.22,31.17Zm.31,24.64c-.07,0,.11.14.24.09S293.65,55.76,293.53,55.81Zm-.46-1.27c-.06,0,.12.13.24.09S293.2,54.49,293.07,54.54ZM293,45.81c.58-.3-.81.22,0,0Zm-.19-2.73v.19a2.94,2.94,0,0,1,.48.09C293.28,43.21,293.33,43,292.82,43.08Zm.27-1.18c-.14,0-.28.08,0,.09S293.36,41.92,293.09,41.9Zm.78-3.36c-.06,0,.11.14.24.09S294,38.5,293.87,38.54Zm.51,10.91c.12-.05.3.07.23.09S294.31,49.47,294.38,49.45Zm.38-7.27c.16.12-.17.2-.24.09s0-.07,0-.09S294.67,42.11,294.76,42.18Z" transform="translate(0 -0.5)"/><path d="M293.63,31.58V29.93a4.83,4.83,0,0,0,2.68-.46c1.09.49,2.16-.49,2.3.49.51-.06.32-.48.94-.48,1.79-.2,1.63.6,2.76.73,2.3.05,2.76-.34,4.16.26a5.94,5.94,0,0,1,3.7-.22.82.82,0,0,1-.2.22,6.56,6.56,0,0,1,.85-.11c.41,0,2.36.6,3.23,0,1.5.1,2.41.95,2.78,0,1.12-.1,1,.44,2.31.25s3.27-.22,4.17-.71c.81.62,4.32-.14,5.08.5,3.23-.65,6,.14,7.41-.69a7,7,0,0,0,2.77.25c-.22.91,2.41.36,2.76,1,.68-.2,1.47-.35,1.4-.95a12.81,12.81,0,0,0,4.62.26c-.19,2.13,3.52-.47,4.15,1,.48-.23.94-.47,1.4-.71a31.81,31.81,0,0,0,8.79-.21c2.06.59,4.23-.25,5.54.5,2.89-1.41,8.36,0,12-.91.79,0,1.19.18,1.38.49a12.13,12.13,0,0,1,3.24-.47c1.17.51,1.61,1.4,3.68,1.45,1,.05.22-.85.48-1.2,2.9-.06,5.89.65,8.33-.2a2.16,2.16,0,0,1,1.37.72c.91-1,3.31,0,4.16.5.58-.06.47-.48,0-.48.64-.54,3.48-.21,3.7.25.52,0,.26-.24,0-.24,2.42-.1,5.2-.62,7.86,0,.61-.08.74-.41,1.4-.47a32.19,32.19,0,0,0,10.17-.2,4.44,4.44,0,0,0,1.38.49c.83,0,1-.29,1.86-.24,1.26-.17.92.48,1.84.49,1.45.12,1.23-.64,2.32-.71,4.13-.16,8.72-.08,12-.67a29.28,29.28,0,0,0,3.79.48v1.65a2.93,2.93,0,0,1-1.51-.21c-.61.09-.73.43-1.39.48-.67-.14-2.4.27-2.31-.25-.61.08-.74.42-1.4.47-4.21.21-6.28-.41-8.78-.51,0-.16,0-.32,0-.48-.82,0-2.7.64-3.24,0-2.66.63-3.75.34-6.48.93-.1-.34-1.38-.09-1.38-.48-1.36.49-3.77.43-5.56.69a5.14,5.14,0,0,1-1.85-.24c-1.53.06-3.54.67-4.63.22-3.39.13-7.13.6-11.09,0a14.15,14.15,0,0,1-3.24.22c.09-.19.46-.23.46-.47-1.95-.37-3.67.62-4.16.22-.45,0-.36.29-.47.48-1.25.16-.89-.5-1.38-.73a2.87,2.87,0,0,1-2.31-.25c-.25.36-.46.28-.93,1-1.22.07-1.52-.34-1.38-1h-2.31c-1.69.61-2.87,0-3.71.95-.28-.07-1.77-.6-1.85,0a27.69,27.69,0,0,0-2.76-1c-.95.55-3.08.48-4.18,1a12.33,12.33,0,0,1-4.61-1c-1.06.76-4.87.56-6,0-.5.06-.32.48-.93.48a53.12,53.12,0,0,0-5.55.22c0-.34.08-.68-.46-.72-.93-.08.09.69.46.72-.81.84-.93-.61-1.85-.49,0,.41.34.63.92.73-4.39.29-7.55.16-12.49.43-1.08.14-2.14-1.43-2.31-.25-.45,0-.36-.3-.46-.48-.16-.34-.81,0-.93.23-.61-.24-.9-.65-1.84-.72-.08.27.1.42.46.48-.31.4-1.07.14-.92-.25-.45,0-.37.3-.47.48-2.25-.71-4,.05-6.47-.74-.52,0-.25.24,0,.24-2,.56-3.6-.4-6.92-.75-1.19,0-.76.89-1.41,1.19-.5-.06-.31-.47-.92-.48a14.92,14.92,0,0,1-5.08,0c-2.32.43-3.66.59-5.55,0l-.13,0s-.05.05-.06.08h-.25a9.83,9.83,0,0,1-4.76,0h0c-2.48-.06-4.81-.14-6.55,0-.79.08-.87-.19-.92-.49A2.35,2.35,0,0,1,293.63,31.58ZM419,31.27c.12.06.7-.12.46-.24S418.78,31.14,419,31.27Zm-6.49.45c.13.07.71-.11.47-.24S412.3,31.6,412.53,31.72Zm-44.39.07c-1.54-.59,1.11.81,0,0ZM354.26,32h.93c0-.24.38-.29.47-.48C354.93,31.52,354.06,31.46,354.26,32Zm-6-.26c0,.13.37.27.46,0S348.35,31.44,348.26,31.71Zm-17.1-.79c.12.07.7-.11.46-.24S330.92,30.8,331.16,30.92Zm55.5-.5c-.24-.12.34-.31.46-.24S386.78,30.49,386.66,30.42Zm-37-.39c.62-.15,1,.17.46.25-.13,0-.35,0-.47,0C349,30.45,349.32,30.12,349.67,30Z" transform="translate(0 -0.5)"/><path d="M448.27,31.58V29.93a3.36,3.36,0,0,0,2.2-.46c.89.49,1.77-.49,1.89.49.41-.06.26-.48.76-.48,1.47-.2,1.34.6,2.26.73,1.89.05,2.27-.34,3.41.26a4.07,4.07,0,0,1,3-.22.87.87,0,0,1-.17.22,4.71,4.71,0,0,1,.7-.11c.33,0,1.94.6,2.65,0,1.23.1,2,.95,2.28,0,.91-.1.81.44,1.89.25s2.68-.22,3.42-.71c.66.62,3.54-.14,4.16.5,2.65-.65,4.92.14,6.07-.69a4.79,4.79,0,0,0,2.27.25c-.18.91,2,.36,2.27,1,.55-.2,1.2-.35,1.15-.95a8.63,8.63,0,0,0,3.78.26c-.15,2.13,2.89-.47,3.4,1,.39-.23.77-.47,1.15-.71a21.4,21.4,0,0,0,7.2-.21c1.69.59,3.47-.25,4.54.5,2.38-1.41,6.86,0,9.87-.91.65,0,1,.18,1.13.49a8.35,8.35,0,0,1,2.66-.47c1,.51,1.32,1.4,3,1.45.83.05.19-.85.4-1.2,2.38-.06,4.83.65,6.82-.2a1.72,1.72,0,0,1,1.13.72c.74-1,2.72,0,3.41.5.47-.06.38-.48,0-.48.52-.54,2.86-.21,3,.25.43,0,.21-.24,0-.24,2-.1,4.26-.62,6.45,0,.5-.08.6-.41,1.14-.47a21.71,21.71,0,0,0,8.34-.2,3.27,3.27,0,0,0,1.13.49c.68,0,.81-.29,1.52-.24,1-.17.76.48,1.51.49,1.19.12,1-.64,1.91-.71,3.38-.16,7.14-.08,9.86-.67a19.84,19.84,0,0,0,3.11.48v1.65a2,2,0,0,1-1.24-.21c-.5.09-.6.43-1.14.48-.55-.14-2,.27-1.89-.25-.5.08-.6.42-1.15.47-3.45.21-5.14-.41-7.19-.51v-.48c-.67,0-2.21.64-2.65,0-2.18.63-3.08.34-5.32.93-.08-.34-1.13-.09-1.13-.48-1.11.49-3.09.43-4.56.69a3.51,3.51,0,0,1-1.51-.24c-1.25.06-2.9.67-3.79.22-2.78.13-5.85.6-9.1,0a9.5,9.5,0,0,1-2.65.22c.07-.19.38-.23.38-.47-1.6-.37-3,.62-3.41.22-.37,0-.3.29-.39.48-1,.16-.72-.5-1.13-.73a2,2,0,0,1-1.89-.25c-.2.36-.38.28-.77,1-1,.07-1.24-.34-1.12-1h-1.9c-1.38.61-2.35,0-3,.95-.23-.07-1.45-.6-1.52,0a19.68,19.68,0,0,0-2.26-1c-.78.55-2.52.48-3.42,1a8.57,8.57,0,0,1-3.78-1c-.87.76-4,.56-4.93,0-.41.06-.26.48-.76.48a35.65,35.65,0,0,0-4.55.22c0-.34.07-.68-.37-.72-.77-.08.07.69.37.72-.66.84-.76-.61-1.51-.49,0,.41.27.63.75.73-3.6.29-6.19.16-10.24.43-.88.14-1.75-1.43-1.9-.25-.36,0-.29-.3-.37-.48-.13-.34-.67,0-.76.23-.5-.24-.74-.65-1.51-.72-.06.27.08.42.38.48-.25.4-.88.14-.76-.25-.37,0-.3.3-.38.48-1.85-.71-3.25.05-5.3-.74-.43,0-.21.24,0,.24-1.6.56-3-.4-5.68-.75-1,0-.62.89-1.15,1.19-.41-.06-.25-.47-.75-.48a10.09,10.09,0,0,1-4.17,0c-1.9.43-3,.59-4.55,0l-.11,0s0,.05-.05.08H459a6.64,6.64,0,0,1-3.9,0h0c-2-.06-3.94-.14-5.37,0-.65.08-.71-.19-.75-.49A1.7,1.7,0,0,1,448.27,31.58ZM551,31.27c.1.06.58-.12.38-.24S550.85,31.14,551,31.27Zm-5.31.45c.1.07.57-.11.38-.24S545.53,31.6,545.73,31.72Zm-36.39.07c-1.26-.59.91.81,0,0ZM498,32h.76c0-.24.31-.29.38-.48C498.51,31.52,497.8,31.46,498,32ZM493,31.71a.19.19,0,0,0,.38,0A.19.19,0,0,0,493,31.71Zm-14-.79c.1.07.58-.11.38-.24S478.83,30.8,479,30.92Zm45.49-.5c-.2-.12.28-.31.38-.24S524.62,30.49,524.52,30.42ZM494.2,30c.51-.15.85.17.38.25-.11,0-.29,0-.38,0C493.62,30.45,493.92,30.12,494.2,30Z" transform="translate(0 -0.5)"/><path d="M195.51,177.1v-1.65a2.17,2.17,0,0,0,1.7-.46c.69.49,1.37-.49,1.46.49.32-.06.21-.48.59-.48,1.14-.2,1,.59,1.76.73,1.46,0,1.75-.35,2.64.26a2.51,2.51,0,0,1,2.35-.23.67.67,0,0,1-.13.22,3.37,3.37,0,0,1,.54-.1c.25,0,1.5.6,2.05,0,.95.1,1.53,1,1.76,0,.71-.09.63.45,1.46.25s2.08-.21,2.65-.7c.52.61,2.74-.14,3.23.5,2-.65,3.8.14,4.7-.69a3.06,3.06,0,0,0,1.75.25c-.14.9,1.53.35,1.76,1,.43-.21.93-.36.88-1a5.2,5.2,0,0,0,2.94.26c-.12,2.13,2.23-.46,2.63,1,.3-.24.6-.47.88-.72a12.93,12.93,0,0,0,5.58-.2c1.31.58,2.69-.25,3.52.5,1.83-1.42,5.3,0,7.64-.91a.8.8,0,0,1,.87.48c.95-.48,1-.27,2.06-.47.75.52,1,1.41,2.33,1.46.64,0,.14-.85.31-1.2,1.84-.06,3.74.65,5.28-.21a1.41,1.41,0,0,1,.88.73c.57-1,2.1,0,2.63.5.37-.06.3-.48,0-.48.4-.54,2.2-.22,2.34.25.33,0,.17-.24,0-.24,1.54-.11,3.3-.63,5,0,.39-.08.47-.42.89-.47a13.2,13.2,0,0,0,6.45-.21,2.15,2.15,0,0,0,.88.49c.52,0,.62-.29,1.17-.23.81-.17.59.48,1.17.49.92.11.78-.65,1.48-.72,2.62-.16,5.53-.08,7.63-.67a12.32,12.32,0,0,0,2.41.49v1.65a1.27,1.27,0,0,1-1-.21c-.39.08-.46.42-.88.47-.43-.13-1.52.28-1.47-.24-.38.08-.46.42-.88.47-2.68.21-4-.41-5.57-.51v-.48c-.52,0-1.71.63-2.05,0-1.69.63-2.39.34-4.12.94-.06-.35-.87-.09-.87-.49-.87.5-2.4.44-3.53.7-.62.1-.78-.17-1.17-.25-1,.07-2.25.68-2.94.23-2.15.12-4.53.6-7-.05a5.79,5.79,0,0,1-2.06.23c.06-.19.3-.24.3-.48-1.24-.37-2.33.62-2.64.23-.29,0-.23.29-.3.47-.79.16-.56-.5-.87-.72-.35.3-1.11.09-1.47-.25-.16.36-.29.28-.59,1-.78.06-1-.34-.88-1h-1.46c-1.07.61-1.82,0-2.36.95-.18-.07-1.12-.61-1.17,0a12.29,12.29,0,0,0-1.75-1c-.61.54-2,.48-2.65.94a5.35,5.35,0,0,1-2.93-1c-.67.76-3.09.56-3.81,0-.32.06-.21.48-.59.48a22.8,22.8,0,0,0-3.53.21c0-.34.06-.67-.28-.72-.6-.07,0,.7.28.72-.51.85-.58-.6-1.17-.48a.68.68,0,0,0,.58.72c-2.78.29-4.78.16-7.92.43-.68.15-1.36-1.42-1.47-.25-.28,0-.22-.29-.29-.48s-.51,0-.59.24c-.38-.24-.57-.65-1.16-.73-.05.28.06.43.29.48-.2.41-.68.15-.59-.24-.28,0-.23.29-.3.48-1.43-.72-2.51.05-4.1-.75-.33.05-.16.24,0,.24-1.23.57-2.28-.39-4.39-.75-.76,0-.48.9-.89,1.2-.32-.06-.2-.48-.59-.48a6.06,6.06,0,0,1-3.22,0c-1.47.43-2.32.58-3.53,0l-.08,0a.32.32,0,0,0,0,.09h-.16a4,4,0,0,1-3,0h0a32.26,32.26,0,0,0-4.16,0c-.5.09-.55-.19-.58-.48A1.21,1.21,0,0,1,195.51,177.1Zm79.56-.32c.08.07.44-.11.29-.24S274.92,176.66,275.07,176.78Zm-4.12.46c.09.06.45-.12.3-.24S270.8,177.11,271,177.24Zm-28.16.06c-1-.58.7.81,0,0Zm-8.81.19h.59c0-.24.24-.28.3-.48C234.41,177,233.85,177,234,177.49Zm-3.81-.27c0,.14.23.28.29,0S230.23,177,230.17,177.22Zm-10.85-.78c.08.07.45-.11.3-.24S219.17,176.31,219.32,176.44Zm35.22-.51c-.15-.12.21-.3.29-.23S254.62,176,254.54,175.93Zm-23.47-.38c.39-.16.65.17.29.24-.09,0-.22,0-.3,0C230.62,176,230.85,175.64,231.07,175.55Z" transform="translate(0 -0.5)"/><path d="M195.1,31.17h1.64a4.38,4.38,0,0,0,.46,2.52c-.49,1,.49,2-.49,2.17.06.47.48.3.48.88.2,1.68-.59,1.54-.73,2.6,0,2.16.35,2.59-.26,3.91a5.28,5.28,0,0,1,.23,3.48.66.66,0,0,1-.22-.19,7.71,7.71,0,0,1,.1.8c0,.39-.6,2.23,0,3-.1,1.4-1,2.26,0,2.61.09,1-.45.94-.25,2.17s.21,3.08.7,3.93c-.61.76.14,4.06-.5,4.78.65,3-.13,5.65.69,7a6.59,6.59,0,0,0-.25,2.61c-.9-.21-.35,2.27-1,2.6.21.63.36,1.38,1,1.31a11.17,11.17,0,0,0-.26,4.35c-2.13-.18.46,3.32-1,3.9.24.45.47.89.72,1.32a28.19,28.19,0,0,0,.2,8.27c-.58,1.94.25,4-.5,5.21,1.42,2.73,0,7.87.91,11.33,0,.75-.18,1.13-.48,1.3a10.87,10.87,0,0,1,.47,3c-.52,1.11-1.41,1.51-1.46,3.46,0,1,.85.21,1.2.46.06,2.73-.65,5.54.21,7.83a2,2,0,0,1-.73,1.3c1,.85,0,3.11-.49,3.91.05.54.47.44.47,0,.54.6.22,3.28-.25,3.48,0,.49.24.24.24,0,.11,2.28.63,4.89,0,7.4.08.57.42.69.47,1.31a28.84,28.84,0,0,0,.21,9.58,3.8,3.8,0,0,0-.49,1.3c0,.78.29.92.23,1.74.17,1.19-.48.87-.49,1.74-.11,1.36.65,1.15.72,2.18.16,3.89.08,8.2.67,11.32a26.13,26.13,0,0,0-.49,3.57H195.1a2.53,2.53,0,0,1,.2-1.42c-.08-.57-.42-.69-.47-1.31.13-.63-.28-2.25.24-2.17-.08-.57-.42-.69-.47-1.31-.21-4,.41-5.91.51-8.26h.48c0-.77-.63-2.54,0-3-.63-2.51-.34-3.54-.94-6.11.35-.09.09-1.3.49-1.3-.5-1.27-.44-3.54-.7-5.23a4.58,4.58,0,0,1,.25-1.74c-.07-1.43-.68-3.33-.23-4.35-.12-3.19-.6-6.71.05-10.44a12.48,12.48,0,0,1-.23-3c.19.08.24.44.48.44.37-1.84-.62-3.46-.22-3.92,0-.42-.3-.34-.48-.44-.16-1.17.5-.84.72-1.3a2.62,2.62,0,0,1,.25-2.17c-.36-.24-.28-.44-1-.88-.07-1.15.33-1.43,1-1.29,0-.73,0-1.46,0-2.18-.61-1.59,0-2.7-.95-3.49.07-.27.61-1.67,0-1.74a22,22,0,0,0,1-2.6c-.54-.9-.48-2.9-.94-3.93a10.65,10.65,0,0,1,1-4.34c-.76-1-.56-4.59,0-5.66-.06-.47-.48-.3-.48-.87a47.33,47.33,0,0,0-.21-5.23c.34,0,.67.08.72-.42.07-.89-.7.08-.72.42-.85-.75.6-.87.48-1.73-.41,0-.62.31-.72.86-.29-4.13-.16-7.1-.43-11.76-.15-1,1.42-2,.25-2.17,0-.42.29-.33.48-.43s0-.76-.24-.87c.24-.58.65-.85.73-1.73-.28-.08-.43.09-.48.43-.41-.29-.15-1,.24-.87,0-.42-.29-.34-.48-.44.72-2.12-.05-3.73.75-6.08-.05-.5-.24-.25-.24,0-.57-1.83.39-3.39.75-6.51,0-1.12-.9-.72-1.2-1.33.06-.47.48-.28.48-.86a13.28,13.28,0,0,1,0-4.79c-.43-2.17-.58-3.43,0-5.22a.42.42,0,0,1,0-.12s-.06,0-.09,0v-.24a8.73,8.73,0,0,1,0-4.48h0c.06-2.33.14-4.52,0-6.16-.09-.74.19-.82.48-.87A2.06,2.06,0,0,1,195.1,31.17Zm.31,118c-.07.12.11.66.24.43S195.53,148.93,195.41,149.16Zm-.46-6.1c-.06.12.12.66.24.44S195.08,142.83,195,143.06Zm-.06-41.78c.58-1.45-.81,1,0,0Zm-.19-13v.87c.24,0,.28.35.48.44C195.16,88.85,195.21,88,194.7,88.23Zm.27-5.66a.23.23,0,0,0,0,.44A.23.23,0,0,0,195,82.57Zm.78-16.09c-.06.12.11.66.24.44S195.88,66.26,195.75,66.48Zm.51,52.23c.12-.23.3.32.23.44S196.19,118.83,196.26,118.71Zm.38-34.81c.16.59-.17,1-.24.43,0-.12,0-.32,0-.43C196.22,83.23,196.55,83.57,196.64,83.9Z" transform="translate(0 -0.5)"/><path d="M195.51,30.75V32.4a.92.92,0,0,0-1,.46c-.4-.49-.79.49-.84-.49-.19.06-.12.48-.35.48-.65.2-.59-.59-1-.73-.84,0-1,.35-1.52-.26-.41.39-.82.6-1.35.23a.93.93,0,0,1,.08-.22,1.35,1.35,0,0,1-.32.1c-.14,0-.86-.6-1.18,0-.54-.1-.88-.95-1,0-.41.09-.37-.45-.85-.25s-1.19.21-1.52.7c-.3-.61-1.58.14-1.86-.5-1.18.65-2.19-.14-2.71.69-.19-.28-.59-.28-1-.25.08-.9-.88-.35-1-1a1,1,0,0,0-.51,1c-.64-.47-.91-.35-1.69-.26.07-2.14-1.29.46-1.51-1q-.27.35-.51.72a4.43,4.43,0,0,0-3.22.2c-.75-.58-1.55.25-2-.5-1.06,1.42-3.06,0-4.4.91-.29,0-.44-.18-.51-.48-.54.48-.59.27-1.18.46-.43-.51-.59-1.4-1.35-1.45-.36,0-.08.85-.17,1.2-1.06.06-2.16-.65-3.05.21a1.12,1.12,0,0,1-.5-.73c-.33,1-1.21,0-1.52-.5-.21.06-.17.48,0,.48-.23.54-1.27.21-1.35-.25a.12.12,0,0,0,0,.24c-.89.11-1.9.63-2.88,0-.22.08-.26.42-.51.47a4.55,4.55,0,0,0-3.71.2,1.38,1.38,0,0,0-.51-.48c-.3,0-.36.29-.68.23-.46.17-.33-.48-.67-.49-.53-.12-.45.64-.85.71-1.51.17-3.18.09-4.4.68A4.59,4.59,0,0,0,139,32.4V30.75a.51.51,0,0,1,.55.21c.22-.08.27-.42.51-.48.24.14.87-.27.84.25.22-.08.27-.42.51-.47,1.54-.21,2.3.41,3.21.51v.48c.3,0,1-.63,1.18,0,1-.64,1.37-.34,2.37-.94,0,.35.51.09.51.49.49-.5,1.37-.44,2-.7.35-.1.45.17.67.25.56-.07,1.3-.68,1.69-.23,1.24-.12,2.61-.6,4.06.05.4-.08.64-.38,1.19-.23,0,.19-.18.24-.18.48.72.37,1.35-.63,1.53-.23.16,0,.13-.29.17-.47.45-.16.32.5.5.72.2-.3.64-.09.84.25a9.52,9.52,0,0,0,.35-1c.44-.06.55.34.5,1h.84c.62-.61,1,0,1.36-.95.1.07.65.61.68,0a7.1,7.1,0,0,0,1,1c.34-.55,1.12-.48,1.52-.94.81.09,1,.33,1.69,1,.38-.77,1.78-.56,2.19,0,.19-.06.12-.48.35-.48.84.17,1.3-.21,2-.22,0,.34,0,.68.17.73s0-.7-.17-.73c.3-.84.34.61.68.49,0-.41-.12-.62-.34-.72,1.61-.29,2.76-.16,4.57-.43.39-.15.78,1.42.84.25.17,0,.13.29.17.48s.3,0,.34-.24c.22.24.33.65.67.73,0-.28,0-.43-.16-.48.11-.41.38-.15.33.24.17,0,.13-.29.17-.48.83.72,1.45-.05,2.37.75a.12.12,0,0,0,0-.24c.71-.57,1.31.39,2.53.74.43,0,.28-.89.51-1.19.19.06.11.48.34.48.62-.16,1.28-.4,1.86,0,.84-.43,1.33-.58,2,0l0,0a.29.29,0,0,0,0-.09h.09c.53-.36,1.44-.39,1.74,0h0a10.83,10.83,0,0,0,2.4,0c.29-.09.32.19.33.48A.59.59,0,0,1,195.51,30.75Zm-45.83.32c-.05-.07-.26.11-.17.24S149.77,31.19,149.68,31.07Zm2.37-.46c-.05-.06-.26.12-.17.24S152.13,30.74,152.05,30.61Zm16.22-.06c.57.58-.4-.81,0,0Zm5.08-.19H173c0,.24-.14.28-.17.48C173.1,30.81,173.42,30.87,173.35,30.36Zm2.19.26c0-.13-.13-.27-.17,0S175.51,30.9,175.54,30.62Zm6.25.79c0-.07-.26.11-.17.24S181.88,31.54,181.79,31.41Zm-20.28.5c.08.13-.13.31-.17.24S161.46,31.85,161.51,31.91ZM175,32.3c-.23.16-.38-.17-.17-.24,0,0,.12,0,.17,0C175.28,31.88,175.15,32.21,175,32.3Z" transform="translate(0 -0.5)"/><path d="M447.86,220.52h1.64a.84.84,0,0,0,.46.92c-.49.38.49.75-.49.8.06.17.48.11.48.32.2.62-.59.57-.73.95,0,.8.35,1-.26,1.44.39.39.61.78.23,1.28l-.22-.07a1.1,1.1,0,0,1,.1.29c0,.14-.6.81,0,1.11-.1.52-.95.83,0,1,.09.39-.45.35-.25.8s.21,1.13.7,1.44c-.61.28.14,1.49-.5,1.75.65,1.11-.13,2.07.69,2.55-.27.19-.27.57-.25,1-.9-.08-.35.83-1,.95a1,1,0,0,0,1,.49c-.46.6-.35.86-.26,1.59-2.13-.07.46,1.21-1,1.43l.72.48a4,4,0,0,0,.2,3c-.58.71.25,1.46-.5,1.91,1.42,1,0,2.89.91,4.16,0,.27-.18.41-.48.47.48.51.27.57.47,1.12-.52.41-1.41.55-1.46,1.27,0,.34.85.08,1.2.16.06,1-.65,2,.21,2.88a1.12,1.12,0,0,1-.73.47c1,.31,0,1.14-.49,1.43.05.2.47.17.47,0,.54.21.22,1.2-.25,1.27a.12.12,0,0,0,.24,0c.11.84.63,1.79,0,2.71.08.21.42.26.47.48a4.06,4.06,0,0,0,.21,3.51,1.26,1.26,0,0,0-.49.48c0,.29.29.34.23.64.17.44-.48.32-.49.64-.11.5.65.42.72.8.16,1.42.08,3,.67,4.15a4.18,4.18,0,0,0-.49,1.3h-1.64a.45.45,0,0,1,.2-.52c-.08-.21-.42-.25-.47-.48.13-.23-.28-.82.24-.79-.08-.21-.42-.26-.47-.48-.21-1.46.41-2.17.51-3h.48c0-.28-.63-.93,0-1.12-.63-.91-.34-1.29-.94-2.23.35,0,.09-.48.49-.48-.5-.47-.44-1.3-.7-1.92-.1-.33.17-.42.25-.63-.07-.53-.68-1.23-.23-1.6-.12-1.17-.6-2.46.05-3.83-.08-.37-.37-.6-.23-1.11.19,0,.24.16.48.16.37-.68-.62-1.27-.22-1.44,0-.15-.3-.12-.48-.16-.16-.43.5-.31.72-.48-.3-.19-.09-.6.25-.79-.36-.09-.28-.16-.95-.33-.07-.42.33-.52,1-.47,0-.27,0-.53,0-.8-.61-.58,0-1-.95-1.28.08-.09.61-.61,0-.64a6.72,6.72,0,0,0,1-1c-.54-.33-.48-1.06-.94-1.44.09-.76.33-.95,1-1.59-.76-.36-.56-1.68,0-2.07-.06-.17-.48-.11-.48-.32.17-.8-.2-1.24-.21-1.92.34,0,.67,0,.72-.15.07-.33-.7,0-.72.15-.85-.27.6-.32.48-.63-.41,0-.62.11-.72.31-.29-1.51-.16-2.6-.43-4.31-.15-.37,1.42-.73.25-.79,0-.16.29-.12.48-.16s0-.28-.24-.32c.24-.21.65-.31.73-.63-.28,0-.43,0-.48.15-.41-.1-.15-.36.24-.31,0-.16-.29-.13-.48-.17.72-.77-.05-1.36.75-2.23a.12.12,0,0,0-.24,0c-.57-.67.39-1.24.75-2.39,0-.4-.9-.26-1.2-.48.06-.17.48-.11.48-.32-.16-.58-.4-1.21,0-1.75-.43-.8-.58-1.26,0-1.91l0,0-.09,0V225c-.36-.49-.39-1.35,0-1.64h0a9.54,9.54,0,0,0,0-2.26c-.09-.27.19-.3.48-.31A.51.51,0,0,1,447.86,220.52Zm.31,43.24c-.07.05.11.25.24.17S448.29,263.68,448.17,263.76Zm-.46-2.23c-.06,0,.12.24.24.16S447.84,261.45,447.71,261.53Zm-.06-15.31c.58-.53-.81.38,0,0Zm-.19-4.79v.32c.24,0,.28.13.48.16C447.92,241.66,448,241.36,447.46,241.43Zm.27-2.07c-.14,0-.28.13,0,.16S448,239.39,447.73,239.36Zm.78-5.9c-.06,0,.11.25.24.16S448.64,233.38,448.51,233.46ZM449,252.6c.12-.08.3.12.23.17S449,252.65,449,252.6Zm.38-12.75a.15.15,0,1,1-.24.16s0-.12,0-.16C449,239.6,449.31,239.73,449.4,239.85Z" transform="translate(0 -0.5)"/><path d="M448.68,385.92H447c0-.15,0-.29-.46-.38.5-.15-.49-.3.49-.32-.06-.07-.48-.05-.48-.13-.2-.26.6-.23.74-.39,0-.33-.35-.39.25-.59-.39-.16-.6-.32-.22-.52l.22,0-.11-.12c0-.06.6-.34,0-.46.1-.21.95-.34,0-.39-.1-.16.44-.14.25-.32s-.22-.46-.71-.59c.62-.12-.14-.61.5-.72-.65-.45.14-.84-.69-1,.28-.08.28-.23.25-.39.91,0,.36-.34,1-.39a1.56,1.56,0,0,0-.95-.2c.46-.24.35-.35.26-.65,2.13,0-.47-.5,1-.58l-.71-.2c.39-.4.2-.91-.21-1.24.59-.29-.25-.6.5-.78-1.41-.41,0-1.18-.91-1.69,0-.12.19-.17.49-.2-.48-.21-.27-.23-.47-.46.51-.16,1.4-.22,1.45-.51s-.85,0-1.19-.07c-.07-.41.64-.83-.21-1.18a1.82,1.82,0,0,1,.72-.19c-1-.13,0-.47.5-.58-.06-.09-.47-.07-.48,0-.53-.08-.21-.49.26-.52-.05-.07-.25,0-.25,0-.1-.34-.62-.73,0-1.1-.09-.09-.42-.11-.48-.2.58-.55.29-.94-.2-1.43a1.34,1.34,0,0,0,.49-.2c0-.11-.29-.14-.24-.26-.17-.18.48-.13.49-.26s-.64-.17-.71-.33c-.16-.58-.08-1.22-.67-1.69.17-.14.44-.35.48-.54h1.65c.05.08,0,.16-.2.22.08.08.42.1.47.19-.13.1.27.34-.25.33.08.08.42.1.48.19.2.6-.42.89-.52,1.24h-.48c0,.12.64.38,0,.46.63.37.34.53.93.91-.34,0-.09.2-.48.2.49.19.43.53.7.78.09.13-.17.17-.25.26s.67.5.22.65c.13.48.6,1,0,1.56.07.16.37.25.23.46-.2,0-.24-.07-.48-.07-.37.28.62.52.22.59,0,.06.29,0,.48.07s-.5.12-.73.19c.31.08.1.25-.25.33.36,0,.28.06,1,.13.07.17-.34.21-1,.19,0,.11,0,.22,0,.33.6.24,0,.4.94.52-.07,0-.6.25,0,.26-.37.12-.66.26-1,.39.55.13.48.43.95.59-.1.31-.33.39-1,.65.76.15.56.68,0,.84.05.08.47.05.47.14-.17.32.21.5.22.78-.34,0-.68,0-.72.06s.69,0,.72-.06c.84.11-.61.13-.49.26a1.29,1.29,0,0,0,.73-.13c.29.62.16,1.06.43,1.76.14.15-1.43.3-.25.32,0,.07-.29,0-.48.07s0,.11.23.13c-.24.09-.65.13-.72.26a.79.79,0,0,0,.48-.07c.4.05.14.15-.25.13,0,.07.3.05.48.07-.71.32.06.56-.74.91,0,.07.24,0,.24,0,.56.27-.4.51-.75,1,0,.16.89.1,1.19.19-.06.07-.47.05-.48.13.16.24.4.5,0,.72.43.33.59.51,0,.78l0,0H449a0,0,0,0,1,0,0c.36.2.38.56,0,.67h0a1.64,1.64,0,0,0,0,.93c.08.11-.19.12-.48.13A.32.32,0,0,1,448.68,385.92Zm-.31-17.66c.07,0-.12-.1-.24-.07S448.24,368.29,448.37,368.26Zm.45.91c.07,0-.11-.1-.24-.07S448.7,369.2,448.82,369.17Zm.07,6.25c-.59.22.81-.15,0,0Zm.18,2a.62.62,0,0,0,0-.13,4.56,4.56,0,0,1-.48-.07C448.62,377.28,448.56,377.41,449.07,377.38Zm-.26.84c.13,0,.27-.05,0-.06S448.54,378.21,448.81,378.22Zm-.79,2.41c.07,0-.11-.1-.23-.06S447.9,380.67,448,380.63Zm-.5-7.82c-.12,0-.3,0-.24-.06S447.59,372.8,447.52,372.81Zm-.38,5.21c-.16-.08.16-.14.24-.06s0,.05,0,.07C447.56,378.12,447.22,378.07,447.14,378Z" transform="translate(0 -0.5)"/><path d="M733.61,30.75V32.4a3.55,3.55,0,0,0-2.25.46c-.92-.49-1.82.49-2-.49-.42.06-.26.48-.78.48-1.51.2-1.38-.59-2.33-.73-1.93,0-2.32.35-3.5-.26a4.33,4.33,0,0,1-3.12.23.65.65,0,0,1,.18-.22,6.22,6.22,0,0,1-.72.1c-.34,0-2-.6-2.72,0-1.26-.1-2-.95-2.34,0-.94.09-.84-.45-1.94-.25s-2.76.21-3.52.7c-.68-.61-3.63.14-4.27-.5-2.72.65-5.06-.14-6.24.69a5,5,0,0,0-2.33-.25c.18-.9-2-.35-2.33-1-.57.21-1.24.35-1.18,1a8.82,8.82,0,0,0-3.89-.26c.16-2.14-3,.46-3.49-1-.4.23-.79.47-1.18.72a22.61,22.61,0,0,0-7.4.2c-1.73-.58-3.56.25-4.66-.5-2.44,1.42-7,0-10.13.91-.67,0-1-.18-1.17-.48a8.45,8.45,0,0,1-2.73.46c-1-.51-1.35-1.4-3.09-1.45-.85,0-.19.85-.41,1.2-2.44.06-5-.65-7,.21a1.8,1.8,0,0,1-1.16-.73c-.76,1-2.79,0-3.5-.5-.49.06-.39.48,0,.48-.53.54-2.93.21-3.11-.25-.44,0-.22.24,0,.24-2,.11-4.38.63-6.62,0-.52.08-.62.42-1.18.47a23.29,23.29,0,0,0-8.56.2,3.41,3.41,0,0,0-1.17-.48c-.69,0-.82.29-1.56.23-1.06.17-.77-.48-1.55-.49-1.22-.12-1,.64-2,.71-3.48.17-7.34.09-10.13.68a21,21,0,0,0-3.2-.49V30.75a2.11,2.11,0,0,1,1.27.21c.52-.08.62-.42,1.18-.48.56.14,2-.27,1.94.25.51-.08.62-.42,1.17-.47,3.55-.21,5.29.41,7.4.51,0,.16,0,.32,0,.48.69,0,2.27-.63,2.72,0,2.25-.64,3.17-.34,5.47-.94.08.35,1.16.09,1.16.49,1.14-.5,3.17-.44,4.68-.7a3.66,3.66,0,0,1,1.55.25c1.29-.07,3-.68,3.9-.23,2.85-.12,6-.6,9.34.05a9.68,9.68,0,0,1,2.73-.23c-.08.19-.39.24-.4.48,1.65.37,3.1-.63,3.51-.23.38,0,.31-.29.4-.47,1-.16.74.5,1.16.72a2.13,2.13,0,0,1,1.94.25c.21-.36.39-.28.79-1,1-.06,1.27.34,1.16,1h1.94c1.42-.61,2.42,0,3.13-.95.24.07,1.49.61,1.55,0a17.71,17.71,0,0,0,2.33,1c.8-.55,2.59-.48,3.51-.94a8.78,8.78,0,0,1,3.89,1c.89-.77,4.1-.56,5.06,0,.42-.06.27-.48.78-.48a37.79,37.79,0,0,0,4.68-.22c0,.34-.08.68.38.73.79.07-.08-.7-.38-.73.67-.84.77.61,1.55.49,0-.41-.28-.62-.77-.72,3.69-.29,6.35-.16,10.51-.43.91-.15,1.8,1.42,2,.25.38,0,.3.29.38.48s.69,0,.78-.24c.52.24.76.65,1.55.73.07-.28-.08-.43-.38-.48.26-.41.89-.15.77.24.38,0,.31-.29.4-.48,1.9.72,3.34-.05,5.44.75.44-.05.22-.24,0-.24,1.64-.57,3,.39,5.83.74,1,0,.64-.89,1.19-1.19.42.06.25.48.77.48a10.62,10.62,0,0,1,4.28,0c1.95-.43,3.08-.58,4.67,0l.11,0a.41.41,0,0,0,0-.09h.21a7,7,0,0,1,4,0h0c2.08.06,4.05.15,5.51,0,.67-.09.74.19.78.48A1.88,1.88,0,0,1,733.61,30.75Zm-105.56.32c-.11-.07-.59.11-.39.24S628.25,31.19,628.05,31.07Zm5.46-.46c-.11-.06-.6.12-.4.24S633.71,30.74,633.51,30.61Zm37.37-.06c1.3.58-.93-.81,0,0Zm11.68-.19h-.77c0,.24-.32.28-.4.48C682,30.81,682.74,30.87,682.56,30.36Zm5.06.26a.2.2,0,0,0-.39,0A.2.2,0,0,0,687.62,30.62Zm14.4.79c-.11-.07-.6.11-.39.24S702.22,31.54,702,31.41Zm-46.73.5c.2.13-.28.31-.39.24S655.19,31.85,655.29,31.91Zm31.14.39c-.52.16-.87-.17-.38-.24.11,0,.29,0,.39,0C687,31.88,686.73,32.21,686.43,32.3Z" transform="translate(0 -0.5)"/><path d="M733.61,385.51v1.64a15.87,15.87,0,0,0-4.94.46c-2-.49-4,.49-4.26-.48-.93.05-.59.47-1.72.47-3.31.2-3-.59-5.1-.73-4.24,0-5.09.35-7.67-.25a20.06,20.06,0,0,1-6.83.22,1.17,1.17,0,0,1,.37-.22c-.67.05-1.25.1-1.57.1-.75,0-4.36-.6-6,0-2.76-.1-4.44-.95-5.12,0-2.06.09-1.84-.44-4.26-.25s-6,.21-7.7.7c-1.5-.61-8,.15-9.37-.5-6,.65-11.08-.13-13.67.7a24.06,24.06,0,0,0-5.12-.26c.41-.9-4.44-.35-5.09-1-1.25.21-2.71.36-2.59,1a42.34,42.34,0,0,0-8.52-.26c.35-2.13-6.5.46-7.65-1-.88.24-1.74.47-2.58.72a109.23,109.23,0,0,0-16.22.2c-3.8-.58-7.82.25-10.23-.5-5.34,1.42-15.42,0-22.21.92a4.11,4.11,0,0,1-2.54-.49,40.64,40.64,0,0,1-6,.47c-2.17-.51-3-1.41-6.79-1.46-1.85,0-.41.85-.88,1.2-5.37.06-10.88-.65-15.37.21a5.57,5.57,0,0,1-2.54-.73c-1.67,1-6.11,0-7.67-.49-1.07.05-.87.47,0,.48-1.16.53-6.42.21-6.82-.26-1,.05-.48.24,0,.24-4.46.11-9.59.63-14.51,0-1.12.08-1.35.42-2.57.48a109.21,109.21,0,0,0-18.78.2,12.27,12.27,0,0,0-2.55-.49c-1.53,0-1.8.29-3.42.23-2.33.17-1.7-.48-3.4-.48-2.67-.12-2.27.64-4.28.71-7.62.16-16.09.08-22.2.67-1.82-.17-4.51-.44-7-.49v-1.64a9.27,9.27,0,0,1,2.78.2c1.12-.08,1.35-.42,2.57-.47,1.24.13,4.42-.27,4.26.25,1.13-.09,1.35-.42,2.57-.48,7.78-.21,11.59.41,16.21.52,0,.16,0,.31,0,.48,1.53,0,5-.64,6,0,4.92-.63,6.94-.34,12-.94.18.35,2.54.09,2.54.49,2.51-.5,6.95-.43,10.26-.7a16.94,16.94,0,0,1,3.41.25c2.82-.07,6.53-.67,8.54-.22,6.26-.13,13.16-.6,20.47,0a49.63,49.63,0,0,1,6-.23c-.16.2-.86.24-.86.48,3.6.37,6.77-.62,7.68-.22.83,0,.67-.3.87-.48,2.3-.16,1.63.5,2.54.72a9.64,9.64,0,0,1,4.26.25,15,15,0,0,0,1.73-.95c2.25-.07,2.79.33,2.53,1h4.27c3.11-.61,5.3,0,6.85-.94.52.07,3.27.6,3.41,0,1.52.38,3.33.67,5.1,1,1.76-.54,5.67-.47,7.7-.94a38.51,38.51,0,0,1,8.51,1c2-.76,9-.56,11.09,0,.93-.06.59-.47,1.72-.48,4.27.17,6.61-.2,10.25-.21-.08.34-.16.68.83.72,1.73.07-.15-.69-.83-.72,1.48-.84,1.7.6,3.4.48,0-.41-.62-.62-1.69-.72,8.11-.29,13.92-.16,23.05-.43,2-.15,3.94,1.42,4.26.25.83,0,.66.29.84.48s1.5,0,1.72-.24a13,13,0,0,0,3.39.73c.15-.28-.18-.43-.84-.48.56-.41,2-.15,1.7.24.83,0,.67-.29.87-.48,4.15.72,7.31,0,11.92.75,1,0,.48-.24,0-.24,3.59-.56,6.64.39,12.78.75,2.19,0,1.39-.9,2.59-1.2.92.06.57.48,1.69.49a50.72,50.72,0,0,1,9.39,0c4.27-.44,6.74-.59,10.24,0l.24,0s.09-.05.1-.09h.46a33.14,33.14,0,0,1,8.79,0h0c4.57.06,8.87.14,12.09,0,1.45-.09,1.6.19,1.69.48A7.52,7.52,0,0,1,733.61,385.51Zm-231.36.31c-.24-.07-1.3.11-.86.24C501.62,386.13,502.68,385.94,502.25,385.82Zm12-.45c-.23-.07-1.29.11-.86.23C513.58,385.67,514.64,385.49,514.2,385.37Zm81.92-.07c2.85.58-2-.81,0,0Zm25.6-.19H620c0,.24-.7.28-.87.48C620.49,385.57,622.11,385.63,621.72,385.11Zm11.09.27c0-.14-.68-.28-.85,0C632,385.51,632.64,385.65,632.81,385.38Zm31.55.78c-.23-.06-1.3.12-.86.24C663.74,386.47,664.8,386.29,664.36,386.16ZM562,386.67c.44.12-.62.3-.86.24C560.66,386.78,561.72,386.6,562,386.67Zm68.26.38c-1.15.16-1.91-.16-.85-.24.24,0,.64,0,.85,0C631.51,386.63,630.85,387,630.21,387.05Z" transform="translate(0 -0.5)"/><path d="M24,31.58V29.93a1.73,1.73,0,0,0,1.5-.46c.61.49,1.21-.49,1.29.49.28-.06.18-.48.52-.48,1-.2.92.6,1.55.73,1.29.05,1.54-.34,2.33.26a2,2,0,0,1,2.07-.22.94.94,0,0,1-.12.22,2.31,2.31,0,0,1,.48-.11c.23,0,1.32.6,1.81,0,.84.1,1.35.95,1.56,0,.62-.1.55.44,1.29.25s1.83-.22,2.33-.71c.46.62,2.42-.14,2.85.5,1.8-.65,3.36.14,4.14-.69a2.35,2.35,0,0,0,1.56.25c-.13.91,1.34.36,1.54,1,.38-.2.82-.35.79-.95a4.1,4.1,0,0,0,2.58.26c-.11,2.13,2-.47,2.32,1,.27-.23.53-.47.79-.71a10.1,10.1,0,0,0,4.92-.21c1.15.59,2.37-.25,3.1.5,1.62-1.41,4.68,0,6.74-.91a.7.7,0,0,1,.77.49c.83-.48.91-.27,1.81-.47.66.51.9,1.4,2.06,1.45.56.05.13-.85.27-1.2,1.63-.06,3.3.65,4.66-.2a1.25,1.25,0,0,1,.77.72c.51-1,1.86,0,2.33.5a.24.24,0,0,0,0-.48c.36-.54,2-.21,2.07.25.3,0,.15-.24,0-.24,1.36-.1,2.91-.62,4.4,0,.34-.08.41-.41.78-.47a10.26,10.26,0,0,0,5.7-.2,2,2,0,0,0,.77.49c.47,0,.55-.29,1-.24.71-.17.52.48,1,.49.81.12.69-.64,1.3-.71,2.31-.16,4.88-.08,6.74-.67a9.77,9.77,0,0,0,2.12.48v1.65a1,1,0,0,1-.84-.21c-.34.09-.41.43-.78.48-.38-.14-1.34.27-1.3-.25-.34.08-.41.42-.78.47-2.36.21-3.51-.41-4.91-.51v-.48c-.46,0-1.51.64-1.81,0-1.49.63-2.1.34-3.63.93-.06-.34-.77-.09-.77-.48-.76.49-2.11.43-3.11.69-.55.1-.69-.16-1-.24-.85.06-2,.67-2.59.22-1.9.13-4,.6-6.21,0a4.54,4.54,0,0,1-1.81.22c0-.19.26-.23.26-.47-1.1-.37-2.06.62-2.33.22-.25,0-.21.29-.27.48-.69.16-.49-.5-.77-.73-.31.31-1,.1-1.29-.25-.14.36-.26.28-.52,1-.69.07-.85-.34-.77-1H74c-.94.61-1.6,0-2.08.95-.15-.07-1-.6-1,0a12,12,0,0,0-1.55-1c-.53.55-1.72.48-2.33,1a4.49,4.49,0,0,1-2.58-1c-.6.76-2.73.56-3.37,0-.28.06-.18.48-.52.48a16.73,16.73,0,0,0-3.11.22c0-.34.05-.68-.25-.72-.53-.08.05.69.25.72-.45.84-.52-.61-1-.49a.66.66,0,0,0,.51.73c-2.46.29-4.22.16-7,.43-.6.14-1.2-1.43-1.29-.25-.26,0-.2-.3-.26-.48-.09-.34-.45,0-.52.23-.34-.24-.5-.65-1-.72,0,.27.06.42.26.48-.17.4-.6.14-.52-.25-.25,0-.2.3-.26.48-1.26-.71-2.22.05-3.62-.74-.29,0-.15.24,0,.24-1.09.56-2-.4-3.88-.75-.66,0-.42.89-.78,1.19-.29-.06-.18-.47-.52-.48a4.77,4.77,0,0,1-2.85,0c-1.29.43-2,.59-3.1,0l-.08,0s0,.05,0,.08h-.14a3.17,3.17,0,0,1-2.66,0h0a25.11,25.11,0,0,0-3.67,0c-.44.08-.49-.19-.51-.49A.88.88,0,0,1,24,31.58Zm70.19-.31c.07.06.39-.12.26-.24S94.07,31.14,94.21,31.27Zm-3.63.45c.07.07.39-.11.26-.24S90.45,31.6,90.58,31.72Zm-24.85.07c-.87-.59.62.81,0,0ZM58,32h.52c0-.24.21-.29.26-.48C58.33,31.52,57.84,31.46,58,32Zm-3.36-.26c0,.13.2.27.26,0S54.65,31.44,54.6,31.71ZM45,30.92c.07.07.39-.11.26-.24S44.89,30.8,45,30.92Zm31.06-.5c-.13-.12.19-.31.26-.24S76.16,30.49,76.09,30.42ZM55.39,30c.35-.15.58.17.25.25-.07,0-.19,0-.25,0C55,30.45,55.19,30.12,55.39,30Z" transform="translate(0 -0.5)"/><path d="M24,386.33v-1.64a34.66,34.66,0,0,0,7.35-.47c3,.5,5.93-.49,6.33.49,1.38-.06.88-.47,2.56-.47,4.91-.21,4.49.59,7.58.73,6.31,0,7.57-.35,11.41.25A43.58,43.58,0,0,1,69.41,385a2.84,2.84,0,0,1-.56.22c1-.05,1.85-.1,2.33-.1,1.12,0,6.49.6,8.88,0,4.1.1,6.6.95,7.61,0,3.06-.09,2.74.44,6.34.25s9-.21,11.44-.71c2.23.62,11.85-.14,13.94.5,8.85-.64,16.47.14,20.32-.69a51.78,51.78,0,0,0,7.61.25c-.61.91,6.61.36,7.57,1,1.86-.21,4-.36,3.84-1a93.63,93.63,0,0,0,12.68.26c-.52,2.13,9.66-.47,11.38,1,1.31-.23,2.58-.47,3.83-.71a238.21,238.21,0,0,0,24.12-.21c5.65.59,11.62-.24,15.2.51,7.94-1.42,22.94,0,33-.92,2.17,0,3.28.19,3.79.49a89,89,0,0,1,8.9-.47c3.22.51,4.41,1.4,10.09,1.46,2.75,0,.61-.85,1.32-1.2,8-.07,16.16.64,22.84-.21a11.39,11.39,0,0,1,3.78.73c2.48-1,9.08,0,11.4.49,1.59-.06,1.29-.47,0-.48,1.73-.53,9.55-.21,10.13.26,1.44-.05.72-.24,0-.24,6.63-.11,14.26-.63,21.57,0,1.67-.09,2-.42,3.83-.48a241,241,0,0,0,27.91-.2,26.64,26.64,0,0,0,3.79.49c2.27,0,2.69-.29,5.09-.24,3.46-.16,2.53.49,5.05.49,4,.12,3.38-.64,6.37-.71,11.34-.16,23.92-.08,33-.67,2.7.17,6.71.44,10.41.49v1.64a21.19,21.19,0,0,1-4.14-.2c-1.67.08-2,.42-3.82.47-1.84-.13-6.57.27-6.34-.25-1.67.09-2,.42-3.82.48-11.56.21-17.23-.41-24.09-.52,0-.16,0-.32,0-.48-2.26,0-7.4.64-8.88,0-7.3.63-10.31.34-17.8.94-.27-.35-3.78-.09-3.78-.49-3.73.49-10.34.43-15.26.7a37.15,37.15,0,0,1-5.06-.25c-4.2.06-9.72.67-12.7.22-9.3.13-19.57.6-30.44,0-3,.07-4.78.37-8.89.23.25-.2,1.28-.24,1.28-.48-5.36-.37-10.07.62-11.42.22-1.23,0-1,.29-1.29.48-3.42.16-2.43-.5-3.78-.73a20.75,20.75,0,0,1-6.33-.24c-.69.35-1.27.28-2.58.95-3.34.07-4.14-.34-3.76-1H269c-4.62.61-7.87,0-10.18.94-.78-.07-4.86-.6-5.07,0-2.25-.38-4.95-.67-7.58-1-2.61.54-8.43.47-11.46.94a85.26,85.26,0,0,1-12.64-1c-2.91.76-13.38.56-16.5,0-1.37.06-.87.47-2.55.47-6.35-.17-9.83.21-15.23.22.12-.34.23-.68-1.25-.72-2.57-.08.24.69,1.25.72-2.21.84-2.54-.6-5.06-.49-.07.41.92.63,2.51.73-12.05.29-20.7.16-34.27.43-2.94.15-5.85-1.42-6.34-.25-1.23,0-1-.29-1.25-.48a3.68,3.68,0,0,0-2.54.23,29.1,29.1,0,0,0-5-.72c-.22.28.26.43,1.25.48-.84.41-2.92.15-2.53-.24-1.23,0-1,.29-1.29.47-6.18-.71-10.88.06-17.73-.74-1.44,0-.71.24,0,.24-5.34.56-9.88-.4-19-.75-3.25,0-2.07.89-3.85,1.2-1.38-.07-.84-.48-2.52-.49a111.8,111.8,0,0,1-14,0c-6.35.44-10,.59-15.23,0l-.36,0s-.12.05-.15.09h-.69a73,73,0,0,1-13.06,0h0c-6.8-.06-13.19-.14-18,0-2.16.09-2.38-.19-2.52-.48A16.41,16.41,0,0,1,24,386.33ZM368,386c.34.07,1.92-.11,1.27-.24C368.94,385.71,367.36,385.89,368,386Zm-17.79.45c.35.07,1.93-.11,1.28-.24C351.17,386.17,349.58,386.35,350.23,386.47Zm-121.79.07c-4.23-.59,3,.81,0,0Zm-38.07.19h2.54c0-.24,1-.28,1.29-.48C192.2,386.27,189.8,386.21,190.37,386.73Zm-16.48-.27c0,.14,1,.28,1.27,0C175.17,386.33,174.14,386.19,173.89,386.46ZM127,385.68c.35.06,1.93-.12,1.28-.24C127.91,385.37,126.33,385.55,127,385.68Zm152.26-.51c-.65-.12.93-.3,1.28-.24C281.17,385.06,279.59,385.24,279.24,385.17Zm-101.48-.38c1.71-.16,2.84.16,1.26.24-.35,0-.94,0-1.27,0C175.82,385.21,176.81,384.88,177.76,384.79Z" transform="translate(0 -0.5)"/><path d="M756.86,31.17h-1.65a.94.94,0,0,0-.51-1c.42-.47-.61-.7.35-.94-.11-.17-.5,0-.56-.23-.35-.59.42-.76.39-1.23a2.66,2.66,0,0,0-.45-.85.91.91,0,0,1,0-.78,1.69,1.69,0,0,1-.7-.39,1,1,0,0,1-.33-.73.68.68,0,0,1,.23-.07,3.3,3.3,0,0,1-.3-.21c-.1-.1-.21-1.15-.91-.95-.35-.49-.19-1.38-.86-.72-.41-.2-.09-.61-.66-.73-.3-.05-.62-.15-.94-.2a1,1,0,0,0-.87.1c-.1-.72-1.64-.38-1.83-1a5.48,5.48,0,0,1-1.78.15c-.5,0-.93,0-1.14.51-.24-.25-.67-.19-1.09,0-.07-.45-.33-.47-.62-.45s-.57.14-.76-.12a.9.9,0,0,0-.16,1.1c-.82-.13-1.06.14-1.72.68-.57-.9-.82-.57-1-.15s-.31.94-.92.52a5.63,5.63,0,0,0,.11.93,3.7,3.7,0,0,0-1.71,3.14,1.43,1.43,0,0,0-.56,1.13c-.08.39-.11.74-.52.95a2.39,2.39,0,0,1,.5,1.12,10.29,10.29,0,0,1,0,1.26,2.81,2.81,0,0,0,.78,2.36.56.56,0,0,1-.26.69c.7.34.5.49,1,.94-.2.65-.86,1.31-.33,2.09.25.38.72-.46,1.06-.6a3.66,3.66,0,0,1,.54.69c.18.23.36.46.55.68a1.62,1.62,0,0,0,1.53.59,1.32,1.32,0,0,1,.13.91.54.54,0,0,1,.91.11,3.45,3.45,0,0,1,.54,1c.26,0,.34-.39.15-.45.41-.43,1.43.16,1.47.6.23,0,.15-.22,0-.23,1.06.07,2.13-.44,3.3,0,.24-.12.24-.44.48-.56a3.63,3.63,0,0,0,3.6-1.83,1.33,1.33,0,0,0,.74,0c.29-.2.11-.49.41-.68.26-.46.61.07.88-.21.52-.38-.14-.8.06-1.18a9.63,9.63,0,0,0,1.08-2.24,3.91,3.91,0,0,0,.09-2.21,3.23,3.23,0,0,0,.6-1.39h1.65a.69.69,0,0,1-.24.67c.06.28.42.36.42.68-.18.28.11,1.16-.41,1,0,.28.32.42.3.74a4.44,4.44,0,0,1-1,2.16c-.42.5-.84.86-1.22,1.28l-.39-.28a5.49,5.49,0,0,0-.27.75c-.13.26-.32.46-.64.32-.38,1.29-.95,1.4-1.69,2.57-.22-.27-.59.26-.79-.09a2.37,2.37,0,0,1-.9.91l-1.25.69c-.43.21-.61,0-.91,0a10.13,10.13,0,0,0-1.13.47,1.12,1.12,0,0,1-1,0l-1.27.08a12.16,12.16,0,0,1-1.33-.08,4.62,4.62,0,0,1-2.54-1.2c-.5-.15-.93,0-1.48-.56.15-.14.32-.09.45-.29-.55-.77-1.78-.52-1.7-1-.17-.14-.33.1-.49.2-.57-.3,0-.65,0-1-.38,0-.64-.54-.51-1-.35.13-.35,0-1,.22-.43-.44-.15-.79.41-1.08-.18-.31-.37-.6-.53-.91a1.71,1.71,0,0,1-.74-.76.83.83,0,0,0-.82-.48c0-.16.31-1-.27-.88.26-.49.44-1,.69-1.48-.63-.35-.62-1.37-1.07-1.91a2.71,2.71,0,0,1,1.21-2.06c-.66-.62.09-2.4.91-2.56,0-.23-.36-.34-.24-.6.68-.86.71-1.56,1.33-2.3.24.24.48.48.68.33s-.54-.45-.68-.33c-.36-.85.74.08.94-.3a.61.61,0,0,0-.81-.19,8.9,8.9,0,0,1,1-1.17,14.2,14.2,0,0,1,1.14-.91,17.88,17.88,0,0,1,2.84-1.58c.51-.3,1.37,1.11,1.19-.06.22,0,.23.25.32.43s.38,0,.4-.3c.33.2.51.56,1,.61,0-.28-.08-.43-.26-.47.11-.42.5-.17.46.22.21,0,.15-.3.19-.49a3,3,0,0,0,1.5.36,2.07,2.07,0,0,1,1.47.62c.25,0,.17-.2.06-.23,1-.32,1.58.8,2.66,1.77.46.25.74-.6,1.16-.69.17.18-.13.48.11.63a7.18,7.18,0,0,1,1.1.57,1.87,1.87,0,0,1,.7,1c1,.48,1.62,1,1.55,2.05l.07,0,.08,0,.07.1c.67.38,1.19,1.53.91,2h0c.33,1.12.42,2.19.59,3,.1.37-.17.42-.46.45A.69.69,0,0,1,756.86,31.17Zm-7.15,10.1c.08,0,.25-.21.1-.29S749.57,41.19,749.71,41.27ZM747,42.43c.07.06.31-.16.18-.26S746.87,42.33,747,42.43ZM734.31,29.87c.68-.64-.88.42,0,0Zm2.3-6-.26.35c.19.14.12.31.25.45C736.78,24.42,737.07,24.14,736.61,23.89Zm2.19-1.75c-.08-.11-.31-.12-.17.12S738.93,22.38,738.8,22.14Zm7.33-1.5c0-.07-.3.09-.2.22S746.23,20.76,746.13,20.64Zm-8.55,16.51c0-.15.33-.07.31,0S737.56,37.23,737.58,37.15Zm1.8-13.33c-.08.28-.41.15-.3-.06,0-.05.13-.07.14-.13C739.32,23.3,739.42,23.66,739.38,23.82Z" transform="translate(0 -0.5)"/><path d="M755.63,385.47H754a.93.93,0,0,0-.52-1c.42-.48-.6-.71.35-1-.1-.17-.5,0-.55-.23-.35-.59.41-.76.38-1.23a2.48,2.48,0,0,0-.45-.85.88.88,0,0,1,0-.78,1.62,1.62,0,0,1-.7-.39,1,1,0,0,1-.33-.73.7.7,0,0,1,.22-.07,2.84,2.84,0,0,1-.29-.21c-.11-.1-.22-1.15-.91-1-.36-.49-.19-1.38-.87-.72-.41-.2-.08-.61-.65-.73-.3-.05-.63-.15-.95-.2a1.05,1.05,0,0,0-.87.1c-.1-.72-1.63-.38-1.82-1a5.21,5.21,0,0,1-1.78.15c-.51,0-.93,0-1.14.51a1.08,1.08,0,0,0-1.1,0c-.06-.44-.33-.47-.61-.45s-.58.14-.76-.12a.88.88,0,0,0-.16,1.1c-.82-.13-1.07.14-1.72.68-.57-.9-.83-.57-1-.15s-.32.94-.93.52a9.1,9.1,0,0,0,.11.93,3.74,3.74,0,0,0-1.71,3.14,1.43,1.43,0,0,0-.56,1.13c-.07.39-.11.74-.51.95a2.39,2.39,0,0,1,.5,1.12,10.34,10.34,0,0,1,0,1.26,2.85,2.85,0,0,0,.79,2.36.55.55,0,0,1-.27.69c.71.34.5.49,1,.94-.21.65-.86,1.32-.33,2.09.24.38.71-.46,1-.6a4.17,4.17,0,0,1,.55.69c.18.23.36.46.55.68a1.62,1.62,0,0,0,1.53.59,1.32,1.32,0,0,1,.13.91c.39-.34.67-.2.91.11a3.45,3.45,0,0,1,.54,1c.26,0,.33-.38.15-.45.41-.42,1.42.16,1.47.6.23,0,.14-.22,0-.23,1,.07,2.13-.44,3.3,0,.24-.13.23-.45.48-.57a3.61,3.61,0,0,0,3.59-1.83,1.28,1.28,0,0,0,.75.05c.28-.2.11-.49.41-.68.26-.46.6.07.88-.21.51-.38-.14-.8.06-1.18a10,10,0,0,0,1.07-2.24,3.74,3.74,0,0,0,.09-2.21,3.23,3.23,0,0,0,.61-1.39h1.65a.71.71,0,0,1-.24.67c.06.28.42.36.42.68-.18.28.11,1.16-.42,1,0,.28.33.42.3.74a4.27,4.27,0,0,1-1,2.16c-.42.5-.84.86-1.22,1.28l-.39-.28a5.49,5.49,0,0,0-.27.75c-.13.26-.32.46-.63.32-.39,1.29-1,1.4-1.69,2.57-.22-.27-.6.26-.79-.09a2.4,2.4,0,0,1-.91.91l-1.24.69c-.43.21-.61,0-.91,0a10.13,10.13,0,0,0-1.13.47,1.14,1.14,0,0,1-1,0l-1.26.08a12.49,12.49,0,0,1-1.34-.08,4.59,4.59,0,0,1-2.53-1.2c-.51-.15-.93,0-1.48-.56.14-.14.32-.09.45-.29-.55-.77-1.79-.52-1.71-1-.16-.14-.32.1-.49.2-.57-.3,0-.65,0-1-.39,0-.64-.54-.52-1-.35.13-.34,0-1,.22-.43-.44-.15-.79.41-1.08-.18-.3-.37-.6-.53-.91a1.74,1.74,0,0,1-.75-.76.81.81,0,0,0-.82-.48c0-.16.31-1-.26-.88.25-.49.43-1,.68-1.48-.63-.35-.61-1.37-1.07-1.91a2.71,2.71,0,0,1,1.21-2.06c-.66-.62.1-2.4.91-2.56.05-.23-.36-.34-.23-.6.68-.86.71-1.56,1.32-2.3.25.24.49.48.68.33.35-.27-.53-.45-.68-.33-.36-.85.75.08.95-.3a.63.63,0,0,0-.82-.19,9,9,0,0,1,1-1.17,12.63,12.63,0,0,1,1.14-.91,17.88,17.88,0,0,1,2.84-1.58c.51-.3,1.37,1.12,1.19-.06.22,0,.23.25.31.43s.39,0,.4-.3c.34.2.52.56,1,.61,0-.28-.08-.43-.25-.47.1-.42.5-.17.45.22.21,0,.16-.3.2-.49a3,3,0,0,0,1.5.36,2.07,2.07,0,0,1,1.47.62c.24,0,.17-.2,0-.23,1-.32,1.58.8,2.67,1.77.45.26.73-.6,1.15-.69.18.18-.13.48.11.63a6.37,6.37,0,0,1,1.1.57,1.82,1.82,0,0,1,.7,1c1,.48,1.62,1,1.56,2l.06,0,.09,0,.06.1c.68.38,1.19,1.53.91,2h0a29.88,29.88,0,0,1,.59,3c.11.37-.17.42-.46.45A.65.65,0,0,1,755.63,385.47Zm-7.15,10.11c.08,0,.24-.22.1-.3S748.33,395.5,748.48,395.58Zm-2.72,1.16c.07.05.3-.17.18-.27S745.64,396.63,745.76,396.74Zm-12.69-12.57c.69-.64-.88.42,0,0Zm2.31-6-.27.35c.2.14.13.31.26.45C735.55,378.72,735.83,378.44,735.38,378.19Zm2.19-1.75c-.08-.11-.31-.11-.18.13S737.7,376.68,737.57,376.44Zm7.33-1.5c-.06-.07-.31.09-.21.22S745,375.07,744.9,374.94Zm-8.55,16.51c0-.15.32-.07.3,0S736.33,391.53,736.35,391.45Zm1.79-13.33c-.07.28-.41.15-.29-.06,0-.05.12-.07.14-.13C738.08,377.6,738.19,378,738.14,378.12Z" transform="translate(0 -0.5)"/><path d="M23.35,31.17H21.7a.94.94,0,0,0-.51-1c.42-.47-.61-.7.35-.94-.11-.17-.5,0-.56-.23-.35-.59.42-.76.39-1.23a2.66,2.66,0,0,0-.45-.85.91.91,0,0,1,0-.78,1.69,1.69,0,0,1-.7-.39,1,1,0,0,1-.33-.73.68.68,0,0,1,.23-.07,3.3,3.3,0,0,1-.3-.21c-.1-.1-.21-1.15-.9-.95-.36-.49-.2-1.38-.87-.72-.41-.2-.09-.61-.66-.73-.3-.05-.62-.15-.94-.2a1,1,0,0,0-.87.1c-.1-.72-1.64-.38-1.83-1a5.48,5.48,0,0,1-1.78.15c-.5,0-.93,0-1.13.51-.25-.25-.68-.19-1.1,0-.07-.45-.33-.47-.62-.45s-.57.14-.75-.12a.89.89,0,0,0-.17,1.1c-.82-.13-1.06.14-1.71.68-.58-.9-.83-.57-1-.15s-.31.94-.92.52a7,7,0,0,0,.11.93,3.7,3.7,0,0,0-1.71,3.14,1.43,1.43,0,0,0-.56,1.13c-.08.39-.11.74-.52.95a2.39,2.39,0,0,1,.5,1.12,10.29,10.29,0,0,1,0,1.26,2.81,2.81,0,0,0,.78,2.36c.12.28,0,.5-.26.69.7.34.5.49,1,.94-.21.65-.87,1.31-.34,2.09.25.38.72-.46,1.06-.6a3.66,3.66,0,0,1,.54.69c.18.23.36.46.56.68a1.6,1.6,0,0,0,1.52.59,1.32,1.32,0,0,1,.13.91.54.54,0,0,1,.91.11,3.45,3.45,0,0,1,.54,1c.27,0,.34-.39.16-.45.4-.43,1.42.16,1.46.6.23,0,.15-.22,0-.23,1.06.07,2.13-.44,3.3,0,.24-.12.24-.44.48-.56A3.62,3.62,0,0,0,17.84,39a1.33,1.33,0,0,0,.74,0c.29-.2.11-.49.41-.68.26-.46.61.07.89-.21.51-.38-.15-.8.05-1.18A9.63,9.63,0,0,0,21,34.77a3.83,3.83,0,0,0,.09-2.21,3.11,3.11,0,0,0,.6-1.39h1.65a.69.69,0,0,1-.24.67c.06.28.42.36.43.68-.19.28.1,1.16-.42,1,0,.28.33.42.3.74a4.35,4.35,0,0,1-1,2.16c-.42.5-.84.86-1.22,1.28l-.39-.28a5.49,5.49,0,0,0-.27.75c-.13.26-.32.46-.64.32-.38,1.29-.95,1.4-1.69,2.57-.22-.27-.59.26-.79-.09a2.37,2.37,0,0,1-.9.91l-1.25.69c-.43.21-.6,0-.91,0a11,11,0,0,0-1.13.47,1.12,1.12,0,0,1-1,0L11,43.07A12.19,12.19,0,0,1,9.61,43a4.62,4.62,0,0,1-2.54-1.2c-.5-.15-.93,0-1.48-.56.15-.14.33-.09.45-.29-.55-.77-1.78-.52-1.7-1-.16-.14-.33.1-.49.2-.57-.3,0-.65,0-1-.39,0-.65-.54-.52-1-.35.13-.35,0-1,.22-.43-.44-.15-.79.41-1.08-.17-.31-.37-.6-.53-.91a1.71,1.71,0,0,1-.74-.76.83.83,0,0,0-.82-.48c0-.16.31-1-.26-.88.25-.49.43-1,.68-1.48C.44,32.48.45,31.46,0,30.92a2.71,2.71,0,0,1,1.21-2.06c-.66-.62.09-2.4.91-2.56,0-.23-.36-.34-.24-.6.69-.86.71-1.56,1.33-2.3.24.24.49.48.68.33.34-.27-.53-.45-.68-.33-.36-.85.74.08.94-.3a.61.61,0,0,0-.81-.19,8.9,8.9,0,0,1,1-1.17,14.2,14.2,0,0,1,1.14-.91,17.88,17.88,0,0,1,2.84-1.58c.51-.3,1.37,1.11,1.19-.06.22,0,.23.25.32.43s.38,0,.4-.3c.33.2.51.56.95.61,0-.28-.08-.43-.26-.47.11-.42.51-.17.46.22.21,0,.15-.3.19-.49a3,3,0,0,0,1.5.36,2.05,2.05,0,0,1,1.47.62c.25,0,.17-.2.06-.23,1-.32,1.58.8,2.67,1.77.45.25.73-.6,1.15-.69.17.18-.13.48.11.63a7.18,7.18,0,0,1,1.1.57,1.87,1.87,0,0,1,.7,1c1,.48,1.62,1,1.55,2.05l.07,0,.08,0,.07.1c.67.38,1.19,1.53.91,2h0a29.34,29.34,0,0,1,.59,3c.1.37-.17.42-.46.45A.69.69,0,0,1,23.35,31.17ZM16.2,41.27c.08,0,.25-.21.1-.29S16.06,41.19,16.2,41.27Zm-2.72,1.16c.07.06.31-.16.18-.26S13.36,42.33,13.48,42.43ZM.8,29.87c.69-.64-.88.42,0,0Zm2.3-6-.26.35c.19.14.12.31.25.45C3.27,24.42,3.56,24.14,3.1,23.89Zm2.19-1.75c-.08-.11-.3-.12-.17.12S5.42,22.38,5.29,22.14Zm7.33-1.5c0-.07-.3.09-.2.22S12.72,20.76,12.62,20.64ZM4.07,37.15c0-.15.33-.07.31,0S4.05,37.23,4.07,37.15Zm1.8-13.33c-.07.28-.41.15-.29-.06,0-.05.12-.07.14-.13C5.81,23.3,5.91,23.66,5.87,23.82Z" transform="translate(0 -0.5)"/><path d="M23.35,385.92H21.7a.93.93,0,0,0-.51-1c.42-.48-.61-.7.35-.94-.11-.18-.5,0-.56-.24-.35-.58.42-.75.39-1.23a2.78,2.78,0,0,0-.45-.85.91.91,0,0,1,0-.78,1.69,1.69,0,0,1-.7-.39,1,1,0,0,1-.33-.73,1,1,0,0,1,.23-.07,2,2,0,0,1-.3-.21c-.1-.1-.21-1.15-.9-.95-.36-.48-.2-1.38-.87-.72-.41-.2-.09-.61-.66-.73-.3,0-.62-.15-.94-.2a1,1,0,0,0-.87.1c-.1-.72-1.64-.37-1.83-1a5.21,5.21,0,0,1-1.78.15c-.5,0-.93,0-1.13.51a1.06,1.06,0,0,0-1.1,0c-.07-.45-.33-.48-.62-.46s-.57.14-.75-.12a.89.89,0,0,0-.17,1.1c-.82-.13-1.06.14-1.71.68-.58-.9-.83-.56-1-.15s-.31.95-.92.52a7.11,7.11,0,0,0,.11.94,3.67,3.67,0,0,0-1.71,3.13,1.43,1.43,0,0,0-.56,1.13c-.08.39-.11.74-.52,1a2.31,2.31,0,0,1,.5,1.12,10,10,0,0,1,0,1.25,2.81,2.81,0,0,0,.78,2.36c.12.28,0,.5-.26.69.7.34.5.49,1,.94-.21.65-.87,1.32-.34,2.09.25.38.72-.46,1.06-.6a4,4,0,0,1,.54.69c.18.23.36.47.56.69a1.64,1.64,0,0,0,1.52.59,1.31,1.31,0,0,1,.13.91.54.54,0,0,1,.91.1,3.45,3.45,0,0,1,.54,1c.27,0,.34-.38.16-.45.4-.42,1.42.16,1.46.61.23,0,.15-.23,0-.24,1.06.08,2.13-.44,3.3,0,.24-.13.24-.45.48-.57a3.62,3.62,0,0,0,3.6-1.83,1.17,1.17,0,0,0,.74.05c.29-.19.11-.48.41-.68.26-.46.61.07.89-.2.51-.38-.15-.81.05-1.19A9.63,9.63,0,0,0,21,389.52a3.82,3.82,0,0,0,.09-2.21,3.11,3.11,0,0,0,.6-1.39h1.65a.69.69,0,0,1-.24.67c.06.28.42.37.43.68-.19.28.1,1.16-.42,1,0,.28.33.42.3.74a4.35,4.35,0,0,1-1,2.16c-.42.5-.84.86-1.22,1.28l-.39-.28a6,6,0,0,0-.27.75c-.13.26-.32.46-.64.33-.38,1.28-.95,1.39-1.69,2.56-.22-.27-.59.26-.79-.09a2.3,2.3,0,0,1-.9.91l-1.25.69c-.43.21-.6,0-.91,0s-.73.33-1.13.47a1.12,1.12,0,0,1-1,0l-1.26.08a12.19,12.19,0,0,1-1.34-.08,4.62,4.62,0,0,1-2.54-1.2c-.5-.14-.93-.05-1.48-.56.15-.14.33-.08.45-.29-.55-.77-1.78-.52-1.7-1-.16-.14-.33.1-.49.2-.57-.3,0-.65,0-1-.39,0-.65-.55-.52-1-.35.13-.35,0-1,.23-.43-.45-.15-.8.41-1.09-.17-.3-.37-.6-.53-.91a1.71,1.71,0,0,1-.74-.76.83.83,0,0,0-.82-.48c0-.16.31-1-.26-.88.25-.49.43-1,.68-1.48-.63-.35-.62-1.37-1.07-1.91a2.71,2.71,0,0,1,1.21-2.06c-.66-.62.09-2.4.91-2.56,0-.23-.36-.34-.24-.6.69-.86.71-1.56,1.33-2.29.24.24.49.47.68.32.34-.27-.53-.44-.68-.32-.36-.86.74.07.94-.31a.62.62,0,0,0-.81-.19,8.19,8.19,0,0,1,1-1.16,12.4,12.4,0,0,1,1.14-.92A17.14,17.14,0,0,1,8.32,374c.51-.31,1.37,1.11,1.19-.06.22-.05.23.24.32.42s.38,0,.4-.3c.33.2.51.56.95.61,0-.28-.08-.43-.26-.47.11-.41.51-.17.46.22.21,0,.15-.3.19-.49a3,3,0,0,0,1.5.36,2.05,2.05,0,0,1,1.47.62c.25,0,.17-.2.06-.23,1-.32,1.58.8,2.67,1.78.45.25.73-.6,1.15-.7.17.18-.13.48.11.63a7.18,7.18,0,0,1,1.1.57,1.87,1.87,0,0,1,.7,1c1,.48,1.62,1,1.55,2.05l.07,0,.08,0,.07.1c.67.38,1.19,1.53.91,2h0a29.47,29.47,0,0,1,.59,3c.1.36-.17.41-.46.44A.69.69,0,0,1,23.35,385.92ZM16.2,396c.08,0,.25-.22.1-.29S16.06,396,16.2,396Zm-2.72,1.16c.07.06.31-.16.18-.27S13.36,397.08,13.48,397.19ZM.8,384.62c.69-.64-.88.42,0,0Zm2.3-6-.26.35c.19.15.12.31.25.46C3.27,379.17,3.56,378.89,3.1,378.64Zm2.19-1.75c-.08-.11-.3-.11-.17.13S5.42,377.13,5.29,376.89Zm7.33-1.5c0-.07-.3.1-.2.23S12.72,375.52,12.62,375.39ZM4.07,391.9c0-.15.33-.07.31,0S4.05,392,4.07,391.9Zm1.8-13.33c-.07.28-.41.15-.29-.06,0-.05.12-.07.14-.13C5.81,378.05,5.91,378.41,5.87,378.57Z" transform="translate(0 -0.5)"/><text class="cls-2" transform="translate(236.37 117.02)">R</text><text class="cls-2" transform="translate(258.45 129.05) scale(0.58)">f</text><text class="cls-3" transform="translate(376.95 320.49)">R</text><text class="cls-3" transform="translate(398.52 332.26) scale(0.58)">e </text><text class="cls-2" transform="translate(74.92 93.05)">C</text><text class="cls-4" transform="translate(99.03 105.09) scale(0.58)">in</text><text class="cls-2" transform="translate(609.98 93.05)">C</text><text class="cls-2" transform="translate(634.09 105.09) scale(0.58)">out</text><text class="cls-2" transform="translate(464.13 182.7)">BFP196</text></g></g></svg>