<svg xmlns="http://www.w3.org/2000/svg" viewBox="0 0 1403.47 524.84"><defs><style>.cls-1{fill:#202020;}.cls-2{fill:#231f20;}.cls-3{font-size:47.19px;}.cls-3,.cls-4{font-family:TimesNewRomanPS-ItalicMT, Times New Roman;font-style:italic;}.cls-4{font-size:57.32px;}</style></defs><g id="Layer_2" data-name="Layer 2"><g id="Circuits"><path d="M278.7,87.4l-1.36.93a5.22,5.22,0,0,0-1.94-2c-.23-1.21-1.67-1.57-.94-2.25-.34-.39-.58,0-.94-.53-1.2-1.41-.46-1.73-1-2.77-1.29-2-1.88-2.15-2.2-3.67h1.15a6.39,6.39,0,0,1-2,3.28.6.6,0,0,1-.06-.3,7.64,7.64,0,0,1-.42.78c-.23.35-1.88,1.68-1.91,2.75-.95,1.21-2.19,1.51-1.63,2.35-.58,1-.95.6-1.56,1.83s-1.74,2.9-1.87,3.94c-1,.35-2.41,3.76-3.39,4a18.72,18.72,0,0,1-2,3.38l-.86,1.22L255,99.13c-.89-1.33-1.58-2.44-2.45-2.87a7.37,7.37,0,0,0-1.4-2.5c.88-.33-1.11-2.26-.8-2.91-.57-.46-1.15-1-1.61-.66a13.26,13.26,0,0,0-2.47-4.09c1.88-1-2.43-2.75-1.6-4.09-.47-.28-.94-.54-1.4-.79a31.93,31.93,0,0,0-2.81-4.43h.77a30.09,30.09,0,0,0-1.87,3.38c-1.69,1.42-2.28,3.74-3.66,4.43-.53,3.26-4.93,7.09-6.31,10.75-.46.68-.85.91-1.21.9a11.68,11.68,0,0,1-1.46,2.91l-.75,1.39-1.26-1.39-.09-.1c-.26-1.29.23-2.16-.93-4-.55-.88-.83.29-1.27.27-1.74-2.45-2.89-5.4-5-7a2.22,2.22,0,0,1-.2-1.58c-1.32-.23-1.93-2.83-2-3.83-.38-.46-.67-.13-.4.27-.81-.24-2.2-2.86-1.94-3.3-.34-.43-.35-.09-.2.13-.76-1-1.68-2.09-2.53-3.22h1.18A14.75,14.75,0,0,1,208.74,80c-.29.57-.08.87-.42,1.46a34.51,34.51,0,0,0-5.81,8.77,4.49,4.49,0,0,0-1.21.9c-.51.68-.33,1-.89,1.71-.6,1.17-.94.51-1.48,1.29-1,1.16-.2,1.41-.78,2.38L196.51,99l-.89,1.37-1-1.37a70.1,70.1,0,0,0-5.78-7.45,31.07,31.07,0,0,0-1.8-3.51l1.36-.93a3.13,3.13,0,0,1,.7,1.4c.43.48.78.39,1.21.93.27.64,1.61,1.89,1.13,2.11.42.47.78.39,1.2.92A35.69,35.69,0,0,1,196.09,98h-1c.59-.68,1.13-1.29,1.65-2l.39.28c.49-.7,1.06-2.65,1.91-2.74,1-2.63,1.92-3.39,3-6,.34.11.88-1.13,1.21-.9.39-1.44,1.85-3.45,2.68-5.13.49-.87.86-.94,1.29-1.43.84-1.33,1.52-3.39,2.53-4.06l.1-.16.79-1.23.91,1.24c2.06,2.77,4.57,5.67,6.3,9.34a15.37,15.37,0,0,1,2.08,2.64c-.22,0-.47-.26-.67-.13.83,1.88,2.65,2.79,2.6,3.43.27.38.46.15.67.14.86,1,.1,1,.2,1.58A3.1,3.1,0,0,1,223.87,95c.44,0,.5.24,1.34.27.76,1,.59,1.48,0,1.71l.85,1.27h-.73l.49-.7c.49-1.78,1.7-2.43,1.4-3.7.22-.2,1.54-1.16,1.09-1.57a25.87,25.87,0,0,0,2.42-1.79c.11-1.13,1.41-2.89,1.67-4.09A13,13,0,0,1,235.91,83c0-1.33,2.4-4.46,3.54-5.1.25-.46-.2-.54.16-1.06.22-.28.41-.54.57-.76l.67-.94.62,1c1,1.53,1.93,2.38,2.91,3.81-.31.15-.61.31-.33.79.48.84.52-.46.33-.79,1.16.21,0,1.13.67,1.85.35-.21.32-.64.07-1.19,2.79,3.59,4.51,6.35,7.61,10.42.75.84.07,2.63,1.14,2.12.25.38,0,.46-.13.66s.45.7.73.66a5,5,0,0,0,.47,2c.27-.09.3-.33.13-.67.52,0,.74.83.34.93.26.38.45.14.67.13a7.09,7.09,0,0,0,.51,1.25h-1.54c1.15-1.32,1.73-2.8,3.43-4.14.27-.47,0-.36-.19-.14.68-2,2.43-2.84,4.67-5.47.68-1-.29-1.15-.16-1.87.35-.39.58,0,.94-.51a16.19,16.19,0,0,1,3-4.31c1-2.21,1.66-3.44,3.27-4.71a.69.69,0,0,1,.05-.13s0-.07,0-.1l.14-.21.09-.21.37-.9.94.9a10.45,10.45,0,0,1,2.59,3.93h0c1.39,2.15,2.68,4.19,3.79,5.61.53.62.35.85.14,1A2.6,2.6,0,0,1,278.7,87.4Zm-73.62-3c-.13.07-.32.67-.08.54S205.32,84.28,205.08,84.41Zm3.43-5.77c-.13.07-.32.67-.08.54S208.75,78.51,208.51,78.64Zm25.84,6.18c1.39-1-1.31.48,0,0Zm9.3-5.58-.54-.79c-.2.13-.45-.17-.67-.14C242.88,78.92,243.34,79.7,243.65,79.24Zm3.27,5.28c.11-.08,0-.47-.27-.4C246.54,84.19,246.64,84.59,246.92,84.52Zm9.7,13.32c-.13.07-.32.66-.08.53S256.86,97.7,256.62,97.84ZM223.4,96.42c0,.28-.45-.11-.47-.26S223.38,96.28,223.4,96.42Zm21.31-12.17c-.49-.44-.46-1-.06-.52.09.1.17.31.27.39C245.47,84.62,245,84.5,244.71,84.25Z"/><polygon class="cls-1" points="827.16 165.42 827.16 207.59 818.48 207.59 828.35 224.68 838.21 207.59 829.54 207.59 829.54 165.42 827.16 165.42"/><path class="cls-2" d="M828,147.2l1.37.92a3.09,3.09,0,0,0-.79,2c-.89.44-.55,1.69-1.42,1.24-.18.36.25.47,0,.88-.62,1.28-1.21.74-1.82,1.4-1.05,1.48-.92,2-2,2.58a3.79,3.79,0,0,1-1.44,2.55.82.82,0,0,1-.1-.26,4.19,4.19,0,0,1-.29.62c-.17.27-1.53,1.21-1.43,2.11-.74.92-1.85,1.05-1.23,1.81-.41.79-.81.41-1.22,1.38s-1.26,2.26-1.25,3.12c-.87.19-1.78,2.91-2.65,3.05-.88,2.48-2.75,3.86-2.68,5.24a4.45,4.45,0,0,0-1.43,1.68c-.66-.65-1.36,1.38-2,1.26-.13.56-.35,1.16.18,1.45a8,8,0,0,0-2.25,2.89c-1.69-1.32-1.16,2.56-2.63,2.17,0,.44,0,.88,0,1.31a20.15,20.15,0,0,0-3.69,5.88c-1.39,1-1.66,2.91-2.85,3.35a5.86,5.86,0,0,1-1.09,2.8v-1.12c1.23,1.76,2.29,4.07,3.87,5.31.35.51.37.89.2,1.17,1,.71.94.93,1.81,1.87.1,1-.45,1.83.42,3.22.4.68.8-.33,1.2-.35,1.33,1.86,2.06,4.22,3.83,5.34a1.67,1.67,0,0,1,0,1.3c1.19.06,1.45,2.17,1.41,3,.31.35.61,0,.4-.26.73.11,1.71,2.16,1.42,2.56.27.32.31,0,.2-.13,1.15,1.52,2.81,3,3.43,5.17.34.35.67.24,1,.64a20.14,20.14,0,0,0,4.64,6.56,2.88,2.88,0,0,0,.2,1.17c.34.57.67.48,1,1.09.7.73,0,.87.41,1.48.54,1,1.07.45,1.61,1.12,2,2.62,3.9,5.67,5.85,7.51a18.38,18.38,0,0,0,1.26,2.75L828,249a1.92,1.92,0,0,1-.49-1.1c-.33-.35-.67-.25-1-.65-.18-.51-1.27-1.42-.8-1.65-.34-.35-.68-.24-1-.65-2-2.64-2.42-4.34-3.43-6l.4-.26c-.36-.54-1.72-1.41-1.42-2.13-1.69-1.39-1.93-2.27-3.63-3.72.25-.26-.53-1-.2-1.18-1-.61-2-2.23-3-3.25-.51-.58-.4-.9-.61-1.35-.72-1-2.12-1.95-2.22-2.91-1.6-2.15-3.63-4.34-4.84-7.29a8.75,8.75,0,0,1-1.62-2c.2-.05.41.18.61,0-.56-1.48-2.14-2.06-2-2.6-.2-.29-.4-.08-.6,0-.68-.73,0-.86,0-1.31a1.9,1.9,0,0,1-.81-1.65c-.4,0-.43-.15-1.2-.08-.6-.76-.39-1.18.2-1.44l-1-1.52c-1.25-.76-1.25-1.89-2.42-1.9-.07-.23-.28-1.5-.81-1.22a17.32,17.32,0,0,0-.41-2.35c-.75-.27-1.51-1.38-2.26-2l-.31-.24.31-1.08a4,4,0,0,0,.09-.42,7.86,7.86,0,0,1,2.84-2.48c-.17-1.12,1.68-3.5,2.66-3.92.17-.36-.25-.48,0-.88a33,33,0,0,0,2.27-3.76c.26.22.52.44.79.11.48-.57-.61-.33-.79-.11-.35-1,.91-.26,1.21-.93-.33-.25-.66-.13-1,.19,1.69-3,3.18-5,5.13-8.42.35-.78,2.12-.6,1.22-1.37.21-.29.4-.07.61,0s.37-.52.21-.74c.47-.27.93-.23,1.41-.8-.2-.21-.4-.18-.6,0-.2-.43.35-.78.61-.47.19-.3-.09-.4-.19-.58,1.58-1.07,1.7-2.62,3.46-3.81.19-.37-.09-.31-.2-.14.39-1.59,1.91-2.14,3.67-4.12.5-.79-.41-1-.38-1.59.27-.29.53.07.81-.33a9.26,9.26,0,0,1,2.25-3.32c.66-1.76,1.12-2.72,2.46-3.62,0,0,0-.08,0-.11s0-.06,0-.08l.1-.17a6.11,6.11,0,0,1,2.12-3.1h0a50.32,50.32,0,0,0,2.9-4.28c.27-.57.54-.47.8-.33A1.74,1.74,0,0,1,828,147.2Zm-12.6,82.43c0,.12.4.39.4.17S815.4,229.4,815.4,229.63Zm-3.23-4c0,.12.41.4.41.18S812.17,225.41,812.17,225.63Zm-17.1-29.73c1.16-.69-1.16.27,0,0Zm5.94-9.2-.41.61c.2.13.07.4.19.57C801.1,187.39,801.53,186.85,801,186.7Zm2.86-3.79a.19.19,0,0,0-.2.31A.19.19,0,0,0,803.87,182.91Zm8.18-10.76c-.11,0-.22.52,0,.44S812.25,172.06,812.05,172.15ZM801.88,208c0-.23.4,0,.4.17S801.88,208.08,801.88,208Zm2.76-23.19c-.14.5-.59.59-.4.17,0-.1.18-.21.21-.3C804.61,184.07,804.72,184.5,804.64,184.77Z"/><path class="cls-2" d="M828,147.66l1.37-.92a3.15,3.15,0,0,0,1.56,1.5c.07,1,1.36,1.14.61,1.78.27.3.54-.05.81.35.95,1.06.23,1.4.61,2.22,1,1.53,1.5,1.61,1.61,2.86a3.84,3.84,0,0,1,1.82,2.3.67.67,0,0,1-.28,0,4.21,4.21,0,0,1,.46.5c.19.27.55,1.89,1.42,2.13.57,1,.26,2.11,1.21,1.83.57.67.07.9.81,1.65s1.61,2,2.42,2.34c-.16.87,2,2.75,1.81,3.6,2,1.76,2.53,4,3.84,4.47a4.4,4.4,0,0,0,1,2c-.85.36.76,1.77.4,2.35.47.33.94.76,1.41.38a7.93,7.93,0,0,0,1.82,3.17c-1.85,1.07,1.93,2,1,3.26.41.19.81.36,1.21.52a20,20,0,0,0,4,5.64c.42,1.68,2.07,2.64,2,3.91a5.85,5.85,0,0,1,2.18,2.07l.37.54-.37.58c-1.16,1.81-2.9,3.66-3.45,5.59-.34.52-.67.68-1,.63a7.43,7.43,0,0,1-1,2.39c-.94.48-1.87.27-2.82,1.6-.48.63.61.62.78,1-1.22,1.94-3.12,3.5-3.49,5.57a1.66,1.66,0,0,1-1.2.5c.4,1.13-1.46,2.17-2.24,2.44-.21.42.18.58.39.28.17.71-1.35,2.39-1.83,2.27-.2.37.08.31.19.14-1,1.64-1.76,3.76-3.48,5.13-.2.45,0,.72-.22,1.18a20.42,20.42,0,0,0-4.31,6.78,2.89,2.89,0,0,0-1,.63c-.39.53-.19.81-.62,1.35-.41.92-.8.33-1.21.93-.74.89,0,1.17-.43,1.92-1.69,2.8-3.77,5.76-4.74,8.26a19,19,0,0,0-2.07,2.21L828,248.5a1.87,1.87,0,0,1,.84-.87c.2-.45,0-.72.22-1.18.4-.36.82-1.72,1.22-1.37.2-.45,0-.72.22-1.18,1.68-2.88,3.1-3.88,4.29-5.46l.39.27c.37-.54.66-2.12,1.43-2.12.65-2.09,1.38-2.65,2.08-4.77.33.13.68-.85,1-.63.19-1.17,1.3-2.71,1.87-4,.34-.69.67-.71,1-1.07.62-1,1-2.7,1.85-3.16,1.39-2.29,2.64-5,4.92-7.24a8.86,8.86,0,0,1,1.24-2.25c.12.16,0,.44.19.57,1.16-1.07,1.1-2.75,1.64-2.85.2-.3-.08-.4-.19-.58.42-.9.81-.3,1.21-.49,0-.53.69-1.2,1.22-1.38-.18-.36,0-.46-.38-1.15.48-.83,1-.8,1.41-.36l1-1.51c.24-1.44,1.28-1.86.85-3,.18-.14,1.28-.82.82-1.2a18.13,18.13,0,0,0,2-1.27c0-.8.7-1.92,1-2.84v1.32a3.75,3.75,0,0,0-.36-.24,7.88,7.88,0,0,1-1.21-3.56c-1.1-.27-2.61-2.89-2.62-3.95-.27-.3-.54,0-.81-.35a35,35,0,0,0-2.62-3.52c.3-.16.6-.32.4-.69-.35-.66-.54.44-.4.69-1-.05.1-.94-.41-1.47-.35.21-.37.56-.2,1-2.17-2.72-3.45-4.85-5.85-7.94-.59-.63.25-2.2-.81-1.66-.19-.29.09-.39.2-.56s-.33-.55-.6-.48c-.07-.54.14-.95-.21-1.61-.26.1-.31.3-.2.57-.47,0-.59-.62-.2-.74-.2-.29-.4-.08-.6,0-.4-1.88-1.79-2.57-2.23-4.65-.26-.32-.31,0-.2.13-1.32-1-1.25-2.58-2.42-4.95-.54-.77-1.08,0-1.61-.26-.17-.36.26-.47,0-.87a9.31,9.31,0,0,1-2.22-3.34c-1.38-1.28-2.1-2.07-2.43-3.65l-.09-.06s-.06,0-.09,0l-.11-.16a6.26,6.26,0,0,1-2.08-3.14h0a47.55,47.55,0,0,0-2.87-4.3c-.41-.47-.22-.68,0-.87A1.56,1.56,0,0,1,828,147.66Zm13.13,81.85c-.11.05-.22.53,0,.44S841.34,229.43,841.13,229.51Zm2.47-4.5c-.11.05-.21.53,0,.44S843.81,224.93,843.6,225Zm17-28.42c-.19-1.34-.19,1.17,0,0Zm-6.26-9,.41.61c.2-.13.4.09.6,0C855,187.79,854.68,187.18,854.34,187.6Zm-2.42-4.08a.18.18,0,0,0,.2.3A.18.18,0,0,0,851.92,183.52Zm-6.87-11.64c0,.12.41.4.41.17S845.05,171.65,845.05,171.88Zm11,36.91c.21-.09.1.39,0,.44S856,208.83,856.06,208.79Zm-2.13-25.28c.41.32.32.77,0,.44-.07-.08-.12-.25-.2-.31C853.27,183.28,853.7,183.33,853.93,183.51Z"/><path d="M442.35,246.89l-.93-1.36a5.22,5.22,0,0,0,2-1.94c1.21-.23,1.56-1.67,2.24-1,.39-.34,0-.58.52-.93,1.42-1.22,1.73-.47,2.77-1,2-1.3,2.16-1.9,3.67-2.22v1.15a6.36,6.36,0,0,1-3.28-2,.88.88,0,0,1,.29-.06c-.33-.17-.63-.31-.78-.41-.35-.24-1.68-1.88-2.75-1.9-1.22-1-1.51-2.19-2.36-1.63-1-.58-.6-1-1.83-1.56s-2.9-1.73-3.95-1.85c-.35-1-3.76-2.4-4.05-3.38a19.69,19.69,0,0,1-3.38-2l-1.23-.85,1.23-.83c1.33-.9,2.44-1.59,2.86-2.46a7.45,7.45,0,0,0,2.51-1.41c.32.88,2.25-1.11,2.9-.81.46-.56,1.05-1.15.65-1.6a13.54,13.54,0,0,0,4.09-2.49c1,1.87,2.74-2.44,4.08-1.61.28-.47.54-.94.79-1.41a30.16,30.16,0,0,0,4.42-2.82v.77a32.53,32.53,0,0,0-3.38-1.86c-1.43-1.68-3.75-2.26-4.44-3.65-3.27-.52-7.11-4.9-10.78-6.27-.67-.46-.91-.85-.9-1.21a11.31,11.31,0,0,1-2.91-1.45l-1.4-.74,1.4-1.27.09-.09c1.29-.26,2.16.22,4-.94.88-.55-.3-.84-.27-1.27,2.44-1.75,5.39-2.91,7-5a2.27,2.27,0,0,1,1.58-.2c.23-1.32,2.82-1.93,3.82-2,.47-.38.14-.67-.26-.4.23-.81,2.84-2.2,3.29-1.94.42-.35.09-.35-.13-.2,1-.78,2.08-1.69,3.21-2.54v1.17a14.7,14.7,0,0,1-3.15-2.54c-.57-.28-.86-.08-1.46-.42a34.37,34.37,0,0,0-8.78-5.77,4.4,4.4,0,0,0-.91-1.21c-.68-.51-1-.33-1.71-.89-1.17-.6-.51-.94-1.29-1.48-1.17-.94-1.41-.19-2.38-.77s-1.69-1.08-2.54-1.64l-1.37-.88,1.37-1a71.77,71.77,0,0,0,7.43-5.81,29.64,29.64,0,0,0,3.5-1.81l.93,1.36a3,3,0,0,1-1.4.71c-.47.43-.38.78-.92,1.21-.64.28-1.88,1.62-2.11,1.14-.47.42-.38.77-.92,1.2a35.41,35.41,0,0,1-5.52,3.44v-1c.67.58,1.29,1.12,2,1.64l-.28.39c.7.48,2.66,1.05,2.75,1.9,2.63,1,3.39,1.91,6.06,3-.11.35,1.12.88.9,1.21,1.44.38,3.46,1.84,5.13,2.67.88.49,1,.85,1.44,1.28,1.34.84,3.4,1.52,4.07,2.52l.16.1,1.23.78-1.23.92c-2.77,2.07-5.66,4.58-9.33,6.33a14.89,14.89,0,0,1-2.64,2.08c0-.21.27-.47.13-.67-1.87.84-2.77,2.66-3.42,2.62-.38.26-.14.45-.13.67-1,.86-1,.1-1.58.2a3.15,3.15,0,0,1-2.11,1.15c0,.44-.24.5-.26,1.33-1,.77-1.48.61-1.72,0l-1.26.86v-.73l.7.49c1.78.48,2.43,1.69,3.7,1.38.2.23,1.17,1.54,1.57,1.09a26.12,26.12,0,0,0,1.81,2.41c1.12.11,2.89,1.4,4.09,1.66a12.78,12.78,0,0,1,3.37,3.5c1.34,0,4.47,2.39,5.11,3.53.47.24.55-.21,1.07.15.27.22.54.41.76.57l.94.67-.94.62c-1.54,1-2.38,1.93-3.81,2.92-.15-.3-.31-.61-.79-.33-.84.49.47.52.79.33-.21,1.17-1.13,0-1.84.68.21.35.64.31,1.19.06-3.58,2.8-6.34,4.54-10.41,7.65-.83.74-2.62.07-2.11,1.14-.38.26-.46,0-.66-.13s-.7.45-.65.74a4.79,4.79,0,0,0-2,.47c.09.28.32.3.66.13,0,.51-.83.74-.92.34-.39.26-.15.45-.13.67a7.1,7.1,0,0,0-1.25.52v-1.54c1.32,1.15,2.81,1.72,4.16,3.42.47.27.35,0,.13-.2,2,.67,2.85,2.43,5.48,4.66,1,.68,1.15-.29,1.88-.16.39.34,0,.57.51.93a15.77,15.77,0,0,1,4.32,3c2.22,1,3.45,1.64,4.72,3.25l.13.05.1,0,.21.14.21.09.9.37-.9.94a10.39,10.39,0,0,1-3.92,2.6h0c-2.15,1.39-4.18,2.69-5.6,3.8-.62.53-.84.35-1.05.14A2.6,2.6,0,0,1,442.35,246.89Zm2.77-73.62c-.07-.13-.66-.32-.53-.08S445.25,173.51,445.12,173.27Zm5.78,3.4c-.07-.13-.66-.31-.53-.07S451,176.92,450.9,176.67Zm-6.1,25.87c1,1.38-.49-1.32,0,0Zm5.61,9.27.79-.53c-.13-.2.16-.46.13-.67C450.72,211.05,449.94,211.51,450.41,211.81Zm-5.27,3.29c.07.12.47,0,.4-.26C445.47,214.73,445.07,214.83,445.14,215.1Zm-13.29,9.74c-.07-.13-.66-.32-.53-.07S432,225.08,431.85,224.84Zm1.31-33.22c-.27,0,.12-.45.27-.47S433.31,191.6,433.16,191.62ZM445.4,212.9c.44-.5,1-.47.53-.07-.1.09-.31.18-.4.27C445,213.66,445.15,213.17,445.4,212.9Z"/><path d="M598.39,176.63v1.64a1,1,0,0,0-1.07.46c-.43-.49-.85.49-.91-.48-.2.05-.13.47-.37.47-.71.2-.65-.59-1.1-.73-.91,0-1.09.35-1.65-.25a1.1,1.1,0,0,1-1.47.22.73.73,0,0,1,.09-.22,1.59,1.59,0,0,1-.34.1c-.16,0-.94-.6-1.29,0-.59-.1-.95-1-1.1,0-.44.09-.39-.44-.91-.25s-1.3.21-1.66.7c-.32-.61-1.71.15-2-.5-1.28.65-2.38-.13-2.94.7-.21-.28-.65-.28-1.1-.26.09-.9-.95-.35-1.09-1-.27.21-.59.36-.56,1-.69-.46-1-.35-1.83-.26.07-2.13-1.4.46-1.65-1-.19.24-.37.47-.55.72a5.23,5.23,0,0,0-3.49.2c-.81-.58-1.68.25-2.2-.5-1.14,1.42-3.31,0-4.77.92-.31,0-.47-.19-.55-.49-.59.48-.65.27-1.28.47-.47-.51-.64-1.41-1.46-1.46-.4,0-.09.85-.19,1.2-1.16.06-2.34-.65-3.31.21a1.13,1.13,0,0,1-.54-.73c-.36,1-1.31,0-1.65-.49-.23.05-.19.47,0,.48-.25.53-1.38.21-1.47-.26a.12.12,0,0,0,0,.24c-1,.11-2.06.63-3.12,0-.24.08-.29.42-.55.48a5.27,5.27,0,0,0-4,.2,1.34,1.34,0,0,0-.54-.49c-.33,0-.39.29-.74.23-.5.17-.36-.48-.73-.48-.57-.12-.49.64-.92.71-1.64.16-3.46.08-4.77.67a5.25,5.25,0,0,0-1.51-.49v-1.64a.55.55,0,0,1,.6.2c.24-.08.29-.42.55-.47.27.13.95-.27.92.25.24-.09.29-.43.55-.48,1.67-.21,2.49.41,3.48.52v.48c.33,0,1.07-.64,1.29,0,1-.63,1.49-.34,2.57-.94,0,.35.55.09.55.49.53-.5,1.49-.43,2.2-.7.39-.1.49.17.73.25.61-.07,1.41-.67,1.84-.22,1.34-.13,2.83-.6,4.4,0,.43-.07.69-.37,1.29-.23,0,.2-.19.24-.19.48.77.37,1.46-.62,1.65-.22.18,0,.15-.3.19-.48.49-.16.35.5.54.72.22-.3.7-.09.92.25a10.11,10.11,0,0,0,.37-1c.49-.07.6.33.55,1H563c.67-.61,1.14,0,1.48-.94.11.07.7.6.73,0a7.14,7.14,0,0,0,1.09,1c.38-.54,1.22-.48,1.66-.94a2.65,2.65,0,0,1,1.83,1c.42-.76,1.93-.56,2.38,0,.2-.06.13-.47.37-.48.92.17,1.42-.2,2.2-.21,0,.34,0,.68.18.72.38.07,0-.7-.18-.72.32-.85.37.6.74.48a.67.67,0,0,0-.37-.72c1.74-.29,3-.16,5-.43.42-.15.84,1.42.91.25.18,0,.14.29.18.48.07.34.33,0,.37-.24.25.24.36.66.73.73,0-.28,0-.43-.18-.48.12-.41.42-.15.37.24.17,0,.14-.29.18-.48.9.72,1.58-.05,2.57.75a.12.12,0,0,0,0-.24c.77-.56,1.43.39,2.74.75.47,0,.3-.9.56-1.2.2.06.12.48.37.49a2.43,2.43,0,0,1,2,0c.92-.44,1.45-.59,2.2,0l.06,0a.37.37,0,0,1,0-.09h.1a1.68,1.68,0,0,1,1.89,0h0a12.52,12.52,0,0,0,2.59,0c.32-.09.35.19.37.48A.53.53,0,0,1,598.39,176.63Zm-49.73.31c-.06-.07-.28.11-.19.24S548.75,177.06,548.66,176.94Zm2.57-.46c-.05-.06-.28.12-.19.24S551.32,176.61,551.23,176.48Zm17.6-.06c.62.58-.44-.81,0,0Zm5.51-.19H574c0,.24-.15.28-.19.48C574.07,176.69,574.42,176.75,574.34,176.23Zm2.38.27c0-.14-.15-.28-.18,0S576.68,176.77,576.72,176.5Zm6.78.78c0-.06-.28.12-.18.24S583.6,177.41,583.5,177.28Zm-22,.51c.09.12-.14.3-.19.23S561.44,177.72,561.49,177.79Zm14.67.38c-.25.16-.41-.16-.18-.24,0,0,.13,0,.18,0C576.44,177.75,576.3,178.08,576.16,178.17Z"/><path d="M598.39,205v1.65a1,1,0,0,0-1.07.46c-.43-.49-.85.49-.91-.49-.2.06-.13.48-.37.48-.71.2-.65-.59-1.1-.73-.91-.05-1.09.35-1.65-.26a1.1,1.1,0,0,1-1.47.23.63.63,0,0,1,.09-.22,1.59,1.59,0,0,1-.34.1c-.16,0-.94-.6-1.29,0-.59-.1-.95-1-1.1,0-.44.1-.39-.44-.91-.24s-1.3.21-1.66.7c-.32-.62-1.71.14-2-.5-1.28.65-2.38-.14-2.94.69-.21-.28-.65-.28-1.1-.25.09-.91-.95-.35-1.09-1-.27.21-.59.35-.56.95-.69-.46-1-.34-1.83-.25.07-2.14-1.4.46-1.65-1-.19.23-.37.47-.55.71a5.23,5.23,0,0,0-3.49.21c-.81-.58-1.68.25-2.2-.5-1.14,1.42-3.31,0-4.77.91-.31,0-.47-.18-.55-.48-.59.48-.65.26-1.28.46-.47-.51-.64-1.4-1.46-1.45-.4,0-.09.85-.19,1.2-1.16.06-2.34-.65-3.31.2a1.08,1.08,0,0,1-.54-.72c-.36,1-1.31,0-1.65-.5-.23.06-.19.48,0,.48-.25.54-1.38.21-1.47-.25-.21,0-.1.24,0,.24-1,.1-2.06.63-3.12,0-.24.08-.29.42-.55.47a5.36,5.36,0,0,0-4,.2,1.38,1.38,0,0,0-.54-.48c-.33,0-.39.29-.74.23-.5.17-.36-.48-.73-.49-.57-.12-.49.64-.92.71-1.64.16-3.46.09-4.77.68a5.25,5.25,0,0,0-1.51-.49V205a.57.57,0,0,1,.6.21c.24-.08.29-.42.55-.48.27.14.95-.27.92.25.24-.08.29-.42.55-.47,1.67-.21,2.49.41,3.48.51v.48c.33,0,1.07-.63,1.29,0,1-.63,1.49-.33,2.57-.93,0,.35.55.09.55.49.53-.5,1.49-.44,2.2-.7.39-.1.49.17.73.24.61-.06,1.41-.67,1.84-.22,1.34-.12,2.83-.6,4.4.05.43-.08.69-.38,1.29-.23,0,.19-.19.24-.19.48.77.37,1.46-.63,1.65-.23.18,0,.15-.29.19-.47.49-.17.35.49.54.72.22-.3.7-.09.92.25.1-.36.18-.28.37-1,.49-.07.6.34.55,1H563c.67-.61,1.14,0,1.48-.95.11.07.7.61.73,0a7.72,7.72,0,0,0,1.09,1c.38-.55,1.22-.48,1.66-.94a2.67,2.67,0,0,1,1.83,1c.42-.76,1.93-.55,2.38,0,.2-.06.13-.48.37-.48.92.17,1.42-.21,2.2-.22,0,.34,0,.68.18.73.38.07,0-.7-.18-.73.32-.84.37.61.74.49a.67.67,0,0,0-.37-.72c1.74-.29,3-.16,5-.43.42-.15.84,1.42.91.24.18,0,.14.3.18.49s.33,0,.37-.24c.25.24.36.65.73.73,0-.28,0-.43-.18-.48.12-.41.42-.15.37.24.17,0,.14-.29.18-.48.9.72,1.58-.05,2.57.75a.12.12,0,0,0,0-.24c.77-.57,1.43.39,2.74.74.47,0,.3-.89.56-1.19.2.06.12.48.37.48a2.43,2.43,0,0,1,2,0c.92-.43,1.45-.59,2.2,0l.06,0a.24.24,0,0,1,0-.09h.1a1.66,1.66,0,0,1,1.89,0h0a12.6,12.6,0,0,0,2.59,0c.32-.09.35.19.37.48A.55.55,0,0,1,598.39,205Zm-49.73.32c-.06-.07-.28.11-.19.23S548.75,205.47,548.66,205.35Zm2.57-.46c-.05-.07-.28.11-.19.24S551.32,205,551.23,204.89Zm17.6-.06c.62.58-.44-.81,0,0Zm5.51-.19H574c0,.24-.15.28-.19.47C574.07,205.09,574.42,205.15,574.34,204.64Zm2.38.26c0-.13-.15-.27-.18,0S576.68,205.17,576.72,204.9Zm6.78.79c0-.07-.28.11-.18.24S583.6,205.81,583.5,205.69Zm-22,.5c.09.13-.14.31-.19.24S561.44,206.13,561.49,206.19Zm14.67.39c-.25.16-.41-.17-.18-.25,0,0,.13,0,.18,0C576.44,206.16,576.3,206.49,576.16,206.58Z"/><path d="M678.54,56.83h1.65a1,1,0,0,0,.46,1.06c-.49.44.49.86-.49.92.06.2.48.13.48.37.2.71-.59.65-.73,1.09,0,.92.35,1.1-.26,1.65.39.45.61.9.23,1.47a.63.63,0,0,1-.22-.08,1.59,1.59,0,0,1,.1.34c0,.16-.6.94,0,1.28-.1.6-1,1,0,1.1.09.45-.45.4-.25.92s.21,1.3.7,1.65c-.61.33.14,1.72-.5,2,.65,1.28-.14,2.38.69,2.94-.27.21-.27.64-.25,1.1-.9-.09-.35,1-1,1.09a1,1,0,0,0,1,.56c-.46.69-.35,1-.26,1.83-2.13-.08.46,1.4-1,1.64.23.19.47.38.72.56a5.14,5.14,0,0,0,.2,3.48c-.58.82.25,1.68-.5,2.2,1.42,1.15,0,3.32.91,4.78,0,.31-.18.47-.48.54.48.59.27.65.47,1.29-.52.47-1.41.64-1.46,1.46,0,.4.85.09,1.2.19.06,1.15-.65,2.34.21,3.3a1.11,1.11,0,0,1-.73.55c1,.36,0,1.31-.5,1.65.06.23.48.18.48,0,.54.25.21,1.38-.25,1.47a.12.12,0,0,0,.24,0c.11,1,.63,2.06,0,3.11.08.25.42.3.47.56a5.33,5.33,0,0,0,.2,4,1.41,1.41,0,0,0-.48.55c0,.33.29.39.23.74.17.5-.48.36-.49.73-.11.57.65.49.72.92.16,1.64.08,3.46.67,4.77a5.29,5.29,0,0,0-.49,1.5h-1.65a.56.56,0,0,1,.21-.59c-.08-.25-.42-.29-.47-.56.13-.26-.28-1,.24-.91-.08-.24-.42-.29-.47-.55-.21-1.68.41-2.5.51-3.49H679c0-.33-.63-1.07,0-1.29-.63-1-.34-1.49-.94-2.57.35,0,.09-.55.49-.55-.5-.54-.44-1.49-.7-2.2-.1-.39.17-.49.25-.74-.07-.6-.68-1.4-.23-1.83-.12-1.35-.6-2.83.05-4.4-.08-.43-.37-.69-.23-1.29.19,0,.24.19.48.19.37-.78-.62-1.46-.23-1.65,0-.18-.29-.15-.47-.19-.16-.49.5-.35.72-.55-.3-.21-.09-.69.25-.91a8.24,8.24,0,0,0-1-.37c-.06-.49.34-.6,1-.55,0-.3,0-.61,0-.92-.61-.66,0-1.13-.95-1.47.07-.11.61-.7,0-.73a7.72,7.72,0,0,0,1-1.1c-.54-.37-.48-1.22-.94-1.65a2.65,2.65,0,0,1,1-1.83c-.77-.42-.56-1.93,0-2.39-.06-.19-.48-.12-.48-.37.17-.91-.21-1.42-.22-2.2.35,0,.68,0,.73-.18.07-.37-.7,0-.73.18-.84-.32.61-.36.49-.73-.41,0-.62.13-.72.36-.29-1.74-.16-3-.43-5-.15-.43,1.42-.85.25-.92,0-.17.29-.14.48-.18s0-.32-.24-.36c.24-.25.65-.36.73-.73-.28,0-.43,0-.48.18-.41-.13-.15-.43.24-.37,0-.18-.29-.14-.48-.19.72-.89,0-1.57.75-2.56a.12.12,0,0,0-.24,0c-.57-.77.39-1.43.75-2.75,0-.47-.9-.3-1.2-.55.06-.2.48-.13.48-.37a2.45,2.45,0,0,1,0-2c-.43-.91-.58-1.44,0-2.2a.1.1,0,0,1,0-.05l-.09,0V62a1.68,1.68,0,0,1,0-1.89h0a12.62,12.62,0,0,0,0-2.6c-.09-.31.19-.34.48-.36A.64.64,0,0,1,678.54,56.83Zm.32,49.73c-.07,0,.11.28.24.19S679,106.47,678.86,106.56ZM678.4,104c-.06.05.12.28.24.19S678.53,103.9,678.4,104Zm-.06-17.61c.58-.61-.81.44,0,0Zm-.19-5.5v.37c.24,0,.28.15.48.18C678.61,81.15,678.66,80.8,678.15,80.88Zm.26-2.38c-.13,0-.27.14,0,.18S678.69,78.53,678.41,78.5Zm.79-6.78c-.07,0,.11.28.24.18S679.33,71.62,679.2,71.72Zm.5,22c.13-.1.31.13.24.18S679.64,93.78,679.7,93.73Zm.39-14.67c.16.25-.17.41-.24.18,0,0,0-.14,0-.18C679.67,78.78,680,78.92,680.09,79.06Z"/><path d="M707,56.83h1.65a1,1,0,0,0,.46,1.06c-.49.44.49.86-.49.92.06.2.48.13.48.37.2.71-.59.65-.73,1.09-.05.92.35,1.1-.26,1.65a1.09,1.09,0,0,1,.22,1.47.83.83,0,0,1-.22-.08,1.27,1.27,0,0,1,.11.34c0,.16-.6.94,0,1.28-.09.6-.95,1,0,1.1.1.45-.44.4-.25.92s.22,1.3.71,1.65c-.62.33.14,1.72-.5,2,.65,1.28-.14,2.38.69,2.94-.28.21-.28.64-.25,1.1-.91-.09-.36,1-1,1.09a1,1,0,0,0,.95.56c-.46.69-.34,1-.26,1.83-2.13-.08.47,1.4-1,1.64l.71.56a5.2,5.2,0,0,0,.21,3.48c-.59.82.25,1.68-.5,2.2,1.41,1.15,0,3.32.91,4.78,0,.31-.18.47-.49.54.49.59.27.65.47,1.29-.51.47-1.4.64-1.45,1.46,0,.4.85.09,1.2.19.06,1.15-.65,2.34.2,3.3a1.09,1.09,0,0,1-.72.55c1,.36,0,1.31-.5,1.65.06.23.48.18.48,0,.54.25.21,1.38-.25,1.47a.12.12,0,0,0,.24,0c.1,1,.63,2.06,0,3.11.08.25.42.3.47.56a5.24,5.24,0,0,0,.2,4,1.34,1.34,0,0,0-.48.55c0,.33.28.39.23.74.17.5-.48.36-.49.73-.12.57.64.49.71.92.16,1.64.08,3.46.68,4.77a5,5,0,0,0-.49,1.5H707a.56.56,0,0,1,.21-.59c-.09-.25-.42-.29-.48-.56.14-.26-.27-1,.25-.91-.08-.24-.42-.29-.47-.55-.21-1.68.41-2.5.51-3.49h.48c0-.33-.64-1.07,0-1.29-.63-1-.33-1.49-.93-2.57.35,0,.09-.55.48-.55-.49-.54-.43-1.49-.69-2.2-.1-.39.16-.49.24-.74-.06-.6-.67-1.4-.22-1.83-.13-1.35-.6-2.83,0-4.4-.07-.43-.37-.69-.22-1.29.19,0,.23.19.47.19.37-.78-.62-1.46-.22-1.65,0-.18-.29-.15-.48-.19-.16-.49.5-.35.73-.55-.3-.21-.1-.69.25-.91a8.24,8.24,0,0,0-1-.37c-.07-.49.34-.6,1-.55,0-.3,0-.61,0-.92-.61-.66,0-1.13-.95-1.47.07-.11.6-.7,0-.73a9.2,9.2,0,0,0,1-1.1c-.55-.37-.48-1.22-1-1.65a2.72,2.72,0,0,1,1-1.83c-.76-.42-.56-1.93,0-2.39-.06-.19-.48-.12-.48-.37.17-.91-.21-1.42-.22-2.2.34,0,.68,0,.72-.18.08-.37-.69,0-.72.18-.84-.32.61-.36.49-.73-.41,0-.62.13-.72.36-.29-1.74-.17-3-.44-5-.14-.43,1.43-.85.25-.92,0-.17.3-.14.49-.18s0-.32-.24-.36c.24-.25.65-.36.73-.73-.28,0-.43,0-.49.18-.4-.13-.14-.43.25-.37,0-.18-.3-.14-.48-.19.71-.89,0-1.57.74-2.56,0-.21-.24-.1-.24,0-.56-.77.4-1.43.75-2.75,0-.47-.89-.3-1.19-.55.06-.2.48-.13.48-.37a2.45,2.45,0,0,1,0-2c-.43-.91-.59-1.44,0-2.2l0-.05-.08,0a.34.34,0,0,0,0-.1,1.68,1.68,0,0,1,0-1.89h0a12.62,12.62,0,0,0,0-2.6c-.08-.31.19-.34.49-.36A.58.58,0,0,1,707,56.83Zm.31,49.73c-.06,0,.12.28.24.19S707.39,106.47,707.26,106.56Zm-.45-2.57c-.07.05.11.28.24.19S706.93,103.9,706.81,104Zm-.07-17.61c.59-.61-.81.44,0,0Zm-.18-5.5c0,.12,0,.25,0,.37.25,0,.29.15.48.18C707,81.15,707.07,80.8,706.56,80.88Zm.26-2.38c-.13,0-.27.14,0,.18S707.09,78.53,706.82,78.5Zm.79-6.78c-.07,0,.11.28.24.18S707.73,71.62,707.61,71.72Zm.5,22c.13-.1.31.13.24.18S708,93.78,708.11,93.73Zm.39-14.67c.15.25-.17.41-.25.18,0,0,0-.14,0-.18C708.08,78.78,708.41,78.92,708.5,79.06Z"/><path d="M1016.62,250.36l-.93-1.36a5.15,5.15,0,0,0,2-1.94c1.21-.23,1.56-1.67,2.24-.95.39-.34,0-.58.52-.93,1.41-1.22,1.73-.47,2.77-1,2-1.3,2.15-1.9,3.67-2.22v1.15a6.39,6.39,0,0,1-3.29-2,1,1,0,0,1,.3-.06c-.34-.17-.63-.31-.78-.41-.35-.24-1.68-1.88-2.75-1.9-1.22-1-1.52-2.19-2.36-1.63-1-.58-.6-1-1.83-1.55s-2.91-1.74-4-1.86c-.35-1-3.76-2.4-4-3.38a19.32,19.32,0,0,1-3.38-2l-1.23-.85,1.23-.83c1.33-.9,2.44-1.59,2.86-2.46a7.34,7.34,0,0,0,2.5-1.41c.33.88,2.26-1.11,2.91-.81.46-.56,1-1.15.65-1.6a13.3,13.3,0,0,0,4.08-2.49c1,1.87,2.74-2.44,4.09-1.61.28-.47.54-.94.79-1.41a30.93,30.93,0,0,0,4.42-2.81v.76a33.59,33.59,0,0,0-3.38-1.86c-1.43-1.68-3.75-2.26-4.44-3.64-3.27-.53-7.11-4.91-10.78-6.28-.68-.45-.91-.85-.9-1.21a11.54,11.54,0,0,1-2.92-1.45l-1.39-.74,1.39-1.27.1-.09c1.29-.26,2.16.22,4-.94.88-.55-.29-.83-.26-1.27,2.44-1.75,5.38-2.91,7-5a2.23,2.23,0,0,1,1.58-.21c.23-1.32,2.82-1.93,3.82-2,.46-.38.13-.66-.26-.4.23-.81,2.84-2.2,3.29-1.94.42-.35.08-.35-.13-.2,1-.77,2.07-1.69,3.21-2.54v1.17a15,15,0,0,1-3.15-2.53c-.57-.29-.86-.09-1.46-.43a34.52,34.52,0,0,0-8.79-5.77,4.29,4.29,0,0,0-.9-1.21c-.68-.51-1-.33-1.71-.89-1.17-.6-.51-.93-1.29-1.48-1.17-.94-1.42-.19-2.39-.77l-2.54-1.63-1.37-.89,1.37-1a68.42,68.42,0,0,0,7.43-5.81,29.7,29.7,0,0,0,3.51-1.81l.93,1.36a3,3,0,0,1-1.4.71c-.47.43-.39.78-.92,1.21-.65.28-1.89,1.62-2.11,1.14-.47.42-.38.78-.92,1.21a34.77,34.77,0,0,1-5.53,3.43v-1c.68.58,1.3,1.12,2,1.64l-.27.39c.7.49,2.66,1.05,2.75,1.9,2.62,1,3.39,1.91,6.06,3-.12.34,1.12.87.9,1.2,1.43.39,3.45,1.84,5.13,2.67.88.49,1,.85,1.43,1.28,1.34.84,3.4,1.52,4.07,2.52l.16.1,1.24.78-1.24.92c-2.77,2.07-5.65,4.58-9.32,6.33a14.89,14.89,0,0,1-2.64,2.08c0-.21.27-.47.13-.66-1.87.83-2.78,2.65-3.42,2.61-.38.27-.15.45-.13.67-1,.86-1,.1-1.59.2a3.07,3.07,0,0,1-2.1,1.15c0,.44-.24.5-.26,1.33-1,.77-1.48.61-1.72,0l-1.27.86V197l.71.49c1.78.48,2.43,1.69,3.7,1.39.2.22,1.17,1.53,1.57,1.08a27.87,27.87,0,0,0,1.8,2.41c1.12.11,2.89,1.4,4.1,1.66a12.78,12.78,0,0,1,3.37,3.5c1.34,0,4.47,2.39,5.11,3.53.46.25.54-.21,1.07.15.27.22.53.42.75.57l.94.67-.94.62c-1.53,1-2.37,1.93-3.8,2.92-.15-.3-.31-.61-.79-.33-.84.49.46.52.79.33-.21,1.17-1.13,0-1.84.68.21.35.63.32,1.18.06-3.57,2.8-6.33,4.54-10.4,7.65-.83.75-2.62.07-2.11,1.14-.38.26-.46,0-.66-.13s-.7.46-.66.74a4.94,4.94,0,0,0-2,.47c.09.28.32.3.66.13,0,.52-.83.74-.93.34-.38.27-.14.45-.13.67a7.33,7.33,0,0,0-1.24.52v-1.54c1.32,1.15,2.81,1.72,4.15,3.42.48.27.36,0,.14-.2,2,.67,2.85,2.43,5.48,4.66,1,.68,1.15-.29,1.87-.16.4.34,0,.57.51.93a16,16,0,0,1,4.33,3c2.21,1,3.44,1.65,4.71,3.25l.14.05s.07,0,.09,0l.22.14.21.09.9.37-.9.94a10.39,10.39,0,0,1-3.92,2.6h0c-2.15,1.39-4.18,2.69-5.6,3.8-.62.53-.85.35-1,.14A2.6,2.6,0,0,1,1016.62,250.36Zm2.77-73.62c-.07-.13-.66-.32-.53-.08S1019.52,177,1019.39,176.74Zm5.78,3.41c-.07-.13-.67-.32-.53-.08S1025.3,180.39,1025.17,180.15Zm-6.1,25.86c1,1.38-.49-1.32,0,0Zm5.61,9.28.79-.54c-.14-.2.16-.46.13-.67C1025,214.52,1024.21,215,1024.68,215.29Zm-5.27,3.29c.07.11.47,0,.4-.27C1019.73,218.2,1019.33,218.3,1019.41,218.58Zm-13.29,9.73c-.07-.13-.66-.32-.53-.07S1006.25,228.55,1006.12,228.31Zm1.31-33.22c-.27,0,.12-.45.27-.47S1007.58,195.07,1007.43,195.09Zm12.24,21.28c.44-.49,1-.47.53-.07a4.62,4.62,0,0,0-.4.27C1019.3,217.13,1019.42,216.65,1019.67,216.37Z"/><path d="M1210.11,89.21l-1.35.93a5.13,5.13,0,0,0-2-2c-.23-1.21-1.67-1.57-.94-2.24-.35-.4-.58,0-.94-.53-1.21-1.41-.47-1.73-1-2.77-1.3-2-1.89-2.15-2.21-3.66h1.14a6.34,6.34,0,0,1-2,3.28.73.73,0,0,1-.07-.3c-.17.34-.31.63-.41.78-.23.35-1.87,1.68-1.9,2.76-1,1.21-2.19,1.51-1.63,2.35-.57,1-.95.6-1.55,1.83s-1.73,2.91-1.86,4c-1,.35-2.4,3.76-3.37,4a19.32,19.32,0,0,1-2,3.38l-.85,1.23-.83-1.23c-.9-1.33-1.59-2.44-2.45-2.86a7.61,7.61,0,0,0-1.41-2.5c.87-.33-1.12-2.26-.81-2.9-.57-.47-1.15-1.06-1.61-.66a13.46,13.46,0,0,0-2.48-4.08c1.87-1-2.44-2.74-1.62-4.09-.47-.27-.94-.54-1.41-.79a31.5,31.5,0,0,0-2.81-4.42h.76a30.59,30.59,0,0,0-1.85,3.39c-1.69,1.42-2.27,3.75-3.65,4.43-.52,3.27-4.91,7.11-6.28,10.78-.45.68-.85.92-1.2.9a12.24,12.24,0,0,1-1.45,2.92l-.75,1.39-1.27-1.39-.08-.09c-.27-1.29.22-2.17-1-4-.55-.88-.83.29-1.27.27-1.75-2.44-2.91-5.39-5-7a2.31,2.31,0,0,1-.21-1.59c-1.32-.22-1.93-2.82-2-3.82-.39-.46-.67-.13-.4.27-.81-.24-2.21-2.85-2-3.3-.34-.42-.35-.08-.2.14-.77-1-1.69-2.08-2.54-3.22h1.17a14.65,14.65,0,0,1-2.53,3.15c-.29.57-.08.87-.42,1.46a34.64,34.64,0,0,0-5.78,8.79,4.49,4.49,0,0,0-1.21.9c-.51.69-.33,1-.89,1.71-.59,1.17-.93.52-1.47,1.3-.95,1.17-.19,1.41-.77,2.38l-1.64,2.54-.89,1.37-1-1.37a69.69,69.69,0,0,0-5.8-7.43,33.07,33.07,0,0,0-1.81-3.51l1.35-.93a3.06,3.06,0,0,1,.71,1.4c.43.47.78.39,1.21.92.28.65,1.62,1.89,1.14,2.11.43.47.78.39,1.21.92a36.2,36.2,0,0,1,3.44,5.53h-1c.59-.68,1.12-1.3,1.64-2l.39.28c.49-.7,1-2.66,1.9-2.76,1-2.62,1.92-3.39,3-6.05.34.11.88-1.13,1.2-.9.39-1.44,1.85-3.46,2.67-5.14.49-.88.86-.94,1.29-1.43.84-1.34,1.51-3.4,2.51-4.07l.11-.16.78-1.24.92,1.24c2.06,2.77,4.58,5.65,6.33,9.33a15.34,15.34,0,0,1,2.08,2.63c-.22,0-.47-.26-.67-.13.83,1.88,2.65,2.78,2.61,3.42.27.38.46.15.67.14.86,1,.11,1,.21,1.58a3.08,3.08,0,0,1,1.14,2.11c.44,0,.5.23,1.34.26.76,1,.6,1.48,0,1.71l.86,1.27h-.73l.49-.71c.48-1.78,1.69-2.43,1.39-3.69.22-.2,1.53-1.17,1.08-1.58a26,26,0,0,0,2.42-1.8c.1-1.12,1.4-2.89,1.66-4.09a12.94,12.94,0,0,1,3.49-3.38c0-1.33,2.39-4.47,3.53-5.11.25-.46-.2-.54.15-1.06.22-.28.42-.54.57-.76l.67-.94.63.94c1,1.53,1.93,2.37,2.92,3.8-.31.16-.61.31-.34.79.49.85.53-.46.34-.79,1.16.21,0,1.13.67,1.85.35-.21.32-.64.06-1.19,2.81,3.58,4.54,6.34,7.65,10.4.75.83.07,2.62,1.14,2.11.26.39,0,.47-.13.66s.46.71.74.66a5.17,5.17,0,0,0,.47,2c.28-.09.3-.33.13-.66.52,0,.75.82.34.92.27.38.46.14.67.13a6.7,6.7,0,0,0,.52,1.24h-1.54c1.15-1.32,1.72-2.8,3.42-4.15.27-.47-.05-.36-.2-.14.68-2,2.43-2.85,4.67-5.48.67-1-.3-1.15-.17-1.87.34-.39.57,0,.93-.51a15.83,15.83,0,0,1,3-4.32c1-2.22,1.65-3.45,3.26-4.72,0,0,0-.09,0-.14s0-.07,0-.09l.15-.22.08-.2.37-.91,1,.91a10.2,10.2,0,0,1,2.59,3.92h0c1.4,2.14,2.69,4.17,3.81,5.59.53.62.35.85.13,1.06A2.36,2.36,0,0,1,1210.11,89.21Zm-73.62-2.76c-.13.06-.32.66-.08.53S1136.73,86.31,1136.49,86.45Zm3.41-5.79c-.13.07-.32.67-.08.54S1140.14,80.53,1139.9,80.66Zm25.86,6.11c1.39-1-1.31.48,0,0Zm9.28-5.62-.54-.79c-.2.14-.45-.16-.67-.13C1174.27,80.84,1174.74,81.62,1175,81.15Zm3.29,5.27c.11-.07,0-.47-.27-.39C1178,86.1,1178.05,86.5,1178.33,86.42Zm9.73,13.29c-.12.07-.31.67-.07.53S1188.31,99.58,1188.06,99.71Zm-33.21-1.31c0,.27-.45-.12-.47-.26S1154.83,98.25,1154.85,98.4Zm21.27-12.23c-.49-.45-.46-1-.06-.53.09.1.17.31.26.39C1176.88,86.53,1176.4,86.41,1176.12,86.17Z"/><path d="M679,87.22v1.65a30.55,30.55,0,0,0-7,.46c-2.83-.5-5.6.49-6-.49-1.31.06-.83.48-2.42.48-4.64.2-4.24-.6-7.16-.73-6,0-7.14.34-10.77-.26a38.86,38.86,0,0,1-9.59.22,2.49,2.49,0,0,1,.53-.22c-.94.06-1.75.11-2.21.11-1,0-6.12-.6-8.38,0-3.87-.1-6.23-1-7.19,0-2.89.1-2.58-.44-6-.25s-8.47.22-10.81.71c-2.1-.62-11.18.14-13.16-.5-8.36.65-15.55-.14-19.19.69a46.09,46.09,0,0,0-7.18-.25c.57-.91-6.24-.36-7.15-1-1.76.2-3.81.35-3.63,1a84.94,84.94,0,0,0-12-.26c.5-2.13-9.12.47-10.74-1-1.24.23-2.44.47-3.62.71a212.27,212.27,0,0,0-22.77.21c-5.34-.59-11,.25-14.36-.5-7.5,1.41-21.66,0-31.18.91-2.05,0-3.1-.18-3.58-.49a79.32,79.32,0,0,1-8.4.47c-3-.51-4.16-1.4-9.53-1.45-2.59,0-.57.85-1.24,1.2-7.53.06-15.27-.65-21.57.2a10.28,10.28,0,0,1-3.57-.72c-2.34,1-8.58,0-10.76-.5-1.51.06-1.23.48,0,.48-1.64.54-9,.21-9.57-.25-1.36,0-.68.24,0,.24-6.26.1-13.47.62-20.37,0-1.57.09-1.9.42-3.61.48a215,215,0,0,0-26.36.2,25,25,0,0,0-3.58-.49c-2.14,0-2.54.29-4.8.24-3.27.17-2.39-.48-4.77-.49-3.76-.12-3.19.64-6,.71-10.7.16-22.58.08-31.17.67-2.55-.17-6.33-.43-9.82-.48V87.22a18.79,18.79,0,0,1,3.9.21c1.58-.09,1.9-.43,3.61-.48,1.74.13,6.2-.27,6,.25,1.58-.08,1.9-.42,3.61-.47,10.92-.21,16.27.41,22.75.51,0,.16,0,.32,0,.48,2.14,0,7-.64,8.39,0,6.89-.63,9.73-.34,16.8-.93.26.34,3.57.09,3.58.48,3.51-.49,9.76-.43,14.4-.7a34.59,34.59,0,0,1,4.78.25c4-.06,9.18-.67,12-.22,8.79-.13,18.48-.6,28.75,0,2.81-.07,4.51-.37,8.39-.22-.23.19-1.21.23-1.21.47,5.06.37,9.51-.62,10.79-.22,1.16,0,.94-.29,1.21-.48,3.23-.16,2.3.5,3.57.73a18.25,18.25,0,0,1,6,.25,26,26,0,0,0,2.43-1c3.16-.07,3.92.34,3.56,1h6c4.37-.61,7.43,0,9.61-1,.74.07,4.6.6,4.8,0,2.12.37,4.67.66,7.15,1,2.47-.55,8-.48,10.82-1a77.44,77.44,0,0,1,11.94,1c2.74-.76,12.63-.56,15.57,0,1.3,0,.83-.47,2.42-.47,6,.17,9.28-.21,14.38-.22-.11.34-.22.68,1.17.72,2.43.08-.22-.69-1.17-.72,2.08-.84,2.39.61,4.77.49.07-.41-.86-.63-2.37-.73,11.38-.29,19.55-.16,32.37-.43,2.77-.14,5.52,1.43,6,.25,1.16,0,.91.3,1.18.48a3.3,3.3,0,0,0,2.4-.23,25.93,25.93,0,0,0,4.77.72c.2-.27-.25-.42-1.18-.48.79-.4,2.76-.14,2.38.25,1.17,0,.95-.3,1.22-.48,5.84.71,10.28-.05,16.74.74,1.36,0,.68-.24,0-.24,5.05-.56,9.33.4,17.94.75,3.08,0,2-.89,3.64-1.19,1.3.06.8.47,2.38.48a99.81,99.81,0,0,1,13.18,0c6-.43,9.46-.59,14.37,0l.34,0s.12,0,.15-.08h.64a65.17,65.17,0,0,1,12.34,0h0c6.42.06,12.45.14,17,0,2-.08,2.25.19,2.37.49A14.69,14.69,0,0,1,679,87.22Zm-324.82.31c-.33-.06-1.83.12-1.21.24C353.26,87.84,354.75,87.66,354.14,87.53Zm16.79-.45c-.33-.07-1.83.11-1.21.24C370.05,87.38,371.54,87.2,370.93,87.08Zm115-.07c4,.59-2.86-.81,0,0Zm35.95-.18h-2.4c0,.24-1,.29-1.21.48C520.15,87.28,522.42,87.34,521.88,86.83Zm15.56.26c0-.13-1-.27-1.2,0C536.23,87.22,537.2,87.36,537.44,87.09Zm44.3.79c-.33-.07-1.83.11-1.21.24C580.86,88.18,582.35,88,581.74,87.88ZM438,88.38c.61.12-.88.31-1.21.24C436.14,88.49,437.63,88.31,438,88.38Zm95.82.39c-1.61.15-2.67-.17-1.19-.25.34,0,.9,0,1.2,0C535.62,88.35,534.68,88.68,533.78,88.77Z"/><path d="M1119.49,87.22v1.65a32.18,32.18,0,0,0-7.14.46c-2.91-.5-5.76.49-6.15-.49-1.34.06-.85.48-2.48.48-4.78.2-4.36-.6-7.37-.73-6.13,0-7.35.34-11.08-.26a41.16,41.16,0,0,1-9.87.22,2.6,2.6,0,0,1,.54-.22c-1,.06-1.8.11-2.26.11-1.09,0-6.3-.6-8.63,0-4-.1-6.41-1-7.39,0-3,.1-2.66-.44-6.16-.25s-8.71.22-11.11.71c-2.17-.62-11.51.14-13.54-.5-8.61.65-16-.14-19.75.69a48.71,48.71,0,0,0-7.38-.25c.58-.91-6.43-.36-7.36-1-1.81.2-3.92.35-3.73,1a90,90,0,0,0-12.32-.26c.51-2.13-9.38.47-11-1-1.27.23-2.51.47-3.73.71a224.62,224.62,0,0,0-23.42.21c-5.49-.59-11.29.25-14.77-.5-7.71,1.41-22.28,0-32.08.91-2.11,0-3.19-.18-3.68-.49a83.88,83.88,0,0,1-8.64.47c-3.13-.51-4.28-1.4-9.81-1.45-2.67,0-.59.85-1.27,1.2-7.75.06-15.71-.65-22.2.2A10.82,10.82,0,0,1,842,88.1c-2.41,1-8.82,0-11.07-.5-1.55.06-1.26.48,0,.48-1.68.54-9.27.21-9.85-.25-1.4,0-.69.24,0,.24-6.45.1-13.86.62-20.95,0-1.63.09-2,.42-3.72.48a227.51,227.51,0,0,0-27.12.2,26.48,26.48,0,0,0-3.68-.49c-2.21,0-2.61.29-4.94.24-3.37.17-2.46-.48-4.91-.49-3.87-.12-3.28.64-6.19.71-11,.16-23.24.08-32.07.67-2.62-.17-6.51-.43-10.11-.48V87.22a19.91,19.91,0,0,1,4,.21c1.63-.09,2-.43,3.72-.48,1.78.13,6.38-.27,6.15.25,1.62-.08,2-.42,3.72-.47,11.23-.21,16.73.41,23.39.51,0,.16,0,.32,0,.48,2.21,0,7.2-.64,8.63,0,7.1-.63,10-.34,17.29-.93.27.34,3.68.09,3.68.48,3.62-.49,10-.43,14.82-.7a36.8,36.8,0,0,1,4.92.25c4.07-.06,9.44-.67,12.33-.22,9-.13,19-.6,29.57,0,2.9-.07,4.64-.37,8.64-.22-.24.19-1.24.23-1.25.47,5.21.37,9.79-.62,11.1-.22,1.2,0,1-.29,1.25-.48,3.32-.16,2.36.5,3.67.73a19.3,19.3,0,0,1,6.15.25,26.39,26.39,0,0,0,2.51-1c3.25-.07,4,.34,3.65,1h6.17c4.49-.61,7.64,0,9.89-1,.75.07,4.72.6,4.93,0,2.19.37,4.8.66,7.36,1,2.54-.55,8.19-.48,11.13-1a81.83,81.83,0,0,1,12.28,1c2.83-.76,13-.56,16,0,1.33,0,.85-.47,2.48-.47,6.16.17,9.55-.21,14.8-.22-.12.34-.23.68,1.2.72,2.5.08-.23-.69-1.2-.72,2.14-.84,2.46.61,4.91.49.07-.41-.89-.63-2.44-.73,11.7-.29,20.11-.16,33.29-.43,2.86-.14,5.69,1.43,6.16.25,1.19,0,.94.3,1.21.48a3.48,3.48,0,0,0,2.47-.23,27.49,27.49,0,0,0,4.91.72c.21-.27-.26-.42-1.22-.48.82-.4,2.84-.14,2.46.25,1.2,0,1-.3,1.25-.48,6,.71,10.57-.05,17.22.74,1.4,0,.7-.24,0-.24,5.19-.56,9.6.4,18.46.75,3.16,0,2-.89,3.74-1.19,1.34.06.82.47,2.45.48a105.65,105.65,0,0,1,13.56,0c6.16-.43,9.73-.59,14.78,0l.35,0s.13,0,.15-.08h.67a68.91,68.91,0,0,1,12.69,0h0c6.6.06,12.81.14,17.45,0,2.1-.08,2.32.19,2.45.49A15.47,15.47,0,0,1,1119.49,87.22Zm-334.17.31c-.33-.06-1.87.12-1.24.24C784.42,87.84,786,87.66,785.32,87.53Zm17.28-.45c-.34-.07-1.88.11-1.25.24C801.69,87.38,803.23,87.2,802.6,87.08ZM920.91,87c4.12.59-2.95-.81,0,0Zm37-.18h-2.46c0,.24-1,.29-1.25.48C956.11,87.28,958.45,87.34,957.89,86.83Zm16,.26c0-.13-1-.27-1.23,0C972.66,87.22,973.66,87.36,973.9,87.09Zm45.57.79c-.34-.07-1.87.11-1.24.24C1018.57,88.18,1020.11,88,1019.47,87.88Zm-147.91.5c.63.12-.9.31-1.24.24C869.69,88.49,871.22,88.31,871.56,88.38Zm98.58.39c-1.66.15-2.75-.17-1.22-.25.34,0,.92,0,1.23,0C972,88.35,971.06,88.68,970.14,88.77Z"/><path d="M827.93,87.5h1.65a1,1,0,0,0,.46,1c-.49.42.49.83-.49.89.06.2.48.12.48.36.2.7-.59.64-.73,1.07,0,.89.35,1.07-.26,1.61.39.44.61.88.23,1.44a.93.93,0,0,1-.22-.08,1.4,1.4,0,0,1,.1.33c0,.16-.6.92,0,1.25-.1.58-.95.94,0,1.08.09.43-.45.39-.25.89s.21,1.27.7,1.62c-.61.32.14,1.67-.5,2,.65,1.25-.14,2.33.69,2.87-.27.21-.27.63-.25,1.08-.9-.09-.35.93-1,1.07a1,1,0,0,0,1,.54c-.46.67-.35,1-.26,1.79-2.13-.07.46,1.36-1,1.61l.72.54a4.91,4.91,0,0,0,.2,3.4c-.58.8.25,1.65-.5,2.15,1.42,1.12,0,3.24.91,4.67,0,.3-.18.46-.48.53.48.58.27.64.46,1.26-.51.45-1.4.62-1.45,1.43,0,.38.85.08,1.2.18.06,1.13-.65,2.29.21,3.23a1.12,1.12,0,0,1-.73.53c1,.35,0,1.29-.5,1.61.06.23.48.19.48,0,.54.25.22,1.35-.25,1.44a.12.12,0,0,0,.24,0c.11.93.63,2,0,3,.08.24.42.29.47.55a5.11,5.11,0,0,0,.2,3.94,1.36,1.36,0,0,0-.48.53c0,.33.29.38.23.72.17.49-.48.36-.49.72-.11.56.65.47.72.9.16,1.6.08,3.38.67,4.66a5.08,5.08,0,0,0-.49,1.47h-1.65a.54.54,0,0,1,.21-.58c-.08-.24-.42-.29-.47-.55.13-.25-.28-.92.24-.89-.08-.24-.42-.28-.47-.54-.21-1.63.41-2.43.51-3.4h.48c0-.32-.63-1.05,0-1.25-.63-1-.34-1.46-.94-2.52.35,0,.09-.53.49-.53-.5-.53-.44-1.46-.7-2.16-.1-.37.17-.47.25-.71-.07-.6-.68-1.38-.23-1.8-.12-1.31-.6-2.76,0-4.3-.08-.42-.37-.67-.23-1.25.19,0,.24.18.48.18.37-.76-.62-1.43-.23-1.62,0-.17-.29-.14-.47-.18-.16-.48.5-.34.72-.53-.3-.22-.09-.68.25-.9-.36-.09-.28-.18-1-.36-.06-.47.34-.59,1-.53,0-.3,0-.6,0-.9-.61-.65,0-1.11-.95-1.44.07-.11.61-.68,0-.71a7.5,7.5,0,0,0,1-1.07c-.54-.37-.48-1.2-.94-1.62.09-.86.33-1.08,1-1.79-.77-.41-.56-1.89,0-2.33-.06-.19-.48-.12-.48-.36.17-.9-.21-1.39-.22-2.15.35,0,.68,0,.73-.18s-.7,0-.73.18c-.84-.31.61-.36.49-.72-.41,0-.62.13-.72.36-.29-1.7-.16-2.93-.43-4.84-.15-.42,1.42-.83.25-.9,0-.17.29-.13.48-.17s0-.32-.24-.36c.24-.24.65-.35.73-.72-.28,0-.43,0-.48.18-.41-.12-.15-.41.24-.36,0-.17-.29-.14-.48-.18.72-.87,0-1.54.75-2.5,0-.21-.24-.11-.24,0-.57-.75.39-1.39.75-2.68,0-.46-.9-.29-1.2-.54.06-.2.48-.12.48-.36a2.34,2.34,0,0,1,0-2c-.43-.9-.58-1.42,0-2.15l0,0-.09,0v-.1a1.61,1.61,0,0,1,0-1.85h0a12,12,0,0,0,0-2.53c-.09-.31.19-.34.48-.36A.66.66,0,0,1,827.93,87.5Zm.32,48.59c-.07,0,.11.27.24.18S828.37,136,828.25,136.09Zm-.46-2.51c-.06,0,.12.27.24.18S827.92,133.49,827.79,133.58Zm-.06-17.2c.58-.6-.81.42,0,0Zm-.19-5.38v.36c.24,0,.28.14.48.18C828,111.26,828.05,110.92,827.54,111Zm.26-2.33c-.13,0-.27.14,0,.18S828.08,108.7,827.8,108.67Zm.79-6.63c-.07,0,.11.28.24.18S828.72,102,828.59,102Zm.5,21.51c.13-.09.31.13.24.18S829,123.6,829.09,123.55Zm.39-14.33c.16.24-.17.4-.24.17,0,0,0-.13,0-.17C829.06,108.94,829.39,109.08,829.48,109.22Z"/><path d="M567.31,87.5H569a1.86,1.86,0,0,0,.46,1.55c-.49.63.49,1.25-.48,1.34.05.29.47.18.47.54.2,1-.59.94-.73,1.6,0,1.33.35,1.59-.25,2.4a2.13,2.13,0,0,1,.22,2.15.94.94,0,0,1-.22-.12,3,3,0,0,1,.1.49c0,.24-.6,1.37,0,1.88-.1.86-1,1.39,0,1.6.09.65-.44.58-.25,1.34s.21,1.89.7,2.41c-.61.48.15,2.5-.5,2.95.65,1.87-.13,3.47.7,4.29a2.51,2.51,0,0,0-.26,1.6c-.9-.13-.35,1.4-1,1.6.21.39.36.85,1,.81a4.35,4.35,0,0,0-.26,2.68c-2.13-.11.46,2-1,2.4.24.27.47.54.72.81a10.92,10.92,0,0,0,.2,5.09c-.58,1.19.25,2.45-.5,3.2,1.42,1.68,0,4.85.92,7a.74.74,0,0,1-.49.8c.48.87.27,1,.47,1.88-.51.68-1.4.93-1.46,2.13,0,.58.85.13,1.2.28.07,1.68-.64,3.41.21,4.82a1.29,1.29,0,0,1-.73.8c1,.52,0,1.92-.49,2.4a.24.24,0,0,0,.48,0c.53.36.21,2-.26,2.14.05.3.24.15.24,0,.11,1.4.63,3,0,4.55.08.35.42.43.48.81a10.94,10.94,0,0,0,.2,5.89,2,2,0,0,0-.49.8c0,.48.29.57.23,1.07.17.74-.48.54-.48,1.07-.12.84.64.71.71,1.35.16,2.39.08,5,.67,7A10.4,10.4,0,0,0,569,177h-1.64a1,1,0,0,1,.2-.87c-.08-.36-.42-.43-.47-.81.13-.39-.27-1.39.25-1.34-.09-.35-.42-.42-.48-.81-.21-2.44.41-3.63.52-5.08h.48c0-.48-.64-1.57,0-1.88-.63-1.54-.34-2.18-.94-3.76.35-.05.09-.79.49-.79-.5-.79-.43-2.19-.7-3.22-.1-.56.17-.71.25-1.07-.07-.89-.67-2-.22-2.68-.13-2-.6-4.13,0-6.43a5,5,0,0,1-.23-1.87c.2.05.24.27.48.27.37-1.13-.62-2.13-.22-2.41,0-.26-.3-.21-.48-.28-.16-.72.5-.51.72-.79-.3-.32-.09-1,.25-1.34-.35-.15-.28-.27-1-.54-.07-.71.33-.88,1-.8,0-.45,0-.89,0-1.34-.61-1,0-1.66-.94-2.15.07-.16.6-1,0-1.07a10.16,10.16,0,0,0,1-1.6c-.54-.55-.47-1.78-.94-2.41a4.57,4.57,0,0,1,1-2.67c-.76-.62-.56-2.83,0-3.49-.06-.29-.47-.18-.48-.53a18,18,0,0,0-.21-3.22c.34,0,.68.05.72-.26.07-.54-.69,0-.72.26-.84-.47.6-.53.48-1.07a.67.67,0,0,0-.72.53c-.29-2.54-.16-4.37-.43-7.23-.15-.62,1.42-1.24.25-1.34,0-.26.29-.2.48-.26s0-.47-.24-.54c.25-.35.66-.52.73-1.06-.28,0-.43.05-.48.26-.41-.18-.15-.62.24-.53,0-.26-.29-.21-.48-.27.72-1.31,0-2.3.75-3.75,0-.3-.24-.15-.24,0-.56-1.13.39-2.08.75-4,0-.69-.9-.44-1.2-.81.06-.29.48-.18.49-.53a5.1,5.1,0,0,1,0-2.95c-.44-1.34-.59-2.12,0-3.21a.2.2,0,0,1,0-.08.24.24,0,0,0-.09,0V95a3.38,3.38,0,0,1,0-2.75h0a26.92,26.92,0,0,0,0-3.8c-.09-.45.19-.5.48-.53A.9.9,0,0,1,567.31,87.5Zm.31,72.6c-.07.07.11.41.24.27S567.74,160,567.62,160.1Zm-.45-3.75c-.07.07.11.41.23.27S567.29,156.21,567.17,156.35Zm-.07-25.71c.59-.89-.81.64,0,0Zm-.19-8v.53c.24,0,.28.22.48.28C567.37,123,567.43,122.49,566.91,122.61Zm.27-3.48c-.14,0-.28.21,0,.27S567.45,119.18,567.18,119.13Zm.78-9.9c-.06.07.12.41.24.27S568.09,109.09,568,109.23Zm.51,32.13c.12-.13.3.2.24.27S568.4,141.44,568.47,141.36Zm.38-21.41c.16.36-.16.59-.24.26,0-.07,0-.2,0-.27C568.43,119.54,568.76,119.75,568.85,120Z"/><path d="M441.71,89.44h1.64a1.18,1.18,0,0,0,.47,1.16c-.5.47.49.94-.49,1,.06.22.47.14.47.4.21.78-.59.71-.73,1.2,0,1,.35,1.19-.25,1.79a1.26,1.26,0,0,1,.22,1.6l-.22-.08a1.69,1.69,0,0,1,.1.36c0,.18-.6,1,0,1.4-.1.65-1,1,0,1.2.09.48-.44.43-.25,1s.21,1.41.71,1.8c-.62.35.14,1.87-.5,2.2.64,1.39-.14,2.59.69,3.2-.28.23-.28.7-.25,1.2-.91-.1-.36,1-1,1.19.21.29.36.63,1,.6-.46.76-.35,1.08-.26,2-2.13-.08.47,1.52-1,1.79.23.21.47.41.71.61a6.1,6.1,0,0,0,.21,3.8c-.59.89.24,1.83-.51,2.39,1.42,1.25,0,3.61.92,5.2a.58.58,0,0,1-.49.6c.48.64.27.7.47,1.4-.51.51-1.4.69-1.46,1.59,0,.43.85.1,1.2.21.07,1.25-.64,2.54.21,3.59a1.14,1.14,0,0,1-.73.6c1,.39,0,1.43-.49,1.8.06.25.47.2.48,0,.53.27.21,1.5-.26,1.6.05.22.24.11.24,0,.11,1,.63,2.24,0,3.39.09.27.42.32.48.61a6.18,6.18,0,0,0,.2,4.39,1.43,1.43,0,0,0-.49.6c0,.36.29.42.23.8.17.55-.48.4-.48.8-.12.62.64.53.71,1,.16,1.79.08,3.77.67,5.2a6.2,6.2,0,0,0-.49,1.64h-1.64a.63.63,0,0,1,.2-.65c-.08-.27-.42-.32-.47-.6.13-.29-.27-1,.25-1-.09-.26-.42-.32-.48-.6-.21-1.83.41-2.72.52-3.8h.48c0-.35-.64-1.16,0-1.39-.63-1.15-.34-1.63-.94-2.81.35,0,.09-.59.49-.59-.49-.59-.43-1.63-.7-2.41-.1-.41.17-.52.25-.79-.06-.67-.67-1.54-.22-2-.13-1.47-.6-3.09,0-4.8-.07-.47-.37-.75-.23-1.4.2,0,.24.2.48.2.37-.84-.62-1.58-.22-1.8,0-.19-.29-.15-.48-.2-.16-.54.5-.38.72-.59-.3-.24-.09-.76.25-1a9.61,9.61,0,0,0-1-.41c-.07-.53.34-.65,1-.59,0-.33,0-.67,0-1-.61-.73,0-1.24-.94-1.6.07-.13.6-.77,0-.8a8,8,0,0,0,1-1.2c-.54-.41-.47-1.33-.94-1.8a3,3,0,0,1,1-2c-.76-.46-.56-2.11,0-2.6-.06-.22-.47-.14-.47-.4a10.05,10.05,0,0,0-.22-2.4c.34,0,.68,0,.72-.2.08-.4-.69,0-.72.2-.84-.35.6-.4.49-.8-.42,0-.63.14-.73.4-.29-1.9-.16-3.27-.43-5.4-.15-.47,1.42-.92.25-1,0-.19.29-.15.48-.2.34-.07,0-.35-.24-.4.25-.26.66-.39.73-.79-.28,0-.43,0-.48.19-.41-.13-.15-.46.24-.4,0-.19-.29-.15-.48-.2.72-1-.05-1.71.75-2.79,0-.23-.24-.11-.24,0-.56-.84.4-1.56.75-3,0-.51-.89-.32-1.2-.6.06-.22.48-.13.49-.4a2.89,2.89,0,0,1,0-2.2c-.44-1-.59-1.58,0-2.39l0-.06-.09,0v-.1a2,2,0,0,1,0-2.06h0a15,15,0,0,0,0-2.83c-.09-.34.19-.38.48-.4A.61.61,0,0,1,441.71,89.44Zm.31,54.19c-.07.05.11.3.24.2S442.15,143.53,442,143.63Zm-.45-2.8c-.07,0,.11.3.24.2S441.69,140.73,441.57,140.83Zm-.07-19.19c.59-.66-.81.48,0,0Zm-.19-6v.4c.24,0,.28.16.48.2C441.77,115.94,441.83,115.56,441.31,115.65Zm.27-2.6c-.14,0-.28.16,0,.2S441.85,113.09,441.58,113.05Zm.78-7.39c-.06.06.12.31.24.2S442.49,105.56,442.36,105.66Zm.51,24c.12-.11.3.14.24.2S442.8,129.7,442.87,129.65Zm.38-16c.16.27-.16.45-.24.2,0-.06,0-.15,0-.2C442.83,113.35,443.16,113.51,443.25,113.66Z"/><path d="M1016.39,297v1.65a20.76,20.76,0,0,0-5.72.46c-2.33-.49-4.61.49-4.92-.49-1.07.06-.68.48-2,.48-3.82.2-3.49-.59-5.9-.73-4.9-.05-5.88.35-8.86-.26a26.74,26.74,0,0,1-7.9.23,1.56,1.56,0,0,1,.43-.23c-.77.06-1.44.11-1.81.11-.87,0-5-.6-6.9,0-3.18-.1-5.13-1-5.92,0-2.37.1-2.12-.44-4.92-.24s-7,.21-8.89.7c-1.74-.62-9.21.14-10.84-.5-6.88.65-12.8-.14-15.79.69a31.35,31.35,0,0,0-5.91-.25c.47-.91-5.14-.36-5.89-1-1.45.21-3.13.35-3,.95a56.64,56.64,0,0,0-9.85-.25c.41-2.14-7.51.46-8.84-1-1,.23-2,.47-3,.71a145.81,145.81,0,0,0-18.75.21c-4.39-.59-9,.25-11.81-.5-6.17,1.41-17.83,0-25.67.91-1.68,0-2.55-.18-2.94-.49a52.26,52.26,0,0,1-6.92.47c-2.5-.51-3.42-1.4-7.84-1.45-2.14-.05-.47.85-1,1.2-6.2.06-12.57-.65-17.76.2a7.23,7.23,0,0,1-2.94-.72c-1.92,1-7.06,0-8.86-.5-1.23.06-1,.48,0,.48-1.35.54-7.42.21-7.88-.25-1.12,0-.55.24,0,.24-5.16.1-11.09.63-16.77,0-1.3.08-1.56.42-3,.47a147.1,147.1,0,0,0-21.7.2,17.28,17.28,0,0,0-2.94-.48c-1.77,0-2.09.28-4,.23-2.69.17-2-.48-3.93-.49-3.09-.12-2.62.64-5,.71-8.81.16-18.59.08-25.65.68-2.1-.18-5.22-.44-8.09-.49V297a12.75,12.75,0,0,1,3.21.21c1.3-.09,1.57-.42,3-.48,1.42.14,5.1-.27,4.92.25,1.3-.08,1.56-.42,3-.47,9-.21,13.39.41,18.72.51,0,.16,0,.32,0,.48,1.76,0,5.75-.63,6.9,0,5.68-.63,8-.33,13.83-.93.21.35,2.94.09,2.94.48,2.9-.49,8-.43,11.86-.69a22.79,22.79,0,0,1,3.94.24c3.26-.06,7.55-.67,9.86-.22,7.24-.13,15.22-.6,23.67,0a63.65,63.65,0,0,1,6.91-.22c-.2.19-1,.24-1,.47,4.16.37,7.83-.62,8.88-.22.95,0,.77-.29,1-.48,2.65-.16,1.89.5,2.93.73a12.65,12.65,0,0,1,4.93.25,18.6,18.6,0,0,0,2-1c2.6-.07,3.22.34,2.93,1H826c3.59-.61,6.12,0,7.91-.95.61.07,3.78.61,3.95,0,1.74.37,3.84.67,5.88,1,2-.55,6.56-.48,8.91-.95a52.79,52.79,0,0,1,9.83,1c2.26-.76,10.39-.55,12.82,0,1.07-.06.68-.48,2-.48,4.94.17,7.64-.21,11.84-.22-.09.34-.18.68,1,.72,2,.08-.19-.69-1-.72,1.72-.84,2,.61,3.93.49.06-.41-.71-.62-2-.72,9.37-.29,16.09-.17,26.64-.44,2.28-.14,4.55,1.43,4.92.25,1,0,.76.3,1,.49s1.74,0,2-.24a18.46,18.46,0,0,0,3.92.73c.17-.28-.2-.43-1-.49.66-.4,2.28-.14,2,.25,1,0,.77-.3,1-.48,4.8.71,8.46-.05,13.78.75,1.12-.05.55-.25,0-.25,4.15-.56,7.68.4,14.77.75,2.53,0,1.61-.89,3-1.19,1.07.06.65.48,2,.48a67.55,67.55,0,0,1,10.84,0c4.94-.43,7.8-.59,11.84,0l.28,0,.12-.08h.53a43.65,43.65,0,0,1,10.15,0h0c5.28.06,10.25.15,14,0,1.68-.08,1.85.19,1.95.49A10.06,10.06,0,0,1,1016.39,297ZM749,297.34c-.27-.07-1.49.11-1,.23C748.3,297.64,749.53,297.46,749,297.34Zm13.82-.46c-.27-.07-1.5.11-1,.24C762.12,297.19,763.35,297,762.84,296.88Zm94.67-.07c3.29.59-2.36-.81,0,0Zm29.58-.18h-2c0,.25-.81.29-1,.48C885.67,297.08,887.54,297.14,887.09,296.63Zm12.81.26c0-.13-.78-.27-1,0C898.91,297,899.71,297.16,899.9,296.89Zm36.46.79c-.27-.07-1.5.11-1,.24C935.64,298,936.87,297.8,936.36,297.68Zm-118.34.5c.51.13-.72.31-1,.24C816.52,298.3,817.75,298.11,818,298.18Zm78.87.39c-1.33.16-2.2-.17-1-.25.27,0,.73,0,1,0C898.41,298.15,897.63,298.48,896.89,298.57Z"/><path d="M686.65,297v1.65a11.57,11.57,0,0,0-4.24.46c-1.73-.49-3.42.49-3.65-.49-.79.06-.5.48-1.47.48-2.83.2-2.59-.59-4.37-.73-3.64-.05-4.36.35-6.58-.26a14.74,14.74,0,0,1-5.85.23,1,1,0,0,1,.32-.23c-.57.06-1.07.11-1.34.11-.65,0-3.74-.6-5.12,0-2.36-.1-3.81-1-4.39,0-1.76.1-1.58-.44-3.65-.24s-5.17.21-6.6.7c-1.28-.62-6.82.14-8-.5-5.1.65-9.49-.14-11.72.69a17.23,17.23,0,0,0-4.38-.25c.35-.91-3.81-.36-4.36-1-1.08.21-2.33.35-2.22.95a31.21,31.21,0,0,0-7.3-.25c.3-2.14-5.57.46-6.56-1-.76.23-1.49.47-2.21.71a80.21,80.21,0,0,0-13.9.21c-3.26-.59-6.7.25-8.76-.5-4.58,1.41-13.22,0-19,.91-1.25,0-1.89-.18-2.18-.49a28.94,28.94,0,0,1-5.13.47c-1.86-.51-2.54-1.4-5.82-1.45-1.58-.05-.35.85-.76,1.2-4.59.06-9.31-.65-13.16.2a4.3,4.3,0,0,1-2.18-.72c-1.43,1-5.24,0-6.57-.5-.92.06-.75.48,0,.48-1,.54-5.5.21-5.84-.25-.83,0-.41.24,0,.24-3.82.1-8.22.63-12.43,0-1,.08-1.16.42-2.21.47a81,81,0,0,0-16.09.2,9.78,9.78,0,0,0-2.18-.48c-1.31,0-1.55.28-2.93.23-2,.17-1.46-.48-2.91-.49-2.3-.12-1.95.64-3.68.71-6.53.16-13.78.08-19,.68-1.56-.18-3.87-.44-6-.49V297a7.06,7.06,0,0,1,2.38.21c1-.09,1.16-.42,2.21-.48,1.06.14,3.78-.27,3.65.25,1-.08,1.16-.42,2.2-.47,6.67-.21,9.93.41,13.89.51,0,.16,0,.32,0,.48,1.31,0,4.27-.63,5.12,0,4.21-.63,5.95-.33,10.26-.93.16.35,2.18.09,2.18.48,2.15-.49,6-.43,8.8-.69a12.46,12.46,0,0,1,2.91.24c2.42-.06,5.61-.67,7.32-.22,5.37-.13,11.29-.6,17.55,0a35.15,35.15,0,0,1,5.13-.22c-.15.19-.74.24-.75.47,3.09.37,5.81-.62,6.59-.22.71,0,.57-.29.74-.48,2-.16,1.4.5,2.18.73a7,7,0,0,1,3.65.25c.4-.36.73-.28,1.48-1,1.93-.07,2.39.34,2.17,1h3.66c2.67-.61,4.54,0,5.87-.95.45.07,2.8.61,2.93,0,1.29.37,2.85.67,4.36,1,1.51-.55,4.86-.48,6.61-.95a29.33,29.33,0,0,1,7.28,1c1.68-.76,7.71-.55,9.51,0,.8-.06.51-.48,1.47-.48,3.66.17,5.67-.21,8.78-.22-.07.34-.13.68.72.72,1.48.08-.14-.69-.72-.72,1.28-.84,1.47.61,2.92.49,0-.41-.53-.62-1.45-.72,6.95-.29,11.93-.17,19.76-.44,1.69-.14,3.37,1.43,3.65.25.71,0,.56.3.72.49s1.28,0,1.47-.24a10.57,10.57,0,0,0,2.9.73c.13-.28-.15-.43-.72-.49.49-.4,1.69-.14,1.46.25.71,0,.57-.3.74-.48,3.57.71,6.27-.05,10.22.75.83-.05.41-.25,0-.25,3.08-.56,5.69.4,11,.75,1.88,0,1.2-.89,2.22-1.19.79.06.49.48,1.45.48a37.21,37.21,0,0,1,8,0c3.66-.43,5.78-.59,8.78,0l.21,0s.07,0,.09-.08H666a24.09,24.09,0,0,1,7.53,0h0c3.92.06,7.6.15,10.36,0,1.24-.08,1.37.19,1.45.49A5.54,5.54,0,0,1,686.65,297Zm-198.27.32c-.2-.07-1.11.11-.74.23C487.84,297.64,488.75,297.46,488.38,297.34Zm10.25-.46c-.21-.07-1.12.11-.74.24C498.09,297.19,499,297,498.63,296.88Zm70.2-.07c2.44.59-1.75-.81,0,0Zm21.94-.18H589.3c0,.25-.59.29-.74.48C589.71,297.08,591.1,297.14,590.77,296.63Zm9.5.26c0-.13-.59-.27-.73,0S600.12,297.16,600.27,296.89Zm27,.79c-.2-.07-1.11.11-.73.24C626.77,298,627.68,297.8,627.3,297.68Zm-87.76.5c.38.13-.53.31-.73.24C538.43,298.3,539.34,298.11,539.54,298.18Zm58.49.39c-1,.16-1.63-.17-.72-.25.2,0,.54,0,.73,0C599.15,298.15,598.58,298.48,598,298.57Z"/><path d="M442.53,297.43h-1.64a.81.81,0,0,0-.46-.88c.49-.36-.49-.71.48-.76-.05-.16-.47-.1-.47-.3-.21-.59.59-.54.73-.91,0-.76-.35-.91.25-1.37-.39-.37-.6-.74-.22-1.22l.22.07a1.06,1.06,0,0,1-.1-.28c0-.14.6-.78,0-1.07.1-.49.95-.79,0-.91-.09-.37.44-.33.25-.76s-.21-1.08-.7-1.37c.61-.27-.15-1.42.5-1.67-.65-1.07.13-2-.7-2.44.28-.18.28-.54.26-.91.9.07.35-.8,1-.91a1,1,0,0,0-1-.46c.46-.58.35-.82.26-1.52,2.13.06-.46-1.16,1-1.37l-.72-.46a3.64,3.64,0,0,0-.2-2.89c.58-.68-.25-1.39.5-1.82-1.42-1,0-2.75-.92-4,0-.26.19-.4.49-.46-.48-.49-.27-.54-.47-1.07.51-.38,1.4-.52,1.46-1.21,0-.33-.85-.07-1.2-.15-.07-1,.64-1.94-.21-2.74a1.15,1.15,0,0,1,.73-.46c-1-.29,0-1.09.49-1.36,0-.2-.47-.16-.48,0-.53-.2-.21-1.14.26-1.21a.12.12,0,0,0-.24,0c-.11-.8-.63-1.71,0-2.59-.08-.2-.42-.24-.48-.46a3.69,3.69,0,0,0-.2-3.35,1.19,1.19,0,0,0,.49-.45c0-.27-.29-.32-.23-.61-.17-.42.48-.31.48-.61.12-.48-.64-.4-.71-.76-.16-1.36-.08-2.87-.67-4a4,4,0,0,0,.49-1.25h1.64a.42.42,0,0,1-.2.5c.08.2.42.24.47.46-.13.22.27.78-.25.75.09.21.42.25.48.46.21,1.39-.41,2.07-.52,2.89H442c0,.27.64.89,0,1.07.63.87.34,1.23.94,2.13-.35,0-.09.45-.49.45.5.45.43,1.24.7,1.83.1.32-.17.41-.25.61.06.5.67,1.17.22,1.52.13,1.12.6,2.35,0,3.66.07.35.37.57.23,1.06-.2,0-.24-.15-.48-.15-.37.64.62,1.21.22,1.37,0,.15.29.12.48.15.16.41-.5.29-.72.46.3.18.09.57-.25.75a7.43,7.43,0,0,0,.95.31c.07.41-.33.5-1,.46,0,.25,0,.5,0,.76.61.55,0,.94.94,1.22-.07.09-.6.58,0,.61a7,7,0,0,0-1,.9c.54.32.47,1,.94,1.38-.09.73-.33.91-1,1.52.76.34.56,1.6,0,2,.06.17.47.11.48.31-.17.76.2,1.18.21,1.83-.34,0-.68,0-.72.15s.69,0,.72-.15c.84.26-.6.3-.48.6.41,0,.62-.11.72-.3.29,1.45.16,2.49.43,4.11.15.36-1.42.71-.25.76,0,.15-.29.12-.48.15-.34.06,0,.27.24.31-.25.2-.66.29-.73.6.28,0,.43,0,.48-.15.41.1.15.35-.24.31,0,.15.29.12.48.15-.72.74.05,1.31-.75,2.13,0,.17.24.08.24,0,.56.64-.39,1.18-.75,2.28,0,.39.9.25,1.2.46-.06.17-.48.1-.49.3.16.56.4,1.16,0,1.68.44.76.59,1.2,0,1.82a.1.1,0,0,1,0,.05h.09v.09c.36.47.38,1.29,0,1.56h0a8.72,8.72,0,0,0,0,2.16c.09.26-.19.28-.48.3A.46.46,0,0,1,442.53,297.43Zm-.31-41.25c.07-.05-.11-.24-.24-.16S442.1,256.25,442.22,256.18Zm.45,2.13c.07,0-.11-.23-.23-.15S442.55,258.39,442.67,258.31Zm.07,14.61c-.59.5.81-.37,0,0Zm.19,4.56v-.3c-.24,0-.28-.13-.48-.16C442.47,277.26,442.41,277.55,442.93,277.48Zm-.27,2c.14,0,.28-.12,0-.15S442.39,279.43,442.66,279.46Zm-.78,5.63c.06,0-.12-.24-.24-.16S441.75,285.16,441.88,285.09Zm-.51-18.27c-.12.08-.3-.11-.24-.15S441.44,266.78,441.37,266.82ZM441,279c-.16-.2.16-.34.24-.15s0,.12,0,.16C441.41,279.23,441.08,279.11,441,279Z"/><path d="M1016.8,297.43h-1.65a.73.73,0,0,0-.46-.82c.5-.33-.49-.66.49-.7-.06-.16-.47-.1-.47-.29-.21-.55.59-.5.73-.85,0-.7-.35-.84.25-1.27-.39-.35-.6-.69-.22-1.14l.22.06a.88.88,0,0,1-.1-.26c0-.12.59-.72,0-1,.1-.46.95-.74,0-.85-.1-.34.44-.31.25-.71s-.22-1-.71-1.28c.62-.25-.14-1.32.5-1.55-.65-1,.14-1.84-.69-2.28.28-.16.28-.49.25-.84.91.06.36-.74,1-.85a1,1,0,0,0-.95-.43c.46-.54.35-.77.26-1.42,2.13.06-.47-1.08,1-1.27-.23-.15-.47-.29-.71-.43a3.15,3.15,0,0,0-.21-2.69c.59-.63-.24-1.3.51-1.7-1.42-.89,0-2.56-.92-3.69,0-.24.19-.37.49-.43-.48-.45-.27-.5-.47-1,.51-.36,1.4-.49,1.45-1.13,0-.31-.85-.07-1.19-.14-.07-.9.64-1.81-.21-2.56a1.16,1.16,0,0,1,.72-.42c-1-.28,0-1,.5-1.27-.06-.18-.47-.15-.48,0-.53-.19-.21-1.06.26-1.13a.12.12,0,0,0-.24,0c-.11-.74-.63-1.59,0-2.41-.09-.19-.42-.23-.48-.43a3.23,3.23,0,0,0-.2-3.12,1.13,1.13,0,0,0,.49-.42c0-.26-.29-.3-.24-.57-.17-.39.49-.28.49-.56.12-.45-.64-.38-.71-.72-.16-1.26-.08-2.67-.67-3.69a3.27,3.27,0,0,0,.48-1.16h1.65a.38.38,0,0,1-.2.46c.08.19.42.23.47.43-.13.21.27.74-.25.71.08.19.42.22.48.43.2,1.29-.41,1.92-.52,2.69h-.48c0,.25.64.82,0,1,.63.81.34,1.15.93,2-.34,0-.08.42-.48.42.49.42.43,1.16.7,1.71.09.29-.17.37-.25.56.06.47.67,1.09.22,1.42.13,1,.6,2.19,0,3.4.07.34.37.54.23,1-.2,0-.24-.15-.48-.15-.37.6.62,1.13.22,1.28,0,.14.29.11.48.14.16.39-.5.28-.73.43.31.16.1.53-.25.7a9.84,9.84,0,0,0,1,.29c.07.38-.34.46-1,.42,0,.24,0,.47,0,.71.6.52,0,.88.94,1.14-.07.09-.6.54,0,.57a7.91,7.91,0,0,0-1,.84c.55.3.48.95,1,1.28-.1.68-.33.85-1,1.42.76.32.56,1.49,0,1.84,0,.15.47.1.47.29-.17.7.21,1.09.22,1.7-.34,0-.68,0-.72.14s.69,0,.72-.14c.84.24-.61.28-.49.56.41,0,.63-.1.73-.28.29,1.35.16,2.32.43,3.83.15.33-1.43.66-.25.71,0,.14-.29.11-.48.14-.34.05,0,.25.23.29-.24.18-.65.27-.72.56.28,0,.42,0,.48-.14.4.09.14.33-.24.28,0,.14.29.11.47.15-.71.69.06,1.21-.74,2,0,.16.24.08.24,0,.56.6-.4,1.1-.75,2.12,0,.37.89.23,1.2.43-.07.16-.48.1-.49.28.16.53.4,1.08,0,1.56.44.71.59,1.12,0,1.7l0,0,.08,0a.22.22,0,0,1,0,.08c.36.44.38,1.2,0,1.46h0a7.56,7.56,0,0,0,0,2c.08.24-.19.26-.48.28A.43.43,0,0,1,1016.8,297.43Zm-.31-38.44c.07,0-.11-.22-.24-.14S1016.36,259.06,1016.49,259Zm.45,2c.07,0-.11-.22-.24-.15S1016.82,261.05,1016.94,261Zm.07,13.61c-.59.47.81-.34,0,0Zm.18,4.25a2.62,2.62,0,0,0,0-.28c-.24,0-.29-.12-.48-.14C1016.74,278.64,1016.68,278.91,1017.19,278.84Zm-.26,1.85c.13,0,.28-.12,0-.15C1016.8,280.54,1016.66,280.66,1016.93,280.69Zm-.79,5.24c.07,0-.11-.22-.23-.14S1016,286,1016.14,285.93Zm-.5-17c-.12.07-.3-.1-.24-.14S1015.71,268.87,1015.64,268.91Zm-.38,11.34c-.16-.19.16-.31.24-.14s0,.11,0,.14C1015.68,280.47,1015.34,280.36,1015.26,280.25Z"/><path d="M1016,89.44h1.64a1.26,1.26,0,0,0,.46,1.22c-.49.5.49,1-.49,1,.06.23.48.15.48.43.2.81-.59.74-.73,1.25,0,1,.35,1.26-.25,1.89a1.38,1.38,0,0,1,.22,1.68.73.73,0,0,1-.22-.09,2,2,0,0,1,.1.39c0,.18-.6,1.07,0,1.47-.1.68-.95,1.09,0,1.26.09.51-.45.46-.25,1.05s.21,1.49.7,1.9c-.61.37.14,2-.5,2.31.65,1.46-.13,2.73.69,3.36-.27.25-.27.75-.25,1.26-.9-.1-.35,1.1-1,1.26.21.31.36.67,1,.64a2.73,2.73,0,0,0-.26,2.1c-2.13-.09.46,1.6-1,1.88.24.22.47.43.72.64a6.78,6.78,0,0,0,.2,4c-.58.94.25,1.93-.5,2.52,1.42,1.32,0,3.8.91,5.47a.58.58,0,0,1-.48.63c.48.68.27.74.47,1.48-.51.53-1.41.73-1.46,1.67,0,.45.85.1,1.2.22.06,1.32-.65,2.67.21,3.78a1.18,1.18,0,0,1-.73.63c1,.41,0,1.5-.49,1.89,0,.26.47.21.48,0,.53.29.21,1.58-.26,1.68,0,.24.24.12.24,0,.11,1.1.63,2.36,0,3.57.08.28.42.34.47.64a6.88,6.88,0,0,0,.21,4.62,1.52,1.52,0,0,0-.49.63c0,.38.29.45.23.84.17.58-.48.42-.49.84-.11.66.65.56.72,1.06.16,1.87.08,4,.67,5.47a6.59,6.59,0,0,0-.49,1.72H1016a.67.67,0,0,1,.2-.68c-.08-.28-.42-.34-.47-.64.13-.3-.28-1.09.25-1-.09-.27-.43-.33-.48-.63-.21-1.92.41-2.86.51-4h.48c0-.37-.63-1.23,0-1.47-.63-1.21-.34-1.71-.94-2.95.35,0,.09-.63.49-.63-.5-.61-.44-1.71-.7-2.52-.1-.44.17-.56.25-.84-.07-.7-.67-1.61-.22-2.11-.13-1.54-.61-3.24,0-5-.07-.5-.37-.79-.23-1.48.2,0,.24.22.48.22.37-.89-.62-1.67-.22-1.89,0-.21-.3-.17-.48-.22-.16-.56.5-.4.72-.62-.3-.26-.09-.8.25-1a9.34,9.34,0,0,0-.95-.43c-.07-.55.33-.69,1-.62,0-.36,0-.71,0-1.06-.61-.76,0-1.3-.94-1.68.07-.13.6-.81,0-.84a8.45,8.45,0,0,0,1-1.26c-.54-.43-.48-1.4-.94-1.9a3.17,3.17,0,0,1,1-2.09c-.76-.48-.56-2.22,0-2.74-.06-.22-.48-.14-.48-.42a11.08,11.08,0,0,0-.21-2.52c.34,0,.67,0,.72-.21.07-.43-.7,0-.72.21-.85-.37.6-.42.48-.84a.66.66,0,0,0-.72.41c-.29-2-.16-3.43-.43-5.67-.15-.49,1.42-1,.25-1,0-.21.29-.16.48-.21.34-.07,0-.37-.24-.42.24-.28.65-.41.73-.84-.28,0-.43,0-.48.21-.41-.14-.15-.49.24-.42,0-.21-.29-.17-.48-.21.72-1,0-1.81.75-2.94,0-.24-.24-.12-.24,0-.56-.89.39-1.64.75-3.15,0-.54-.9-.35-1.2-.64.06-.23.48-.14.48-.42a3.12,3.12,0,0,1,0-2.31c-.44-1-.59-1.66,0-2.52a.21.21,0,0,1,0-.06l-.09,0v-.11a2.16,2.16,0,0,1,0-2.17h0a16.46,16.46,0,0,0,0-3c-.09-.36.19-.4.48-.42A.66.66,0,0,1,1016,89.44Zm.31,57c-.07.06.11.32.24.21S1016.41,146.34,1016.29,146.44Zm-.46-2.94c-.06.05.12.32.24.21S1016,143.39,1015.83,143.5Zm-.06-20.18c.58-.71-.81.5,0,0Zm-.19-6.31v.42c.24,0,.28.17.48.21C1016,117.31,1016.09,116.91,1015.58,117Zm.27-2.73c-.14,0-.28.17,0,.21S1016.12,114.32,1015.85,114.28Zm.78-7.78c-.06.06.12.32.24.22S1016.76,106.4,1016.63,106.5Zm.51,25.23c.12-.1.3.16.23.22S1017.07,131.79,1017.14,131.73Zm.38-16.81c.16.28-.17.47-.24.21,0-.06,0-.16,0-.21C1017.1,114.6,1017.43,114.76,1017.52,114.92Z"/><path d="M828.76,297.43h-1.65a.75.75,0,0,0-.46-.84c.5-.34-.49-.68.49-.73-.06-.15-.48-.1-.48-.29-.2-.56.6-.51.73-.87.05-.72-.34-.87.26-1.31-.39-.35-.6-.71-.22-1.17l.22.07a1.16,1.16,0,0,1-.11-.27c0-.13.6-.74,0-1,.1-.47,1-.76,0-.87-.1-.35.44-.32.25-.73s-.22-1-.71-1.31c.62-.26-.14-1.36.5-1.6-.65-1,.14-1.89-.69-2.34.28-.17.28-.51.25-.87.91.07.36-.76,1-.87a1,1,0,0,0-.95-.44c.46-.55.35-.79.26-1.46,2.13.06-.47-1.1,1-1.3l-.71-.44a3.32,3.32,0,0,0-.21-2.77c.59-.65-.25-1.33.5-1.75-1.41-.91,0-2.63-.91-3.79,0-.25.18-.37.49-.43-.48-.47-.27-.52-.47-1,.51-.37,1.4-.51,1.45-1.16.05-.32-.85-.07-1.19-.15-.07-.92.64-1.86-.21-2.62a1.13,1.13,0,0,1,.72-.44c-1-.28,0-1,.5-1.31-.06-.18-.48-.15-.48,0-.54-.2-.21-1.09.25-1.16,0-.17-.24-.08-.24,0-.1-.76-.62-1.64,0-2.48-.09-.19-.42-.23-.48-.44a3.39,3.39,0,0,0-.2-3.2,1.24,1.24,0,0,0,.49-.44c0-.26-.29-.31-.24-.58-.17-.4.48-.29.49-.58.12-.46-.64-.39-.71-.73-.16-1.3-.08-2.75-.67-3.79a3.59,3.59,0,0,0,.48-1.2h1.65a.41.41,0,0,1-.21.48c.09.19.43.23.48.44-.13.21.27.75-.25.72.08.2.42.23.48.44.2,1.33-.42,2-.52,2.77h-.48c0,.26.64.85,0,1,.63.84.34,1.19.93,2-.34,0-.09.43-.48.43.49.43.43,1.19.7,1.75.09.31-.17.39-.25.58.06.49.67,1.12.22,1.46.13,1.07.6,2.25,0,3.5.07.34.37.55.22,1-.19,0-.23-.15-.47-.15-.37.62.62,1.16.22,1.31,0,.14.29.12.48.15.16.39-.5.28-.73.43.31.18.1.55-.25.73.36.08.28.15,1,.3.07.38-.34.47-1,.43,0,.24,0,.48,0,.73.6.53,0,.9.94,1.17-.07.08-.6.55,0,.58a8.12,8.12,0,0,0-1,.87c.55.3.48,1,1,1.31-.1.7-.34.87-1,1.45.76.34.56,1.54,0,1.9,0,.16.47.1.47.29-.17.73.21,1.13.22,1.75-.34,0-.68,0-.72.14s.69,0,.72-.14c.84.25-.61.29-.49.58.41,0,.63-.1.73-.29.29,1.39.16,2.38.43,3.94.14.33-1.43.67-.25.72,0,.15-.3.12-.48.15-.34,0,0,.25.23.29-.24.19-.65.28-.72.58.27,0,.42,0,.48-.14.4.09.14.33-.25.29,0,.14.3.11.48.14-.71.71.05,1.25-.74,2,0,.16.24.08.24,0,.56.61-.4,1.13-.75,2.18,0,.38.89.24,1.19.44-.06.16-.47.1-.48.29.16.54.4,1.11,0,1.6.43.73.59,1.16,0,1.75l0,0,.08,0s0,.05,0,.08c.36.45.38,1.24,0,1.5h0a7.94,7.94,0,0,0,0,2.06c.08.25-.19.28-.49.29A.47.47,0,0,1,828.76,297.43ZM828.45,258c.06,0-.12-.23-.24-.15S828.32,258,828.45,258Zm.45,2c.07,0-.11-.23-.24-.15S828.78,260.06,828.9,260Zm.07,14c-.59.48.81-.35,0,0Zm.18,4.37c0-.1,0-.2,0-.29-.24,0-.29-.12-.48-.15C828.7,278.13,828.64,278.4,829.15,278.34Zm-.26,1.89c.13,0,.27-.12,0-.15S828.62,280.2,828.89,280.23Zm-.79,5.39c.07,0-.11-.23-.23-.15S828,285.69,828.1,285.62Zm-.5-17.48c-.12.07-.3-.11-.24-.15S827.67,268.1,827.6,268.14Zm-.39,11.65c-.15-.2.17-.33.25-.15s0,.11,0,.15C827.63,280,827.3,279.89,827.21,279.79Z"/><path d="M568.13,297.43h-1.64a1.94,1.94,0,0,0-.47-1.59c.5-.65-.49-1.29.49-1.37-.06-.3-.47-.19-.47-.56-.21-1.06.59-1,.73-1.64,0-1.37-.35-1.64.25-2.47a2.24,2.24,0,0,1-.22-2.21,1.55,1.55,0,0,1,.22.12,3.07,3.07,0,0,1-.1-.5c0-.24.6-1.41,0-1.93.1-.88,1-1.43,0-1.65-.09-.66.44-.59.25-1.37s-.21-1.95-.71-2.48c.62-.49-.14-2.57.5-3-.64-1.92.14-3.58-.69-4.41a2.6,2.6,0,0,0,.25-1.65c.91.13.36-1.43,1-1.64-.21-.41-.36-.88-1-.84a4.53,4.53,0,0,0,.26-2.74c2.13.11-.47-2.1,1-2.47-.23-.28-.47-.56-.71-.83a11.38,11.38,0,0,0-.21-5.23c.59-1.23-.24-2.52.51-3.3-1.42-1.72,0-5-.92-7.16a.76.76,0,0,1,.49-.82c-.48-.88-.27-1-.47-1.93.51-.7,1.4-1,1.46-2.19,0-.59-.85-.13-1.2-.28-.07-1.73.64-3.51-.21-5a1.31,1.31,0,0,1,.73-.81c-1-.54,0-2,.49-2.48a.24.24,0,0,0-.48,0c-.53-.38-.21-2.07.26-2.2,0-.31-.24-.15-.24,0-.11-1.44-.63-3.09,0-4.68-.09-.36-.42-.43-.48-.83a11.54,11.54,0,0,0-.2-6.05,2,2,0,0,0,.49-.82c0-.49-.29-.58-.23-1.1-.17-.76.48-.55.48-1.1.12-.86-.64-.73-.71-1.38-.16-2.46-.08-5.19-.67-7.16a10.76,10.76,0,0,0,.49-2.25h1.64a1.07,1.07,0,0,1-.2.89c.08.36.42.44.47.83-.13.4.27,1.43-.25,1.38.09.36.42.43.48.82.21,2.51-.41,3.74-.52,5.23h-.48c0,.49.64,1.61,0,1.93.63,1.58.34,2.23.94,3.86-.35.06-.09.82-.49.82.49.81.43,2.24.7,3.31.1.57-.17.72-.25,1.09.06.91.67,2.11.22,2.76.13,2,.6,4.24,0,6.6a5.27,5.27,0,0,1,.23,1.93c-.2-.06-.24-.28-.48-.28-.37,1.16.62,2.18.22,2.47,0,.27.29.22.48.28.16.74-.5.53-.72.82.3.33.09,1-.25,1.38.35.15.28.27,1,.55.07.73-.34.9-1,.82,0,.46,0,.92,0,1.38.61,1,0,1.7.94,2.2-.07.17-.6,1.06,0,1.1a11.17,11.17,0,0,0-1,1.65c.54.56.47,1.83.94,2.48a4.85,4.85,0,0,1-1,2.74c.76.63.56,2.9,0,3.58.06.3.47.19.47.55a19,19,0,0,0,.22,3.31c-.34,0-.68-.05-.72.27-.08.55.69-.05.72-.27.84.48-.6.55-.49,1.09a.66.66,0,0,0,.73-.54c.29,2.61.16,4.49.43,7.43.15.64-1.42,1.27-.25,1.37,0,.27-.29.21-.48.27-.34.1,0,.49.24.56-.25.36-.66.53-.73,1.09.28.05.43-.06.48-.27.41.18.15.63-.24.55,0,.27.29.21.48.28-.72,1.34.05,2.36-.75,3.84,0,.31.24.16.24,0,.56,1.16-.4,2.15-.75,4.12,0,.71.89.45,1.2.84-.06.3-.48.18-.49.54a5.38,5.38,0,0,1,0,3c.44,1.38.59,2.17,0,3.3a.3.3,0,0,1,0,.08.24.24,0,0,0,.09,0v.15a3.57,3.57,0,0,1,0,2.83h0a28.35,28.35,0,0,0,0,3.9c.09.47-.19.52-.48.55A1,1,0,0,1,568.13,297.43Zm-.31-74.58c.07-.08-.11-.42-.24-.28S567.69,223,567.82,222.85Zm.45,3.85c.07-.07-.11-.42-.24-.28S568.15,226.84,568.27,226.7Zm.07,26.41c-.59.92.81-.66,0,0Zm.19,8.25v-.55c-.24,0-.28-.22-.48-.27C568.07,261,568,261.49,568.53,261.36Zm-.27,3.58c.14,0,.28-.22,0-.28S568,264.88,568.26,264.94Zm-.78,10.17c.06-.08-.12-.42-.24-.28S567.35,275.25,567.48,275.11Zm-.51-33c-.12.14-.3-.21-.24-.28S567,242,567,242.1Zm-.38,22c-.16-.37.16-.62.24-.27,0,.07,0,.2,0,.27C567,264.52,566.68,264.3,566.59,264.1Z"/><path d="M1279.4,89v1.65a1.23,1.23,0,0,0-1.21.46c-.49-.49-1,.49-1-.49-.23.06-.14.48-.42.48-.81.2-.74-.59-1.24-.73-1-.05-1.25.35-1.88-.26a1.34,1.34,0,0,1-1.66.22.85.85,0,0,1,.09-.22,1.55,1.55,0,0,1-.38.11c-.19,0-1.07-.6-1.46,0-.67-.09-1.08-1-1.25,0-.5.1-.45-.44-1-.24s-1.47.21-1.88.7c-.36-.62-1.94.14-2.29-.5-1.45.65-2.7-.14-3.33.69-.24-.28-.73-.28-1.25-.25.1-.91-1.08-.36-1.24-1-.31.2-.66.35-.63.95a2.69,2.69,0,0,0-2.08-.25c.08-2.14-1.59.46-1.87-1l-.63.71a6.69,6.69,0,0,0-4,.21c-.92-.59-1.9.25-2.49-.5-1.3,1.41-3.76,0-5.42.91a.57.57,0,0,1-.62-.49c-.67.49-.74.27-1.46.47-.53-.51-.73-1.4-1.66-1.45-.45,0-.1.85-.21,1.2-1.31.06-2.66-.65-3.75.2a1.12,1.12,0,0,1-.62-.72c-.41,1-1.49,0-1.87-.5-.26.06-.22.48,0,.48-.28.54-1.56.21-1.66-.25-.24,0-.12.24,0,.24-1.09.1-2.34.63-3.54,0-.27.08-.33.42-.63.47a6.71,6.71,0,0,0-4.58.2,1.47,1.47,0,0,0-.62-.48c-.37,0-.44.28-.84.23-.57.17-.41-.48-.83-.49-.65-.12-.55.64-1,.71-1.86.16-3.93.08-5.42.68a6.15,6.15,0,0,0-1.71-.49V89a.69.69,0,0,1,.68.21c.28-.09.33-.42.63-.48.3.14,1.08-.27,1,.25.27-.08.33-.42.63-.47,1.9-.21,2.82.41,4,.51v.48c.37,0,1.21-.63,1.45,0,1.2-.63,1.7-.33,2.93-.93,0,.35.62.09.62.48.61-.49,1.69-.43,2.5-.69.44-.1.55.16.83.24.69-.06,1.6-.67,2.08-.22,1.53-.13,3.22-.6,5,0,.49-.07.78-.37,1.46-.22,0,.19-.21.24-.21.47.88.37,1.65-.62,1.87-.22.21,0,.17-.29.21-.48.57-.16.4.5.62.73.25-.3.79-.1,1,.25a8.81,8.81,0,0,0,.43-1c.55-.07.68.34.61,1h1c.76-.61,1.29,0,1.67-1,.12.07.79.6.83,0a9.82,9.82,0,0,0,1.24,1c.43-.55,1.39-.48,1.88-1a3.24,3.24,0,0,1,2.08,1c.48-.76,2.19-.55,2.7,0,.23-.06.15-.48.42-.48a10.82,10.82,0,0,0,2.5-.22c0,.34,0,.68.21.72.42.08,0-.69-.21-.72.37-.84.42.61.83.49a.64.64,0,0,0-.41-.72c2-.29,3.4-.17,5.63-.44.48-.14,1,1.43,1,.25.2,0,.15.3.2.49s.37,0,.42-.24c.27.24.4.65.83.73,0-.28,0-.43-.21-.49.14-.4.48-.14.42.25.2,0,.16-.3.21-.48,1,.71,1.78,0,2.91.74.23,0,.11-.24,0-.24.88-.56,1.62.4,3.12.75.53,0,.34-.89.63-1.19.23.06.14.48.41.48a3.12,3.12,0,0,1,2.29,0c1-.43,1.65-.59,2.5,0l.06,0,0-.08h.11a2.1,2.1,0,0,1,2.14,0h0a16.24,16.24,0,0,0,2.95,0c.36-.08.39.19.41.49A.68.68,0,0,1,1279.4,89Zm-56.46.32c0-.07-.31.11-.21.23S1223.05,89.47,1222.94,89.35Zm2.92-.46c-.06-.07-.31.11-.21.24S1226,89,1225.86,88.89Zm20-.07c.69.59-.5-.81,0,0Zm6.25-.18h-.42c0,.25-.17.29-.21.48C1251.8,89.09,1252.19,89.15,1252.1,88.64Zm2.7.26c0-.13-.17-.27-.21,0S1254.76,89.17,1254.8,88.9Zm7.7.79c-.06-.07-.32.11-.21.24S1262.61,89.81,1262.5,89.69Zm-25,.5c.11.13-.15.31-.21.24S1237.46,90.12,1237.51,90.19Zm16.66.39c-.29.15-.47-.17-.21-.25.06,0,.15,0,.21,0C1254.48,90.16,1254.32,90.49,1254.17,90.58Z"/><path d="M124.36,87.77V86.13a1.1,1.1,0,0,0,1.11-.46c.45.49.89-.49,1,.49.21-.06.13-.48.38-.48.74-.2.68.59,1.14.73.95,0,1.14-.35,1.71.26a1.17,1.17,0,0,1,1.53-.23.93.93,0,0,1-.08.22,1.49,1.49,0,0,1,.35-.1c.16,0,1,.6,1.33,0,.62.1,1,1,1.14,0,.46-.09.41.45,1,.25s1.35-.21,1.72-.7c.34.61,1.78-.14,2.1.5,1.33-.65,2.47.14,3.05-.69.22.27.67.27,1.14.25-.09.9,1,.35,1.14,1,.28-.21.6-.36.58-1,.71.46,1,.35,1.9.26-.08,2.13,1.45-.46,1.71,1,.19-.24.39-.47.57-.72a5.54,5.54,0,0,0,3.62-.2c.85.58,1.75-.25,2.29.5,1.19-1.42,3.44,0,5-.91a.55.55,0,0,1,.57.48c.61-.48.67-.27,1.33-.47.49.52.66,1.41,1.52,1.46.41,0,.09-.85.2-1.2,1.19-.06,2.42.65,3.43-.21a1.12,1.12,0,0,1,.56.73c.38-1,1.37,0,1.71.5.24-.06.2-.48,0-.48.26-.54,1.43-.22,1.52.25.22,0,.11-.24,0-.24,1-.11,2.14-.63,3.24,0,.25-.08.3-.42.57-.47a5.72,5.72,0,0,0,4.2-.21,1.35,1.35,0,0,0,.57.49c.34,0,.4-.29.76-.23.52-.17.38.48.76.49.6.11.51-.65,1-.72,1.7-.16,3.59-.08,4.95-.67a5.68,5.68,0,0,0,1.57.49v1.64a.59.59,0,0,1-.63-.2c-.25.08-.3.42-.57.47-.28-.13-1,.28-.95-.24-.25.08-.3.42-.58.47-1.73.21-2.58-.41-3.61-.51v-.48c-.34,0-1.11.63-1.33,0-1.1.63-1.55.34-2.68.94,0-.35-.56-.09-.56-.49-.56.5-1.56.44-2.3.7-.39.1-.5-.17-.76-.25-.63.07-1.46.68-1.9.23-1.4.12-2.94.6-4.57,0-.45.08-.72.37-1.34.23,0-.19.19-.24.19-.48-.8-.37-1.51.62-1.71.22-.19,0-.15.3-.2.48-.51.16-.36-.5-.56-.72-.23.3-.72.09-1-.25a7.62,7.62,0,0,0-.39,1c-.5.07-.62-.33-.57-1h-1c-.69.61-1.18,0-1.53,1-.12-.07-.73-.61-.76,0a7.5,7.5,0,0,0-1.14-1c-.39.54-1.26.48-1.72.94a2.79,2.79,0,0,1-1.9-1c-.43.76-2,.56-2.47,0-.21.06-.14.48-.39.48-.95-.17-1.47.21-2.29.21,0-.34,0-.67-.18-.72-.39-.07,0,.7.18.72-.33.85-.38-.6-.76-.48a.66.66,0,0,0,.38.72c-1.81.29-3.11.16-5.15.43-.44.15-.87-1.42-1-.25-.18,0-.14-.29-.18-.48s-.34,0-.39.24c-.25-.24-.37-.65-.75-.73,0,.28,0,.43.18.48-.12.41-.44.15-.38-.24-.18,0-.15.29-.19.48-.93-.72-1.63.05-2.66-.75-.22.05-.11.24,0,.24-.81.57-1.49-.39-2.86-.75-.49,0-.31.9-.58,1.2-.2-.06-.12-.48-.37-.48a2.64,2.64,0,0,1-2.1,0c-.95.43-1.51.58-2.29,0a.1.1,0,0,1,0,0,.29.29,0,0,0,0,.09h-.11a1.79,1.79,0,0,1-2,0h0a13.61,13.61,0,0,0-2.7,0c-.32.09-.35-.19-.37-.48A.58.58,0,0,1,124.36,87.77ZM176,87.46c.06.07.29-.11.2-.24S175.93,87.34,176,87.46Zm-2.67.46c.06.06.29-.12.2-.24S173.26,87.79,173.35,87.92ZM155.06,88c-.63-.58.46.81,0,0Zm-5.71.19h.38c0-.24.15-.28.19-.48C149.62,87.71,149.26,87.66,149.35,88.17Zm-2.48-.27c0,.14.15.28.19,0S146.91,87.63,146.87,87.9Zm-7-.78c0,.07.29-.11.19-.24S139.73,87,139.83,87.12Zm22.86-.51c-.1-.12.14-.3.19-.23S162.74,86.68,162.69,86.61Zm-15.24-.38c.26-.16.43.17.19.24,0,0-.14,0-.19,0C147.16,86.65,147.31,86.32,147.45,86.23Z"/><path d="M686.88,457.78l-.93-1.36a5.15,5.15,0,0,0,2-1.94c1.21-.23,1.56-1.67,2.24-1,.39-.34,0-.58.52-.93,1.42-1.22,1.73-.47,2.77-1,2-1.3,2.15-1.9,3.67-2.22v1.15a6.43,6.43,0,0,1-3.29-2,1,1,0,0,1,.3-.06c-.34-.17-.63-.31-.78-.41-.35-.24-1.68-1.88-2.75-1.9-1.22-1-1.51-2.19-2.36-1.63-1-.57-.6-1-1.83-1.55s-2.9-1.74-4-1.86c-.35-1-3.76-2.4-4-3.38a19.32,19.32,0,0,1-3.38-2l-1.23-.85,1.23-.83c1.33-.9,2.44-1.59,2.86-2.46a7.45,7.45,0,0,0,2.51-1.41c.32.88,2.25-1.11,2.9-.81.46-.56,1-1.15.65-1.6a13.34,13.34,0,0,0,4.09-2.49c1,1.87,2.74-2.44,4.08-1.61.28-.47.54-.94.79-1.41a30.93,30.93,0,0,0,4.42-2.81v.76a30.53,30.53,0,0,0-3.38-1.85c-1.43-1.69-3.75-2.27-4.44-3.65-3.27-.53-7.11-4.91-10.78-6.28-.67-.45-.91-.85-.9-1.21a11.31,11.31,0,0,1-2.91-1.45l-1.4-.74,1.4-1.27.09-.09c1.29-.26,2.16.22,4-.94.87-.55-.3-.83-.27-1.27,2.44-1.75,5.38-2.91,7-5a2.23,2.23,0,0,1,1.58-.21c.23-1.32,2.82-1.93,3.82-2,.47-.38.14-.66-.26-.4.23-.81,2.84-2.2,3.29-1.94.42-.35.09-.35-.13-.2,1-.77,2.08-1.69,3.21-2.54v1.17a15,15,0,0,1-3.15-2.53c-.57-.29-.86-.09-1.46-.43a34.64,34.64,0,0,0-8.78-5.77,4.55,4.55,0,0,0-.91-1.21c-.68-.51-1-.33-1.71-.89-1.17-.6-.51-.93-1.29-1.48-1.17-.94-1.41-.19-2.38-.77L675,375.63l-1.38-.89,1.38-1a70.53,70.53,0,0,0,7.42-5.8,30.67,30.67,0,0,0,3.51-1.82l.93,1.36a3,3,0,0,1-1.4.71c-.47.43-.39.78-.92,1.21-.64.28-1.88,1.62-2.11,1.14-.47.42-.38.78-.92,1.21A35.21,35.21,0,0,1,676,375.2v-1c.67.58,1.29,1.12,2,1.64l-.28.39c.7.49,2.66,1.05,2.75,1.9,2.63,1,3.39,1.92,6.06,3-.11.34,1.12.87.9,1.2,1.44.39,3.45,1.84,5.13,2.67.88.49,1,.85,1.44,1.28,1.33.84,3.39,1.52,4.06,2.52l.17.1,1.23.78-1.23.92c-2.78,2.07-5.66,4.58-9.33,6.33a14.89,14.89,0,0,1-2.64,2.08c0-.21.27-.47.13-.66-1.87.83-2.78,2.65-3.42,2.61-.38.27-.15.45-.13.67-1,.86-1,.1-1.58.2a3.12,3.12,0,0,1-2.11,1.15c0,.44-.24.5-.26,1.33-1,.77-1.48.61-1.72,0l-1.26.86v-.73l.7.49c1.78.48,2.43,1.69,3.7,1.39.2.22,1.17,1.53,1.57,1.08a27.87,27.87,0,0,0,1.8,2.41c1.13.11,2.9,1.4,4.1,1.66a12.78,12.78,0,0,1,3.37,3.5c1.34,0,4.47,2.39,5.11,3.53.46.25.55-.2,1.07.15a9.37,9.37,0,0,0,.76.57l.94.67-.94.62c-1.54,1-2.38,1.94-3.81,2.92-.15-.3-.31-.61-.79-.33-.84.49.46.52.79.33-.21,1.17-1.13,0-1.84.68.21.35.63.32,1.19.06-3.58,2.8-6.34,4.54-10.41,7.65-.83.75-2.62.07-2.11,1.14-.38.26-.46,0-.66-.13s-.7.46-.65.74a5,5,0,0,0-2,.47c.09.28.32.3.66.13,0,.52-.83.74-.92.34-.39.27-.15.45-.13.67a7.1,7.1,0,0,0-1.25.52v-1.54c1.32,1.15,2.81,1.72,4.15,3.42.48.27.36,0,.14-.2,2,.67,2.85,2.43,5.48,4.66,1,.68,1.15-.29,1.88-.16.39.34,0,.57.5.93a15.88,15.88,0,0,1,4.33,3c2.22,1,3.45,1.65,4.72,3.25l.13.05.1,0,.21.14.21.09.9.37-.9.94a10.39,10.39,0,0,1-3.92,2.6h0c-2.15,1.39-4.18,2.69-5.6,3.8-.62.53-.85.35-1,.14A2.6,2.6,0,0,1,686.88,457.78Zm2.77-73.62c-.07-.13-.66-.32-.53-.08S689.78,384.4,689.65,384.16Zm5.78,3.41c-.07-.13-.66-.32-.53-.08S695.56,387.81,695.43,387.57Zm-6.1,25.86c1,1.38-.49-1.31,0,0Zm5.61,9.28.79-.54c-.13-.2.16-.46.13-.67C695.25,421.94,694.47,422.41,694.94,422.71ZM689.67,426c.07.11.47,0,.4-.27C690,425.62,689.6,425.72,689.67,426Zm-13.29,9.73c-.07-.13-.66-.31-.53-.07S676.51,436,676.38,435.73Zm1.31-33.22c-.27,0,.12-.45.27-.47S677.84,402.49,677.69,402.51Zm12.24,21.28c.44-.49,1-.47.53-.07-.1.09-.31.18-.4.27C689.56,424.55,689.68,424.07,689.93,423.79Z"/><path d="M686.24,297.43h1.64a1.25,1.25,0,0,0,.46,1.21c-.49.5.49,1-.48,1,0,.23.47.15.47.42.2.81-.59.74-.73,1.25,0,1,.35,1.24-.25,1.87a1.36,1.36,0,0,1,.22,1.67.85.85,0,0,1-.22-.09,2,2,0,0,1,.1.39c0,.18-.6,1.06,0,1.46-.1.67-1,1.08,0,1.25.09.5-.44.45-.25,1s.21,1.47.7,1.88c-.61.37.15,1.94-.5,2.29.65,1.45-.13,2.71.7,3.34-.28.24-.28.73-.26,1.25-.9-.1-.35,1.09-1,1.24.21.31.36.67,1,.64a2.68,2.68,0,0,0-.26,2.08c-2.13-.09.46,1.59-1,1.87l.72.63a6.68,6.68,0,0,0,.2,4c-.58.93.25,1.91-.5,2.5,1.42,1.31,0,3.77.92,5.43a.59.59,0,0,1-.49.62c.48.67.27.74.47,1.46-.51.53-1.4.73-1.46,1.66,0,.45.85.1,1.2.22.07,1.31-.64,2.66.21,3.75a1.14,1.14,0,0,1-.73.62c1,.41,0,1.5-.49,1.88,0,.26.47.21.48,0,.53.29.21,1.57-.26,1.67,0,.23.24.11.24,0,.11,1.09.63,2.34,0,3.54.08.28.42.33.48.63a6.73,6.73,0,0,0,.2,4.59,1.49,1.49,0,0,0-.49.62c0,.38.29.44.23.84.17.57-.48.41-.48.83-.12.65.64.55.71,1,.16,1.86.08,3.93.67,5.42a6.51,6.51,0,0,0-.49,1.71h-1.64a.68.68,0,0,1,.2-.68c-.08-.27-.42-.33-.47-.63.13-.3-.27-1.08.25-1-.09-.27-.42-.33-.48-.63-.21-1.9.41-2.83.52-4h.48c0-.37-.64-1.22,0-1.46-.63-1.2-.34-1.7-.94-2.93.35,0,.09-.62.49-.62-.5-.61-.43-1.7-.7-2.51-.1-.43.17-.55.25-.83-.07-.69-.67-1.6-.22-2.09-.13-1.52-.6-3.21,0-5-.07-.49-.37-.78-.23-1.46.2,0,.24.21.48.21.37-.88-.62-1.65-.22-1.88,0-.2-.29-.16-.48-.21-.16-.56.5-.4.72-.62-.3-.25-.09-.79.25-1a8.94,8.94,0,0,0-1-.42c-.07-.55.33-.68,1-.62,0-.35,0-.7,0-1-.61-.77,0-1.3-.94-1.68.07-.13.6-.8,0-.83a8.36,8.36,0,0,0,1-1.25c-.54-.43-.47-1.38-.94-1.88a3.15,3.15,0,0,1,1-2.08c-.76-.48-.56-2.2,0-2.71-.06-.23-.47-.14-.48-.42a11,11,0,0,0-.21-2.5c.34,0,.68,0,.72-.21.08-.42-.69,0-.72.21-.84-.37.6-.42.48-.83a.64.64,0,0,0-.72.41c-.29-2-.16-3.4-.43-5.63-.15-.49,1.42-1,.25-1.05,0-.2.29-.16.48-.2.34-.07,0-.37-.24-.42.25-.28.66-.4.73-.83-.28,0-.43,0-.48.21-.41-.14-.15-.48.24-.42,0-.2-.29-.16-.48-.21.72-1-.05-1.79.75-2.91,0-.24-.24-.12-.24,0-.56-.87.39-1.62.75-3.12,0-.53-.9-.34-1.2-.63.06-.23.48-.14.49-.42a3.12,3.12,0,0,1,0-2.29c-.44-1-.59-1.65,0-2.5l0-.06-.09,0v-.11a2.12,2.12,0,0,1,0-2.15h0a16.24,16.24,0,0,0,0-3c-.09-.35.19-.39.48-.41A.66.66,0,0,1,686.24,297.43Zm.31,56.54c-.07.06.11.32.24.21S686.67,353.86,686.55,354Zm-.45-2.92c-.07.06.11.32.23.21S686.22,350.94,686.1,351.05ZM686,331c.58-.69-.81.5,0,0Zm-.19-6.25v.41c.24,0,.28.17.48.21C686.3,325.08,686.36,324.68,685.84,324.78Zm.27-2.71c-.14,0-.28.16,0,.2S686.38,322.11,686.11,322.07Zm.78-7.71c-.06.05.12.31.24.21S687,314.25,686.89,314.36Zm.51,25c.12-.11.3.15.24.21S687.33,339.44,687.4,339.38Zm.38-16.68c.16.28-.16.47-.24.21,0-.06,0-.16,0-.21C687.36,322.38,687.69,322.55,687.78,322.7Z"/><path d="M687.06,514h-1.64a.93.93,0,0,0-.47-1c.5-.4-.49-.79.49-.84-.06-.19-.47-.12-.47-.34-.21-.66.59-.6.73-1,0-.85-.35-1,.25-1.53-.39-.41-.6-.82-.22-1.35l.22.07a1.18,1.18,0,0,1-.1-.31c0-.15.6-.86,0-1.18.1-.55.95-.88,0-1-.09-.4.44-.36.25-.84s-.21-1.2-.71-1.53c.62-.29-.14-1.58.5-1.85-.64-1.19.14-2.2-.69-2.72.28-.19.28-.59.25-1,.91.08.36-.88,1-1a1,1,0,0,0-1-.51c.46-.64.35-.91.26-1.69,2.13.07-.47-1.29,1-1.52l-.71-.51a4.43,4.43,0,0,0-.21-3.22c.59-.75-.24-1.55.51-2-1.42-1.06,0-3.06-.92-4.41,0-.29.19-.43.49-.5-.48-.55-.27-.6-.47-1.19.51-.43,1.4-.59,1.46-1.34,0-.37-.85-.08-1.2-.18-.07-1.06.64-2.15-.21-3a1.09,1.09,0,0,1,.73-.51c-1-.33,0-1.21.49-1.52-.06-.21-.47-.17-.48,0-.53-.23-.21-1.27.26-1.35a.12.12,0,0,0-.24,0c-.11-.89-.63-1.91,0-2.88-.09-.22-.42-.27-.48-.51a4.5,4.5,0,0,0-.2-3.72,1.33,1.33,0,0,0,.49-.51c0-.3-.29-.36-.24-.68-.16-.46.49-.33.49-.67.12-.53-.64-.45-.71-.85-.16-1.51-.08-3.19-.67-4.4a4.55,4.55,0,0,0,.49-1.39h1.64a.49.49,0,0,1-.2.55c.08.23.42.27.47.51-.13.25.27.88-.25.85.09.22.42.27.48.51.21,1.54-.41,2.29-.52,3.21h-.48c0,.3.64,1,0,1.18.63,1,.34,1.38.94,2.37-.35,0-.09.51-.49.51.49.5.43,1.38.7,2,.1.36-.17.45-.25.68.06.56.67,1.29.22,1.69.13,1.24.6,2.61,0,4.06.07.4.37.64.23,1.19-.2,0-.24-.17-.48-.18-.37.72.62,1.35.22,1.53,0,.16.29.13.48.17.16.46-.5.32-.72.5.3.21.09.64-.25.85a9.83,9.83,0,0,0,.95.34c.07.45-.34.55-1,.5,0,.29,0,.57,0,.85.61.62,0,1.05.94,1.36-.07.1-.6.65,0,.67a7.1,7.1,0,0,0-1,1c.54.35.47,1.13.94,1.53-.1.81-.33,1-1,1.69.76.39.56,1.78,0,2.2.06.18.47.11.47.34-.17.84.21,1.31.22,2-.34,0-.68,0-.72.17s.69,0,.72-.17c.84.29-.6.34-.49.67.41,0,.63-.12.73-.33.29,1.61.16,2.76.43,4.57.15.39-1.42.78-.25.84,0,.17-.29.13-.48.17s0,.3.23.34c-.24.22-.65.33-.72.67.28,0,.43,0,.48-.16.41.11.15.39-.24.33,0,.17.29.14.48.17-.72.83,0,1.46-.75,2.37,0,.19.24.09.24,0,.56.71-.4,1.32-.75,2.53,0,.44.89.28,1.2.52-.06.18-.48.11-.49.33.16.63.4,1.29,0,1.86.44.85.59,1.34,0,2l0,.05.09,0v.09a1.46,1.46,0,0,1,0,1.75h0a10.67,10.67,0,0,0,0,2.39c.09.29-.19.32-.48.34A.5.5,0,0,1,687.06,514Zm-.31-45.87c.07,0-.11-.25-.24-.17S686.62,468.23,686.75,468.14Zm.45,2.37c.07,0-.11-.25-.24-.17S687.08,470.6,687.2,470.51Zm.07,16.24c-.59.57.81-.4,0,0Zm.19,5.08v-.34c-.24,0-.28-.14-.48-.17C687,491.59,686.94,491.91,687.46,491.83Zm-.27,2.2c.14,0,.28-.14,0-.17S686.92,494,687.19,494Zm-.78,6.25c.06,0-.12-.25-.24-.17S686.28,500.37,686.41,500.28ZM685.9,480c-.12.09-.3-.12-.24-.17S686,479.93,685.9,480Zm-.38,13.53c-.16-.23.16-.38.24-.17,0,.05,0,.13,0,.17C685.94,493.77,685.61,493.64,685.52,493.51Z"/><path d="M686.65,514.42v-1.64a67.75,67.75,0,0,0,10.28-.46c4.18.49,8.28-.49,8.84.49,1.93-.06,1.22-.48,3.57-.48,6.87-.2,6.27.59,10.59.73,8.82,0,10.58-.35,15.94.26a84.78,84.78,0,0,1,14.19-.23,3.85,3.85,0,0,1-.77.22c1.38,0,2.58-.1,3.25-.1,1.56,0,9.07.6,12.41,0,5.72.1,9.22.95,10.63,0,4.28-.09,3.83.45,8.85.25,5.17-.26,12.54-.21,16-.7,3.12.61,16.55-.14,19.48.5,12.37-.65,23,.13,28.4-.69,2.07.27,6.24.27,10.62.25-.84.9,9.24.35,10.58,1,2.6-.21,5.63-.36,5.37-1,6.69.46,9.57.35,17.71.26-.73,2.13,13.5-.46,15.9,1,1.82-.24,3.61-.47,5.35-.72,11,.39,24.82.2,33.7-.2,7.89.58,16.23-.25,21.24.5,11.09-1.42,32,0,46.13-.91,3,0,4.59.18,5.3.48,5.7-.48,6.26-.27,12.43-.47,4.5.51,6.16,1.41,14.1,1.46,3.84,0,.85-.85,1.84-1.2,11.14-.06,22.59.65,31.92-.21a21.52,21.52,0,0,1,5.28.73c3.46-1,12.69,0,15.92.49,2.23,0,1.81-.47,0-.47,2.42-.54,13.34-.22,14.16.25,2,0,1-.24,0-.24,9.27-.11,19.93-.63,30.14,0,2.33-.08,2.81-.42,5.34-.47,14.85.57,25.67.28,39-.21a50.72,50.72,0,0,0,5.29.49c3.17,0,3.76-.29,7.11-.23,4.84-.17,3.53.48,7.06.49,5.56.11,4.72-.65,8.9-.72,15.83-.16,33.41-.08,46.12-.67,3.77.17,9.37.44,14.54.49v1.64a39.67,39.67,0,0,1-5.78-.2c-2.34.08-2.81.42-5.35.47-2.56-.13-9.17.28-8.85-.24-2.33.08-2.8.42-5.34.47-16.15.21-24.07-.41-33.65-.51l0-.48c-3.17,0-10.35.63-12.41,0-10.21.63-14.41.34-24.87.94-.38-.35-5.28-.09-5.29-.49-5.2.5-14.44.44-21.31.7-3.71.1-4.68-.17-7.07-.25-5.87.07-13.59.68-17.74.22-13,.13-27.35.61-42.54,0-4.16.08-6.67.37-12.42.23.34-.19,1.79-.24,1.79-.48-7.49-.37-14.07.62-16,.22-1.72,0-1.39.3-1.8.48-4.77.16-3.4-.5-5.28-.72a41,41,0,0,1-8.85-.25c-1,.36-1.77.28-3.59.95-4.68.07-5.8-.33-5.27-1H1029c-6.47.61-11,0-14.23.95-1.08-.08-6.79-.61-7.09,0-3.14-.38-6.91-.67-10.58-1-3.65.54-11.78.48-16,.94a163.09,163.09,0,0,1-17.67-1c-4.06.76-18.68.56-23,0-1.93.06-1.23.48-3.57.48-8.87-.17-13.73.2-21.28.21.16-.34.33-.67-1.74-.72-3.59-.07.33.7,1.74.72-3.09.85-3.55-.6-7.07-.48-.1.41,1.28.62,3.51.72-16.84.29-28.92.16-47.89.43-4.1.15-8.17-1.42-8.85-.25-1.72,0-1.35-.29-1.74-.48a7.19,7.19,0,0,0-3.56.24,57.24,57.24,0,0,0-7-.73c-.3.28.37.43,1.75.48-1.18.41-4.09.15-3.54-.24-1.72,0-1.39.29-1.8.48-8.63-.72-15.2,0-24.77-.75-2,0-1,.24,0,.24-7.47.57-13.81-.39-26.55-.75-4.55,0-2.9.9-5.38,1.2-1.93-.06-1.18-.48-3.52-.48-6.52.16-13.5.4-19.5,0-8.87.43-14,.58-21.27,0l-.5,0c-.06,0-.18.06-.22.09h-.95a142.59,142.59,0,0,1-18.25,0h0c-9.5-.06-18.43-.14-25.11,0-3,.09-3.33-.19-3.52-.48C688.89,514.34,687.8,514.39,686.65,514.42Zm480.62-.31c.49.07,2.69-.11,1.78-.24C1168.57,513.81,1166.36,514,1167.27,514.11Zm-24.84.46c.48.06,2.69-.12,1.79-.24C1143.73,514.26,1141.52,514.44,1142.43,514.57Zm-170.17.06c-5.92-.58,4.24.81,0,0Zm-53.19.19h3.55c0-.24,1.45-.28,1.8-.48C921.63,514.36,918.27,514.31,919.07,514.82Zm-23-.27a2.55,2.55,0,0,0,1.77,0A2.55,2.55,0,0,0,896.05,514.55Zm-65.55-.78c.49.06,2.7-.11,1.79-.24C831.81,513.46,829.59,513.64,830.5,513.77Zm212.74-.51c-.91-.12,1.3-.3,1.78-.23C1045.93,513.15,1043.73,513.33,1043.24,513.26Zm-141.78-.38c2.39-.16,3.95.17,1.75.24-.49,0-1.32,0-1.77,0C898.74,513.3,900.13,513,901.46,512.88Z"/><path d="M686.65,513.6v1.65a59.78,59.78,0,0,0-9.75.46c-4-.5-7.86.49-8.38-.49-1.83.06-1.17.48-3.39.48-6.52.2-6-.6-10-.74-8.37,0-10,.35-15.12-.25a76.48,76.48,0,0,1-13.47.22,4.49,4.49,0,0,1,.74-.22c-1.31,0-2.45.1-3.09.11-1.48,0-8.6-.6-11.76,0-5.44-.1-8.75-.95-10.1,0-4,.1-3.63-.44-8.39-.25s-11.89.22-15.17.71c-3-.62-15.7.14-18.47-.5-11.74.65-21.83-.14-26.94.69a90.56,90.56,0,0,0-10.07-.25c.79-.91-8.77-.36-10-1-2.47.2-5.35.35-5.1.95a164.21,164.21,0,0,0-16.8-.26c.7-2.13-12.81.47-15.08-1-1.73.23-3.42.47-5.08.71-10.39-.39-23.54-.2-32,.21-7.49-.59-15.4.25-20.15-.5-10.52,1.41-30.4,0-43.77.91-2.87,0-4.34-.19-5-.49-5.41.48-5.94.27-11.79.47-4.27-.51-5.84-1.4-13.38-1.45-3.64,0-.8.85-1.74,1.19-10.57.07-21.43-.64-30.28.21a20,20,0,0,1-5-.72c-3.28,1-12,0-15.1-.5-2.12.06-1.72.47,0,.48-2.3.53-12.65.21-13.43-.26-1.91,0-1,.25,0,.25-8.79.1-18.9.62-28.59,0-2.21.09-2.67.42-5.07.48-14.08-.58-24.35-.29-37,.2a45.73,45.73,0,0,0-5-.49c-3,0-3.57.29-6.74.24-4.6.17-3.36-.48-6.7-.49-5.28-.12-4.48.64-8.45.71-15,.16-31.69.08-43.75.67-3.57-.17-8.88-.44-13.79-.48V513.6a38.4,38.4,0,0,1,5.48.2c2.22-.08,2.67-.42,5.08-.47,2.43.13,8.7-.27,8.39.25,2.21-.08,2.66-.42,5.07-.48,15.32-.2,22.83.42,31.92.52l0,.48c3,0,9.82-.64,11.78,0,9.68-.63,13.66-.34,23.59-.93.36.34,5,.09,5,.48,4.94-.49,13.7-.43,20.22-.7,3.52-.09,4.44.17,6.71.25,5.56-.06,12.88-.67,16.83-.22,12.33-.13,25.94-.6,40.35,0,3.95-.07,6.33-.37,11.78-.23-.33.2-1.7.24-1.7.48,7.1.37,13.35-.62,15.14-.22,1.63,0,1.32-.29,1.71-.48,4.52-.16,3.22.5,5,.73a35.85,35.85,0,0,1,8.4.25c.91-.36,1.68-.28,3.41-1,4.44-.07,5.5.34,5,1h8.41c6.14-.6,10.43,0,13.5-.94,1,.07,6.44.6,6.72,0,3,.37,6.56.66,10,1,3.47-.55,11.18-.48,15.19-1a149.24,149.24,0,0,1,16.76,1c3.85-.76,17.72-.56,21.86,0,1.83,0,1.16-.47,3.39-.47,8.41.17,13-.21,20.19-.22-.17.34-.32.68,1.64.72,3.41.08-.31-.69-1.64-.72,2.92-.84,3.35.61,6.69.49.1-.41-1.21-.63-3.32-.73,16-.29,27.43-.16,45.42-.43,3.9-.14,7.76,1.43,8.4.25,1.63,0,1.28.29,1.65.48a6.39,6.39,0,0,0,3.38-.23,50.12,50.12,0,0,0,6.69.72c.29-.28-.35-.42-1.66-.48,1.11-.4,3.88-.14,3.35.24,1.64,0,1.32-.29,1.71-.47,8.19.71,14.42-.06,23.5.74,1.91,0,.94-.24,0-.24,7.08-.56,13.1.4,25.18.75,4.32,0,2.76-.89,5.11-1.2,1.82.07,1.12.48,3.34.49,6.18-.16,12.8-.4,18.49,0,8.42-.43,13.29-.59,20.18,0l.48,0c.05,0,.17-.05.2-.08h.91a128.09,128.09,0,0,1,17.31,0h0c9,.06,17.48.14,23.82,0,2.86-.08,3.16.19,3.33.48A29,29,0,0,1,686.65,513.6Zm-455.92.31c-.46-.07-2.56.12-1.69.24C229.5,514.22,231.59,514,230.73,513.91Zm23.57-.45c-.47-.07-2.56.11-1.7.24C253.06,513.76,255.16,513.58,254.3,513.46Zm161.42-.07c5.61.59-4-.81,0,0Zm50.45-.18h-3.36c0,.24-1.38.29-1.71.48C463.74,513.66,466.93,513.72,466.17,513.21Zm21.84.26a2.37,2.37,0,0,0-1.68,0A2.37,2.37,0,0,0,488,513.47Zm62.18.79c-.46-.07-2.56.11-1.69.23C549,514.56,551.05,514.38,550.19,514.26Zm-201.8.5c.86.12-1.24.3-1.7.24C345.83,514.87,347.92,514.69,348.39,514.76Zm134.49.38c-2.26.16-3.75-.16-1.67-.24.48,0,1.26,0,1.69,0C485.46,514.72,484.14,515.06,482.88,515.14Z"/><path d="M124.78,87.36h-1.65a.79.79,0,0,0-.51-.87c.43-.42-.59-.6.37-.83-.1-.16-.5,0-.55-.2-.33-.5.43-.68.43-1.1a2.34,2.34,0,0,0-.41-.75c-.11-.18-.11-.35,0-.71a1.51,1.51,0,0,1-.66-.32.77.77,0,0,1-.27-.66.9.9,0,0,1,.21-.08l-.27-.17c-.09-.09-.14-1.07-.8-.85-.3-.44-.1-1.31-.76-.64-.37-.17,0-.58-.57-.67-.28,0-.57-.11-.85-.15a.92.92,0,0,0-.8.14c-.06-.71-1.44-.32-1.59-.94a4,4,0,0,1-1.58.16c-.45,0-.83,0-1,.5-.22-.25-.6-.2-1-.06-.08-.45-.31-.48-.57-.47s-.51.12-.68-.15a.9.9,0,0,0-.11,1.08c-.74-.16-1,.09-1.53.58-.58-.9-.8-.59-1-.21s-.24.89-.84.46a6.78,6.78,0,0,0,.16.88,3.06,3.06,0,0,0-1.5,2.79,1.16,1.16,0,0,0-.52,1c-.06.35-.09.65-.49.84a2,2,0,0,1,.51,1,6.7,6.7,0,0,1,0,1.11,2.33,2.33,0,0,0,.73,2.08c.1.25,0,.45-.29.63.67.28.47.42.93.81-.24.6-.9,1.25-.43,2,.22.34.71-.48,1-.62a3.15,3.15,0,0,1,.48.61c.16.21.31.42.48.62a1.34,1.34,0,0,0,1.38.48,1.35,1.35,0,0,1,.07.88c.38-.35.63-.23.82.06a3.21,3.21,0,0,1,.46,1c.23,0,.31-.4.15-.46.38-.43,1.27.12,1.3.57a.12.12,0,0,0,0-.24c1,.06,1.89-.46,2.94,0,.21-.12.2-.45.42-.55a3,3,0,0,0,3.16-1.64,1.3,1.3,0,0,0,.7.09c.25-.18.08-.46.35-.63.21-.42.57.1.82-.14.46-.33-.18-.76,0-1.11.76-1.21,1.39-2.77,1-3.94a2.63,2.63,0,0,0,.59-1.22h1.65a.6.6,0,0,1-.24.61c.07.24.42.33.43.61-.18.25.12,1-.4.9,0,.26.34.39.32.68a3.74,3.74,0,0,1-.91,2c-.39.44-.78.76-1.13,1.13l-.39-.28a4.19,4.19,0,0,0-.22.68c-.11.24-.28.42-.59.28-.3,1.2-.83,1.27-1.46,2.38-.21-.28-.54.23-.73-.12-.26.69-1.24,1.07-1.92,1.5-.38.2-.55,0-.82-.05a9.68,9.68,0,0,0-1,.45.94.94,0,0,1-.94,0l-1.14.08a8.31,8.31,0,0,1-1.21-.06A3.87,3.87,0,0,1,110.12,97c-.45-.12-.85,0-1.34-.49.14-.14.3-.09.43-.3-.48-.72-1.65-.42-1.56-.88-.14-.13-.31.11-.47.21-.53-.26,0-.62.07-.93-.37,0-.58-.49-.44-.89-.35.14-.34,0-1,.26-.4-.4-.11-.74.44-1-.15-.27-.33-.54-.47-.82a1.43,1.43,0,0,1-.7-.67c-.13-.23-.28-.4-.8-.41,0-.15.34-.92-.24-.8.27-.45.46-.92.71-1.35-.62-.31-.6-1.23-1-1.72.12-1,.43-1.23,1.18-1.85-.67-.58,0-2.19.82-2.3,0-.21-.36-.33-.25-.56.63-.77.62-1.42,1.18-2.09.24.24.49.47.67.34s-.54-.44-.67-.34c-.39-.82.72.11.88-.24a.62.62,0,0,0-.78-.22,7.55,7.55,0,0,1,1.93-1.9,17.06,17.06,0,0,1,2.57-1.45c.47-.29,1.28,1.14,1.09,0,.2,0,.21.25.29.43s.35,0,.36-.3c.31.21.48.57.87.62,0-.27-.08-.42-.24-.46.09-.42.46-.18.41.22.19,0,.14-.3.18-.49a2.55,2.55,0,0,0,1.36.36,1.67,1.67,0,0,1,1.31.6c.22,0,.16-.21.06-.24.94-.34,1.41.77,2.37,1.67.4.22.7-.62,1.09-.73.16.16-.14.47.08.61a5.19,5.19,0,0,1,1,.5,1.55,1.55,0,0,1,.62.88c1,.4,1.5.84,1.39,1.84l.07,0,.08,0,.06.09c.64.32,1.11,1.36.82,1.83h0c.29,1,.37,2,.53,2.7.1.33-.17.37-.46.4A.62.62,0,0,1,124.78,87.36Zm-6.44,9.06c.08,0,.22-.21.08-.29S118.21,96.33,118.34,96.42Zm-2.43,1.08c.06.06.27-.15.16-.26S115.8,97.39,115.91,97.5ZM104.49,86.19c.68-.57-.88.37,0,0Zm2.06-5.39-.24.31c.19.15.13.3.27.44C106.74,81.3,107,81.05,106.55,80.8Zm2-1.56c-.08-.11-.29-.13-.15.11S108.67,79.48,108.54,79.24ZM115.13,78c0-.06-.27.1-.18.23S115.22,78.09,115.13,78Zm-7.58,14.71c0-.14.32-.09.29,0S107.52,92.75,107.55,92.67Zm1.62-11.79a.15.15,0,1,1-.28-.08s.11-.06.12-.11C109.09,80.38,109.2,80.73,109.17,80.88Z"/><path d="M124.78,514h-1.65a.79.79,0,0,0-.51-.87c.43-.42-.59-.6.37-.83-.1-.16-.5,0-.55-.2-.33-.5.43-.68.43-1.1a2.34,2.34,0,0,0-.41-.75c-.11-.18-.11-.35,0-.71a1.51,1.51,0,0,1-.66-.32.77.77,0,0,1-.27-.66.9.9,0,0,1,.21-.08l-.27-.17c-.09-.09-.14-1.08-.8-.85-.3-.44-.1-1.31-.76-.64-.37-.17,0-.58-.57-.67-.28,0-.57-.11-.85-.15a.92.92,0,0,0-.8.14c-.06-.71-1.44-.32-1.59-.94a4,4,0,0,1-1.58.16c-.45,0-.83,0-1,.5-.22-.25-.6-.2-1-.06-.08-.45-.31-.48-.57-.47s-.51.12-.68-.15a.9.9,0,0,0-.11,1.08c-.74-.16-1,.09-1.53.57-.58-.89-.8-.58-1-.2s-.24.89-.84.45a6.63,6.63,0,0,0,.16.89,3.06,3.06,0,0,0-1.5,2.79,1.15,1.15,0,0,0-.52,1c-.06.35-.09.65-.49.84a2,2,0,0,1,.51,1,6.7,6.7,0,0,1,0,1.11,2.33,2.33,0,0,0,.73,2.08c.1.25,0,.45-.29.63.67.28.47.42.93.81-.24.6-.9,1.25-.43,1.94.22.35.71-.47,1-.61a3.15,3.15,0,0,1,.48.61c.16.21.31.42.48.62a1.34,1.34,0,0,0,1.38.48,1.35,1.35,0,0,1,.07.88c.38-.35.63-.23.82.06a3.21,3.21,0,0,1,.46,1c.23,0,.31-.4.15-.46.38-.43,1.27.12,1.3.57a.12.12,0,0,0,0-.24c1,.06,1.89-.46,2.94,0,.21-.12.2-.45.42-.55a3,3,0,0,0,3.16-1.64,1.3,1.3,0,0,0,.7.09c.25-.18.08-.46.35-.63.21-.42.57.1.82-.14.46-.33-.18-.76,0-1.11.76-1.21,1.39-2.77,1-3.94a2.63,2.63,0,0,0,.59-1.22h1.65a.6.6,0,0,1-.24.61c.07.24.42.33.43.61-.18.25.12,1-.4.9,0,.26.34.39.32.68a3.74,3.74,0,0,1-.91,2c-.39.44-.78.76-1.13,1.13l-.39-.28a4.19,4.19,0,0,0-.22.68c-.11.24-.28.42-.59.28-.3,1.2-.83,1.27-1.46,2.38-.21-.28-.54.23-.73-.13-.26.7-1.24,1.08-1.92,1.51-.38.2-.55,0-.82-.05a9.68,9.68,0,0,0-1,.45.94.94,0,0,1-.94,0l-1.14.08a10,10,0,0,1-1.21-.06,3.87,3.87,0,0,1-2.29-1.11c-.45-.13-.85,0-1.34-.49.14-.14.3-.09.43-.3-.48-.72-1.65-.42-1.56-.88-.14-.13-.31.11-.47.21-.53-.26,0-.62.07-.93-.37,0-.58-.49-.44-.89-.35.14-.34,0-1,.26-.4-.4-.11-.74.44-1-.15-.27-.33-.54-.47-.82a1.43,1.43,0,0,1-.7-.67c-.13-.23-.28-.4-.8-.41,0-.15.34-.92-.24-.8.27-.45.46-.92.71-1.35-.62-.31-.6-1.23-1-1.72.12-1,.43-1.23,1.18-1.85-.67-.58,0-2.19.82-2.3,0-.21-.36-.33-.25-.56.63-.77.62-1.42,1.18-2.09.24.24.49.47.67.34s-.54-.44-.67-.34c-.39-.82.72.11.88-.24a.62.62,0,0,0-.78-.22,7.55,7.55,0,0,1,1.93-1.9,17.06,17.06,0,0,1,2.57-1.45c.47-.29,1.28,1.14,1.09,0,.2,0,.21.25.29.43s.35,0,.36-.3c.31.21.48.57.87.62,0-.28-.08-.42-.24-.46.09-.42.46-.18.41.22.19,0,.14-.3.18-.49a2.55,2.55,0,0,0,1.36.36,1.67,1.67,0,0,1,1.31.6c.22,0,.16-.21.06-.24.94-.34,1.41.77,2.37,1.67.4.22.7-.62,1.09-.73.16.16-.14.47.08.61a5.19,5.19,0,0,1,1,.5,1.51,1.51,0,0,1,.62.88c1,.4,1.5.84,1.39,1.84l.07,0,.08,0,.06.09c.64.32,1.11,1.36.82,1.83h0c.29,1,.37,2,.53,2.7.1.33-.17.37-.46.4A.62.62,0,0,1,124.78,514Zm-6.44,9.06c.08,0,.22-.21.08-.29S118.21,523,118.34,523.07Zm-2.43,1.08c.06.06.27-.15.16-.26S115.8,524,115.91,524.15Zm-11.42-11.31c.68-.57-.88.37,0,0Zm2.06-5.39-.24.31c.19.15.13.3.27.44C106.74,508,107,507.7,106.55,507.45Zm2-1.56c-.08-.11-.29-.13-.15.11S108.67,506.13,108.54,505.89Zm6.59-1.28c0-.06-.27.1-.18.23S115.22,504.74,115.13,504.61Zm-7.58,14.71c0-.14.32-.09.29,0S107.52,519.4,107.55,519.32Zm1.62-11.79a.15.15,0,1,1-.28-.08s.11-.06.12-.11C109.09,507,109.2,507.38,109.17,507.53Z"/><path d="M1299.13,89.44h-1.64a.79.79,0,0,0-.51-.86c.43-.43-.59-.61.36-.84-.1-.15-.49,0-.54-.2-.33-.5.43-.68.42-1.1a2.18,2.18,0,0,0-.4-.75c-.11-.18-.12-.35,0-.71a1.51,1.51,0,0,1-.66-.32.76.76,0,0,1-.27-.66.58.58,0,0,1,.21-.07l-.27-.18c-.09-.09-.14-1.07-.8-.84-.31-.44-.11-1.32-.77-.65-.37-.16,0-.57-.57-.67-.27,0-.56-.11-.85-.15a.93.93,0,0,0-.79.14c-.06-.71-1.44-.32-1.59-.94a4,4,0,0,1-1.58.16c-.45,0-.83,0-1,.5-.22-.25-.6-.2-1-.06-.08-.45-.31-.48-.57-.47s-.51.12-.69-.15a.92.92,0,0,0-.1,1.08c-.75-.16-1,.09-1.53.58-.58-.9-.8-.59-1-.21s-.24.89-.84.46a8.07,8.07,0,0,0,.15.88,3.07,3.07,0,0,0-1.5,2.8,1.16,1.16,0,0,0-.51,1c-.06.35-.09.65-.49.84a2,2,0,0,1,.51,1,8,8,0,0,1,0,1.11,2.3,2.3,0,0,0,.73,2.08c.09.25,0,.45-.29.63.67.28.47.42.93.81-.24.6-.9,1.25-.43,2,.22.34.71-.48,1-.62a3.15,3.15,0,0,1,.48.61c.15.21.31.42.48.62a1.36,1.36,0,0,0,1.38.49,1.31,1.31,0,0,1,.07.87c.38-.35.62-.23.82.07a3.29,3.29,0,0,1,.46,1c.23,0,.31-.4.14-.46.39-.43,1.27.12,1.31.57.2,0,.13-.22,0-.24.94.06,1.88-.45,2.94,0,.21-.12.2-.44.41-.55a3,3,0,0,0,3.17-1.64,1.19,1.19,0,0,0,.69.09c.26-.18.08-.46.35-.63.22-.42.58.1.83-.14.46-.33-.19-.76,0-1.11.76-1.21,1.39-2.77,1-3.94a2.84,2.84,0,0,0,.59-1.22h1.64a.57.57,0,0,1-.23.61c.06.25.42.33.43.61-.18.25.12,1-.4.9,0,.26.33.39.31.68a3.66,3.66,0,0,1-.9,2c-.39.45-.79.76-1.13,1.13l-.39-.28a4.59,4.59,0,0,0-.23.69c-.11.23-.28.42-.58.27-.3,1.2-.83,1.28-1.46,2.38-.22-.27-.54.23-.74-.12-.26.69-1.23,1.07-1.91,1.5-.38.2-.55,0-.83-.05a10.57,10.57,0,0,0-1,.45.92.92,0,0,1-.94,0l-1.14.08a8.31,8.31,0,0,1-1.21-.06,3.87,3.87,0,0,1-2.29-1.11c-.45-.12-.86,0-1.35-.49.14-.14.31-.09.43-.3-.47-.72-1.64-.42-1.55-.88-.14-.13-.31.11-.47.21-.53-.26,0-.62.07-.93-.37,0-.58-.48-.45-.88-.34.13-.33,0-1,.26-.39-.4-.1-.75.45-1-.16-.27-.33-.54-.47-.82a1.34,1.34,0,0,1-.7-.67c-.13-.23-.28-.39-.8-.41,0-.15.34-.92-.24-.8.26-.45.46-.92.71-1.35-.62-.31-.6-1.23-1-1.72.12-1,.43-1.22,1.18-1.85-.67-.57,0-2.18.82-2.3,0-.21-.37-.33-.25-.56.63-.76.62-1.42,1.18-2.08.24.23.49.47.66.33s-.53-.44-.66-.33c-.39-.83.71.1.88-.25a.62.62,0,0,0-.79-.21,7.63,7.63,0,0,1,1.94-1.91,16.57,16.57,0,0,1,2.57-1.45c.46-.29,1.28,1.14,1.09,0,.19,0,.21.25.29.43s.35,0,.36-.3c.31.21.47.57.87.63,0-.28-.08-.43-.24-.47.09-.42.45-.17.41.22.19,0,.14-.3.18-.49a2.43,2.43,0,0,0,1.35.36,1.69,1.69,0,0,1,1.32.6c.22,0,.16-.21,0-.24,1-.34,1.42.77,2.37,1.67.41.22.7-.62,1.1-.73.16.17-.14.47.08.61a6.67,6.67,0,0,1,1,.5,1.49,1.49,0,0,1,.61.88c1,.4,1.51.84,1.4,1.85l.06,0,.09,0,.06.09c.64.32,1.11,1.37.82,1.83h0c.29,1,.37,2,.53,2.7.1.33-.17.37-.47.4A.55.55,0,0,1,1299.13,89.44Zm-6.43,9.06c.07,0,.21-.21.08-.29S1292.57,98.41,1292.7,98.5Zm-2.43,1.08c.06.06.27-.15.16-.26S1290.16,99.47,1290.27,99.58Zm-11.42-11.31c.67-.56-.88.37,0,0Zm2.06-5.39-.24.31c.19.15.13.3.27.44C1281.1,83.38,1281.36,83.14,1280.91,82.88Zm2-1.56c-.08-.11-.29-.12-.16.11S1283,81.56,1282.9,81.32Zm6.59-1.27c0-.07-.27.1-.18.23S1289.57,80.18,1289.49,80.05Zm-7.58,14.7c0-.14.31-.09.29,0S1281.88,94.83,1281.91,94.75ZM1283.53,83a.15.15,0,1,1-.28-.08s.11-.06.12-.11C1283.44,82.47,1283.56,82.81,1283.53,83Z"/><path d="M1299.13,514h-1.64a.81.81,0,0,0-.51-.87c.43-.42-.59-.6.36-.83-.1-.16-.49,0-.54-.2-.33-.5.43-.68.42-1.1a2.18,2.18,0,0,0-.4-.75c-.11-.18-.12-.35,0-.71a1.51,1.51,0,0,1-.66-.32.77.77,0,0,1-.27-.66.9.9,0,0,1,.21-.08l-.27-.17c-.09-.09-.14-1.08-.8-.85-.31-.44-.11-1.31-.77-.64-.37-.17,0-.58-.57-.67-.27,0-.56-.11-.85-.15a.9.9,0,0,0-.79.14c-.06-.71-1.44-.32-1.59-.94a4,4,0,0,1-1.58.16c-.45,0-.83,0-1,.5-.22-.25-.6-.2-1-.06-.08-.45-.31-.48-.57-.47s-.51.12-.69-.15a.92.92,0,0,0-.1,1.08c-.75-.16-1,.09-1.53.57-.58-.89-.8-.58-1-.2s-.24.89-.84.45a8.7,8.7,0,0,0,.15.89,3.06,3.06,0,0,0-1.5,2.79,1.16,1.16,0,0,0-.51,1c-.06.35-.09.65-.49.84a2,2,0,0,1,.51,1,8,8,0,0,1,0,1.11,2.31,2.31,0,0,0,.73,2.08c.09.25,0,.45-.29.63.67.28.47.42.93.81-.24.6-.9,1.25-.43,1.94.22.35.71-.47,1-.61a3.15,3.15,0,0,1,.48.61c.15.21.31.42.48.62a1.34,1.34,0,0,0,1.38.48,1.35,1.35,0,0,1,.07.88c.38-.35.62-.23.82.06a3.45,3.45,0,0,1,.46,1c.23,0,.31-.4.14-.46.39-.43,1.27.12,1.31.57a.12.12,0,0,0,0-.24c.94.06,1.88-.46,2.94,0,.21-.12.2-.45.41-.55a3,3,0,0,0,3.17-1.64,1.28,1.28,0,0,0,.69.09c.26-.18.08-.46.35-.63.22-.42.58.1.83-.14.46-.33-.19-.76,0-1.11.76-1.21,1.39-2.77,1-3.94a2.84,2.84,0,0,0,.59-1.22h1.64a.58.58,0,0,1-.23.61c.06.24.42.33.43.61-.18.25.12,1-.4.9,0,.26.33.39.31.68a3.66,3.66,0,0,1-.9,2c-.39.44-.79.76-1.13,1.13l-.39-.28a4.06,4.06,0,0,0-.23.68c-.11.24-.28.42-.58.28-.3,1.2-.83,1.27-1.46,2.38-.22-.28-.54.23-.74-.13-.26.7-1.23,1.08-1.91,1.51-.38.2-.55,0-.83-.05a10.57,10.57,0,0,0-1,.45.94.94,0,0,1-.94,0l-1.14.08a10,10,0,0,1-1.21-.06,3.87,3.87,0,0,1-2.29-1.11c-.45-.13-.86,0-1.35-.49.14-.14.31-.09.43-.3-.47-.72-1.64-.42-1.55-.88-.14-.13-.31.11-.47.21-.53-.26,0-.62.07-.93-.37,0-.58-.49-.45-.89-.34.14-.33,0-1,.26-.39-.4-.1-.74.45-1-.16-.27-.33-.54-.47-.82a1.34,1.34,0,0,1-.7-.67c-.13-.23-.28-.4-.8-.41,0-.15.34-.92-.24-.8.26-.45.46-.92.71-1.35-.62-.31-.6-1.23-1-1.72.12-1,.43-1.23,1.18-1.85-.67-.58,0-2.19.82-2.3,0-.21-.37-.33-.25-.56.63-.77.62-1.42,1.18-2.09.24.24.49.47.66.34s-.53-.44-.66-.34c-.39-.82.71.11.88-.24a.63.63,0,0,0-.79-.22,7.59,7.59,0,0,1,1.94-1.9,16.57,16.57,0,0,1,2.57-1.45c.46-.29,1.28,1.14,1.09,0,.19,0,.21.25.29.43s.35,0,.36-.3c.31.21.47.57.87.62,0-.28-.08-.42-.24-.46.09-.42.45-.18.41.22.19,0,.14-.3.18-.49a2.52,2.52,0,0,0,1.35.36,1.69,1.69,0,0,1,1.32.6c.22,0,.16-.21,0-.24,1-.34,1.42.77,2.37,1.67.41.22.7-.62,1.1-.73.16.16-.14.47.08.61a5.19,5.19,0,0,1,1,.5,1.46,1.46,0,0,1,.61.88c1,.4,1.51.84,1.4,1.84l.06,0,.09,0,.06.09c.64.32,1.11,1.36.82,1.83h0c.29,1,.37,2,.53,2.7.1.33-.17.37-.47.4A.52.52,0,0,1,1299.13,514Zm-6.43,9.06c.07,0,.21-.21.08-.29S1292.57,523,1292.7,523.07Zm-2.43,1.08c.06.06.27-.15.16-.26S1290.16,524,1290.27,524.15Zm-11.42-11.31c.67-.57-.88.37,0,0Zm2.06-5.39-.24.31c.19.15.13.3.27.44C1281.1,508,1281.36,507.7,1280.91,507.45Zm2-1.56c-.08-.11-.29-.13-.16.11S1283,506.13,1282.9,505.89Zm6.59-1.28c0-.06-.27.1-.18.23S1289.57,504.74,1289.49,504.61Zm-7.58,14.71c0-.14.31-.09.29,0S1281.88,519.4,1281.91,519.32Zm1.62-11.79a.15.15,0,1,1-.28-.08s.11-.06.12-.11C1283.44,507,1283.56,507.38,1283.53,507.53Z"/><text class="cls-3" transform="translate(459.71 166.62)">r</text><text class="cls-3" transform="translate(478.08 182.34) scale(0.58)">pi</text><text class="cls-3" transform="translate(207.69 39.22)">r</text><text class="cls-3" transform="translate(226.06 54.94) scale(0.58)">bb</text><text class="cls-3" transform="translate(606.61 211.85)">C</text><text class="cls-3" transform="translate(638.09 227.56) scale(0.58)">pi</text><text class="cls-3" transform="translate(614.36 55.24)">C</text><text class="cls-3" transform="translate(645.84 70.95) scale(0.58)">u</text><text class="cls-3" transform="translate(1057.93 181.56)">r</text><text class="cls-3" transform="translate(1076.29 197.28) scale(0.58)">0</text><text class="cls-3" transform="translate(1150.16 39.22)">r</text><text class="cls-3" transform="translate(1168.53 54.94) scale(0.58)">C</text><text class="cls-3" transform="translate(617.52 412.3)">r</text><text class="cls-3" transform="translate(635.88 428.02) scale(0.58)">E</text><text class="cls-3" transform="translate(845.35 257.04)">g</text><text class="cls-3" transform="translate(868.94 272.76) scale(0.58)">m</text><text class="cls-3" transform="translate(888.81 257.04)">V</text><text class="cls-3" transform="translate(917.64 272.76) scale(0.58)">BE</text><text class="cls-3" transform="translate(355.19 201.41)">V</text><text class="cls-3" transform="translate(384.02 217.13) scale(0.58)">BE</text><text class="cls-3" transform="translate(405.51 118.16)">+</text><text class="cls-3" transform="translate(418.21 297.43)">-</text><polygon class="cls-1" points="1.46 253.03 69.69 253.03 69.69 264.59 92.48 251.44 69.69 238.29 69.69 249.85 1.46 249.85 1.46 253.03"/><polygon class="cls-1" points="92.48 365.25 22.79 365.25 22.79 353.68 0 366.83 22.79 379.99 22.79 368.42 92.48 368.42 92.48 365.25"/><text class="cls-4" transform="translate(18.74 206.49)">a</text><text class="cls-4" transform="translate(47.4 225.58) scale(0.58)">1</text><text class="cls-4" transform="translate(1319.63 209.07)">a</text><text class="cls-4" transform="translate(1348.29 228.16) scale(0.58)">2</text><text class="cls-4" transform="translate(20.06 335.9)">b</text><text class="cls-4" transform="translate(48.72 354.99) scale(0.58)">1</text><text class="cls-4" transform="translate(1326.82 337.4)">b</text><text class="cls-4" transform="translate(1355.48 356.49) scale(0.58)">2</text><polygon class="cls-1" points="1312.45 369.92 1380.68 369.92 1380.68 381.49 1403.47 368.33 1380.68 355.18 1380.68 366.75 1312.45 366.75 1312.45 369.92"/><polygon class="cls-1" points="1388.27 248.65 1318.58 248.65 1318.58 237.08 1295.79 250.24 1318.58 263.39 1318.58 251.82 1388.27 251.82 1388.27 248.65"/></g></g></svg>