<svg xmlns="http://www.w3.org/2000/svg" viewBox="0 0 793.46 297.24"><defs><style>.cls-1{fill:#202020;}.cls-2{fill:#231f20;}.cls-3,.cls-4{font-size:26.68px;}.cls-3,.cls-4,.cls-5{font-family:TimesNewRomanPS-ItalicMT, Times New Roman;font-style:italic;}.cls-4{letter-spacing:0em;}.cls-5{font-size:32.4px;}</style></defs><g id="Layer_2" data-name="Layer 2"><g id="Circuits"><path d="M157.71,49.31l-1.36.93a1.89,1.89,0,0,0-1.26-1c0-.8-1.12-.76-.36-1.38-.21-.21-.49.11-.7-.19-.75-.75,0-1.12-.3-1.74-.72-1.13-1.19-1.14-1.16-2.14h1.15a2.17,2.17,0,0,1-1,1.91,1,1,0,0,1-.11-.23,2.59,2.59,0,0,1-.2.47c-.13.2-1.28.8-1.08,1.55-.58.66-1.58.62-.93,1.33-.29.59-.7.23-1,1s-.91,1.69-.81,2.4c-.77,0-1.31,2.16-2.09,2.16a6.46,6.46,0,0,1-1,2l-.87,1.22-.81-1.23c-.5-.75-.87-1.4-1.53-1.52a2.6,2.6,0,0,0-.7-1.48c.82-.4-.5-1.36-.11-1.88-.39-.21-.77-.51-1.25-.14a4.36,4.36,0,0,0-1.3-2.37c1.82-1.11-1.54-1.44-.56-2.55l-1.05-.28a9.73,9.73,0,0,0-1.52-2.54h.76a10.12,10.12,0,0,0-.91,2c-1.17.66-1.2,2.18-2.25,2.38.2,2.2-2.8,4-3.24,6.31a.75.75,0,0,1-.86.39c-.09,1-.31.94-.67,1.75l-.56,1.3-1.45-1.3,0,0c0-.86.63-1.57,0-2.6-.29-.5-.78.38-1.15.45-1-1.37-1.4-3.21-2.91-3.91a1.33,1.33,0,0,1,.15-1.07c-1.09.1-1.09-1.6-1-2.29a.24.24,0,0,0-.4.27c-.65,0-1.32-1.56-1-1.93-.21-.22-.28,0-.2.14-.45-.57-1-1.13-1.52-1.76h1.17a4.92,4.92,0,0,1-1.55,1.7c-.14.34.1.59-.07.94a11.15,11.15,0,0,0-3.21,5,1.93,1.93,0,0,0-.86.38c-.3.38-.09.64-.42,1-.28.7-.7.17-1,.61-.58.63.12,1-.19,1.52l-.9,1.45-.85,1.37-1-1.37a21.8,21.8,0,0,0-3.48-4.07,10.2,10.2,0,0,0-.84-2.1l1.36-.93A1.1,1.1,0,0,1,107,50c.27.25.59.12.85.41s1,1,.55,1.25c.27.25.59.12.85.41a11.26,11.26,0,0,1,1.83,3.2h-1a14.42,14.42,0,0,0,1-1.07l.39.28c.28-.4.37-1.66,1.08-1.55.37-1.64,1-2,1.39-3.65.31.15.53-.61.85-.39,0-.93.9-2.06,1.27-3.07.24-.52.54-.49.82-.75.45-.77.62-2.08,1.35-2.35l0-.09L119,41.4l1,1.23c1.21,1.54,2.79,3.07,3.55,5.3.42.48.88.63,1.25,1.44-.19.06-.35-.09-.55,0,.34,1.15,1.72,1.42,1.55,1.89.16.21.37,0,.55,0,.55.51-.12.71-.14,1.08.43.09.65.79.55,1.25a8.5,8.5,0,0,0,1.1-.08c.46.55.22.92-.35,1.2l.48.72h-.72l.27-.4c.06-1.15,1-1.36.46-2.32.15-.09,1.08-.51.61-.88A12,12,0,0,0,130.3,51c-.13-.77.62-1.75.61-2.54a4.69,4.69,0,0,1,2.33-1.67c-.27-.94,1.16-2.66,2-2.87.12-.28-.28-.43-.08-.72s.25-.3.34-.42l.68-.93.61.93c.56.88,1.18,1.29,1.74,2.1-.3.17-.59.34-.45.62.24.5.54-.43.45-.62,1-.09-.2.78.2,1.16a.67.67,0,0,0,.3-.85c1.68,2,2.61,3.55,4.46,5.79.47.44-.48,1.83.55,1.25.14.23-.12.34-.25.5s.25.4.5.31c0,.43-.24.8,0,1.3.25-.12.32-.29.25-.49.43-.08.47.43.1.58.15.21.36,0,.55,0a2.9,2.9,0,0,0,.19.77h-1.54c.73-.69.92-1.62,2.11-2.22.14-.28-.11-.26-.2-.14.19-1.26,1.52-1.51,2.92-2.91.37-.58-.49-.87-.52-1.35.21-.21.49.12.7-.17a5.15,5.15,0,0,1,1.7-2.43c.41-1.36.73-2.09,1.86-2.66,0,0,0-.06,0-.08l-.05-.08.08-.12,0-.13.19-.79,1.13.8a3.38,3.38,0,0,1,1.43,2.23h0a26.79,26.79,0,0,0,2.13,3.18c.33.33.13.53-.09.71A1.07,1.07,0,0,1,157.71,49.31Zm-41.8-1.61c-.1,0-.14.4,0,.36S116.09,47.66,115.91,47.7Zm1.77-3.37c-.1,0-.14.4,0,.36S117.86,44.28,117.68,44.33Zm14.59,3.47c1-.41-1,.08,0,0ZM138,44.6l-.3-.45c-.2.14-.36,0-.55,0C137.44,44.53,137.68,45,138,44.6Zm1.75,3c.11-.07.11-.33-.15-.22C139.53,47.5,139.54,47.76,139.79,47.65Zm5.38,7.72c-.1,0-.14.41,0,.36S145.35,55.33,145.17,55.37ZM126,54.7c0,.18-.36,0-.35-.09S126.05,54.6,126,54.7Zm11.91-6.79c-.33-.21-.2-.59.05-.36.06.06.09.19.15.23C138.52,48,138.13,48,137.94,47.91Z"/><polygon class="cls-1" points="467.12 93.52 467.12 109.25 467.12 109.94 458.45 109.94 468.31 127.03 478.18 109.94 469.5 109.94 469.5 109.25 469.5 93.52 467.12 93.52"/><path class="cls-2" d="M468,83.12l1.37.92a1.22,1.22,0,0,0-.29,1.25c-.68.13-.13,1.07-1,.58-.07.22.32.38.17.61-.28.78-.9.28-1.29.62-.61.82-.4,1.21-1.25,1.39A1.33,1.33,0,0,1,465,90a.86.86,0,0,1-.13-.2,1.71,1.71,0,0,1-.12.38c-.1.15-1.09.54-.82,1.19-.45.49-1.39.36-.7,1-.2.46-.61.12-.78.71s-.63,1.33-.45,1.94c-.72,0-1,1.68-1.68,1.61-.26,1.55-1.61,2.14-1.27,3.12-.36,0-.63.45-.89.89-.7-.59-.9.7-1.5.48,0,.37-.07.74.45,1.05-.82.39-.91.73-1.37,1.57-1.72-1.26-.49,1.56-1.84,1,.08.31.16.61.25.92a6.53,6.53,0,0,0-2,3.37c-1,.43-.84,1.71-1.79,1.77a2.2,2.2,0,0,1-.38,1.75v-1.12c.72,1,1.17,2.39,2.28,2.94a.57.57,0,0,1-.06.78c.77.28.63.46,1.2.94-.14.72-.77,1.38-.3,2.17.21.4.76-.39,1.12-.49.77,1,.92,2.55,2.24,3a1.19,1.19,0,0,1-.26.92c1-.21.82,1.22.62,1.81.19.18.51-.09.4-.26.6-.07,1,1.17.71,1.51.16.17.26,0,.2-.14.69.84,1.81,1.58,1.93,2.93.22.18.53,0,.74.25a6.6,6.6,0,0,0,2.69,3.66,1.59,1.59,0,0,0-.06.78c.18.33.49.21.66.56.45.37-.17.61.05,1,.26.61.84.1,1.17.47,1.16,1.44,2.23,3.18,3.55,4.08a6.16,6.16,0,0,0,.54,1.68l-1.37.91a.67.67,0,0,1-.2-.67c-.22-.18-.54,0-.75-.25,0-.32-.82-.74-.36-1-.22-.17-.53,0-.74-.25-1.22-1.44-1.22-2.55-1.76-3.53l.4-.27c-.2-.31-1.2-.65-.79-1.21-1.19-.63-1.22-1.2-2.39-1.88.26-.23-.27-.56.06-.78-.75-.23-1.3-1.15-2-1.67-.33-.3-.17-.55-.26-.82-.43-.53-1.44-.94-1.33-1.59-.95-1.19-2.27-2.31-2.72-4.13-.34-.37-.75-.44-1-1.08.18-.07.31,0,.51-.09-.18-.93-1.43-1-1.22-1.42-.11-.16-.33,0-.51.09-.44-.37.19-.6.26-.91-.39,0-.51-.6-.37-1a7.93,7.93,0,0,0-1,.18c-.36-.41-.09-.75.46-1l-.56-.86c-.93-.28-.7-1.07-1.71-.85,0-.14.06-1-.45-.68a10.28,10.28,0,0,0,.12-1.57c-.6,0-1-.66-1.56-.92l-.1-.05.1-1.27a1.27,1.27,0,0,0,0-.28,3.14,3.14,0,0,1,2-1.16c-.36-.82.75-2.12,1.52-2.22.07-.22-.32-.38-.17-.61.72-.76.72-1.44,1.2-2.18.28.21.55.41.71.24s-.59-.36-.71-.24c-.5-.76.74,0,.87-.41a.66.66,0,0,0-.83-.06c.85-1.79,1.74-2.89,2.74-4.87.15-.48,1.72,0,.79-.72.11-.16.33,0,.51.1s.22-.28,0-.47c.36-.09.77,0,1.06-.28-.21-.18-.37-.2-.51-.1-.26-.34.15-.47.43-.2.11-.17-.15-.3-.28-.44,1.16-.44.94-1.5,2.23-2,.09-.22-.14-.23-.2-.14,0-1,1.22-1.11,2.34-2.14.28-.46-.55-.78-.64-1.19.18-.15.47.15.63-.07.29-.72.54-1.53,1.28-1.87.22-1.1.42-1.68,1.4-2.05,0,0,0,0,0-.07l-.06-.07.06-.09c.05-.73.66-1.67,1.21-1.75h0a15.91,15.91,0,0,0,1.64-2.41c.13-.34.38-.22.63-.07A.71.71,0,0,1,468,83.12Zm-7,46.72c0,.09.27.2.31,0S461,129.69,461,129.84Zm-2-2.14c0,.08.27.2.31,0S459,127.54,459,127.7Zm-9.7-17.1c.87-.24-.94,0,0,0Zm3.3-5.24-.23.34c.2.13.14.3.28.44C452.78,105.86,453.05,105.57,452.57,105.36Zm1.71-2.08c-.11-.08-.32,0-.12.17S454.48,103.47,454.28,103.28Zm4.9-5.89c-.08,0-.08.32.09.3S459.35,97.37,459.18,97.39Zm-5.56,20c0-.16.33,0,.31,0S453.59,117.47,453.62,117.39Zm1.7-12.65c0,.32-.39.29-.32,0,0-.06.12-.11.12-.17C455.15,104.24,455.33,104.56,455.32,104.74Z"/><path class="cls-2" d="M468,83.58l1.37-.92a1.21,1.21,0,0,0,1.05.74c-.14.68.94.53.16,1.13.18.15.48-.15.63.08.62.55-.08.93.08,1.43.54.87,1,.82.82,1.68A1.33,1.33,0,0,1,473.19,89,.68.68,0,0,1,473,89a2.13,2.13,0,0,1,.29.26c.11.15.09,1.21.8,1.21.29.6-.19,1.42.68,1,.35.36-.12.62.37,1s1,1.1,1.62,1.16c-.31.64,1.19,1.52.85,2.16,1.34.83,1.37,2.3,2.41,2.35-.09.36.18.76.48,1.17-.81.42.31,1.09-.12,1.56.34.14.66.35,1.14,0,0,.9.34,1.12.94,1.86-1.82,1.11,1.26,1,.22,2.08l.94.12a6.51,6.51,0,0,0,2.36,3.14c0,1.09,1.25,1.43,1,2.33a2.22,2.22,0,0,1,1.47,1l.37.51-.37.61c-.64,1-1.77,2-1.86,3.22a.59.59,0,0,1-.75.24c0,.82-.18.75-.41,1.46-.72.15-1.57-.19-2.13.55-.28.35.65.56.88.85-.67,1.11-2,1.82-1.9,3.2a1.13,1.13,0,0,1-.94.1c.57.87-.83,1.23-1.45,1.26-.1.25.28.44.4.27.29.54-.69,1.41-1.13,1.23-.1.22.13.23.2.14-.52,1-.77,2.27-2,2.89-.09.27.16.51,0,.78a6.62,6.62,0,0,0-2.36,3.88,1.58,1.58,0,0,0-.75.24c-.23.29,0,.53-.26.82-.18.56-.63.07-.87.41-.46.47.23.81,0,1.26-.9,1.62-2.1,3.27-2.44,4.83a6.44,6.44,0,0,0-1.34,1.13l-1.37-.92a.68.68,0,0,1,.55-.44c.08-.27-.17-.51,0-.78.28-.18.37-1,.78-.72.08-.27-.17-.5-.05-.78.88-1.68,1.9-2.09,2.61-3l.4.27c.21-.31.14-1.36.81-1.2.14-1.33.66-1.58.84-2.92.31.16.42-.46.75-.24-.08-.78.57-1.64.8-2.45.16-.41.44-.36.66-.54.33-.61.33-1.69,1-1.84.74-1.33,1.27-3,2.79-4.09.21-.44.13-.85.62-1.32.14.14.08.3.28.44.79-.52.4-1.71.85-1.67.11-.17-.15-.3-.28-.44.18-.55.64,0,.94-.11-.11-.37.36-.7.79-.71a8.6,8.6,0,0,0-.57-.88c.25-.49.66-.38,1.15,0l.58-.86c-.09-1,.73-1.05.14-1.9.13-.06.94-.32.46-.68a7.94,7.94,0,0,0,1.5-.48c-.19-.57.22-1.2.26-1.79v1.32a1.17,1.17,0,0,0-.26-.1,3.13,3.13,0,0,1-.33-2.25c-.9,0-1.68-1.5-1.48-2.24-.17-.15-.47.15-.63-.08-.43-1-1.06-1.21-1.56-1.93.3-.18.59-.35.49-.57-.17-.39-.56.41-.49.57-.9.17.28-.68-.05-1a.66.66,0,0,0-.38.74c-1.33-1.46-2-2.7-3.46-4.38-.39-.32.65-1.59-.37-1-.1-.17.16-.29.29-.43s-.18-.32-.43-.22c.05-.36.32-.69.15-1.08-.25.12-.33.27-.29.43-.41.12-.38-.31,0-.47-.12-.17-.34,0-.52.09,0-1.23-1-1.44-1-2.81-.16-.17-.26,0-.2.13-.95-.4-.56-1.55-1.1-3-.31-.43-.93.22-1.34.15-.07-.22.32-.38.17-.61a3.07,3.07,0,0,1-1.24-1.9c-.94-.61-1.4-1-1.36-2.06l-.07,0-.08,0-.07-.09c-.65-.33-1.3-1.25-1.16-1.78h0a16.63,16.63,0,0,0-1.61-2.44c-.27-.25-.06-.43.17-.61A.7.7,0,0,1,468,83.58Zm7.53,46.15c-.09,0-.08.33.09.31S475.66,129.72,475.5,129.73Zm1.24-2.65c-.09,0-.08.32.08.31S476.9,127.06,476.74,127.08Zm9.58-15.79c.1-.9-.4.86,0,0Zm-3.6-5,.23.34c.2-.13.33,0,.51-.09C483.26,106.25,483.09,105.89,482.72,106.26Zm-1.28-2.37c-.11.07-.13.29.12.17S481.69,103.77,481.44,103.89Zm-3.59-6.78c0,.09.26.2.31,0S477.89,97,477.85,97.11Zm6.4,21.11c.16,0,.17.3.08.31S484.16,118.23,484.25,118.22Zm-1.06-14.75c.28.15.11.48-.09.31s-.06-.14-.12-.17C482.66,103.45,483,103.4,483.19,103.47Z"/><path d="M250.19,139.73l-.93-1.36a1.87,1.87,0,0,0,1-1.26c.81,0,.76-1.12,1.39-.36.21-.22-.12-.5.18-.7.75-.76,1.12-.05,1.74-.31,1.13-.72,1.13-1.2,2.14-1.16v1.16h0a2.16,2.16,0,0,1-1.91-1,.8.8,0,0,1,.22-.12,2.93,2.93,0,0,1-.46-.19c-.2-.13-.81-1.28-1.56-1.08-.66-.58-.62-1.58-1.33-.93-.59-.29-.23-.69-1-1s-1.7-.91-2.41-.8c0-.78-2.16-1.31-2.16-2.09a6.19,6.19,0,0,1-2-1l-1.22-.87,1.22-.81c.76-.51,1.4-.88,1.52-1.54a2.51,2.51,0,0,0,1.48-.7c.41.82,1.36-.51,1.88-.11.21-.4.51-.78.13-1.25a4.43,4.43,0,0,0,2.38-1.32c1.11,1.83,1.43-1.54,2.55-.56.09-.35.19-.7.27-1a10.23,10.23,0,0,0,2.54-1.53v.76a10.52,10.52,0,0,0-2-.91c-.66-1.16-2.18-1.19-2.38-2.24-2.2.21-4-2.78-6.32-3.22a.75.75,0,0,1-.39-.86c-1-.09-.94-.3-1.76-.66l-1.3-.56,1.3-1.45,0,0c.85,0,1.57.62,2.59,0,.51-.29-.37-.77-.44-1.15,1.36-1,3.2-1.41,3.89-2.91a1.3,1.3,0,0,1,1.08.14c-.11-1.09,1.59-1.09,2.28-1a.24.24,0,0,0-.27-.4c0-.65,1.56-1.32,1.92-1,.23-.21,0-.28-.13-.2.57-.46,1.12-1,1.75-1.53v1.17a5,5,0,0,1-1.71-1.55c-.34-.13-.59.11-.94-.06a11.18,11.18,0,0,0-5-3.2,2,2,0,0,0-.39-.85c-.38-.3-.64-.09-1-.42-.7-.28-.17-.71-.61-1-.63-.58-1,.12-1.52-.18l-1.46-.9-1.37-.84,1.37-1a22.46,22.46,0,0,0,4.06-3.49,9.94,9.94,0,0,0,2.1-.85l.93,1.36a1.1,1.1,0,0,1-.84.33c-.25.27-.12.59-.41.85-.39.11-1,1-1.25.56-.25.26-.11.58-.4.85a11.73,11.73,0,0,1-3.2,1.84v-1a11.17,11.17,0,0,0,1.07,1l-.27.4c.39.27,1.66.36,1.55,1.07,1.64.36,2,1,3.65,1.37-.15.32.62.53.39.86.94,0,2.06.89,3.08,1.26.52.24.49.54.75.81.77.45,2.08.62,2.35,1.35l.09,0L258,101l-1.23,1c-1.53,1.22-3.05,2.8-5.28,3.56-.48.42-.63.88-1.44,1.26-.06-.19.09-.35,0-.55-1.15.34-1.42,1.73-1.88,1.56-.21.15,0,.36,0,.55-.51.54-.71-.12-1.07-.15-.09.44-.79.66-1.25.56a8.39,8.39,0,0,0,.08,1.1c-.54.46-.91.22-1.2-.34L244,110v-.73l.4.28c1.15,0,1.37,1,2.32.44.1.16.51,1.09.89.62a10.88,10.88,0,0,0,.78,1.71c.77-.13,1.75.62,2.55.6a4.73,4.73,0,0,1,1.66,2.33c.94-.28,2.67,1.15,2.89,2,.27.12.42-.28.72-.08a5.23,5.23,0,0,0,.41.34l.94.68-.94.61c-.87.57-1.28,1.18-2.08,1.74-.17-.29-.34-.59-.63-.44-.49.24.44.54.63.44.09,1-.79-.19-1.17.21a.66.66,0,0,0,.85.29c-2,1.69-3.54,2.63-5.77,4.48-.43.48-1.83-.47-1.25.56-.23.14-.34-.13-.5-.25s-.4.25-.31.5c-.43,0-.8-.24-1.3,0,.12.26.29.32.49.25.09.43-.43.47-.58.1-.21.15,0,.36,0,.55a2.41,2.41,0,0,0-.77.2V125.9c.7.72,1.63.91,2.23,2.1.28.14.26-.11.14-.2,1.25.18,1.51,1.52,2.91,2.91.58.37.87-.49,1.35-.53.21.22-.12.5.17.71a5.14,5.14,0,0,1,2.44,1.69c1.36.41,2.09.72,2.66,1.85h.09l.07-.05.13.08.12,0,.79.19-.79,1.12a3.38,3.38,0,0,1-2.23,1.45h0a25.38,25.38,0,0,0-3.17,2.14c-.33.33-.52.13-.71-.1A1,1,0,0,1,250.19,139.73Zm1.49-41.81c0-.1-.41-.14-.36,0S251.72,98.1,251.68,97.92Zm3.38,1.77c0-.1-.41-.14-.36,0S255.1,99.87,255.06,99.69Zm-3.44,14.59c.41,1-.07-1,0,0Zm3.22,5.76.45-.3c-.14-.2,0-.36,0-.55C254.91,119.45,254.45,119.69,254.84,120Zm-3,1.77c.07.11.33.1.22-.15S251.69,121.55,251.8,121.81Zm-7.71,5.39c0-.09-.4-.14-.36,0S244.14,127.39,244.09,127.2Zm.62-19.13c-.18,0,0-.37.09-.35S244.81,108.08,244.71,108.07ZM251.53,120c.21-.34.59-.21.36.05,0,.06-.18.09-.22.15C251.43,120.54,251.41,120.15,251.53,120Z"/><path d="M338.3,99.68v1.64c-.24,0-.46.06-.6.47-.24-.5-.48.49-.52-.49-.11.06-.07.47-.2.47-.41.21-.37-.59-.62-.73-.52,0-.62.35-.94-.25-.25.39-.5.6-.83.22a1.42,1.42,0,0,1,.05-.22.58.58,0,0,1-.19.1c-.09,0-.53-.6-.73,0-.33-.1-.54-.95-.62,0-.25.09-.22-.44-.52-.25s-.73.21-.93.71c-.19-.62-1,.14-1.14-.5-.73.64-1.35-.14-1.66.69-.13-.28-.37-.28-.63-.25,0-.91-.54-.36-.61-1a1.19,1.19,0,0,0-.32,1c-.39-.46-.56-.35-1-.26,0-2.13-.79.47-.93-1-.11.23-.22.47-.32.71a1.77,1.77,0,0,0-2,.21c-.46-.59-1,.24-1.24-.51-.65,1.42-1.88,0-2.7.92-.18,0-.27-.19-.31-.49-.33.48-.37.27-.73.47-.26-.51-.36-1.4-.82-1.46-.23,0-.05.85-.11,1.2-.65.07-1.32-.64-1.87.21a1.28,1.28,0,0,1-.31-.73c-.2,1-.74,0-.93-.49-.13.06-.1.47,0,.48-.14.53-.78.21-.83-.26-.11,0-.06.24,0,.24-.54.11-1.16.63-1.76,0-.14.09-.17.42-.31.48-.87-.58-1.5-.29-2.29.2a1.11,1.11,0,0,0-.3-.49c-.19,0-.22.29-.42.24-.28.16-.21-.49-.41-.49s-.28.64-.52.71a5.65,5.65,0,0,0-2.7.67,2.26,2.26,0,0,0-.85-.49V99.68c.12-.05.25,0,.34.2.13-.08.16-.42.31-.47.15.13.53-.27.52.25.13-.09.16-.42.31-.48.94-.21,1.41.41,2,.52v.48c.18,0,.6-.64.72,0,.6-.63.84-.34,1.46-.94,0,.35.3.09.31.49.3-.49.84-.43,1.24-.7.22-.1.28.17.42.25.34-.06.79-.67,1-.22.76-.13,1.6-.6,2.49,0,.25-.07.39-.37.73-.23,0,.2-.11.24-.11.48.44.37.83-.62.94-.22.1,0,.08-.29.1-.48.28-.16.2.5.31.73.12-.31.39-.1.52.24.06-.35.1-.28.21-.95.27-.07.34.34.31,1h.52c.37-.61.64,0,.83-.94.06.07.4.6.41,0a7.37,7.37,0,0,0,.62,1c.22-.54.69-.47.94-.94.49.1.62.33,1,1,.24-.76,1.1-.56,1.35,0,.11-.06.07-.47.21-.47.52.17.8-.21,1.24-.22,0,.34,0,.68.11.72s0-.69-.11-.72c.18-.84.21.6.42.49,0-.41-.08-.63-.21-.73,1-.29,1.69-.16,2.8-.43.24-.15.48,1.42.52.25.1,0,.08.29.1.48,0,.34.19,0,.21-.23.14.24.2.65.41.72,0-.28,0-.43-.1-.48.07-.41.24-.15.21.24.1,0,.08-.29.1-.47.51.71.89-.06,1.45.74.12,0,.06-.24,0-.24.44-.56.81.4,1.56.75.26,0,.17-.89.31-1.2.11.07.07.48.21.49.38-.16.79-.4,1.14,0,.52-.44.82-.59,1.24,0l0,0s0-.05,0-.09h.06a.64.64,0,0,1,1.07,0h0a4.06,4.06,0,0,0,1.47,0c.17-.09.19.19.2.48A.37.37,0,0,1,338.3,99.68Zm-28.11.31c0-.07-.16.11-.11.24S310.24,100.12,310.19,100Zm1.45-.45c0-.07-.16.11-.1.24S311.69,99.66,311.64,99.54Zm9.95-.07c.35.59-.24-.81,0,0Zm3.12-.19h-.21c0,.24-.09.28-.11.48C324.56,99.74,324.75,99.8,324.71,99.28Zm1.34.27c0-.14-.08-.28-.1,0S326,99.82,326.05,99.55Zm3.84.78c0-.06-.16.12-.11.24S329.94,100.46,329.89,100.33Zm-12.45.51c.06.12-.07.3-.1.24S317.41,100.77,317.44,100.84Zm8.3.38c-.14.16-.24-.16-.11-.24s.08,0,.11,0C325.9,100.8,325.81,101.13,325.74,101.22Z"/><path d="M338.3,115.74v1.64c-.24,0-.46.06-.6.47-.24-.5-.48.49-.52-.49-.11.06-.07.47-.2.47-.41.21-.37-.59-.62-.73-.52,0-.62.35-.94-.25-.25.39-.5.6-.83.22a1.42,1.42,0,0,1,.05-.22.58.58,0,0,1-.19.1c-.09,0-.53-.6-.73,0-.33-.1-.54-1-.62,0-.25.09-.22-.44-.52-.25s-.73.21-.93.71c-.19-.62-1,.14-1.14-.5-.73.64-1.35-.14-1.66.69-.13-.28-.37-.28-.63-.25,0-.91-.54-.36-.61-1a1.19,1.19,0,0,0-.32,1c-.39-.46-.56-.35-1-.26,0-2.13-.79.47-.93-1-.11.23-.22.47-.32.71a1.77,1.77,0,0,0-2,.21c-.46-.59-1,.24-1.24-.51-.65,1.42-1.88,0-2.7.92-.18,0-.27-.19-.31-.49-.33.48-.37.27-.73.47-.26-.51-.36-1.4-.82-1.46-.23,0-.05.85-.11,1.2-.65.07-1.32-.64-1.87.21a1.28,1.28,0,0,1-.31-.73c-.2,1-.74,0-.93-.49-.13.06-.1.47,0,.48-.14.53-.78.21-.83-.26-.11,0-.06.24,0,.24-.54.11-1.16.63-1.76,0-.14.09-.17.42-.31.48-.87-.58-1.5-.29-2.29.2a1.11,1.11,0,0,0-.3-.49c-.19,0-.22.29-.42.24-.28.16-.21-.49-.41-.49s-.28.64-.52.71a5.65,5.65,0,0,0-2.7.67,2.26,2.26,0,0,0-.85-.49v-1.64c.12,0,.25,0,.34.2.13-.08.16-.42.31-.47.15.13.53-.27.52.25.13-.09.16-.42.31-.48.94-.21,1.41.41,2,.52v.48c.18,0,.6-.64.72,0,.6-.63.84-.34,1.46-.94,0,.35.3.09.31.49.3-.49.84-.43,1.24-.7.22-.1.28.17.42.25.34-.06.79-.67,1-.22.76-.13,1.6-.6,2.49,0,.25-.07.39-.37.73-.23,0,.2-.11.24-.11.48.44.37.83-.62.94-.22.1,0,.08-.29.1-.48.28-.16.2.5.31.73.12-.31.39-.1.52.24.06-.35.1-.28.21-1,.27-.07.34.34.31,1h.52c.37-.61.64,0,.83-.94.06.07.4.6.41,0a7.37,7.37,0,0,0,.62,1c.22-.54.69-.47.94-.94.49.1.62.33,1,1,.24-.76,1.1-.56,1.35,0,.11-.06.07-.47.21-.47.52.17.8-.21,1.24-.22,0,.34,0,.68.11.72s0-.69-.11-.72c.18-.84.21.6.42.49,0-.41-.08-.63-.21-.73,1-.29,1.69-.16,2.8-.43.24-.15.48,1.42.52.25.1,0,.08.29.1.48,0,.34.19,0,.21-.23.14.24.2.65.41.72,0-.28,0-.43-.1-.48.07-.41.24-.15.21.24.1,0,.08-.29.1-.47.51.71.89-.06,1.45.74.12,0,.06-.24,0-.24.44-.56.81.4,1.56.75.26,0,.17-.89.31-1.2.11.07.07.48.21.49.38-.16.79-.4,1.14,0,.52-.44.82-.59,1.24,0l0,0s0,0,0-.09h.06a.64.64,0,0,1,1.07,0h0a4.06,4.06,0,0,0,1.47,0c.17-.09.19.19.2.48A.37.37,0,0,1,338.3,115.74Zm-28.11.31c0-.07-.16.11-.11.24S310.24,116.18,310.19,116.05Zm1.45-.45c0-.07-.16.11-.1.24S311.69,115.72,311.64,115.6Zm9.95-.07c.35.59-.24-.81,0,0Zm3.12-.19h-.21c0,.24-.09.28-.11.48C324.56,115.8,324.75,115.86,324.71,115.34Zm1.34.27c0-.14-.08-.28-.1,0C326,115.74,326,115.88,326.05,115.61Zm3.84.78c0-.06-.16.12-.11.24S329.94,116.52,329.89,116.39Zm-12.45.51c.06.12-.07.3-.1.24S317.41,116.83,317.44,116.9Zm8.3.38c-.14.16-.24-.16-.11-.24s.08,0,.11,0C325.9,116.86,325.81,117.19,325.74,117.28Z"/><path d="M383.44,32.13h1.65c0,.24.05.46.46.6-.49.25.49.49-.49.52.06.11.48.07.48.21.2.4-.59.36-.73.62-.05.51.35.62-.26.93.39.25.6.51.22.83l-.22-.05a.68.68,0,0,1,.11.19c0,.1-.6.54,0,.73-.1.34-.95.54,0,.62.1.25-.44.23-.25.52s.22.73.71.94c-.62.18.14,1-.5,1.14.65.72-.14,1.34.69,1.66-.28.12-.28.36-.25.62-.91-.05-.36.54-1,.62a1.15,1.15,0,0,0,.95.31c-.46.39-.34.56-.26,1-2.13,0,.47.79-1,.93l.71.31a1.79,1.79,0,0,0,.21,2c-.59.46.25,1-.5,1.24,1.41.65,0,1.88.91,2.7,0,.18-.18.27-.49.31.49.34.27.37.47.73-.51.26-1.4.36-1.45.82-.05.23.85.05,1.2.11.06.65-.65,1.32.2,1.87a1.24,1.24,0,0,1-.72.31c1,.2,0,.74-.5.93.06.13.48.11.48,0,.54.14.21.78-.25.83,0,.12.24.06.24,0,.1.54.63,1.17,0,1.76.08.14.42.17.47.32-.58.86-.29,1.5.2,2.28a1.08,1.08,0,0,0-.48.31c0,.18.28.22.23.41.17.29-.48.21-.49.42s.64.27.71.52a5.61,5.61,0,0,0,.68,2.7,2.07,2.07,0,0,0-.49.85h-1.65c-.05-.12,0-.26.21-.34-.09-.14-.42-.17-.48-.32.14-.15-.27-.53.25-.51-.08-.14-.42-.17-.47-.32-.21-.94.41-1.4.51-2h.48c0-.19-.64-.61,0-.73-.63-.6-.33-.84-.93-1.45.35,0,.09-.31.48-.31-.49-.31-.43-.85-.69-1.25-.1-.22.16-.27.24-.41-.06-.35-.67-.8-.22-1-.13-.76-.6-1.6,0-2.49-.07-.24-.37-.39-.22-.73.19,0,.23.11.47.11.37-.44-.62-.82-.22-.93,0-.1-.29-.09-.48-.11-.16-.28.5-.2.73-.31-.3-.12-.1-.39.25-.52-.36,0-.28-.1-1-.21-.07-.27.34-.34,1-.3,0-.18,0-.35,0-.52-.61-.38,0-.65-.95-.84.07-.06.6-.39,0-.41a6.7,6.7,0,0,0,1-.62c-.55-.21-.48-.69-.95-.94.1-.49.34-.62,1-1-.76-.24-.56-1.09,0-1.35-.06-.11-.48-.07-.48-.21.17-.51-.21-.8-.22-1.24.34,0,.68,0,.72-.1s-.69,0-.72.1c-.84-.18.61-.21.49-.41-.41,0-.62.07-.72.2-.29-1-.17-1.69-.44-2.8-.14-.24,1.43-.48.25-.52,0-.1.3-.08.48-.1.34,0,0-.18-.23-.21.24-.14.65-.2.73-.41-.28,0-.43,0-.49.1-.4-.07-.14-.24.25-.21,0-.1-.3-.08-.48-.1.71-.51,0-.89.74-1.45,0-.12-.24-.06-.24,0-.56-.44.4-.81.75-1.55,0-.27-.89-.17-1.19-.32.06-.11.48-.07.48-.2-.16-.39-.4-.79,0-1.15-.43-.51-.59-.81,0-1.24l0,0h-.08a.13.13,0,0,0,0-.06.64.64,0,0,1,0-1.07h0a4,4,0,0,0,0-1.46c-.08-.18.19-.2.49-.21A.36.36,0,0,1,383.44,32.13Zm.31,28.12c-.06,0,.12.15.24.1S383.88,60.19,383.75,60.25Zm-.45-1.46c-.07,0,.11.16.24.11S383.42,58.74,383.3,58.79Zm-.07-9.95c.59-.35-.81.25,0,0Zm-.18-3.11c0,.07,0,.14,0,.2.25,0,.29.09.48.11C383.5,45.88,383.56,45.68,383.05,45.73Zm.26-1.35c-.13,0-.27.08,0,.1S383.58,44.4,383.31,44.38Zm.79-3.83c-.07,0,.11.15.24.1S384.22,40.49,384.1,40.55ZM384.6,53c.13-.05.31.08.24.1S384.53,53,384.6,53ZM385,44.7c.15.14-.17.23-.25.1s0-.08,0-.1C384.57,44.54,384.9,44.62,385,44.7Z"/><path d="M399.5,32.13h1.65c0,.24.05.46.46.6-.49.25.49.49-.49.52.06.11.48.07.48.21.2.4-.59.36-.73.62-.05.51.35.62-.26.93.39.25.6.51.22.83l-.22-.05a.68.68,0,0,1,.11.19c0,.1-.6.54,0,.73-.1.34-.95.54,0,.62.1.25-.44.23-.25.52s.22.73.71.94c-.62.18.14,1-.5,1.14.65.72-.14,1.34.69,1.66-.28.12-.28.36-.25.62-.91-.05-.36.54-1,.62a1.15,1.15,0,0,0,.95.31c-.46.39-.34.56-.26,1-2.13,0,.47.79-1,.93l.71.31a1.79,1.79,0,0,0,.21,2c-.59.46.25,1-.5,1.24,1.41.65,0,1.88.91,2.7,0,.18-.18.27-.49.31.49.34.27.37.47.73-.51.26-1.4.36-1.45.82-.05.23.85.05,1.2.11.06.65-.65,1.32.2,1.87a1.24,1.24,0,0,1-.72.31c1,.2,0,.74-.5.93.06.13.48.11.48,0,.54.14.21.78-.25.83,0,.12.24.06.24,0,.1.54.62,1.17,0,1.76.08.14.42.17.47.32-.58.86-.29,1.5.2,2.28a1.08,1.08,0,0,0-.48.31c0,.18.28.22.23.41.17.29-.48.21-.49.42s.64.27.71.52a5.61,5.61,0,0,0,.68,2.7,2.07,2.07,0,0,0-.49.85H399.5c-.05-.12,0-.26.21-.34-.09-.14-.42-.17-.48-.32.14-.15-.27-.53.25-.51-.08-.14-.42-.17-.47-.32-.21-.94.41-1.4.51-2H400c0-.19-.64-.61,0-.73-.63-.6-.33-.84-.93-1.45.35,0,.09-.31.48-.31-.49-.31-.43-.85-.69-1.25-.1-.22.16-.27.24-.41-.06-.35-.67-.8-.22-1-.13-.76-.6-1.6,0-2.49-.07-.24-.37-.39-.22-.73.19,0,.23.11.47.11.37-.44-.62-.82-.22-.93,0-.1-.29-.09-.48-.11-.16-.28.5-.2.73-.31-.3-.12-.1-.39.25-.52-.36,0-.28-.1-1-.21-.07-.27.34-.34,1-.3,0-.18,0-.35,0-.52-.61-.38,0-.65-1-.84.07-.06.6-.39,0-.41a6.7,6.7,0,0,0,1-.62c-.55-.21-.48-.69-.95-.94.1-.49.34-.62,1-1-.76-.24-.56-1.09,0-1.35-.06-.11-.48-.07-.48-.21.17-.51-.21-.8-.22-1.24.34,0,.68,0,.72-.1s-.69,0-.72.1c-.84-.18.61-.21.49-.41-.41,0-.62.07-.72.2-.29-1-.17-1.69-.44-2.8-.14-.24,1.43-.48.25-.52,0-.1.3-.08.48-.1.34,0,0-.18-.23-.21.24-.14.65-.2.73-.41-.28,0-.43,0-.49.1-.4-.07-.14-.24.25-.21,0-.1-.3-.08-.48-.1.71-.51,0-.89.74-1.45,0-.12-.24-.06-.24,0-.56-.44.4-.81.75-1.55,0-.27-.89-.17-1.19-.32.06-.11.48-.07.48-.2-.16-.39-.4-.79,0-1.15-.43-.51-.59-.81,0-1.24l0,0h-.08a.13.13,0,0,0,0-.06.64.64,0,0,1,0-1.07h0a4,4,0,0,0,0-1.46c-.08-.18.19-.2.49-.21A.36.36,0,0,1,399.5,32.13Zm.31,28.12c-.06,0,.12.15.24.1S399.94,60.19,399.81,60.25Zm-.45-1.46c-.07,0,.11.16.24.11S399.48,58.74,399.36,58.79Zm-.07-9.95c.59-.35-.81.25,0,0Zm-.18-3.11c0,.07,0,.14,0,.2.25,0,.29.09.48.11C399.56,45.88,399.62,45.68,399.11,45.73Zm.26-1.35c-.13,0-.27.08,0,.1S399.64,44.4,399.37,44.38Zm.79-3.83c-.07,0,.11.15.24.1S400.28,40.49,400.16,40.55Zm.5,12.44c.13-.05.31.08.24.1S400.59,53,400.66,53Zm.39-8.29c.15.14-.17.23-.25.1s0-.08,0-.1C400.63,44.54,401,44.62,401.05,44.7Z"/><path d="M574.86,141.69l-.93-1.36a1.85,1.85,0,0,0,1-1.26c.8,0,.76-1.12,1.38-.36.21-.21-.11-.5.18-.7.75-.76,1.13,0,1.75-.31,1.13-.72,1.13-1.19,2.13-1.16v1.16h0a2.16,2.16,0,0,1-1.91-1,.65.65,0,0,1,.22-.11,3.44,3.44,0,0,1-.47-.2c-.2-.13-.8-1.27-1.55-1.08-.66-.57-.62-1.58-1.33-.92-.59-.29-.23-.7-1-1s-1.7-.9-2.41-.8c0-.77-2.16-1.3-2.17-2.09a6.24,6.24,0,0,1-2-1l-1.22-.86,1.22-.82c.76-.5,1.4-.87,1.52-1.53a2.56,2.56,0,0,0,1.48-.71c.4.82,1.36-.5,1.88-.11.21-.4.5-.78.13-1.25a4.45,4.45,0,0,0,2.37-1.31c1.12,1.82,1.44-1.55,2.55-.57q.15-.53.27-1a9.82,9.82,0,0,0,2.55-1.53v.77a10.45,10.45,0,0,0-2-.91c-.66-1.17-2.18-1.2-2.39-2.25-2.19.22-4-2.78-6.31-3.22a.72.72,0,0,1-.39-.85c-1-.1-.94-.31-1.76-.66l-1.3-.57,1.3-1.45,0,0c.85,0,1.56.63,2.59,0,.51-.29-.37-.77-.45-1.14,1.37-1,3.21-1.41,3.9-2.92a1.28,1.28,0,0,1,1.07.14c-.1-1.09,1.6-1.09,2.29-1a.24.24,0,0,0-.27-.4c0-.65,1.56-1.32,1.92-1,.23-.21,0-.28-.13-.2.57-.45,1.12-1,1.75-1.53v1.17a4.74,4.74,0,0,1-1.71-1.54c-.34-.14-.59.1-.94-.07a11.05,11.05,0,0,0-5-3.19,1.85,1.85,0,0,0-.39-.86c-.38-.3-.63-.09-1-.42-.71-.28-.17-.7-.61-1-.64-.58-1,.12-1.53-.18l-1.45-.9-1.38-.84,1.38-1a22,22,0,0,0,4.05-3.49,10,10,0,0,0,2.11-.85l.93,1.36A1.08,1.08,0,0,1,574,91c-.24.27-.11.59-.4.85-.4.11-1,1-1.25.56-.25.27-.12.59-.41.85a11.56,11.56,0,0,1-3.19,1.84v-1a11.13,11.13,0,0,0,1.07,1l-.28.4c.4.27,1.66.36,1.55,1.08,1.64.35,2,1,3.66,1.37-.15.32.61.53.39.85.93,0,2.06.89,3.07,1.26.52.24.5.54.75.81.78.46,2.09.62,2.36,1.35l.09,0,1.23.73-1.23,1c-1.53,1.22-3,2.8-5.29,3.56-.48.42-.62.89-1.43,1.26-.06-.19.09-.35,0-.55-1.15.34-1.42,1.73-1.88,1.56-.22.15,0,.36,0,.55-.51.54-.71-.12-1.07-.14-.1.43-.79.65-1.26.55a9,9,0,0,0,.09,1.1c-.55.46-.92.22-1.2-.34l-.72.48v-.72l.39.27c1.16.06,1.38,1,2.33.45.09.15.51,1.08.88.61a12.58,12.58,0,0,0,.79,1.72c.76-.14,1.75.62,2.54.59a4.69,4.69,0,0,1,1.67,2.33c.94-.27,2.66,1.15,2.88,2,.28.12.43-.29.72-.09l.42.34.94.68-.94.61c-.87.57-1.28,1.18-2.08,1.74-.18-.29-.35-.58-.63-.44-.5.25.43.54.63.44.08,1-.79-.19-1.17.21a.67.67,0,0,0,.85.3c-2,1.68-3.54,2.62-5.77,4.48-.44.47-1.84-.48-1.26.55-.22.14-.33-.12-.49-.25s-.4.25-.31.51c-.44,0-.8-.25-1.3,0,.12.26.29.32.49.25.08.44-.43.47-.58.1-.21.16,0,.37,0,.55a2.56,2.56,0,0,0-.77.2v-1.54c.7.72,1.63.91,2.24,2.1.27.14.26-.11.13-.19,1.26.17,1.52,1.51,2.92,2.9.58.37.87-.49,1.35-.52.21.21-.12.49.17.7a5.21,5.21,0,0,1,2.44,1.69c1.36.41,2.09.72,2.66,1.85h.09s.05,0,.07-.05l.12.08.13,0,.79.19-.79,1.13a3.4,3.4,0,0,1-2.23,1.44h0a27.77,27.77,0,0,0-3.17,2.14c-.33.33-.53.13-.72-.09A1,1,0,0,1,574.86,141.69Zm1.48-41.81c0-.09-.4-.14-.36.05S576.39,100.06,576.34,99.88Zm3.38,1.77c0-.1-.4-.14-.36,0S579.77,101.83,579.72,101.65Zm-3.43,14.6c.41,1-.08-1,0,0Zm3.22,5.75.45-.3c-.14-.2,0-.36-.05-.55C579.57,121.41,579.12,121.65,579.51,122Zm-3,1.77c.07.11.33.1.22-.15S576.36,123.51,576.47,123.77Zm-7.71,5.4c0-.1-.4-.14-.36,0S568.8,129.35,568.76,129.17Zm.62-19.14c-.19,0,0-.36.09-.35S569.48,110,569.38,110Zm6.82,11.89c.21-.34.59-.2.36,0-.06.06-.19.09-.23.15C576.09,122.5,576.08,122.11,576.2,121.92Z"/><path d="M684.3,50.34l-1.36.93a1.9,1.9,0,0,0-1.27-1c.05-.8-1.12-.76-.36-1.38-.21-.21-.49.11-.7-.18-.75-.75-.05-1.13-.31-1.75-.71-1.13-1.19-1.13-1.16-2.13h1.15a2.15,2.15,0,0,1-1,1.91.91.91,0,0,1-.11-.22,3,3,0,0,1-.2.47c-.13.2-1.27.8-1.07,1.55-.58.67-1.58.62-.93,1.33-.29.59-.69.23-1,1s-.9,1.7-.79,2.41c-.78,0-1.31,2.16-2.09,2.17a6.46,6.46,0,0,1-1,2l-.86,1.23-.82-1.23c-.5-.76-.87-1.4-1.53-1.52a2.56,2.56,0,0,0-.71-1.48c.82-.4-.5-1.36-.11-1.87-.39-.22-.78-.51-1.25-.14A4.38,4.38,0,0,0,665.48,50c1.82-1.12-1.55-1.44-.56-2.55q-.52-.15-1-.27a10.28,10.28,0,0,0-1.53-2.55h.76a10.45,10.45,0,0,0-.91,2C661,47.28,661,48.8,660,49c.21,2.19-2.79,4-3.22,6.31a.73.73,0,0,1-.86.39c-.09,1-.31.95-.66,1.76l-.56,1.3-1.45-1.3-.06,0c0-.86.63-1.57,0-2.6-.3-.51-.78.38-1.15.45-1-1.37-1.41-3.21-2.92-3.9a1.32,1.32,0,0,1,.14-1.07c-1.09.11-1.09-1.6-1-2.28a.23.23,0,0,0-.39.26c-.66,0-1.33-1.55-1-1.92-.21-.23-.29,0-.2.13-.46-.56-1-1.12-1.54-1.75h1.17a4.74,4.74,0,0,1-1.54,1.71c-.13.34.1.59-.07.94a11.28,11.28,0,0,0-3.19,5,1.85,1.85,0,0,0-.86.39c-.3.38-.08.63-.42,1-.27.71-.7.18-1,.62-.57.63.12.95-.18,1.52l-.89,1.45-.85,1.38-1-1.38a22.78,22.78,0,0,0-3.49-4.05,10.88,10.88,0,0,0-.85-2.1l1.36-.93a1,1,0,0,1,.32.84c.27.24.59.11.86.4.11.4,1,1,.55,1.25.27.25.59.12.85.41a11.3,11.3,0,0,1,1.84,3.19h-1a10.16,10.16,0,0,0,1-1.07l.39.28c.28-.4.37-1.66,1.08-1.55.36-1.64,1-2,1.37-3.66.32.15.53-.61.86-.39,0-.93.88-2.06,1.26-3.07.23-.52.54-.5.81-.75.45-.77.61-2.09,1.34-2.36l.06-.09.72-1.23,1,1.23c1.21,1.53,2.8,3.06,3.56,5.29.42.48.88.63,1.26,1.43-.19.07-.36-.09-.55,0,.34,1.15,1.72,1.42,1.55,1.88.16.22.37,0,.55,0,.55.51-.12.71-.14,1.07.43.1.66.79.56,1.26a9.14,9.14,0,0,0,1.1-.09c.45.55.22.92-.35,1.21l.49.71h-.73l.28-.39c0-1.16,1-1.37.44-2.33.15-.09,1.08-.51.62-.88a12.47,12.47,0,0,0,1.71-.79c-.14-.76.62-1.75.6-2.54a4.75,4.75,0,0,1,2.33-1.67c-.28-.94,1.15-2.66,2-2.88.12-.28-.29-.43-.09-.72a4.85,4.85,0,0,0,.34-.42l.68-.94.61.94c.57.87,1.19,1.28,1.75,2.09-.3.17-.59.34-.45.62.25.5.55-.43.45-.62,1-.09-.2.78.2,1.16a.66.66,0,0,0,.3-.85c1.69,1.95,2.62,3.54,4.48,5.78.47.43-.47,1.83.56,1.25.14.22-.13.34-.25.49s.25.41.5.31c0,.44-.24.81,0,1.3.25-.12.32-.29.24-.49.44-.08.48.43.11.58.15.22.36,0,.55,0a2.9,2.9,0,0,0,.19.77h-1.54c.72-.7.92-1.63,2.11-2.23.13-.28-.12-.27-.2-.14.18-1.26,1.51-1.51,2.9-2.92.38-.58-.49-.87-.52-1.35.22-.21.5.12.7-.17a5.16,5.16,0,0,1,1.7-2.44c.4-1.36.72-2.09,1.85-2.66,0,0,0-.06,0-.08a.56.56,0,0,0,0-.08l.08-.12,0-.13.19-.79,1.12.79a3.38,3.38,0,0,1,1.44,2.23h0A27.77,27.77,0,0,0,684,49.34c.34.33.14.53-.09.72A1,1,0,0,1,684.3,50.34Zm-41.81-1.49c-.1,0-.14.4,0,.36S642.67,48.8,642.49,48.85Zm1.76-3.38c-.1,0-.14.4,0,.36S644.43,45.42,644.25,45.47Zm14.6,3.43c1-.41-1,.08,0,0Zm5.76-3.22-.31-.45c-.19.14-.35,0-.54.05C664,45.62,664.25,46.07,664.61,45.68Zm1.76,3c.11-.08.11-.34-.15-.23S666.12,48.84,666.37,48.73Zm5.4,7.7c-.1,0-.14.41,0,.36S672,56.39,671.77,56.43Zm-19.14-.62c0,.19-.36,0-.35-.08S652.65,55.72,652.63,55.81ZM664.52,49c-.33-.21-.2-.59.05-.36.06.06.09.19.15.23C665.1,49.1,664.71,49.11,664.52,49Z"/><path d="M383.85,49.13v1.65a9.93,9.93,0,0,0-3.92.46c-1.6-.49-3.17.49-3.38-.49-.74.06-.47.48-1.37.48-2.62.2-2.39-.59-4-.73-3.37,0-4,.35-6.09-.26a12.59,12.59,0,0,1-5.43.22,1.23,1.23,0,0,1,.3-.22c-.53.06-1,.11-1.24.11-.6,0-3.47-.6-4.74,0-2.19-.09-3.53-.95-4.07,0-1.63.1-1.46-.44-3.38-.24s-4.79.21-6.11.7c-1.19-.62-6.32.14-7.44-.5-4.73.65-8.79-.14-10.85.69a14.86,14.86,0,0,0-4.06-.25c.32-.91-3.53-.36-4-1-1,.21-2.15.35-2.05,1a26.86,26.86,0,0,0-6.77-.25c.28-2.14-5.16.46-6.08-1-.69.23-1.37.47-2,.71a68.91,68.91,0,0,0-12.88.21c-3-.59-6.2.25-8.11-.5-4.24,1.41-12.24,0-17.63.91-1.16,0-1.75-.18-2-.49a24.92,24.92,0,0,1-4.75.47c-1.72-.51-2.36-1.4-5.39-1.45-1.47,0-.32.85-.7,1.2-4.26.06-8.63-.65-12.2.2a3.84,3.84,0,0,1-2-.72c-1.32,1-4.84,0-6.08-.5-.85.06-.69.48,0,.48-.93.54-5.1.21-5.41-.25-.77,0-.38.24,0,.24-3.54.1-7.61.63-11.51,0-.89.08-1.07.42-2,.47a68.93,68.93,0,0,0-14.91.2,8,8,0,0,0-2-.48c-1.21,0-1.43.28-2.71.23-1.85.17-1.36-.48-2.7-.49-2.13-.12-1.8.64-3.4.71-6.05.16-12.77.08-17.62.68-1.45-.18-3.58-.44-5.56-.49V49.13a6.14,6.14,0,0,1,2.21.21c.89-.09,1.07-.42,2-.48,1,.14,3.51-.27,3.38.25.89-.08,1.07-.42,2-.47,6.18-.21,9.2.41,12.86.51,0,.16,0,.32,0,.48,1.21,0,4-.64,4.74,0,3.9-.63,5.51-.33,9.5-.93.15.35,2,.09,2,.48,2-.49,5.52-.43,8.15-.69a10.75,10.75,0,0,1,2.7.24c2.24-.06,5.19-.67,6.78-.22,5-.13,10.45-.6,16.25,0a30.17,30.17,0,0,1,4.75-.22c-.13.19-.69.24-.69.47,2.86.37,5.38-.62,6.1-.22.66,0,.53-.29.69-.48,1.82-.16,1.3.5,2,.73a6.08,6.08,0,0,1,3.39.25c.37-.36.68-.28,1.37-1,1.79-.07,2.22.34,2,1h3.39c2.47-.61,4.2,0,5.43-1,.42.07,2.6.6,2.71,0,1.2.37,2.64.66,4.05,1,1.39-.55,4.5-.48,6.11-1a25.41,25.41,0,0,1,6.76,1c1.55-.76,7.13-.55,8.8,0,.74-.06.47-.48,1.36-.48,3.39.17,5.25-.21,8.14-.22-.07.34-.13.68.66.72,1.37.08-.13-.69-.66-.72,1.17-.84,1.35.61,2.69.49,0-.41-.49-.62-1.33-.72,6.43-.29,11.05-.17,18.29-.44,1.57-.14,3.13,1.43,3.38.25.66,0,.52.3.67.49s1.19,0,1.36-.24a9.27,9.27,0,0,0,2.69.73c.12-.28-.14-.43-.66-.49.44-.4,1.56-.14,1.35.25.65,0,.53-.3.68-.48,3.3.71,5.81-.05,9.47.74.77,0,.38-.24,0-.24,2.86-.56,5.28.4,10.15.75,1.74,0,1.11-.89,2.05-1.19.74.06.45.48,1.35.48a32,32,0,0,1,7.45,0c3.39-.43,5.35-.59,8.13,0l.19,0s.07-.05.08-.08h.37a20.9,20.9,0,0,1,7,0h0c3.63.06,7,.14,9.59,0,1.16-.08,1.28.19,1.35.49A4.82,4.82,0,0,1,383.85,49.13Zm-183.64.32c-.18-.07-1,.11-.68.23C199.72,49.75,200.56,49.57,200.21,49.45Zm9.5-.46c-.19-.07-1,.11-.69.24C209.21,49.3,210.05,49.12,209.71,49Zm65-.07c2.25.59-1.63-.81,0,0Zm20.32-.18h-1.36c0,.25-.55.29-.68.48C294.07,49.19,295.35,49.25,295.05,48.74Zm8.8.26c0-.13-.55-.27-.68,0S303.71,49.27,303.85,49Zm25,.79c-.19-.07-1,.11-.68.24C328.39,50.09,329.24,49.91,328.89,49.79Zm-81.29.5c.35.13-.49.31-.68.24C246.57,50.41,247.42,50.22,247.6,50.29Zm54.18.39c-.91.15-1.51-.17-.67-.25.19,0,.5,0,.67,0C302.82,50.26,302.29,50.59,301.78,50.68Z"/><path d="M632.91,49.13v1.65a10.56,10.56,0,0,0-4,.46c-1.64-.49-3.25.49-3.47-.49-.76.06-.48.48-1.4.48-2.7.2-2.47-.59-4.17-.73-3.46,0-4.16.35-6.26-.26a13.29,13.29,0,0,1-5.58.22,1.23,1.23,0,0,1,.3-.22c-.54.06-1,.11-1.28.11-.61,0-3.56-.6-4.87,0-2.25-.09-3.63-.95-4.18,0-1.69.1-1.51-.44-3.48-.24s-4.93.21-6.29.7c-1.22-.62-6.5.14-7.65-.5-4.87.65-9-.14-11.17.69a15.65,15.65,0,0,0-4.17-.25c.33-.91-3.63-.36-4.16-1-1,.21-2.22.35-2.11,1a28.37,28.37,0,0,0-7-.25c.28-2.14-5.31.46-6.25-1-.72.23-1.42.47-2.11.71a72.81,72.81,0,0,0-13.24.21c-3.11-.59-6.38.25-8.35-.5-4.36,1.41-12.6,0-18.14.91-1.19,0-1.8-.18-2.08-.49a26.26,26.26,0,0,1-4.89.47c-1.77-.51-2.42-1.4-5.54-1.45-1.51,0-.33.85-.72,1.2-4.38.06-8.88-.65-12.55.2A3.94,3.94,0,0,1,476,50c-1.37,1-5,0-6.26-.5-.88.06-.71.48,0,.48-1,.54-5.25.21-5.57-.25-.79,0-.39.24,0,.24-3.65.1-7.84.63-11.85,0-.92.08-1.11.42-2.1.47a72.84,72.84,0,0,0-15.33.2,8.54,8.54,0,0,0-2.08-.48c-1.25,0-1.48.28-2.8.23-1.9.17-1.39-.48-2.77-.49-2.19-.12-1.86.64-3.5.71-6.23.16-13.14.08-18.13.68-1.48-.18-3.68-.44-5.72-.49V49.13a6.43,6.43,0,0,1,2.27.21c.92-.09,1.11-.42,2.11-.48,1,.14,3.6-.27,3.47.25.92-.08,1.11-.42,2.1-.47,6.36-.21,9.47.41,13.23.51,0,.16,0,.32,0,.48,1.25,0,4.07-.64,4.88,0,4-.63,5.66-.33,9.78-.93.14.35,2.07.09,2.07.48,2.05-.49,5.68-.43,8.38-.69a11.42,11.42,0,0,1,2.78.24c2.31-.06,5.34-.67,7-.22,5.11-.13,10.75-.6,16.71,0a32,32,0,0,1,4.89-.22c-.14.19-.7.24-.71.47,3,.37,5.54-.62,6.28-.22.67,0,.55-.29.71-.48,1.87-.16,1.33.5,2.07.73a6.39,6.39,0,0,1,3.48.25c.38-.36.7-.28,1.41-1,1.84-.07,2.28.34,2.07,1h3.48c2.55-.61,4.33,0,5.6-1,.42.07,2.67.6,2.78,0,1.24.37,2.72.66,4.16,1,1.44-.55,4.64-.48,6.3-1a26.76,26.76,0,0,1,6.94,1c1.6-.76,7.35-.55,9.06,0,.76-.06.48-.48,1.4-.48,3.49.17,5.4-.21,8.37-.22-.07.34-.13.68.68.72,1.42.08-.13-.69-.68-.72,1.21-.84,1.39.61,2.78.49,0-.41-.51-.62-1.38-.72,6.62-.29,11.37-.17,18.82-.44,1.62-.14,3.22,1.43,3.48.25.68,0,.53.3.69.49s1.22,0,1.4-.24a9.62,9.62,0,0,0,2.77.73c.12-.28-.15-.43-.69-.49.46-.4,1.61-.14,1.39.25.68,0,.55-.3.71-.48,3.39.71,6-.05,9.73.74.8,0,.4-.24,0-.24,2.93-.56,5.42.4,10.43.75,1.79,0,1.14-.89,2.12-1.19.76.06.46.48,1.38.48a33.87,33.87,0,0,1,7.67,0c3.48-.43,5.5-.59,8.36,0l.2,0s.07-.05.08-.08h.38a22.1,22.1,0,0,1,7.17,0h0c3.73.06,7.25.14,9.87,0,1.19-.08,1.31.19,1.38.49A5.09,5.09,0,0,1,632.91,49.13ZM444,49.45c-.19-.07-1.06.11-.7.23C443.48,49.75,444.35,49.57,444,49.45Zm9.76-.46c-.19-.07-1.06.11-.7.24C453.24,49.3,454.11,49.12,453.75,49Zm66.9-.07c2.32.59-1.67-.81,0,0Zm20.9-.18h-1.39c0,.25-.57.29-.71.48C540.55,49.19,541.87,49.25,541.55,48.74Zm9.05.26c0-.13-.55-.27-.69,0S550.47,49.27,550.6,49Zm25.77.79c-.19-.07-1.06.11-.7.24C575.86,50.09,576.73,49.91,576.37,49.79Zm-83.63.5c.36.13-.51.31-.7.24C491.69,50.41,492.55,50.22,492.74,50.29Zm55.74.39c-.94.15-1.56-.17-.69-.25.19,0,.51,0,.69,0C549.54,50.26,549,50.59,548.48,50.68Z"/><path d="M467.9,49.47h1.65c0,.23.05.45.46.59-.5.23.49.47-.49.5.06.11.48.07.48.2.2.4-.6.36-.73.61,0,.5.34.6-.26.91.39.25.6.5.22.81l-.22,0a.84.84,0,0,1,.11.18c0,.09-.6.52,0,.71-.1.33-1,.53,0,.61.1.25-.44.22-.25.51s.22.71.71.91c-.62.18.14,1-.5,1.11.65.71-.14,1.32.69,1.63-.28.12-.28.36-.25.61-.91,0-.36.52-1,.6a1.19,1.19,0,0,0,1,.31c-.46.38-.35.54-.26,1-2.13,0,.47.77-1,.91l.71.3a1.71,1.71,0,0,0,.21,1.93c-.59.45.25.93-.5,1.21,1.41.64,0,1.84.91,2.64,0,.18-.18.26-.49.3.48.33.27.36.47.71-.51.26-1.4.36-1.45.81-.05.22.85,0,1.19.11.07.63-.64,1.29.21,1.82a1.21,1.21,0,0,1-.72.3c1,.2,0,.73-.5.91.06.13.48.11.48,0,.54.14.21.77-.25.81,0,.12.24.06.24,0,.1.53.62,1.14,0,1.73.09.13.42.16.48.3-.58.85-.29,1.47.2,2.23a1.33,1.33,0,0,0-.49.3c0,.19.29.22.24.41.17.28-.48.2-.49.4s.64.27.71.51a5.45,5.45,0,0,0,.67,2.64,2.23,2.23,0,0,0-.48.83H467.9c0-.12,0-.24.21-.33-.09-.13-.43-.16-.48-.31.13-.14-.27-.52.25-.5-.08-.13-.42-.16-.47-.31-.21-.92.41-1.37.51-1.92h.48c0-.18-.64-.59,0-.71-.63-.58-.34-.82-.93-1.42.34,0,.09-.3.48-.3-.49-.3-.43-.83-.7-1.22-.09-.21.17-.27.25-.4-.06-.34-.67-.78-.22-1-.13-.74-.6-1.56,0-2.43-.07-.24-.37-.38-.22-.71.19,0,.23.1.47.1.37-.43-.62-.8-.22-.91,0-.1-.29-.08-.48-.1-.16-.28.5-.2.73-.3-.31-.12-.1-.39.25-.51-.36-.06-.28-.1-1-.21-.07-.26.34-.33,1-.3,0-.17,0-.33,0-.5-.6-.37,0-.63-.94-.82.07-.06.6-.38,0-.4a7.64,7.64,0,0,0,1-.61c-.55-.21-.48-.67-1-.91.1-.49.34-.61,1-1-.76-.23-.56-1.07,0-1.32,0-.11-.47-.07-.47-.2.17-.51-.21-.79-.22-1.22.34,0,.68,0,.72-.1s-.69,0-.72.1c-.84-.18.61-.2.49-.4-.41,0-.63.07-.73.2-.29-1-.16-1.66-.43-2.74-.14-.23,1.43-.47.25-.51,0-.09.3-.07.48-.1.34,0,0-.17-.23-.2.24-.13.65-.2.72-.4-.27,0-.42,0-.48.1-.4-.07-.14-.24.25-.2,0-.1-.3-.08-.48-.11.71-.49-.05-.87.74-1.41,0-.12-.24-.06-.24,0-.56-.43.4-.79.75-1.52,0-.26-.89-.17-1.19-.31.06-.11.47-.07.48-.2-.16-.37-.4-.77,0-1.11-.43-.51-.59-.81,0-1.22l0,0h-.08s0,0,0-.06a.61.61,0,0,1,0-1h0a3.84,3.84,0,0,0,0-1.43c-.08-.18.19-.2.49-.21A.35.35,0,0,1,467.9,49.47Zm.31,27.47c-.06,0,.12.16.24.1S468.34,76.89,468.21,76.94Zm-.45-1.42c-.07,0,.11.16.24.1S467.88,75.47,467.76,75.52Zm-.07-9.73c.59-.33-.81.25,0,0Zm-.18-3c0,.07,0,.14,0,.21.24,0,.29.08.48.1C468,62.9,468,62.71,467.51,62.75Zm.26-1.31c-.13,0-.27.08,0,.1S468,61.46,467.77,61.44Zm.79-3.75c-.07,0,.11.16.23.1S468.68,57.64,468.56,57.69Zm.5,12.16c.12,0,.3.08.24.1S469,69.88,469.06,69.85Zm.39-8.1c.15.13-.17.22-.25.1s0-.08,0-.1S469.36,61.67,469.45,61.75Z"/><path d="M320.55,49.47h1.65a.79.79,0,0,0,.46.88c-.49.35.49.7-.49.75.06.17.48.11.48.31.2.58-.59.53-.73.9-.05.75.35.9-.26,1.36.39.37.6.74.23,1.21a1.28,1.28,0,0,1-.23-.06.86.86,0,0,1,.11.28c0,.13-.6.77,0,1-.1.49-1,.79,0,.91.1.37-.44.33-.24.76s.21,1.07.7,1.36c-.62.27.14,1.42-.5,1.67.65,1-.14,2,.69,2.42-.28.18-.28.54-.25.91-.91-.07-.36.79-1,.9a1,1,0,0,0,.95.46c-.46.57-.34.82-.25,1.52-2.14-.07.46,1.15-1,1.35.23.16.47.31.71.46a3.62,3.62,0,0,0,.21,2.88c-.59.67.25,1.38-.5,1.81,1.41,1,0,2.74.91,3.94,0,.26-.18.39-.49.45.49.49.27.54.47,1.07-.51.38-1.4.52-1.45,1.2-.05.33.85.07,1.2.16.06,1-.65,1.93.2,2.72a1.08,1.08,0,0,1-.72.45c1,.3,0,1.09-.5,1.36.06.19.48.16.48,0,.54.2.21,1.14-.25,1.21,0,.17.24.08.24,0,.1.79.63,1.7,0,2.57.08.2.42.24.47.46a3.68,3.68,0,0,0,.2,3.33,1.23,1.23,0,0,0-.48.45c0,.27.29.32.23.61.17.41-.48.3-.49.6-.12.47.64.4.71.76.16,1.35.09,2.85.68,3.94a3.62,3.62,0,0,0-.49,1.24h-1.65a.42.42,0,0,1,.21-.49c-.09-.2-.42-.24-.48-.46.14-.22-.27-.78.25-.75-.08-.2-.42-.24-.47-.46-.21-1.38.41-2.06.51-2.88h.48c0-.27-.63-.89,0-1.06-.63-.87-.33-1.23-.93-2.13.35,0,.09-.45.48-.45-.49-.44-.43-1.23-.69-1.82-.1-.32.16-.4.24-.6-.06-.5-.67-1.16-.22-1.52-.13-1.11-.6-2.33,0-3.63-.07-.36-.37-.57-.22-1.06.19,0,.24.15.47.15.37-.64-.62-1.2-.22-1.36,0-.15-.29-.12-.48-.15-.16-.41.5-.29.73-.46-.3-.18-.1-.57.25-.75-.36-.08-.28-.15-1-.31-.07-.4.34-.49,1-.45,0-.25,0-.5,0-.75-.61-.56,0-.94-.95-1.22.07-.09.61-.58,0-.61a6.94,6.94,0,0,0,1-.9c-.55-.31-.48-1-.95-1.37.1-.72.34-.9,1-1.51-.76-.34-.55-1.59,0-2-.06-.17-.48-.11-.48-.31.17-.76-.21-1.17-.22-1.82.34,0,.68,0,.72-.14s-.69,0-.72.14c-.84-.26.61-.3.49-.6-.41,0-.62.11-.72.3-.29-1.44-.17-2.47-.44-4.09-.14-.35,1.43-.7.25-.76,0-.14.3-.11.49-.14s0-.27-.24-.31c.24-.2.65-.29.73-.6-.28,0-.43,0-.49.15-.4-.1-.14-.35.25-.3,0-.15-.3-.12-.48-.16.71-.73-.05-1.29.75-2.11a.12.12,0,0,0-.24,0c-.57-.64.39-1.18.74-2.27,0-.39-.89-.25-1.19-.46.06-.16.48-.1.48-.3-.16-.56-.4-1.15,0-1.67-.43-.75-.59-1.19,0-1.81l0-.05h-.08v-.09c-.37-.46-.39-1.28,0-1.55h0a8.7,8.7,0,0,0,0-2.15c-.09-.26.18-.28.48-.3A.45.45,0,0,1,320.55,49.47Zm.32,41c-.07,0,.11.23.23.16S321,90.44,320.87,90.51Zm-.46-2.12c-.07,0,.11.23.24.16S320.54,88.32,320.41,88.39Zm-.06-14.53c.58-.51-.82.36,0,0Zm-.19-4.54c0,.1,0,.2,0,.3.25,0,.29.12.48.15C320.61,69.54,320.67,69.25,320.16,69.32Zm.26-2c-.13,0-.27.12,0,.15S320.69,67.38,320.42,67.35Zm.79-5.6c-.07,0,.11.23.24.16S321.33,61.68,321.21,61.75Zm.5,18.17c.13-.08.31.11.24.15S321.65,80,321.71,79.92Zm.39-12.11c.16.21-.17.34-.25.15,0,0,0-.11,0-.15C321.68,67.58,322,67.7,322.1,67.81Z"/><path d="M249.54,50.57h1.65c0,.26.06.5.46.65-.49.27.49.53-.49.57.06.12.48.07.48.22.2.44-.59.4-.73.68,0,.56.35.67-.26,1,.39.27.6.55.23.9a1,1,0,0,1-.22,0,.73.73,0,0,1,.1.21c0,.1-.6.58,0,.79-.1.36-.95.59,0,.68.09.27-.45.24-.25.56s.21.8.7,1c-.62.2.14,1-.5,1.24.65.79-.14,1.47.69,1.81-.28.13-.28.4-.25.68-.9-.06-.35.59-1,.67a1.13,1.13,0,0,0,1,.35c-.46.42-.34.61-.25,1.12-2.14,0,.46.86-1,1l.72.34a2.07,2.07,0,0,0,.2,2.15c-.58.5.25,1-.5,1.35,1.42.71,0,2,.91,2.94,0,.19-.18.29-.48.34.48.36.26.4.46.79-.51.29-1.4.39-1.45.9,0,.24.85,0,1.2.12.06.71-.65,1.44.21,2a1.28,1.28,0,0,1-.73.34c1,.22,0,.81-.5,1,.06.14.48.12.48,0,.54.16.21.85-.25.91,0,.12.24.06.24,0,.1.59.63,1.27,0,1.92.08.15.42.18.47.34a2.16,2.16,0,0,0,.2,2.48,1.29,1.29,0,0,0-.48.34c0,.2.29.24.23.45.17.31-.48.23-.49.45s.64.31.71.57a6.62,6.62,0,0,0,.68,2.94,2.51,2.51,0,0,0-.49.93h-1.65c0-.13,0-.28.21-.37-.08-.15-.42-.18-.48-.34.14-.16-.27-.59.25-.56-.08-.15-.42-.18-.47-.35-.21-1,.41-1.53.51-2.14H250c0-.2-.63-.66,0-.79-.64-.65-.34-.92-.94-1.58.35,0,.09-.34.49-.34-.5-.33-.44-.92-.7-1.36-.1-.24.17-.3.25-.45-.07-.37-.68-.87-.23-1.13-.12-.83-.6-1.74,0-2.71-.08-.27-.38-.43-.23-.79.19,0,.24.11.48.11.37-.48-.63-.9-.23-1,0-.11-.29-.09-.47-.11-.17-.31.5-.22.72-.34-.3-.13-.09-.43.25-.56-.36-.06-.28-.12-1-.23-.06-.3.34-.37,1-.34,0-.19,0-.37,0-.56-.61-.41,0-.7-1-.91.07-.07.61-.43,0-.45a7.19,7.19,0,0,0,1-.67c-.55-.24-.48-.76-.94-1,.09-.54.33-.67,1-1.12-.76-.26-.55-1.19,0-1.47-.06-.12-.48-.08-.48-.23.17-.56-.21-.87-.22-1.35.34,0,.68,0,.73-.11s-.7,0-.73.11c-.84-.2.61-.23.49-.45-.41,0-.62.08-.72.22-.29-1.07-.16-1.84-.43-3.05-.15-.26,1.42-.52.24-.57,0-.11.3-.08.49-.11s0-.2-.24-.23c.24-.15.65-.21.73-.44-.28,0-.43,0-.48.11-.41-.08-.15-.26.24-.23,0-.11-.29-.09-.48-.11.72-.55-.05-1,.75-1.58-.05-.13-.24-.07-.24,0-.57-.48.39-.88.74-1.7,0-.28-.89-.18-1.19-.34.06-.12.48-.07.48-.22-.16-.42-.4-.86,0-1.25-.43-.56-.58-.89,0-1.35l0,0-.09,0v-.06c-.36-.35-.39-1,0-1.16h0a4.83,4.83,0,0,0,0-1.6c-.09-.19.19-.21.48-.23A.37.37,0,0,1,249.54,50.57Zm.32,30.63c-.07,0,.11.17.24.12S250,81.14,249.86,81.2Zm-.46-1.58c-.07,0,.12.17.24.11S249.53,79.56,249.4,79.62Zm-.06-10.85c.58-.37-.81.27,0,0Zm-.19-3.39v.23c.24,0,.28.09.47.11C249.6,65.55,249.66,65.33,249.15,65.38Zm.26-1.47c-.13,0-.27.1,0,.12S249.69,63.94,249.41,63.91Zm.79-4.17c-.07,0,.11.17.24.11S250.32,59.68,250.2,59.74Zm.5,13.56c.13-.06.31.08.24.11S250.64,73.33,250.7,73.3Zm.39-9c.16.15-.17.25-.24.11s0-.08,0-.11C250.67,64.09,251,64.17,251.09,64.26Z"/><path d="M574.62,167.74v1.65a7,7,0,0,0-3.23.46c-1.32-.49-2.6.49-2.78-.49-.61.06-.38.48-1.12.48-2.16.2-2-.59-3.33-.73-2.78,0-3.33.35-5-.26a8.55,8.55,0,0,1-4.46.23.73.73,0,0,1,.24-.22c-.43,0-.81.1-1,.1-.49,0-2.85-.6-3.9,0-1.8-.1-2.9-.95-3.35,0-1.34.09-1.2-.45-2.78-.25s-3.94.21-5,.7c-1-.61-5.2.14-6.12-.5-3.89.65-7.24-.14-8.93.69a10.78,10.78,0,0,0-3.35-.25c.27-.9-2.9-.35-3.32-1-.82.21-1.78.36-1.69,1a18.22,18.22,0,0,0-5.57-.26c.23-2.13-4.25.46-5-1-.58.24-1.14.47-1.69.72a46.11,46.11,0,0,0-10.59.2c-2.49-.58-5.11.25-6.68-.5-3.49,1.42-10.08,0-14.51.91-1,0-1.45-.18-1.67-.48a17.52,17.52,0,0,1-3.91.47c-1.41-.52-1.94-1.41-4.43-1.46-1.21,0-.27.85-.58,1.2-3.5.06-7.11-.65-10,.21a2.83,2.83,0,0,1-1.66-.73c-1.09,1-4,0-5-.5-.7.06-.57.48,0,.48-.76.54-4.19.22-4.45-.25-.63,0-.31.24,0,.24-2.92.11-6.27.63-9.48,0-.74.08-.89.42-1.68.47a47.62,47.62,0,0,0-12.27.2,6.1,6.1,0,0,0-1.66-.48c-1,0-1.19.29-2.24.23-1.52.17-1.11-.48-2.22-.49-1.75-.11-1.49.65-2.8.72-5,.16-10.51.08-14.51.67a41.91,41.91,0,0,0-4.57-.49v-1.65A4.19,4.19,0,0,1,390,168c.73-.08.88-.42,1.68-.47.81.13,2.89-.28,2.78.24.74-.08.89-.42,1.68-.47,5.09-.21,7.57.41,10.59.51,0,.16,0,.32,0,.48,1,0,3.25-.63,3.9,0,3.21-.63,4.53-.34,7.82-.94.12.35,1.66.09,1.67.49,1.63-.5,4.54-.44,6.7-.7a7.28,7.28,0,0,1,2.22.25c1.85-.07,4.28-.68,5.58-.23,4.09-.12,8.6-.6,13.38.05a20.41,20.41,0,0,1,3.91-.23c-.11.19-.57.24-.57.48,2.36.37,4.43-.62,5-.23.54,0,.44-.29.57-.47,1.5-.16,1.07.5,1.66.72a4.2,4.2,0,0,1,2.78.25c.31-.36.56-.28,1.13-1,1.47-.06,1.83.34,1.66,1H467c2-.61,3.46,0,4.47-.95.34.07,2.14.61,2.23,0a32.24,32.24,0,0,0,3.33,1c1.15-.54,3.71-.48,5-.94a17,17,0,0,1,5.56,1c1.28-.76,5.88-.56,7.25,0,.6-.06.38-.48,1.12-.48,2.79.17,4.32-.21,6.69-.22-.05.35-.1.68.55.73,1.13.07-.1-.7-.55-.73,1-.84,1.12.61,2.23.49,0-.41-.41-.62-1.11-.72,5.3-.29,9.1-.16,15.06-.43,1.29-.15,2.57,1.42,2.79.25.54,0,.42.29.55.48s1,0,1.11-.24a6.63,6.63,0,0,0,2.22.73c.1-.28-.11-.43-.55-.48.37-.41,1.29-.15,1.11.24.55,0,.44-.29.57-.48,2.72.72,4.78,0,7.79.75.63,0,.31-.24,0-.24,2.35-.57,4.35.39,8.35.75,1.43,0,.92-.9,1.7-1.2.6.06.37.48,1.1.48a21.75,21.75,0,0,1,6.14,0c2.78-.43,4.4-.58,6.68,0l.16,0s.06-.06.07-.09h.3a14.24,14.24,0,0,1,5.74,0h0c3,.06,5.8.14,7.9,0,1-.09,1.05.19,1.1.48A3.77,3.77,0,0,1,574.62,167.74Zm-151.15.32c-.16-.07-.85.11-.56.24S423.75,168.18,423.47,168.06Zm7.81-.46c-.15-.06-.85.12-.56.24S431.57,167.73,431.28,167.6Zm53.52-.06c1.86.58-1.34-.81,0,0Zm16.73-.19h-1.12c0,.24-.46.28-.56.48C500.72,167.81,501.78,167.86,501.53,167.35Zm7.24.26c0-.13-.45-.27-.56,0S508.66,167.89,508.77,167.61Zm20.61.79c-.15-.07-.85.11-.56.24S529.67,168.53,529.38,168.4Zm-66.9.5c.28.13-.41.31-.57.24S462.32,168.84,462.48,168.9Zm44.59.39c-.76.16-1.25-.17-.56-.24.16,0,.42,0,.56,0C507.92,168.87,507.48,169.2,507.07,169.29Z"/><path d="M388.2,167.74v1.65a4,4,0,0,0-2.39.46c-1-.49-1.94.49-2.07-.49-.45.06-.28.48-.83.48-1.6.2-1.46-.59-2.47-.73-2.06,0-2.47.35-3.72-.26a4.79,4.79,0,0,1-3.31.23.65.65,0,0,1,.18-.22,6.65,6.65,0,0,1-.76.1c-.36,0-2.11-.6-2.89,0-1.33-.1-2.15-.95-2.48,0-1,.09-.89-.45-2.06-.25s-2.93.21-3.73.7c-.73-.61-3.86.14-4.54-.5-2.89.65-5.37-.14-6.63.69a5.92,5.92,0,0,0-2.47-.25c.19-.9-2.16-.35-2.47-1-.61.21-1.32.36-1.26,1a10.09,10.09,0,0,0-4.13-.26c.17-2.13-3.15.46-3.7-1-.43.24-.85.47-1.25.72a25.47,25.47,0,0,0-7.86.2c-1.84-.58-3.79.25-5-.5-2.58,1.42-7.47,0-10.76.91-.7,0-1.07-.18-1.23-.48a9.84,9.84,0,0,1-2.9.47c-1.05-.52-1.44-1.41-3.29-1.46-.89,0-.2.85-.43,1.2-2.6.06-5.27-.65-7.44.21a1.87,1.87,0,0,1-1.23-.73c-.81,1-3,0-3.72-.5-.52.06-.42.48,0,.48-.57.54-3.12.22-3.31-.25-.47,0-.23.24,0,.24-2.16.11-4.65.63-7,0-.54.08-.65.42-1.24.47a26.29,26.29,0,0,0-9.1.2,3.65,3.65,0,0,0-1.24-.48c-.74,0-.87.29-1.65.23-1.13.17-.83-.48-1.65-.49-1.3-.11-1.1.65-2.08.72-3.69.16-7.79.08-10.75.67a23.7,23.7,0,0,0-3.39-.49v-1.65a2.34,2.34,0,0,1,1.34.21c.55-.08.66-.42,1.25-.47.6.13,2.14-.28,2.06.24.55-.08.66-.42,1.25-.47,3.77-.21,5.61.41,7.85.51,0,.16,0,.32,0,.48.74,0,2.42-.63,2.9,0,2.38-.63,3.36-.34,5.8-.94.09.35,1.23.09,1.23.49,1.21-.5,3.37-.44,5-.7a4.11,4.11,0,0,1,1.65.25c1.37-.07,3.17-.68,4.14-.23,3-.12,6.38-.6,9.92.05a11.3,11.3,0,0,1,2.9-.23c-.08.19-.42.24-.42.48,1.74.37,3.28-.62,3.72-.23.4,0,.33-.29.42-.47,1.11-.16.79.5,1.23.72a2.38,2.38,0,0,1,2.06.25c.23-.36.42-.28.84-1,1.09-.06,1.36.34,1.23,1h2.07c1.51-.61,2.56,0,3.32-.95.25.07,1.58.61,1.65,0a19.25,19.25,0,0,0,2.47,1c.85-.54,2.75-.48,3.73-.94a9.69,9.69,0,0,1,4.12,1c1-.76,4.36-.56,5.38,0,.45-.06.28-.48.83-.48a42.4,42.4,0,0,0,5-.22c0,.35-.07.68.41.73.84.07-.08-.7-.41-.73.72-.84.83.61,1.65.49,0-.41-.3-.62-.82-.72,3.93-.29,6.75-.16,11.17-.43,1-.15,1.91,1.42,2.07.25.4,0,.31.29.4.48s.73,0,.83-.24c.55.24.81.65,1.65.73.07-.28-.09-.43-.41-.48.27-.41.95-.15.82.24.41,0,.33-.29.42-.48,2,.72,3.55,0,5.78.75.47,0,.23-.24,0-.24,1.75-.57,3.22.39,6.2.75,1.06,0,.67-.9,1.25-1.2.45.06.28.48.82.48a12,12,0,0,1,4.55,0c2.07-.43,3.27-.58,5,0l.12,0s0-.06.05-.09h.22a7.91,7.91,0,0,1,4.26,0h0c2.21.06,4.3.14,5.85,0,.71-.09.78.19.82.48A2.24,2.24,0,0,1,388.2,167.74Zm-112.09.32c-.12-.07-.63.11-.42.24S276.32,168.18,276.11,168.06Zm5.79-.46c-.11-.06-.63.12-.42.24S282.11,167.73,281.9,167.6Zm39.69-.06c1.38.58-1-.81,0,0Zm12.4-.19h-.82c0,.24-.34.28-.42.48C333.4,167.81,334.18,167.86,334,167.35Zm5.38.26c0-.13-.34-.27-.42,0A.22.22,0,0,0,339.37,167.61Zm15.28.79c-.11-.07-.63.11-.41.24S354.86,168.53,354.65,168.4Zm-49.61.5c.21.13-.31.31-.42.24S304.92,168.84,305,168.9Zm33.06.39c-.55.16-.92-.17-.41-.24.12,0,.31,0,.42,0C338.74,168.87,338.41,169.2,338.1,169.29Z"/><path d="M250.37,168.16h-1.65c0-.2-.05-.39-.46-.5.49-.2-.49-.4.49-.43-.06-.09-.48-.06-.48-.17-.2-.34.59-.31.73-.52.05-.43-.34-.51.26-.77-.39-.21-.6-.42-.22-.69l.22,0c-.06-.07-.11-.13-.11-.16s.6-.44,0-.6c.1-.28,1-.45,0-.52-.1-.21.44-.18.25-.43s-.22-.61-.71-.77c.62-.16-.14-.81.5-.95-.65-.6.14-1.12-.69-1.38.28-.1.28-.3.25-.51.91,0,.36-.45,1-.52a1.35,1.35,0,0,0-.95-.26c.46-.32.34-.46.26-.86,2.13,0-.47-.65,1-.77l-.71-.26a1.28,1.28,0,0,0-.21-1.63c.59-.39-.25-.79.5-1-1.41-.54,0-1.56-.91-2.24,0-.15.18-.23.49-.26-.49-.28-.27-.3-.47-.6.51-.22,1.4-.3,1.45-.69.05-.18-.85,0-1.2-.09-.06-.54.65-1.09-.2-1.55a1.33,1.33,0,0,1,.72-.25c-1-.17,0-.62.5-.78-.06-.1-.48-.08-.48,0-.54-.11-.21-.64.25-.68,0-.1-.24-.05-.24,0-.1-.44-.62-1,0-1.46-.08-.11-.42-.13-.47-.26.58-.72.29-1.24-.2-1.89a1.14,1.14,0,0,0,.48-.26c0-.15-.28-.18-.23-.34-.17-.24.48-.17.49-.34s-.64-.23-.71-.44c-.16-.77-.08-1.62-.67-2.24a1.76,1.76,0,0,0,.48-.7h1.65c0,.1,0,.21-.21.28.09.11.42.14.48.26-.14.12.27.44-.25.43.08.11.42.14.47.26.21.78-.41,1.17-.51,1.63h-.48c0,.15.64.5,0,.6.63.5.33.7.93,1.21-.35,0-.09.26-.48.26.49.25.43.7.69,1,.1.18-.16.23-.24.34.06.29.67.66.22.86.13.64.6,1.33,0,2.07.07.2.37.32.22.6a2.62,2.62,0,0,0-.47-.09c-.37.37.62.69.22.78,0,.08.29.07.48.09.16.23-.5.16-.73.25.3.11.1.33-.25.43.36,0,.28.09,1,.18.07.22-.34.28-1,.25,0,.15,0,.29,0,.43.61.32,0,.54,1,.69-.07.06-.6.33,0,.35a7.35,7.35,0,0,0-1,.51c.55.18.48.57.95.78-.1.41-.34.51-1,.86.76.19.56.9,0,1.11.06.1.48.06.48.18-.17.43.21.66.22,1-.34,0-.68,0-.72.08s.69,0,.72-.08c.84.15-.61.17-.49.34a1,1,0,0,0,.73-.17c.29.82.16,1.41.43,2.33.14.2-1.43.39-.25.43,0,.08-.3.06-.48.08-.34,0,0,.15.23.17-.24.12-.65.17-.73.35.28,0,.43,0,.49-.09.4.06.14.2-.25.17,0,.09.3.07.48.09-.71.42.05.74-.74,1.2,0,.1.24.05.24,0,.56.36-.4.67-.75,1.29,0,.22.89.14,1.19.26-.06.1-.48.06-.48.17.16.32.4.66,0,1,.43.43.59.68,0,1l0,0h.08a.06.06,0,0,0,0,0c.36.27.38.73,0,.89h0a2.81,2.81,0,0,0,0,1.22c.08.14-.19.16-.49.17A.33.33,0,0,1,250.37,168.16Zm-.31-23.33c.06,0-.12-.13-.24-.09S249.93,144.88,250.06,144.83Zm.45,1.21c.07,0-.11-.13-.24-.09S250.39,146.08,250.51,146Zm.07,8.26c-.59.28.81-.21,0,0Zm.18,2.58c0-.06,0-.12,0-.18a4.34,4.34,0,0,1-.48-.08C250.31,156.75,250.25,156.92,250.76,156.88ZM250.5,158c.13,0,.27-.06,0-.08S250.23,158,250.5,158Zm-.79,3.19c.07,0-.11-.14-.24-.09S249.59,161.22,249.71,161.18Zm-.5-10.33c-.13.05-.31-.06-.24-.09S249.28,150.83,249.21,150.85Zm-.39,6.88c-.15-.11.17-.19.25-.08s0,.06,0,.08C249.24,157.86,248.91,157.8,248.82,157.73Z"/><path d="M575,168.16h-1.65c0-.19-.06-.36-.46-.47.49-.19-.49-.37.49-.4-.06-.08-.48,0-.48-.16-.2-.31.59-.28.73-.48.05-.4-.35-.48.26-.72-.39-.19-.61-.39-.23-.64l.22,0c0-.06-.1-.11-.1-.14s.6-.41,0-.56c.1-.26.95-.42,0-.48-.09-.2.45-.18.25-.4s-.21-.57-.7-.73c.61-.14-.14-.75.5-.88-.65-.56.14-1-.69-1.28.28-.1.28-.29.25-.48.9,0,.35-.42,1-.48a1.35,1.35,0,0,0-1-.24c.47-.31.35-.44.26-.81,2.14,0-.46-.61,1-.71-.23-.09-.47-.17-.72-.25a1.12,1.12,0,0,0-.2-1.52c.58-.36-.25-.73.5-1-1.42-.5,0-1.45-.91-2.09,0-.13.18-.2.48-.24-.48-.25-.27-.28-.46-.56.51-.2,1.4-.28,1.45-.64,0-.17-.85,0-1.2-.08-.06-.5.65-1-.21-1.44a1.38,1.38,0,0,1,.73-.24c-1-.16,0-.58.5-.72-.06-.1-.48-.08-.48,0-.54-.11-.21-.61.25-.64,0-.09-.24-.05-.24,0-.11-.42-.63-.91,0-1.37-.08-.1-.42-.12-.47-.24.57-.67.28-1.16-.2-1.76a1.34,1.34,0,0,0,.48-.24c0-.15-.29-.17-.23-.32-.17-.22.48-.16.49-.32s-.64-.22-.72-.41c-.16-.71-.08-1.51-.67-2.08a1.66,1.66,0,0,0,.49-.66H575c.05.09,0,.2-.21.26.08.11.42.13.48.24-.14.12.27.42-.25.41.08.1.42.12.47.24.21.73-.41,1.09-.51,1.52h-.48c0,.14.63.47,0,.56.64.46.34.65.94,1.12-.35,0-.09.24-.49.24.5.24.44.66.7,1,.1.16-.17.21-.25.32.07.26.68.61.23.8.12.59.6,1.23,0,1.92.08.19.38.3.23.56a4.34,4.34,0,0,0-.48-.08c-.37.34.63.64.23.72,0,.08.29.07.47.09.16.21-.5.15-.72.23.3.1.09.31-.25.4.36,0,.28.08,1,.17.06.21-.34.26-1,.23,0,.14,0,.27,0,.41.61.29,0,.49,1,.64-.07.05-.61.31,0,.32a6.26,6.26,0,0,0-1,.48c.54.16.48.53.94.72-.09.39-.33.48-1,.8.77.19.56.85,0,1,.06.09.48.06.48.16-.17.41.21.63.22,1-.35,0-.68,0-.73.08s.7,0,.73-.08c.84.14-.61.16-.49.32.41,0,.62-.06.72-.16.29.76.16,1.31.43,2.16.15.19-1.42.37-.25.4,0,.08-.29.07-.48.08s0,.14.24.16c-.24.11-.65.16-.73.32.28,0,.43,0,.48-.08.41.06.15.19-.24.16,0,.08.29.07.48.08-.72.4,0,.69-.75,1.13,0,.09.24,0,.24,0,.57.33-.39.62-.75,1.2,0,.2.9.13,1.2.24-.06.09-.48.05-.48.16.16.29.4.61,0,.88.43.4.58.63,0,1l0,0h.09v.05c.36.25.39.68,0,.82h0a2.34,2.34,0,0,0,0,1.14c.09.14-.19.15-.48.16A.41.41,0,0,1,575,168.16Zm-.32-21.74c.07,0-.11-.12-.24-.08S574.6,146.46,574.72,146.42Zm.46,1.13c.06,0-.12-.13-.24-.08S575.05,147.59,575.18,147.55Zm.06,7.69c-.58.27.81-.19,0,0Zm.19,2.41v-.16a2.94,2.94,0,0,1-.48-.09C575,157.53,574.92,157.68,575.43,157.65Zm-.26,1c.13,0,.27-.07,0-.08S574.89,158.67,575.17,158.69Zm-.79,3c.07,0-.11-.12-.24-.08S574.25,161.69,574.38,161.65Zm-.5-9.62c-.13,0-.31-.06-.24-.08S573.94,152,573.88,152Zm-.39,6.41c-.16-.1.17-.18.24-.08s0,.06,0,.08S573.58,158.5,573.49,158.44Z"/><path d="M574.21,50.57h1.65a.6.6,0,0,0,.46.69c-.5.28.49.55-.49.59.06.13.48.08.48.24.2.46-.6.42-.73.71-.05.59.34.71-.26,1.07.39.29.6.58.22,1l-.22,0a.55.55,0,0,1,.11.22c0,.1-.6.6,0,.83-.1.38-.95.62,0,.71.1.29-.44.26-.25.59s.22.84.71,1.08c-.62.21.14,1.11-.5,1.3.65.83-.14,1.55.69,1.91-.28.14-.28.42-.25.71-.91-.06-.36.62-1,.71a1.09,1.09,0,0,0,.95.36c-.46.45-.34.64-.26,1.19-2.13,0,.47.9-1,1.06l.71.36a2.27,2.27,0,0,0,.21,2.26c-.59.53.25,1.09-.5,1.42,1.41.75,0,2.15.91,3.1,0,.2-.18.3-.49.35.48.38.27.42.47.84-.51.3-1.4.41-1.45.94,0,.26.85.06,1.2.12.06.75-.65,1.52.2,2.14a1.14,1.14,0,0,1-.72.36c1,.23,0,.85-.5,1.07.06.15.48.12.48,0,.54.16.21.89-.25.95,0,.13.24.06.24,0,.1.62.62,1.33,0,2,.08.16.42.19.47.36a2.33,2.33,0,0,0,.2,2.61,1.25,1.25,0,0,0-.49.36c0,.21.29.25.24.47.17.33-.48.24-.49.48s.64.31.71.59c.16,1.07.08,2.24.67,3.1a2.6,2.6,0,0,0-.48,1h-1.65c-.05-.14,0-.29.21-.39-.09-.15-.43-.19-.48-.35.13-.18-.27-.62.25-.6-.08-.15-.42-.19-.47-.36-.21-1.08.41-1.61.51-2.25h.48c0-.21-.64-.69,0-.83-.63-.69-.34-1-.93-1.67.34,0,.09-.35.48-.35-.49-.35-.43-1-.7-1.43-.09-.25.17-.32.25-.48-.06-.39-.67-.91-.22-1.19-.13-.87-.6-1.83,0-2.85-.07-.28-.37-.45-.22-.83.19,0,.23.12.47.12.37-.5-.62-.95-.22-1.07,0-.12-.29-.1-.48-.12-.16-.32.5-.23.73-.36-.31-.14-.1-.45.25-.59-.36-.06-.28-.12-1-.24-.07-.31.34-.39,1-.35,0-.2,0-.4,0-.6-.61-.43,0-.74-1-1,.07-.07.6-.46,0-.48a7.12,7.12,0,0,0,1-.71c-.55-.24-.48-.79-1-1.07.1-.57.34-.71,1-1.19-.76-.27-.56-1.25,0-1.54-.06-.13-.48-.08-.48-.24.17-.59-.21-.92-.22-1.43.34,0,.68,0,.72-.11s-.69,0-.72.11c-.84-.2.61-.23.49-.47a.84.84,0,0,0-.73.23c-.29-1.12-.16-1.93-.43-3.21-.14-.27,1.43-.54.25-.59,0-.11.3-.09.48-.12.34,0,0-.21-.23-.23.24-.16.65-.24.72-.48-.27,0-.42,0-.48.12-.4-.08-.14-.27.25-.24,0-.11-.3-.09-.48-.12.71-.58,0-1,.74-1.66,0-.13-.24-.07-.24,0-.56-.5.4-.93.75-1.78,0-.3-.89-.19-1.19-.36.06-.13.47-.08.48-.24-.16-.43-.4-.9,0-1.3-.43-.6-.59-.94,0-1.43l0,0-.08,0s0,0,0-.06a.79.79,0,0,1,0-1.23h0a5.29,5.29,0,0,0,0-1.68c-.08-.2.19-.22.49-.23A.4.4,0,0,1,574.21,50.57Zm.31,32.22c-.06,0,.12.18.24.12S574.65,82.73,574.52,82.79Zm-.45-1.66c-.07,0,.11.18.24.12S574.19,81.07,574.07,81.13ZM574,69.72c.59-.4-.81.28,0,0Zm-.18-3.57c0,.08,0,.16,0,.24.24,0,.29.1.48.12C574.27,66.32,574.33,66.1,573.82,66.15Zm.26-1.54c-.13,0-.27.09,0,.12S574.35,64.63,574.08,64.61Zm.79-4.4c-.07,0,.11.18.24.12S575,60.15,574.87,60.21Zm.5,14.27c.12-.06.31.08.24.12S575.3,74.51,575.37,74.48Zm.39-9.51c.15.16-.17.27-.25.12s0-.09,0-.12C575.34,64.79,575.67,64.88,575.76,65Z"/><path d="M468.73,168.16h-1.65c0-.19-.06-.37-.46-.48.49-.19-.49-.38.49-.41-.06-.09-.48-.06-.48-.17-.2-.32.59-.29.73-.49.05-.41-.35-.49.26-.74-.39-.2-.61-.4-.23-.66l.22,0c-.05-.07-.1-.12-.1-.15s.6-.42,0-.58c.1-.27,1-.43,0-.49-.09-.2.45-.18.25-.41s-.21-.59-.7-.75c.61-.14-.14-.77.5-.9-.65-.58.14-1.07-.69-1.32.27-.1.27-.29.25-.49.9,0,.35-.43,1-.5a1.41,1.41,0,0,0-1-.25c.46-.31.35-.44.26-.82,2.13,0-.46-.63,1-.74l-.72-.25a1.18,1.18,0,0,0-.2-1.56c.58-.37-.25-.76.5-1-1.42-.51,0-1.49-.91-2.14,0-.14.18-.21.48-.25-.48-.26-.27-.29-.47-.57.52-.21,1.41-.29,1.46-.66,0-.18-.85,0-1.2-.08-.06-.52.65-1-.21-1.49a1.38,1.38,0,0,1,.73-.24c-1-.16,0-.59.5-.74-.06-.11-.48-.09-.48,0-.54-.12-.21-.62.25-.66,0-.09-.24-.05-.24,0-.11-.43-.63-.93,0-1.4-.08-.11-.42-.13-.47-.25.57-.69.28-1.19-.2-1.81a1.2,1.2,0,0,0,.48-.25c0-.15-.29-.17-.23-.33-.17-.22.48-.16.49-.33s-.65-.21-.72-.41c-.16-.73-.08-1.55-.67-2.14a1.79,1.79,0,0,0,.49-.68h1.65c0,.1,0,.2-.21.27.08.11.42.13.47.25-.13.12.28.43-.24.41.08.11.42.13.47.25.21.75-.41,1.12-.51,1.56h-.48c0,.15.63.48,0,.58.63.47.34.67.94,1.15-.35,0-.09.25-.49.25.5.24.44.67.7,1,.1.17-.17.22-.25.33.07.27.68.63.23.82.12.6.6,1.27,0,2,.08.19.37.31.23.57A4.34,4.34,0,0,0,469,150c-.37.35.62.65.23.74,0,.08.29.07.47.09.16.22-.5.15-.72.24.3.1.09.31-.25.41.36,0,.28.08,1,.17.06.22-.34.27-1,.24,0,.14,0,.28,0,.42.61.3,0,.51.95.66-.07.05-.61.31,0,.33a6.27,6.27,0,0,0-1,.49c.54.17.48.54.94.74-.09.39-.33.49-1,.82.77.19.56.87,0,1.07.06.09.48.06.48.17-.17.41.21.64.22,1-.35,0-.68,0-.73.08s.7,0,.73-.08c.84.14-.61.16-.49.32a1,1,0,0,0,.72-.16c.29.78.16,1.34.43,2.23.15.19-1.42.38-.25.41,0,.08-.29.06-.48.08s0,.14.24.16c-.24.11-.65.16-.73.33.28,0,.43,0,.48-.08.41.05.15.19-.24.16,0,.08.29.07.48.09-.72.4.05.7-.75,1.15.05.09.24,0,.24,0,.57.35-.39.64-.75,1.23,0,.21.9.14,1.2.25-.06.09-.48.06-.48.17.16.3.4.62,0,.9.43.41.58.65,0,1l0,0h.09v.05c.36.25.39.7,0,.84h0a2.58,2.58,0,0,0,0,1.17c.09.14-.19.16-.48.16A.36.36,0,0,1,468.73,168.16Zm-.32-22.33c.07,0-.11-.12-.24-.08S468.29,145.87,468.41,145.83Zm.46,1.16c.06,0-.12-.13-.24-.09S468.74,147,468.87,147Zm.06,7.9c-.58.28.81-.2,0,0Zm.19,2.47v-.16a2.94,2.94,0,0,1-.48-.09C468.66,157.24,468.61,157.4,469.12,157.36Zm-.26,1.07c.13,0,.27-.07,0-.08S468.58,158.41,468.86,158.43Zm-.79,3c.07,0-.11-.13-.24-.09S467.94,161.52,468.07,161.48Zm-.5-9.89c-.13,0-.31-.06-.24-.08S467.63,151.57,467.57,151.59Zm-.39,6.59c-.16-.11.17-.18.24-.08s0,.06,0,.08S467.27,158.24,467.18,158.18Z"/><path d="M321.38,168.16h-1.65a.81.81,0,0,0-.46-.9c.49-.37-.49-.73.49-.78-.06-.17-.48-.11-.48-.31-.2-.61.59-.55.73-.93.05-.78-.35-.93.26-1.4-.39-.38-.6-.76-.23-1.25l.23.07a1,1,0,0,1-.11-.28c0-.14.6-.8,0-1.09.1-.5,1-.81,0-.94-.1-.37.44-.33.24-.77s-.21-1.1-.7-1.41c.62-.27-.14-1.45.5-1.7-.65-1.09.14-2-.69-2.5.28-.18.28-.54.25-.93.91.08.36-.81,1-.93a1,1,0,0,0-.95-.47c.46-.58.34-.84.25-1.55,2.14.06-.46-1.19,1-1.4l-.71-.47a3.79,3.79,0,0,0-.21-2.95c.59-.69-.25-1.43.5-1.87-1.41-1,0-2.81-.91-4,0-.27.18-.41.48-.47-.48-.5-.26-.55-.46-1.09.51-.39,1.4-.54,1.45-1.24.05-.33-.85-.07-1.2-.16-.06-1,.65-2-.2-2.8a1.1,1.1,0,0,1,.72-.46c-1-.3,0-1.11.5-1.4-.06-.19-.48-.16-.48,0-.54-.21-.21-1.17.25-1.24a.12.12,0,0,0-.24,0c-.1-.82-.63-1.75,0-2.65-.08-.2-.42-.24-.47-.47a3.87,3.87,0,0,0-.2-3.42,1.25,1.25,0,0,0,.48-.46c0-.28-.29-.33-.23-.63-.17-.42.48-.31.49-.62.12-.48-.64-.41-.71-.78-.16-1.39-.09-2.93-.68-4a3.84,3.84,0,0,0,.49-1.28h1.65a.45.45,0,0,1-.21.51c.09.2.42.24.48.47-.14.22.27.8-.25.77.08.21.42.25.47.47.21,1.42-.41,2.11-.51,2.95h-.48c0,.28.63.91,0,1.09.63.9.33,1.26.93,2.18-.35,0-.09.47-.48.47.49.45.43,1.26.69,1.87.1.32-.16.41-.24.62.06.51.67,1.19.22,1.55.12,1.14.6,2.4-.05,3.74.08.36.38.58.23,1.09-.19,0-.24-.16-.48-.16-.37.65.63,1.23.23,1.4,0,.15.29.12.48.16.16.41-.5.29-.73.46.3.18.1.59-.25.78.36.08.28.15,1,.31.07.41-.34.51-1,.46,0,.26,0,.52,0,.78.61.57,0,1,1,1.25-.07.09-.61.6,0,.62a7.8,7.8,0,0,0-1,.93c.55.32.48,1,.95,1.4-.1.75-.34.94-1,1.55.76.36.55,1.64,0,2,.06.17.48.1.48.31-.17.78.21,1.2.22,1.87-.34,0-.68,0-.72.15s.69,0,.72-.15c.84.27-.61.31-.49.62.41,0,.62-.12.72-.31.29,1.48.16,2.54.44,4.2.14.36-1.43.72-.25.78,0,.15-.3.12-.49.15s0,.27.24.31c-.24.21-.65.3-.73.62.28,0,.43,0,.49-.15.4.1.14.36-.25.31,0,.15.29.12.48.16-.71.75.05,1.33-.75,2.17a.12.12,0,0,0,.24,0c.57.65-.39,1.21-.74,2.33,0,.4.89.25,1.19.47-.06.17-.48.1-.48.31.16.57.4,1.18,0,1.71.43.78.59,1.23,0,1.87l0,0,.08,0v.08c.37.48.39,1.33,0,1.61h0a9.1,9.1,0,0,0,0,2.2c.09.26-.18.29-.48.31A.47.47,0,0,1,321.38,168.16ZM321.06,126c.07,0-.11-.24-.23-.16S320.94,126.07,321.06,126Zm.46,2.18c.07,0-.11-.24-.24-.16S321.39,128.25,321.52,128.17Zm.06,14.93c-.58.52.82-.37,0,0Zm.19,4.66v-.31c-.24,0-.28-.12-.47-.15C321.32,147.54,321.26,147.83,321.77,147.76Zm-.26,2c.13,0,.27-.13,0-.16S321.24,149.75,321.51,149.79Zm-.79,5.75c.07,0-.11-.24-.24-.16S320.6,155.62,320.72,155.54Zm-.5-18.67c-.13.08-.31-.11-.24-.16S320.28,136.83,320.22,136.87Zm-.39,12.44c-.16-.21.17-.35.25-.15,0,0,0,.11,0,.15C320.25,149.55,319.92,149.43,319.83,149.31Z"/><path d="M723.32,50.16V51.8a.61.61,0,0,0-.69.46c-.27-.49-.55.49-.58-.49-.13.06-.08.48-.24.48-.46.2-.42-.59-.7-.73-.59,0-.71.35-1.06-.25-.29.38-.58.6-.94.22a1.19,1.19,0,0,1,0-.22.66.66,0,0,1-.22.1c-.1,0-.6-.6-.82,0-.38-.1-.62-1-.71,0-.28.09-.25-.45-.59-.25s-.83.21-1.06.7c-.21-.61-1.1.14-1.29-.5-.82.65-1.53-.13-1.89.69-.14-.27-.41-.27-.7-.25,0-.9-.62-.35-.71-1a1.12,1.12,0,0,0-.35,1c-.45-.46-.64-.35-1.18-.26.05-2.13-.89.46-1-1-.13.24-.24.47-.36.72a2.26,2.26,0,0,0-2.24.2c-.52-.58-1.07.25-1.41-.5-.73,1.42-2.13,0-3.06.91-.2,0-.31-.18-.35-.48-.38.48-.42.27-.83.47-.3-.51-.41-1.41-.93-1.46-.26,0-.06.85-.13,1.2-.74.06-1.5-.65-2.12.21a1.22,1.22,0,0,1-.35-.73c-.23,1-.84,0-1-.49-.15.05-.12.47,0,.48-.16.53-.88.21-.94-.26-.13.05-.06.24,0,.24-.61.11-1.32.63-2,0-.15.08-.18.42-.35.47a2.31,2.31,0,0,0-2.59.21,1.26,1.26,0,0,0-.35-.49c-.22,0-.25.29-.48.23-.32.17-.23-.48-.47-.49s-.31.65-.59.72c-1.05.16-2.22.08-3.06.67a2.65,2.65,0,0,0-1-.49V50.16c.13-.06.28,0,.38.2.15-.08.19-.42.35-.47.17.13.61-.28.59.25.16-.09.19-.43.36-.48,1.07-.21,1.59.41,2.23.51v.48c.21,0,.69-.63.82,0,.68-.63,1-.34,1.65-.94,0,.35.36.09.36.49.34-.5.95-.44,1.41-.7.25-.1.31.17.47.25.39-.07.9-.67,1.18-.22.86-.13,1.81-.61,2.82,0,.28-.07.45-.37.83-.23,0,.2-.12.24-.12.48.5.37.93-.62,1.06-.22.11,0,.09-.3.12-.48.32-.16.22.5.35.72.14-.3.44-.09.59.25.06-.36.11-.28.24-1,.31-.07.38.33.34,1h.59c.43-.61.73,0,.95-1,.07.08.45.61.47,0a6.71,6.71,0,0,0,.7,1c.24-.54.78-.48,1.06-.94.57.09.71.33,1.18,1,.27-.76,1.24-.56,1.53,0,.13-.06.08-.48.24-.48.58.17.91-.2,1.41-.21,0,.34,0,.67.11.72s0-.7-.11-.72c.2-.85.23.6.47.48,0-.41-.09-.62-.23-.72,1.11-.29,1.92-.16,3.17-.43.28-.15.55,1.42.59.25.12,0,.09.29.12.48s.21,0,.23-.24c.16.24.23.65.47.73,0-.28,0-.43-.11-.48.07-.41.27-.15.23.24.12,0,.09-.29.12-.48.57.72,1,0,1.65.75.13,0,.06-.24,0-.24.49-.56.91.39,1.76.75.3,0,.19-.9.36-1.2.12.06.08.48.23.48.43-.16.9-.4,1.3,0,.58-.44.93-.59,1.41,0l0,0s0-.06,0-.09H720c.36-.36,1-.39,1.21,0h0a5.23,5.23,0,0,0,1.67,0c.2-.09.22.19.23.48A.38.38,0,0,1,723.32,50.16Zm-31.92.31c0-.07-.18.11-.12.24S691.46,50.59,691.4,50.47Zm1.65-.46c0-.06-.18.12-.12.24S693.11,50.14,693.05,50Zm11.3-.06c.39.58-.28-.81,0,0Zm3.53-.19h-.23c0,.24-.1.28-.12.48C707.71,50.22,707.94,50.27,707.88,49.76Zm1.53.27c0-.14-.09-.28-.12,0S709.39,50.3,709.41,50Zm4.35.78c0-.06-.18.12-.11.24S713.82,50.94,713.76,50.81Zm-14.12.51c.06.12-.09.3-.12.23S699.61,51.25,699.64,51.32Zm9.41.38c-.16.16-.26-.17-.11-.24s.08,0,.11,0C709.23,51.28,709.14,51.61,709.05,51.7Z"/><path d="M70.31,49.8V48.16c.25,0,.48-.06.62-.46.26.49.51-.49.54.48.12,0,.08-.47.22-.47.42-.2.38.59.64.73.54,0,.65-.35,1,.25.26-.38.53-.6.86-.22a1.24,1.24,0,0,1,0,.22.58.58,0,0,1,.19-.1c.1,0,.56.6.76,0,.35.1.56.95.64,0,.26-.09.24.44.54.25s.76-.21,1-.7c.19.61,1-.15,1.19.5.75-.65,1.4.13,1.72-.7.13.28.38.28.65.26,0,.9.56.35.64,1a1.19,1.19,0,0,0,.33-1c.4.46.58.35,1.07.26,0,2.13.82-.46,1,1l.33-.72a1.9,1.9,0,0,0,2-.2c.48.58,1-.25,1.29.5.68-1.42,2,0,2.81-.92.18,0,.28.19.32.49.35-.48.38-.27.75-.47.28.51.38,1.41.86,1.46.23,0,0-.85.11-1.2.68-.06,1.38.65,1.94-.21a1.21,1.21,0,0,1,.32.73c.21-1,.77,0,1,.49.14-.05.11-.47,0-.48.15-.53.81-.21.86.26.13-.05.06-.24,0-.24.57-.11,1.21-.63,1.84,0,.14-.08.17-.42.32-.48a2,2,0,0,0,2.37-.2,1.23,1.23,0,0,0,.32.49c.2,0,.23-.29.43-.23.3-.17.22.48.43.48s.29-.64.54-.71a6.1,6.1,0,0,0,2.81-.67,2.38,2.38,0,0,0,.88.49V49.8c-.12.06-.26,0-.35-.2-.14.08-.17.42-.33.47-.15-.13-.55.27-.53-.25-.15.09-.17.43-.33.48-1,.21-1.46-.41-2-.51V49.3c-.19,0-.63.64-.76,0-.62.63-.87.34-1.51.94,0-.35-.32-.09-.32-.49-.31.5-.88.43-1.29.7-.23.1-.29-.17-.43-.25-.36.07-.83.67-1.08.22-.79.13-1.66.6-2.59,0-.25.07-.4.37-.75.23,0-.2.11-.24.11-.48-.46-.37-.86.62-1,.22-.11,0-.09.3-.11.48-.29.16-.21-.5-.32-.72-.13.3-.41.09-.54-.25-.06.36-.11.28-.22.95-.28.07-.35-.33-.32-1h-.54c-.39.61-.66,0-.86.94-.07-.07-.41-.6-.43,0a6.52,6.52,0,0,0-.64-1c-.23.54-.72.48-1,.94-.51-.09-.64-.33-1.07-1a.74.74,0,0,1-1.4,0c-.12.06-.08.47-.22.48-.54-.17-.83.2-1.29.21,0-.34,0-.68-.11-.72s0,.7.11.72c-.19.85-.22-.6-.43-.48,0,.41.08.62.21.72-1,.29-1.76.16-2.91.43-.25.15-.49-1.42-.54-.25-.1,0-.08-.29-.1-.48s-.19,0-.22.24c-.14-.24-.21-.65-.43-.73,0,.28,0,.43.11.48-.07.41-.25.15-.22-.24-.1,0-.08.29-.1.48-.53-.72-.93,0-1.51-.75-.12,0-.06.24,0,.24-.45.56-.84-.39-1.61-.75-.28,0-.18.9-.33,1.2-.12-.06-.07-.48-.21-.49-.4.16-.83.41-1.19,0-.54.44-.85.59-1.29,0l0,0s0,.05,0,.09h-.05a.67.67,0,0,1-1.11,0h0a4.39,4.39,0,0,0-1.53,0c-.18.09-.2-.19-.21-.48A.35.35,0,0,1,70.31,49.8Zm29.21-.31c0,.07.16-.11.1-.24S99.46,49.37,99.52,49.49ZM98,50c0,.06.16-.12.11-.24S98,49.82,98,50ZM87.67,50c-.36-.58.25.81,0,0Zm-3.24.19h.22c0-.24.09-.28.11-.48C84.59,49.74,84.39,49.68,84.43,50.2ZM83,49.93c0,.14.09.28.11,0S83.06,49.66,83,49.93Zm-4-.78c0,.06.17-.12.11-.24S79,49,79.05,49.15ZM92,48.64c-.06-.12.08-.3.11-.23S92,48.71,92,48.64Zm-8.62-.38c.15-.16.24.16.11.24s-.08,0-.11,0S83.28,48.35,83.36,48.26Z"/><path d="M388.44,259l-.93-1.36a1.87,1.87,0,0,0,1-1.26c.8,0,.76-1.12,1.38-.36.21-.22-.11-.5.18-.7.75-.76,1.13-.06,1.75-.31,1.13-.72,1.13-1.2,2.13-1.17V255h0a2.18,2.18,0,0,1-1.91-1,.68.68,0,0,1,.22-.12,3.68,3.68,0,0,1-.47-.19c-.2-.13-.8-1.28-1.55-1.08-.66-.58-.62-1.58-1.33-.93-.59-.29-.23-.69-1-1s-1.7-.91-2.41-.8c0-.78-2.16-1.31-2.17-2.09a6.24,6.24,0,0,1-2-1l-1.23-.87,1.23-.81c.76-.51,1.4-.88,1.52-1.54a2.6,2.6,0,0,0,1.48-.7c.4.82,1.36-.51,1.88-.11.21-.4.5-.78.13-1.25a4.4,4.4,0,0,0,2.37-1.32c1.12,1.83,1.44-1.54,2.55-.56q.15-.53.27-1.05a10.11,10.11,0,0,0,2.55-1.53v.76a11.1,11.1,0,0,0-2-.91c-.66-1.16-2.18-1.19-2.39-2.24-2.19.21-4-2.78-6.31-3.22a.74.74,0,0,1-.39-.86c-1-.09-.94-.3-1.76-.66l-1.3-.56,1.3-1.45.05-.05c.85,0,1.56.62,2.59,0,.51-.29-.37-.77-.45-1.15,1.37-1,3.21-1.41,3.9-2.92a1.32,1.32,0,0,1,1.07.15c-.11-1.09,1.6-1.09,2.29-1a.24.24,0,0,0-.27-.4c0-.65,1.56-1.32,1.92-1,.23-.21,0-.29-.13-.2.57-.46,1.12-1,1.75-1.53v1.17a4.87,4.87,0,0,1-1.71-1.55c-.34-.13-.59.11-.94-.07a11.22,11.22,0,0,0-5-3.19,1.82,1.82,0,0,0-.39-.85c-.38-.31-.63-.09-1-.42-.71-.28-.18-.71-.61-1-.64-.57-1,.13-1.53-.17l-1.45-.9-1.38-.85,1.38-1a22.78,22.78,0,0,0,4-3.49,10.58,10.58,0,0,0,2.11-.85l.93,1.36a1.12,1.12,0,0,1-.85.33c-.24.27-.11.59-.4.85s-1,1-1.25.55c-.25.27-.12.59-.41.86a11.56,11.56,0,0,1-3.19,1.84v-1a9.22,9.22,0,0,0,1.07,1l-.28.39c.4.28,1.66.37,1.55,1.08,1.64.36,2,1,3.66,1.37-.15.32.61.53.39.86.93,0,2.06.89,3.07,1.26.52.24.5.54.75.81.78.45,2.09.62,2.36,1.35l.09.05,1.23.73-1.23,1c-1.53,1.22-3.05,2.8-5.29,3.56-.48.42-.62.88-1.43,1.26-.07-.19.09-.35,0-.55-1.15.34-1.42,1.73-1.88,1.56-.22.15,0,.36,0,.55-.51.54-.71-.12-1.07-.15-.1.44-.79.66-1.26.56a9.14,9.14,0,0,0,.09,1.1c-.55.46-.92.22-1.21-.34l-.71.48v-.73l.39.28c1.16.05,1.37,1,2.33.44.09.16.51,1.09.88.62a11.94,11.94,0,0,0,.79,1.71c.76-.13,1.75.62,2.54.6a4.69,4.69,0,0,1,1.67,2.33c.94-.28,2.66,1.15,2.88,2,.28.12.43-.28.72-.08l.42.34.94.68-.94.61c-.87.56-1.28,1.18-2.09,1.74-.17-.29-.34-.59-.62-.44-.5.24.43.54.62.44.09,1-.78-.19-1.16.21a.67.67,0,0,0,.85.29c-1.95,1.69-3.54,2.63-5.77,4.48-.44.48-1.84-.47-1.26.56-.22.14-.33-.13-.49-.25s-.41.25-.31.5c-.44,0-.8-.24-1.3,0,.12.26.29.32.49.25.08.43-.43.47-.58.1-.21.15,0,.36,0,.55a2.56,2.56,0,0,0-.77.2v-1.54c.7.72,1.63.91,2.24,2.1.27.14.26-.11.13-.2,1.26.18,1.52,1.52,2.92,2.91.58.37.87-.49,1.35-.53.21.22-.12.5.17.7a5.23,5.23,0,0,1,2.44,1.7c1.36.41,2.09.72,2.66,1.85h.09l.07,0,.12.08.13,0,.79.19-.79,1.12a3.38,3.38,0,0,1-2.23,1.45h0a26.46,26.46,0,0,0-3.17,2.15c-.33.33-.53.13-.72-.1A1,1,0,0,1,388.44,259Zm1.48-41.81c0-.1-.4-.14-.36,0S390,217.33,389.92,217.15Zm3.38,1.76c0-.09-.4-.13-.36.05S393.35,219.1,393.3,218.91Zm-3.43,14.6c.41,1-.08-1,0,0Zm3.22,5.76.45-.3c-.14-.2,0-.36-.05-.55C393.15,238.67,392.7,238.92,393.09,239.27ZM390,241c.08.11.34.1.23-.16C390.2,240.77,389.94,240.78,390,241Zm-7.7,5.39c0-.09-.41-.14-.36,0S382.38,246.61,382.34,246.43ZM383,227.3c-.19,0,0-.37.09-.35S383.06,227.31,383,227.3Zm6.82,11.89c.21-.34.59-.21.36.05-.06,0-.19.08-.23.15C389.67,239.77,389.66,239.38,389.78,239.19Z"/><path d="M387.79,168.16h1.65c0,.27.05.52.46.68-.5.28.49.55-.49.59.06.13.48.08.48.24.2.45-.6.41-.73.7-.05.59.34.7-.26,1.06.39.29.6.58.22.94l-.22-.05a.71.71,0,0,1,.11.22c0,.1-.6.6,0,.82-.1.39-.95.62,0,.71.1.29-.44.26-.25.59s.22.83.71,1.06c-.62.21.14,1.1-.5,1.3.65.82-.14,1.53.69,1.89-.28.14-.28.41-.25.7-.91-.05-.36.62-1,.71a1.09,1.09,0,0,0,.95.35c-.46.45-.35.64-.26,1.18-2.13,0,.47.9-1,1.06l.71.36a2.24,2.24,0,0,0,.21,2.24c-.59.52.25,1.08-.5,1.41,1.41.74,0,2.13.91,3.07,0,.2-.18.3-.49.35.48.38.27.42.47.83-.51.3-1.4.41-1.45.93-.05.26.85.06,1.19.13.07.74-.64,1.5.21,2.12a1.14,1.14,0,0,1-.72.35c1,.23,0,.84-.5,1.06.06.15.48.12.48,0,.54.16.21.89-.25.94,0,.14.24.07.24,0,.1.62.62,1.33,0,2,.09.15.42.19.48.35a2.31,2.31,0,0,0,.2,2.6,1.09,1.09,0,0,0-.49.35c0,.21.29.25.24.47.17.32-.48.24-.49.47s.64.32.71.59c.16,1.06.08,2.23.67,3.07a2.6,2.6,0,0,0-.48,1h-1.65c-.05-.14,0-.29.21-.39-.09-.15-.43-.18-.48-.35.13-.17-.27-.61.25-.59-.08-.16-.42-.19-.47-.36-.21-1.07.41-1.6.51-2.23h.48c0-.21-.64-.69,0-.83-.63-.68-.34-1-.93-1.65.34,0,.09-.35.48-.35-.49-.35-.43-1-.7-1.42-.09-.25.17-.31.25-.47-.06-.39-.67-.9-.22-1.18-.13-.87-.6-1.82,0-2.83-.07-.28-.37-.44-.22-.83.19,0,.23.12.47.12.37-.49-.62-.93-.22-1.06,0-.11-.29-.09-.48-.12-.16-.31.5-.22.73-.35-.31-.14-.1-.44.25-.59-.36-.06-.28-.11-1-.24-.07-.31.34-.38,1-.35v-.59c-.6-.43,0-.73-.94-.94.07-.07.6-.45,0-.47a7.12,7.12,0,0,0,1-.71c-.55-.24-.48-.78-.95-1.06.1-.57.34-.71,1-1.18-.76-.27-.56-1.24,0-1.53-.05-.13-.47-.08-.47-.24.17-.59-.21-.91-.22-1.41.34,0,.68,0,.72-.12s-.69,0-.72.12c-.84-.21.61-.24.49-.47-.41,0-.63.08-.73.23-.29-1.12-.16-1.92-.43-3.18-.14-.28,1.43-.55.25-.59,0-.12.3-.09.48-.12.34,0,0-.21-.23-.23.24-.16.65-.23.72-.47-.27,0-.42,0-.48.11-.4-.08-.14-.27.25-.23,0-.12-.3-.09-.48-.12.71-.58-.05-1,.74-1.65,0-.13-.24-.07-.24,0-.56-.5.4-.92.75-1.77,0-.3-.89-.19-1.19-.35.06-.13.47-.08.48-.24-.16-.43-.4-.9,0-1.29-.43-.59-.59-.94,0-1.42l0,0-.08,0s0,0,0-.06a.77.77,0,0,1,0-1.21h0a5.23,5.23,0,0,0,0-1.67c-.08-.2.19-.23.49-.24A.39.39,0,0,1,387.79,168.16Zm.31,32c-.06,0,.12.18.24.12S388.23,200.06,388.1,200.12Zm-.45-1.65c-.07,0,.11.18.24.12S387.77,198.41,387.65,198.47Zm-.07-11.32c.59-.39-.81.28,0,0Zm-.18-3.54c0,.08,0,.16,0,.24.24,0,.29.1.48.12C387.85,183.78,387.91,183.56,387.4,183.61Zm.26-1.53c-.13,0-.27.1,0,.12S387.93,182.11,387.66,182.08Zm.79-4.36c-.07,0,.11.18.23.12S388.57,177.66,388.45,177.72Zm.5,14.15c.12-.06.31.09.24.12S388.88,191.9,389,191.87Zm.39-9.43c.15.16-.17.27-.25.12s0-.09,0-.12C388.92,182.26,389.25,182.35,389.34,182.44Z"/><path d="M388.62,290.6H387c0-.22-.06-.42-.46-.55.49-.23-.49-.45.49-.48-.06-.1-.48-.07-.48-.19-.2-.37.59-.34.73-.57.05-.48-.35-.58.26-.86-.39-.24-.61-.47-.23-.77l.22,0a.54.54,0,0,1-.1-.17c0-.09.6-.49,0-.67.1-.31.95-.5,0-.58-.09-.23.45-.2.25-.48s-.21-.67-.7-.86c.61-.17-.14-.89.5-1-.65-.67.14-1.24-.69-1.53.27-.11.27-.34.25-.57.9,0,.35-.5,1-.57a1.2,1.2,0,0,0-1-.29c.47-.37.35-.52.26-1,2.13,0-.46-.73,1-.86l-.72-.29a1.52,1.52,0,0,0-.2-1.81c.58-.43-.25-.88.5-1.15-1.42-.6,0-1.73-.91-2.49,0-.16.18-.25.48-.29-.48-.3-.27-.33-.46-.67.51-.24,1.4-.33,1.45-.76,0-.2-.85,0-1.2-.1-.06-.6.65-1.22-.21-1.72a1.28,1.28,0,0,1,.73-.28c-1-.19,0-.69.5-.86-.06-.12-.48-.1-.48,0-.54-.14-.21-.72.25-.77,0-.11-.24-.05-.24,0-.11-.5-.63-1.07,0-1.63-.08-.12-.42-.15-.47-.28.57-.8.28-1.39-.2-2.11a1.22,1.22,0,0,0,.48-.28c0-.18-.29-.21-.23-.39-.17-.26.48-.19.49-.38s-.65-.25-.72-.48a4.94,4.94,0,0,0-.67-2.49,2,2,0,0,0,.49-.78h1.65c.05.11,0,.23-.21.31.08.13.42.15.48.29-.14.14.27.49-.25.48.08.12.42.15.47.28.21.88-.41,1.3-.51,1.82h-.48c0,.17.63.56,0,.67.63.55.34.78.94,1.34-.35,0-.09.29-.49.29.5.28.44.77.7,1.15.1.2-.17.25-.25.38.07.31.68.73.23.95.12.71.6,1.48-.05,2.3.08.22.37.36.23.67-.19,0-.24-.1-.48-.1-.37.41.62.76.23.86,0,.1.29.08.47.1.16.26-.5.18-.72.29.3.11.09.36-.25.47.36.06.28.1,1,.2.06.25-.34.31-1,.28,0,.16,0,.32,0,.48.61.35,0,.59.95.77-.07.06-.61.36,0,.38a6.36,6.36,0,0,0-1,.57c.54.2.48.64.94.86-.09.46-.33.58-1,1,.77.22.56,1,0,1.24.06.11.48.07.48.19-.17.48.21.74.22,1.15-.35,0-.68,0-.73.1s.7,0,.73-.1c.84.17-.61.19-.49.38.41,0,.62-.07.72-.19.29.91.16,1.56.43,2.59.15.22-1.42.44-.25.48,0,.09-.29.07-.48.09s0,.17.24.19c-.24.13-.65.19-.73.38.28,0,.43,0,.48-.09.41.06.15.22-.24.19,0,.09.29.07.48.1-.72.46,0,.82-.75,1.33,0,.11.24.06.24,0,.57.41-.39.75-.75,1.44,0,.24.9.15,1.2.29-.06.1-.48.06-.48.19.16.35.4.72,0,1.05.43.48.58.75,0,1.15l0,0H389v.06c.36.29.39.81,0,1h0a3.27,3.27,0,0,0,0,1.35c.09.17-.19.18-.48.19A.44.44,0,0,1,388.62,290.6Zm-.32-25.93c.07,0-.11-.15-.24-.1S388.18,264.72,388.3,264.67Zm.46,1.34c.06,0-.12-.15-.24-.1S388.63,266.06,388.76,266Zm.06,9.18c-.58.32.81-.23,0,0Zm.19,2.87v-.19c-.24,0-.28-.08-.48-.1C388.55,277.92,388.5,278.1,389,278.06Zm-.26,1.24c.13,0,.27-.07,0-.09S388.47,279.28,388.75,279.3Zm-.79,3.54c.07,0-.11-.15-.24-.1S387.83,282.89,388,282.84Zm-.5-11.48c-.13.05-.31-.07-.24-.1S387.52,271.33,387.46,271.36Zm-.39,7.65c-.16-.13.17-.21.24-.09s0,.07,0,.09S387.16,279.08,387.07,279Z"/><path d="M388.2,291v-1.64a21.84,21.84,0,0,0,5.81-.46c2.37.49,4.69-.49,5,.48,1.09-.05.69-.47,2-.47,3.88-.2,3.55.59,6,.73,5,0,6-.35,9,.25a27.6,27.6,0,0,1,8-.22,1.38,1.38,0,0,1-.44.22c.79,0,1.47-.1,1.85-.1.88,0,5.12.6,7,0,3.24.1,5.21.95,6,0,2.42-.09,2.17.44,5,.25s7.08-.21,9-.7c1.76.61,9.35-.15,11,.5,7-.65,13,.13,16-.7a33.09,33.09,0,0,0,6,.26c-.48.9,5.22.35,6,1,1.47-.21,3.18-.36,3-1a58.54,58.54,0,0,0,10,.26c-.42,2.13,7.63-.46,9,1,1-.24,2-.47,3-.72a150.61,150.61,0,0,0,19.05-.2c4.47.58,9.18-.25,12,.5,6.27-1.42,18.12,0,26.08-.92a5.59,5.59,0,0,1,3,.49,55.66,55.66,0,0,1,7-.47c2.54.51,3.48,1.41,8,1.46,2.17,0,.48-.85,1-1.2,6.29-.06,12.77.65,18-.21a7.44,7.44,0,0,1,3,.73c2-1,7.17,0,9,.49,1.26-.05,1-.47,0-.48,1.37-.53,7.55-.21,8,.26,1.14-.05.57-.24,0-.24,5.24-.11,11.26-.63,17,0,1.32-.08,1.6-.42,3-.48a150.48,150.48,0,0,0,22-.2,16.72,16.72,0,0,0,3,.49c1.8,0,2.12-.29,4-.23,2.74-.17,2,.48,4,.48,3.14.12,2.67-.64,5-.71,9-.16,18.9-.08,26.08-.67,2.13.17,5.3.44,8.22.49V291a12.81,12.81,0,0,1-3.27-.2c-1.32.08-1.59.42-3,.47-1.45-.13-5.19.27-5-.25-1.32.09-1.59.43-3,.48-9.13.21-13.6-.41-19-.51,0-.17,0-.32,0-.49-1.79,0-5.84.64-7,0-5.77.63-8.15.34-14.06.94-.21-.35-3-.09-3-.49-2.94.5-8.16.43-12,.7a23.24,23.24,0,0,1-4-.25c-3.31.07-7.68.67-10,.22-7.35.13-15.46.6-24,0a68.44,68.44,0,0,1-7,.23c.2-.2,1-.24,1-.48-4.24-.37-8,.62-9,.22-1,0-.79.3-1,.48-2.69.16-1.92-.5-3-.72a13.21,13.21,0,0,1-5-.25,20.78,20.78,0,0,0-2,.95c-2.64.07-3.27-.33-3-1h-5c-3.66.61-6.22,0-8,.94-.62-.07-3.85-.6-4,0-1.78-.38-3.91-.67-6-1-2.06.54-6.66.48-9.05.94a52.73,52.73,0,0,1-10-1c-2.29.76-10.56.56-13,0-1.09.06-.7.47-2,.48-5-.17-7.77.2-12,.21.1-.34.19-.68-1-.72-2-.07.19.7,1,.72-1.74.85-2-.6-4-.48-.06.41.73.62,2,.72-9.52.29-16.35.16-27.07.43-2.32.15-4.62-1.42-5-.25-1,0-.77-.29-1-.48s-1.76,0-2,.24a19,19,0,0,0-4-.73c-.17.28.21.43,1,.48-.66.41-2.31.15-2-.24-1,0-.78.29-1,.48-4.89-.72-8.6.05-14-.75-1.14.05-.56.24,0,.24-4.22.56-7.8-.39-15-.75-2.57,0-1.64.9-3,1.2-1.09-.06-.66-.48-2-.49a68.63,68.63,0,0,1-11,0c-5,.44-7.92.59-12,0l-.28,0s-.1.05-.12.09h-.54a45.63,45.63,0,0,1-10.32,0h0c-5.37-.06-10.42-.14-14.2,0-1.7.09-1.88-.19-2-.48A10.52,10.52,0,0,1,388.2,291Zm271.73-.31c.27.07,1.52-.11,1-.24C660.66,290.39,659.41,290.58,659.93,290.7Zm-14,.46c.28.06,1.52-.12,1-.24C646.62,290.85,645.37,291,645.88,291.16Zm-96.21.06c-3.34-.58,2.4.81,0,0Zm-30.06.19h2c0-.24.82-.28,1-.48C521.05,291,519.15,290.89,519.61,291.41Zm-13-.27c0,.14.8.28,1,0C507.6,291,506.78,290.87,506.59,291.14Zm-37.06-.78c.28.06,1.53-.12,1-.24C470.27,290.05,469,290.23,469.53,290.36Zm120.27-.51c-.51-.12.74-.3,1-.23C591.33,289.74,590.08,289.92,589.8,289.85Zm-80.16-.38c1.36-.16,2.24.16,1,.24-.28,0-.75,0-1,0C508.11,289.89,508.89,289.56,509.64,289.47Z"/><path d="M388.2,290.19v1.64a19.67,19.67,0,0,0-5.51.47c-2.24-.5-4.44.49-4.74-.49-1,.06-.66.47-1.92.47-3.68.21-3.36-.59-5.68-.73-4.72,0-5.67.35-8.54-.25a24.61,24.61,0,0,1-7.62.22,2,2,0,0,1,.42-.22c-.74.05-1.39.1-1.75.1-.83,0-4.86-.6-6.65,0-3.07-.1-4.95-.95-5.7,0-2.3.09-2.06-.44-4.75-.25s-6.72.21-8.58.71c-1.67-.62-8.87.14-10.44-.5-6.63.65-12.34-.14-15.23.69a29,29,0,0,0-5.69-.25c.45-.91-5-.36-5.68-1-1.4.21-3,.36-2.88,1a52.63,52.63,0,0,0-9.5-.26c.39-2.13-7.24.47-8.53-1l-2.87.71a133.79,133.79,0,0,0-18.07.21c-4.23-.59-8.7.24-11.39-.51-6,1.42-17.18,0-24.74.92a5,5,0,0,1-2.84-.49,50.22,50.22,0,0,1-6.67.47c-2.41-.51-3.3-1.4-7.56-1.46-2.06,0-.46.86-1,1.2-6,.07-12.11-.64-17.11.21a7,7,0,0,1-2.84-.72c-1.85,1-6.8,0-8.54-.5-1.19.06-1,.47,0,.48-1.3.53-7.15.21-7.6-.26-1.08,0-.53.24,0,.24-5,.11-10.69.63-16.16,0-1.25.09-1.51.42-2.87.48a135.48,135.48,0,0,0-20.92.2,15.12,15.12,0,0,0-2.84-.49c-1.7,0-2,.29-3.81.24-2.6.16-1.9-.49-3.78-.49-3-.12-2.54.64-4.78.71-8.49.16-17.92.08-24.73.67-2-.17-5-.44-7.8-.49v-1.64a12,12,0,0,1,3.1.2c1.25-.08,1.51-.42,2.87-.47,1.37.13,4.92-.27,4.74.25,1.25-.09,1.51-.42,2.87-.48,8.66-.2,12.9.41,18,.52,0,.16,0,.32,0,.48,1.7,0,5.55-.64,6.65,0,5.48-.63,7.73-.34,13.34-.94.2.35,2.83.09,2.84.49,2.79-.49,7.74-.43,11.43-.7a21.85,21.85,0,0,1,3.79.25c3.15-.06,7.28-.67,9.51-.22,7-.13,14.67-.6,22.82,0a61.37,61.37,0,0,1,6.66-.23c-.19.2-1,.24-1,.48,4,.37,7.54-.62,8.56-.22.92,0,.74-.29,1-.48,2.56-.16,1.82.5,2.83.73a11.74,11.74,0,0,1,4.75.24,17.7,17.7,0,0,0,1.93-.95c2.5-.07,3.11.34,2.82,1h4.75c3.47-.61,5.9,0,7.63-.94.59.07,3.65.6,3.81,0,1.68.38,3.7.67,5.67,1,2-.55,6.32-.48,8.59-.95a48.21,48.21,0,0,1,9.47,1c2.18-.76,10-.56,12.36,0,1-.05.66-.47,1.92-.47,4.75.17,7.36-.21,11.41-.22-.09.34-.18.68.93.72,1.93.08-.17-.69-.93-.72,1.65-.84,1.9.61,3.79.49.05-.41-.69-.63-1.88-.73,9-.29,15.51-.16,25.68-.43,2.2-.15,4.38,1.43,4.75.25.92,0,.72.29.93.48s1.67,0,1.91-.23a16.69,16.69,0,0,0,3.78.72c.16-.28-.2-.43-.94-.48.63-.41,2.2-.14,1.9.24.92,0,.75-.29,1-.47,4.64.71,8.16-.06,13.29.74,1.08,0,.53-.24,0-.24,4-.56,7.4.4,14.23.75,2.44,0,1.56-.89,2.89-1.2,1,.07.63.48,1.89.49a62.79,62.79,0,0,1,10.45,0c4.76-.44,7.52-.59,11.41,0l.27,0s.1-.05.12-.08h.51a41.08,41.08,0,0,1,9.79,0h0c5.09.06,9.88.14,13.46,0,1.62-.08,1.79.19,1.89.48A9.38,9.38,0,0,1,388.2,290.19Zm-257.76.31c-.26-.07-1.44.11-.95.24C129.75,290.81,130.93,290.63,130.44,290.5Zm13.33-.45c-.26-.07-1.45.11-1,.24C143.07,290.35,144.25,290.17,143.77,290.05ZM235,290c3.17.59-2.27-.81,0,0Zm28.52-.19h-1.9c0,.24-.78.29-1,.48C262.18,290.25,264,290.31,263.55,289.79Zm12.35.27c0-.14-.76-.28-.95,0C275,290.19,275.72,290.33,275.9,290.06Zm35.15.78c-.26-.06-1.44.12-.95.24C310.36,291.15,311.54,291,311.05,290.84ZM197,291.35c.49.12-.69.3-1,.24C195.52,291.46,196.7,291.28,197,291.35Zm76,.38c-1.28.16-2.12-.16-.94-.24.26,0,.71,0,.95,0C274.46,291.31,273.71,291.64,273,291.73Z"/><path d="M70.72,49.39H69.08c0-.18-.08-.36-.49-.41.46-.24-.53-.24.43-.45-.08-.07-.48,0-.51,0-.25-.21.51-.41.57-.66-.12-.42-.51-.29-.1-.81-.45,0-.71,0-.58-.45a1,1,0,0,1,.2-.11.7.7,0,0,1-.19-.06s.13-.77-.41-.45c-.13-.26.21-1.05-.4-.35-.22-.05.09-.47-.24-.45s-.68-.12-1,.3c.07-.65-.74-.1-.76-.72a1.08,1.08,0,0,1-.83.22c-.23,0-.43,0-.49.45a.32.32,0,0,0-.5-.15c-.2-.9-.53-.22-.81-.76a1.07,1.07,0,0,0,.12,1c-.48-.29-.58-.1-.85.19-.59-.89-.69-.67-.74-.38s0,.64-.54.18a6.43,6.43,0,0,0,.32.71,1.13,1.13,0,0,0-.71,1.53.4.4,0,0,0-.36.49c0,.2,0,.35-.41.43a1,1,0,0,1,.59,1.14c0,.39-.06.88.5,1,.06.13-.1.26-.37.41.57.06.37.17.69.32-.34.43-1,1-.78,1.43.1.21.68-.5,1-.68.19.18.26.48.43.71a.55.55,0,0,0,.82.09,1.73,1.73,0,0,1-.13.76c.31-.39.43-.33.5-.09a4.06,4.06,0,0,1,.13.89c.14,0,.23-.42.14-.46.29-.47.7,0,.7.43.11,0,.08-.23,0-.24.54,0,1-.53,1.61,0,.11-.1.07-.43.18-.51.85.4,1.4-.18,1.6-.93a1.11,1.11,0,0,0,.5.23c.15-.08,0-.35.11-.42.06-.27.47.22.61.08.3-.14-.32-.6-.26-.8.32-.65.67-1.45.16-2.06a1.22,1.22,0,0,0,.54-.58h1.64c0,.13,0,.27-.22.35.07.14.42.2.45.37-.16.14.18.65-.34.52,0,.16.37.27.38.45-.12,1.14-1,1.33-1.4,1.74l-.39-.29c-.09.14.11.89-.46.54,0,.87-.36.83-.6,1.68-.2-.28-.34.11-.53-.24-.06.59-.65.79-1,1.15-.23.16-.36-.07-.53-.12-.34.13-.86.78-1.16.34a5.69,5.69,0,0,1-1.45.11,1.74,1.74,0,0,1-1.36-.79c-.29-.05-.6.12-.87-.22.13-.15.24-.14.36-.34-.19-.55-1.14,0-1-.46-.09-.07-.27.15-.42.27-.37-.12.17-.52.25-.77-.31.1-.38-.27-.19-.59-.32.17-.29.09-.9.39-.27-.24,0-.53.58-.84-.09-.17-.19-.32-.28-.49-.73-.1-.27-.62-1.24-.5,0-.11.43-.63-.15-.49.3-.32.54-.63.81-.9-.59-.15-.55-.7-1-1,.11-.6.39-.75,1.1-1.06-.7-.4-.19-1.39.48-1.34,0-.13-.39-.28-.32-.42.43-.42.3-.89.64-1.3.25.23.5.46.62.39s-.53-.46-.62-.39c-.48-.73.61.22.67,0-.28-.3-.5-.39-.68-.34a4,4,0,0,1,1.15-1.24,14.35,14.35,0,0,1,1.58-1c.29-.24.92,1.23.7.07.13,0,.16.26.22.44s.21,0,.21-.27c.2.22.32.6.55.66,0-.27-.06-.42-.16-.47,0-.41.28-.16.26.23.11,0,.07-.3.09-.48a1,1,0,0,0,.82.35.78.78,0,0,1,.76.52c.13,0,.12-.22,0-.24.62-.42.82.62,1.27,1.26.23.12.59-.69.89-.85.09.12-.18.44-.06.53.43.1,1,.24,1,.82.7.11,1.09.37.82,1.1h0l.08,0,0,0c.51.12.81.77.48,1.1h0c.15.61.17,1.19.31,1.61.1.19-.18.23-.47.25A.33.33,0,0,1,70.72,49.39Zm-3.8,5.16c.06.05.1-.16,0-.26S66.83,54.45,66.92,54.55Zm-1.36.81c0,.07.15-.13.08-.25S65.49,55.25,65.56,55.36ZM58.81,48.7c.63-.31-.85.18,0,0ZM60,45.46l-.15.19c.19.14.17.24.32.37C60.22,45.87,60.39,45.74,60,45.46Zm1.25-.85c-.08-.11-.24-.16-.09.07S61.37,44.84,61.22,44.61Zm3.87-.43c0-.06-.16.11-.11.24S65.13,44.31,65.09,44.18Zm-4,8c.08-.11.29-.14.25-.08S61,52.26,61.06,52.2Zm1-6.1c0,.19-.25,0-.22-.13s.07,0,.06,0C61.87,45.69,62,46,62,46.1Z"/><path d="M70.72,290.6H69.08c0-.18-.08-.36-.49-.41.46-.24-.53-.24.43-.45-.08-.07-.48.05-.51,0-.25-.21.51-.41.57-.66-.12-.42-.51-.29-.1-.81-.45,0-.71,0-.58-.46l.2-.1a.7.7,0,0,1-.19-.06s.13-.77-.41-.45c-.13-.26.21-1.06-.4-.35-.22-.05.09-.47-.24-.45s-.68-.12-1,.3c.07-.65-.74-.1-.76-.72a1.08,1.08,0,0,1-.83.22c-.23,0-.43,0-.49.45a.32.32,0,0,0-.5-.15c-.2-.9-.53-.22-.81-.76a1.07,1.07,0,0,0,.12,1c-.48-.29-.58-.1-.85.19-.59-.89-.69-.67-.74-.38s0,.64-.54.18a6.43,6.43,0,0,0,.32.71,1.13,1.13,0,0,0-.71,1.53.4.4,0,0,0-.36.49c0,.2,0,.35-.41.43a1,1,0,0,1,.59,1.14c0,.39-.06.88.5,1,.06.13-.1.26-.37.41.57.06.37.17.69.32-.34.43-1,1-.78,1.43.1.21.68-.5,1-.68.19.18.26.48.43.71a.55.55,0,0,0,.82.09,1.73,1.73,0,0,1-.13.76c.31-.39.43-.33.5-.09a4.06,4.06,0,0,1,.13.89c.14,0,.23-.42.14-.46.29-.47.7,0,.7.43.11,0,.08-.23,0-.24.54,0,1-.53,1.61,0,.11-.1.07-.43.18-.51.85.4,1.4-.18,1.6-.93a1.11,1.11,0,0,0,.5.23c.15-.08,0-.35.11-.42.06-.27.47.22.61.08.3-.14-.32-.6-.26-.8.32-.65.67-1.45.16-2.06a1.22,1.22,0,0,0,.54-.58h1.64c0,.13,0,.27-.22.35.07.14.42.2.45.37-.16.14.18.65-.34.52,0,.16.37.27.38.45-.12,1.14-1,1.33-1.4,1.74l-.39-.29c-.09.14.11.89-.46.54,0,.87-.36.83-.6,1.68-.2-.28-.34.11-.53-.24-.06.59-.65.79-1,1.15-.23.16-.36-.07-.53-.12-.34.13-.86.78-1.16.34a5.69,5.69,0,0,1-1.45.11,1.74,1.74,0,0,1-1.36-.79c-.29-.05-.6.12-.87-.22.13-.15.24-.14.36-.34-.19-.55-1.14-.05-1-.46-.09-.07-.27.15-.42.27-.37-.12.17-.52.25-.77-.31.1-.38-.27-.19-.59-.32.17-.29.09-.9.39-.27-.24,0-.53.58-.84-.09-.17-.19-.32-.28-.49-.73-.1-.27-.62-1.24-.5,0-.11.43-.63-.15-.49.3-.32.54-.63.81-.9-.59-.15-.55-.7-1-1,.11-.6.39-.75,1.1-1.06-.7-.4-.19-1.39.48-1.34,0-.13-.39-.28-.32-.42.43-.42.3-.89.64-1.3.25.23.5.46.62.39s-.53-.46-.62-.39c-.48-.73.61.22.67,0-.28-.3-.5-.39-.68-.34a4,4,0,0,1,1.15-1.24,14.35,14.35,0,0,1,1.58-1c.29-.24.92,1.23.7.07.13,0,.16.26.22.44.11.33.21,0,.21-.27.2.22.32.6.55.66,0-.27-.06-.42-.16-.47,0-.41.28-.16.26.23.11,0,.07-.3.09-.48a1,1,0,0,0,.82.35.78.78,0,0,1,.76.52c.13,0,.12-.22,0-.24.62-.42.82.62,1.27,1.26.23.12.59-.69.89-.86.09.13-.18.45-.06.53.43.11,1,.25,1,.83.7.11,1.09.37.82,1.1h0l.08,0,0,0c.51.12.81.77.48,1.1h0c.15.61.17,1.19.31,1.61.1.19-.18.23-.47.25A.33.33,0,0,1,70.72,290.6Zm-3.8,5.16c.06.05.1-.16,0-.26S66.83,295.66,66.92,295.76Zm-1.36.81c0,.06.15-.14.08-.25S65.49,296.46,65.56,296.57Zm-6.75-6.66c.63-.31-.85.18,0,0ZM60,286.67l-.15.19c.19.14.17.24.32.37C60.22,287.08,60.39,287,60,286.67Zm1.25-.85c-.08-.11-.24-.16-.09.07S61.37,286.05,61.22,285.82Zm3.87-.43c0-.06-.16.11-.11.24S65.13,285.52,65.09,285.39Zm-4,8c.08-.11.29-.14.25-.08S61,293.47,61.06,293.41Zm1-6.1c0,.19-.25,0-.22-.13s.07,0,.06-.05C61.87,286.9,62,287.2,62,287.31Z"/><path d="M734.66,50.57H733c0-.18-.07-.36-.49-.41.46-.25-.53-.24.43-.45-.08-.07-.48,0-.5,0-.26-.21.5-.41.56-.66-.12-.42-.5-.29-.1-.81-.45,0-.71,0-.58-.46l.2-.1c-.09,0-.16,0-.18-.07s.12-.77-.42-.45c-.12-.26.21-1-.4-.34-.22-.05.09-.48-.24-.45s-.68-.12-1,.29c.06-.64-.75-.09-.76-.71a1,1,0,0,1-.84.21c-.23,0-.43,0-.49.46a.33.33,0,0,0-.5-.16c-.2-.89-.53-.22-.81-.76a1.16,1.16,0,0,0,.12,1c-.48-.29-.58-.1-.85.19-.59-.89-.69-.67-.73-.39s0,.65-.55.18a5.69,5.69,0,0,0,.32.71,1.14,1.14,0,0,0-.71,1.53.43.43,0,0,0-.36.5c0,.19,0,.35-.41.43a1,1,0,0,1,.59,1.13c0,.4-.06.89.51,1,0,.12-.11.26-.37.41.56.05.36.17.68.32-.34.42-1,1-.78,1.43.11.2.69-.51,1-.68.19.17.26.48.43.7a.54.54,0,0,0,.82.1,1.71,1.71,0,0,1-.12.76c.3-.39.42-.33.5-.09a4.67,4.67,0,0,1,.12.89c.14,0,.23-.42.15-.46.28-.47.69,0,.69.42.12,0,.09-.23,0-.23.54,0,1-.54,1.6,0,.11-.1.08-.43.18-.51.85.4,1.4-.18,1.6-.93a1.11,1.11,0,0,0,.5.23c.15-.09,0-.35.12-.42,0-.28.46.22.6.08.3-.15-.32-.6-.26-.8.32-.65.68-1.46.16-2.07a1.15,1.15,0,0,0,.54-.57h1.65c0,.13,0,.27-.23.34.08.15.42.21.45.38-.16.14.18.65-.34.52.05.15.37.26.38.45-.12,1.14-1,1.33-1.39,1.73l-.39-.28c-.09.13.1.89-.46.54,0,.87-.37.82-.6,1.68-.21-.28-.35.1-.54-.25-.06.59-.65.8-1,1.16-.23.16-.35-.08-.52-.13-.35.14-.87.79-1.17.34a6.13,6.13,0,0,1-1.45.12,1.78,1.78,0,0,1-1.36-.79c-.29-.05-.59.12-.87-.22.13-.15.24-.14.36-.34-.18-.55-1.13-.06-1-.46-.09-.08-.27.15-.41.27-.38-.12.16-.53.24-.77-.31.1-.38-.27-.19-.59-.32.17-.28.08-.9.39-.27-.24,0-.54.58-.85-.09-.16-.19-.31-.27-.48-.74-.1-.27-.62-1.25-.5,0-.11.43-.63-.14-.5.3-.31.53-.62.8-.89-.59-.15-.55-.71-1-1,.12-.6.4-.75,1.1-1.07-.7-.4-.19-1.38.49-1.33,0-.13-.4-.28-.33-.42.44-.42.31-.89.64-1.31.25.24.5.46.62.4s-.52-.46-.62-.4c-.47-.72.62.23.68,0-.29-.3-.5-.38-.68-.33A3.9,3.9,0,0,1,725,44.72a12.53,12.53,0,0,1,1.58-1c.29-.24.93,1.23.71.07.12,0,.15.26.22.44s.21,0,.2-.27c.2.22.32.6.55.66,0-.28-.06-.42-.16-.47,0-.41.28-.16.26.23.11,0,.08-.3.1-.49a1,1,0,0,0,.82.36.8.8,0,0,1,.76.51c.13,0,.11-.21.05-.23.62-.43.81.62,1.26,1.26.23.11.59-.69.9-.86.08.12-.19.45-.06.53.43.1,1,.25.95.83.7.11,1.1.37.82,1.09h0l.08,0,0,0c.5.12.81.77.48,1.1h0c.16.61.17,1.19.31,1.61.1.19-.18.22-.47.24A.44.44,0,0,1,734.66,50.57Zm-3.81,5.16c.06.05.11-.16,0-.26S730.76,55.63,730.85,55.73Zm-1.36.81c0,.06.16-.14.08-.25S729.42,56.42,729.49,56.54Zm-6.75-6.66c.64-.31-.85.18,0,0Zm1.16-3.24-.15.18c.2.15.18.25.32.38C724.16,47.05,724.33,46.92,723.9,46.64Zm1.25-.85c-.08-.11-.24-.16-.09.06S725.3,46,725.15,45.79Zm3.87-.43c0-.07-.15.11-.11.23S729.06,45.49,729,45.36Zm-4,8c.07-.1.28-.13.24-.07S725,53.43,725,53.37Zm1-6.09c0,.19-.24,0-.22-.13s.07,0,.07-.06C725.8,46.86,726,47.17,726,47.28Z"/><path d="M734.66,290.6H733c0-.18-.07-.36-.49-.41.46-.24-.53-.24.43-.45-.08-.07-.48.05-.5,0-.26-.21.5-.41.56-.66-.12-.42-.5-.29-.1-.81-.45,0-.71,0-.58-.46l.2-.1a.51.51,0,0,1-.18-.06c-.05,0,.12-.77-.42-.45-.12-.26.21-1.06-.4-.35-.22-.05.09-.47-.24-.45s-.68-.12-1,.3c.06-.65-.75-.1-.76-.72a1.1,1.1,0,0,1-.84.22c-.23,0-.43,0-.49.45a.32.32,0,0,0-.5-.15c-.2-.9-.53-.22-.81-.76a1.14,1.14,0,0,0,.12,1c-.48-.29-.58-.1-.85.19-.59-.89-.69-.67-.73-.38s0,.64-.55.18a6.43,6.43,0,0,0,.32.71,1.13,1.13,0,0,0-.71,1.53.42.42,0,0,0-.36.49c0,.2,0,.35-.41.43a1,1,0,0,1,.59,1.14c0,.39-.06.88.51,1,0,.13-.11.26-.37.41.56.06.36.17.68.32-.34.43-1,1-.78,1.43.11.21.69-.5,1-.68.19.18.26.48.43.71a.55.55,0,0,0,.82.09,1.69,1.69,0,0,1-.12.76c.3-.39.42-.33.5-.09a4.79,4.79,0,0,1,.12.89c.14,0,.23-.42.15-.46.28-.47.69,0,.69.43.12,0,.09-.23,0-.24.54,0,1-.53,1.6,0,.11-.1.08-.43.18-.51.85.4,1.4-.18,1.6-.93a1.11,1.11,0,0,0,.5.23c.15-.08,0-.35.12-.42,0-.27.46.22.6.08.3-.14-.32-.6-.26-.8.32-.65.68-1.45.16-2.06a1.17,1.17,0,0,0,.54-.58h1.65c0,.13,0,.27-.23.35.08.14.42.2.45.37-.16.14.18.65-.34.52.05.16.37.27.38.45-.12,1.14-1,1.33-1.39,1.74l-.39-.29c-.09.14.1.89-.46.54,0,.87-.37.83-.6,1.68-.21-.28-.35.11-.54-.24-.06.59-.65.79-1,1.15-.23.16-.35-.07-.52-.12-.35.13-.87.78-1.17.34a5.66,5.66,0,0,1-1.45.11,1.75,1.75,0,0,1-1.36-.79c-.29-.05-.59.12-.87-.22.13-.15.24-.14.36-.34-.18-.55-1.13-.05-1-.46-.09-.07-.27.15-.41.27-.38-.12.16-.52.24-.77-.31.1-.38-.27-.19-.59-.32.17-.28.09-.9.39-.27-.24,0-.53.58-.84-.09-.17-.19-.32-.27-.49-.74-.1-.27-.62-1.25-.5,0-.11.43-.63-.14-.49.3-.32.53-.63.8-.9-.59-.15-.55-.7-1-1,.12-.6.4-.75,1.1-1.06-.7-.4-.19-1.39.49-1.34,0-.13-.4-.28-.33-.42.44-.42.31-.89.64-1.3.25.23.5.46.62.39s-.52-.46-.62-.39c-.47-.73.62.22.68,0-.29-.3-.5-.39-.68-.34a3.9,3.9,0,0,1,1.14-1.24,15.37,15.37,0,0,1,1.58-1c.29-.24.93,1.23.71.07.12,0,.15.26.22.44.1.33.21,0,.2-.27.2.22.32.6.55.66,0-.27-.06-.42-.16-.47,0-.41.28-.16.26.23.11,0,.08-.3.1-.48a1,1,0,0,0,.82.35.79.79,0,0,1,.76.52c.13,0,.11-.22.05-.24.62-.42.81.62,1.26,1.26.23.12.59-.69.9-.86.08.13-.19.45-.06.53.43.11,1,.25.95.83.7.11,1.1.37.82,1.1h0l.08,0,0,0c.5.12.81.77.48,1.1h0c.16.61.17,1.19.31,1.61.1.19-.18.23-.47.25A.38.38,0,0,1,734.66,290.6Zm-3.81,5.16c.06.05.11-.16,0-.26S730.76,295.66,730.85,295.76Zm-1.36.81c0,.06.16-.14.08-.25S729.42,296.46,729.49,296.57Zm-6.75-6.66c.64-.31-.85.18,0,0Zm1.16-3.24-.15.19c.2.14.18.24.32.37C724.16,287.08,724.33,287,723.9,286.67Zm1.25-.85c-.08-.11-.24-.16-.09.07S725.3,286.05,725.15,285.82Zm3.87-.43c0-.06-.15.11-.11.24S729.06,285.52,729,285.39Zm-4,8c.07-.11.28-.14.24-.08S725,293.47,725,293.41Zm1-6.1c0,.19-.24,0-.22-.13s.07,0,.07-.05C725.8,286.9,726,287.2,726,287.31Z"/><text class="cls-3" transform="translate(259.9 94.2)">r</text><text class="cls-3" transform="translate(270.29 103.09) scale(0.58)">pi</text><text class="cls-3" transform="translate(117.42 22.17)">r</text><text class="cls-3" transform="translate(127.8 31.06) scale(0.58)">bb</text><text class="cls-3" transform="translate(342.95 119.77)">C</text><text class="cls-3" transform="translate(360.75 128.65) scale(0.58)">pi</text><text class="cls-3" transform="translate(347.33 31.23)">C</text><text class="cls-3" transform="translate(365.13 40.11) scale(0.58)">u</text><text class="cls-3" transform="translate(598.11 102.65)">r</text><text class="cls-3" transform="translate(608.49 111.53) scale(0.58)">0</text><text class="cls-3" transform="translate(650.25 22.17)">r</text><text class="cls-3" transform="translate(660.63 31.06) scale(0.58)">C</text><text class="cls-3" transform="translate(349.12 233.1)">r</text><text class="cls-4" transform="translate(359.5 241.98) scale(0.58)">E</text><text class="cls-3" transform="translate(477.92 145.32)">g</text><text class="cls-3" transform="translate(491.26 154.2) scale(0.58)">m</text><text class="cls-3" transform="translate(502.5 145.32)">V</text><text class="cls-3" transform="translate(518.8 154.2) scale(0.58)">BE</text><text class="cls-3" transform="translate(200.81 113.87)">V</text><text class="cls-3" transform="translate(217.11 122.75) scale(0.58)">BE</text><text class="cls-3" transform="translate(229.26 66.81)">+</text><text class="cls-3" transform="translate(236.44 168.16)">-</text><polygon class="cls-1" points="0.82 143.74 29.5 143.74 29.5 155.31 52.28 142.15 29.5 129 29.5 140.57 0.82 140.57 0.82 143.74"/><polygon class="cls-1" points="52.28 205.81 22.79 205.81 22.79 194.24 0 207.39 22.79 220.54 22.79 208.98 52.28 208.98 52.28 205.81"/><text class="cls-5" transform="translate(10.59 116.74)">a</text><text class="cls-5" transform="translate(26.8 127.53) scale(0.58)">1</text><text class="cls-5" transform="translate(746.06 118.2)">a</text><text class="cls-5" transform="translate(762.27 128.99) scale(0.58)">2</text><text class="cls-5" transform="translate(11.34 189.9)">b</text><text class="cls-5" transform="translate(27.54 200.69) scale(0.58)">1</text><text class="cls-5" transform="translate(750.13 190.75)">b</text><text class="cls-5" transform="translate(766.33 201.54) scale(0.58)">2</text><polygon class="cls-1" points="742 209.83 770.68 209.83 770.68 221.4 793.46 208.24 770.68 195.09 770.68 206.65 742 206.65 742 209.83"/><polygon class="cls-1" points="784.87 139.89 755.37 139.89 755.37 128.32 732.59 141.47 755.37 154.63 755.37 143.06 784.87 143.06 784.87 139.89"/></g></g></svg>