<?xml version="1.0" encoding="utf-8" standalone="no"?>
<!DOCTYPE svg PUBLIC "-//W3C//DTD SVG 1.1//EN"
  "http://www.w3.org/Graphics/SVG/1.1/DTD/svg11.dtd">
<!-- Created with matplotlib (https://matplotlib.org/) -->
<svg height="160.6pt" version="1.1" viewBox="0 0 202.59 160.6" width="202.59pt" xmlns="http://www.w3.org/2000/svg" xmlns:xlink="http://www.w3.org/1999/xlink">
 <metadata>
  <rdf:RDF xmlns:cc="http://creativecommons.org/ns#" xmlns:dc="http://purl.org/dc/elements/1.1/" xmlns:rdf="http://www.w3.org/1999/02/22-rdf-syntax-ns#">
   <cc:Work>
    <dc:type rdf:resource="http://purl.org/dc/dcmitype/StillImage"/>
    <dc:date>2022-05-14T12:42:20.718382</dc:date>
    <dc:format>image/svg+xml</dc:format>
    <dc:creator>
     <cc:Agent>
      <dc:title>Matplotlib v3.3.4, https://matplotlib.org/</dc:title>
     </cc:Agent>
    </dc:creator>
   </cc:Work>
  </rdf:RDF>
 </metadata>
 <defs>
  <style type="text/css">*{stroke-linecap:butt;stroke-linejoin:round;}</style>
 </defs>
 <g id="figure_1">
  <g id="patch_1">
   <path d="M 0 160.6 
L 202.59 160.6 
L 202.59 0 
L 0 0 
z
" style="fill:none;"/>
  </g>
  <g id="axes_1">
   <g id="patch_2">
    <path clip-path="url(#p7cca3eea6a)" d="M 74.52 58.54 
C 74.52 57.334493 74.401271 56.140709 74.170607 55.026966 
C 73.939943 53.913223 73.601831 52.901182 73.17562 52.04876 
C 72.749409 51.196338 72.243388 50.520113 71.686517 50.058786 
C 71.129646 49.597459 70.532753 49.36 69.93 49.36 
C 69.327247 49.36 68.730354 49.597459 68.173483 50.058786 
C 67.616612 50.520113 67.110591 51.196338 66.68438 52.04876 
C 66.258169 52.901182 65.920057 53.913223 65.689393 55.026966 
C 65.458729 56.140709 65.34 57.334493 65.34 58.54 
C 65.34 59.745507 65.458729 60.939291 65.689393 62.053034 
C 65.920057 63.166777 66.258169 64.178818 66.68438 65.03124 
C 67.110591 65.883662 67.616612 66.559887 68.173483 67.021214 
C 68.730354 67.482541 69.327247 67.72 69.93 67.72 
C 70.532753 67.72 71.129646 67.482541 71.686517 67.021214 
C 72.243388 66.559887 72.749409 65.883662 73.17562 65.03124 
C 73.601831 64.178818 73.939943 63.166777 74.170607 62.053034 
C 74.401271 60.939291 74.52 59.745507 74.52 58.54 
" style="fill:none;stroke:#000000;stroke-linejoin:miter;stroke-width:2;"/>
   </g>
   <g id="patch_3">
    <path clip-path="url(#p7cca3eea6a)" d="M 125.01 67.72 
C 126.226877 67.72 127.395158 66.752164 128.25562 65.03124 
C 129.116082 63.310317 129.6 60.973754 129.6 58.54 
C 129.6 56.106246 129.116082 53.769683 128.25562 52.04876 
C 127.395158 50.327836 126.226877 49.36 125.01 49.36 
" style="fill:none;stroke:#000000;stroke-linejoin:miter;stroke-width:2;"/>
   </g>
   <g id="patch_4">
    <path clip-path="url(#p7cca3eea6a)" d="M 74.52 58.54 
C 74.52 57.334493 74.401271 56.140709 74.170607 55.026966 
C 73.939943 53.913223 73.601831 52.901182 73.17562 52.04876 
C 72.749409 51.196338 72.243388 50.520113 71.686517 50.058786 
C 71.129646 49.597459 70.532753 49.36 69.93 49.36 
C 69.327247 49.36 68.730354 49.597459 68.173483 50.058786 
C 67.616612 50.520113 67.110591 51.196338 66.68438 52.04876 
C 66.258169 52.901182 65.920057 53.913223 65.689393 55.026966 
C 65.458729 56.140709 65.34 57.334493 65.34 58.54 
C 65.34 59.745507 65.458729 60.939291 65.689393 62.053034 
C 65.920057 63.166777 66.258169 64.178818 66.68438 65.03124 
C 67.110591 65.883662 67.616612 66.559887 68.173483 67.021214 
C 68.730354 67.482541 69.327247 67.72 69.93 67.72 
C 70.532753 67.72 71.129646 67.482541 71.686517 67.021214 
C 72.243388 66.559887 72.749409 65.883662 73.17562 65.03124 
C 73.601831 64.178818 73.939943 63.166777 74.170607 62.053034 
C 74.401271 60.939291 74.52 59.745507 74.52 58.54 
" style="fill:none;stroke:#000000;stroke-linejoin:miter;stroke-width:2;"/>
   </g>
   <g id="patch_5">
    <path clip-path="url(#p7cca3eea6a)" d="M 125.01 67.72 
C 126.226877 67.72 127.395158 66.752164 128.25562 65.03124 
C 129.116082 63.310317 129.6 60.973754 129.6 58.54 
C 129.6 56.106246 129.116082 53.769683 128.25562 52.04876 
C 127.395158 50.327836 126.226877 49.36 125.01 49.36 
" style="fill:none;stroke:#000000;stroke-linejoin:miter;stroke-width:2;"/>
   </g>
   <g id="line2d_1">
    <path clip-path="url(#p7cca3eea6a)" d="M 10.26 58.54 
L 51.57 58.54 
L 69.93 58.54 
M 129.6 58.54 
L 143.37 58.54 
L 184.68 58.54 
" style="fill:none;stroke:#000000;stroke-linecap:round;stroke-width:2;"/>
   </g>
   <g id="line2d_2">
    <path clip-path="url(#p7cca3eea6a)" d="M 69.93 49.36 
L 125.01 49.36 
" style="fill:none;stroke:#000000;stroke-linecap:round;stroke-width:2;"/>
   </g>
   <g id="line2d_3">
    <path clip-path="url(#p7cca3eea6a)" d="M 69.93 67.72 
L 125.01 67.72 
" style="fill:none;stroke:#000000;stroke-linecap:round;stroke-width:2;"/>
   </g>
   <g id="line2d_4">
    <path clip-path="url(#p7cca3eea6a)" d="M 184.68 58.54 
L 184.68 89.14 
L 192.33 89.14 
L 192.33 119.74 
L 177.03 119.74 
L 177.03 89.14 
L 184.68 89.14 
M 184.68 119.74 
L 184.68 150.34 
" style="fill:none;stroke:#000000;stroke-linecap:round;stroke-width:2;"/>
   </g>
   <g id="line2d_5">
    <path clip-path="url(#p7cca3eea6a)" d="M 184.68 150.34 
L 97.47 150.34 
L 10.26 150.34 
" style="fill:none;stroke:#000000;stroke-linecap:round;stroke-width:2;"/>
   </g>
   <g id="line2d_6">
    <path clip-path="url(#p7cca3eea6a)" d="M 10.26 58.54 
L 51.57 58.54 
L 69.93 58.54 
M 129.6 58.54 
L 143.37 58.54 
L 184.68 58.54 
" style="fill:none;stroke:#000000;stroke-linecap:round;stroke-width:2;"/>
   </g>
   <g id="line2d_7">
    <path clip-path="url(#p7cca3eea6a)" d="M 69.93 49.36 
L 125.01 49.36 
" style="fill:none;stroke:#000000;stroke-linecap:round;stroke-width:2;"/>
   </g>
   <g id="line2d_8">
    <path clip-path="url(#p7cca3eea6a)" d="M 69.93 67.72 
L 125.01 67.72 
" style="fill:none;stroke:#000000;stroke-linecap:round;stroke-width:2;"/>
   </g>
   <g id="line2d_9">
    <path clip-path="url(#p7cca3eea6a)" d="M 184.68 58.54 
L 184.68 89.14 
L 192.33 89.14 
L 192.33 119.74 
L 177.03 119.74 
L 177.03 89.14 
L 184.68 89.14 
M 184.68 119.74 
L 184.68 150.34 
" style="fill:none;stroke:#000000;stroke-linecap:round;stroke-width:2;"/>
   </g>
   <g id="line2d_10">
    <path clip-path="url(#p7cca3eea6a)" d="M 184.68 150.34 
L 97.47 150.34 
L 10.26 150.34 
" style="fill:none;stroke:#000000;stroke-linecap:round;stroke-width:2;"/>
   </g>
   <g id="text_1">
    <g clip-path="url(#p7cca3eea6a)">
     <!-- Delay (ps) -->
     <g transform="translate(65.459258 29.703125)scale(0.125 -0.125)">
      <defs>
       <path d="M 19.671875 64.796875 
L 19.671875 8.109375 
L 31.59375 8.109375 
Q 46.6875 8.109375 53.6875 14.9375 
Q 60.6875 21.78125 60.6875 36.53125 
Q 60.6875 51.171875 53.6875 57.984375 
Q 46.6875 64.796875 31.59375 64.796875 
z
M 9.8125 72.90625 
L 30.078125 72.90625 
Q 51.265625 72.90625 61.171875 64.09375 
Q 71.09375 55.28125 71.09375 36.53125 
Q 71.09375 17.671875 61.125 8.828125 
Q 51.171875 0 30.078125 0 
L 9.8125 0 
z
" id="DejaVuSans-68"/>
       <path d="M 56.203125 29.59375 
L 56.203125 25.203125 
L 14.890625 25.203125 
Q 15.484375 15.921875 20.484375 11.0625 
Q 25.484375 6.203125 34.421875 6.203125 
Q 39.59375 6.203125 44.453125 7.46875 
Q 49.3125 8.734375 54.109375 11.28125 
L 54.109375 2.78125 
Q 49.265625 0.734375 44.1875 -0.34375 
Q 39.109375 -1.421875 33.890625 -1.421875 
Q 20.796875 -1.421875 13.15625 6.1875 
Q 5.515625 13.8125 5.515625 26.8125 
Q 5.515625 40.234375 12.765625 48.109375 
Q 20.015625 56 32.328125 56 
Q 43.359375 56 49.78125 48.890625 
Q 56.203125 41.796875 56.203125 29.59375 
z
M 47.21875 32.234375 
Q 47.125 39.59375 43.09375 43.984375 
Q 39.0625 48.390625 32.421875 48.390625 
Q 24.90625 48.390625 20.390625 44.140625 
Q 15.875 39.890625 15.1875 32.171875 
z
" id="DejaVuSans-101"/>
       <path d="M 9.421875 75.984375 
L 18.40625 75.984375 
L 18.40625 0 
L 9.421875 0 
z
" id="DejaVuSans-108"/>
       <path d="M 34.28125 27.484375 
Q 23.390625 27.484375 19.1875 25 
Q 14.984375 22.515625 14.984375 16.5 
Q 14.984375 11.71875 18.140625 8.90625 
Q 21.296875 6.109375 26.703125 6.109375 
Q 34.1875 6.109375 38.703125 11.40625 
Q 43.21875 16.703125 43.21875 25.484375 
L 43.21875 27.484375 
z
M 52.203125 31.203125 
L 52.203125 0 
L 43.21875 0 
L 43.21875 8.296875 
Q 40.140625 3.328125 35.546875 0.953125 
Q 30.953125 -1.421875 24.3125 -1.421875 
Q 15.921875 -1.421875 10.953125 3.296875 
Q 6 8.015625 6 15.921875 
Q 6 25.140625 12.171875 29.828125 
Q 18.359375 34.515625 30.609375 34.515625 
L 43.21875 34.515625 
L 43.21875 35.40625 
Q 43.21875 41.609375 39.140625 45 
Q 35.0625 48.390625 27.6875 48.390625 
Q 23 48.390625 18.546875 47.265625 
Q 14.109375 46.140625 10.015625 43.890625 
L 10.015625 52.203125 
Q 14.9375 54.109375 19.578125 55.046875 
Q 24.21875 56 28.609375 56 
Q 40.484375 56 46.34375 49.84375 
Q 52.203125 43.703125 52.203125 31.203125 
z
" id="DejaVuSans-97"/>
       <path d="M 32.171875 -5.078125 
Q 28.375 -14.84375 24.75 -17.8125 
Q 21.140625 -20.796875 15.09375 -20.796875 
L 7.90625 -20.796875 
L 7.90625 -13.28125 
L 13.1875 -13.28125 
Q 16.890625 -13.28125 18.9375 -11.515625 
Q 21 -9.765625 23.484375 -3.21875 
L 25.09375 0.875 
L 2.984375 54.6875 
L 12.5 54.6875 
L 29.59375 11.921875 
L 46.6875 54.6875 
L 56.203125 54.6875 
z
" id="DejaVuSans-121"/>
       <path id="DejaVuSans-32"/>
       <path d="M 31 75.875 
Q 24.46875 64.65625 21.28125 53.65625 
Q 18.109375 42.671875 18.109375 31.390625 
Q 18.109375 20.125 21.3125 9.0625 
Q 24.515625 -2 31 -13.1875 
L 23.1875 -13.1875 
Q 15.875 -1.703125 12.234375 9.375 
Q 8.59375 20.453125 8.59375 31.390625 
Q 8.59375 42.28125 12.203125 53.3125 
Q 15.828125 64.359375 23.1875 75.875 
z
" id="DejaVuSans-40"/>
       <path d="M 18.109375 8.203125 
L 18.109375 -20.796875 
L 9.078125 -20.796875 
L 9.078125 54.6875 
L 18.109375 54.6875 
L 18.109375 46.390625 
Q 20.953125 51.265625 25.265625 53.625 
Q 29.59375 56 35.59375 56 
Q 45.5625 56 51.78125 48.09375 
Q 58.015625 40.1875 58.015625 27.296875 
Q 58.015625 14.40625 51.78125 6.484375 
Q 45.5625 -1.421875 35.59375 -1.421875 
Q 29.59375 -1.421875 25.265625 0.953125 
Q 20.953125 3.328125 18.109375 8.203125 
z
M 48.6875 27.296875 
Q 48.6875 37.203125 44.609375 42.84375 
Q 40.53125 48.484375 33.40625 48.484375 
Q 26.265625 48.484375 22.1875 42.84375 
Q 18.109375 37.203125 18.109375 27.296875 
Q 18.109375 17.390625 22.1875 11.75 
Q 26.265625 6.109375 33.40625 6.109375 
Q 40.53125 6.109375 44.609375 11.75 
Q 48.6875 17.390625 48.6875 27.296875 
z
" id="DejaVuSans-112"/>
       <path d="M 44.28125 53.078125 
L 44.28125 44.578125 
Q 40.484375 46.53125 36.375 47.5 
Q 32.28125 48.484375 27.875 48.484375 
Q 21.1875 48.484375 17.84375 46.4375 
Q 14.5 44.390625 14.5 40.28125 
Q 14.5 37.15625 16.890625 35.375 
Q 19.28125 33.59375 26.515625 31.984375 
L 29.59375 31.296875 
Q 39.15625 29.25 43.1875 25.515625 
Q 47.21875 21.78125 47.21875 15.09375 
Q 47.21875 7.46875 41.1875 3.015625 
Q 35.15625 -1.421875 24.609375 -1.421875 
Q 20.21875 -1.421875 15.453125 -0.5625 
Q 10.6875 0.296875 5.421875 2 
L 5.421875 11.28125 
Q 10.40625 8.6875 15.234375 7.390625 
Q 20.0625 6.109375 24.8125 6.109375 
Q 31.15625 6.109375 34.5625 8.28125 
Q 37.984375 10.453125 37.984375 14.40625 
Q 37.984375 18.0625 35.515625 20.015625 
Q 33.0625 21.96875 24.703125 23.78125 
L 21.578125 24.515625 
Q 13.234375 26.265625 9.515625 29.90625 
Q 5.8125 33.546875 5.8125 39.890625 
Q 5.8125 47.609375 11.28125 51.796875 
Q 16.75 56 26.8125 56 
Q 31.78125 56 36.171875 55.265625 
Q 40.578125 54.546875 44.28125 53.078125 
z
" id="DejaVuSans-115"/>
       <path d="M 8.015625 75.875 
L 15.828125 75.875 
Q 23.140625 64.359375 26.78125 53.3125 
Q 30.421875 42.28125 30.421875 31.390625 
Q 30.421875 20.453125 26.78125 9.375 
Q 23.140625 -1.703125 15.828125 -13.1875 
L 8.015625 -13.1875 
Q 14.5 -2 17.703125 9.0625 
Q 20.90625 20.125 20.90625 31.390625 
Q 20.90625 42.671875 17.703125 53.65625 
Q 14.5 64.65625 8.015625 75.875 
z
" id="DejaVuSans-41"/>
      </defs>
      <use xlink:href="#DejaVuSans-68"/>
      <use x="77.001953" xlink:href="#DejaVuSans-101"/>
      <use x="138.525391" xlink:href="#DejaVuSans-108"/>
      <use x="166.308594" xlink:href="#DejaVuSans-97"/>
      <use x="227.587891" xlink:href="#DejaVuSans-121"/>
      <use x="286.767578" xlink:href="#DejaVuSans-32"/>
      <use x="318.554688" xlink:href="#DejaVuSans-40"/>
      <use x="357.568359" xlink:href="#DejaVuSans-112"/>
      <use x="421.044922" xlink:href="#DejaVuSans-115"/>
      <use x="473.144531" xlink:href="#DejaVuSans-41"/>
     </g>
    </g>
    <g clip-path="url(#p7cca3eea6a)">
     <!-- Loss (G$\Omega$/s) -->
     <g transform="translate(61.7825 43.700391)scale(0.125 -0.125)">
      <defs>
       <path d="M 9.8125 72.90625 
L 19.671875 72.90625 
L 19.671875 8.296875 
L 55.171875 8.296875 
L 55.171875 0 
L 9.8125 0 
z
" id="DejaVuSans-76"/>
       <path d="M 30.609375 48.390625 
Q 23.390625 48.390625 19.1875 42.75 
Q 14.984375 37.109375 14.984375 27.296875 
Q 14.984375 17.484375 19.15625 11.84375 
Q 23.34375 6.203125 30.609375 6.203125 
Q 37.796875 6.203125 41.984375 11.859375 
Q 46.1875 17.53125 46.1875 27.296875 
Q 46.1875 37.015625 41.984375 42.703125 
Q 37.796875 48.390625 30.609375 48.390625 
z
M 30.609375 56 
Q 42.328125 56 49.015625 48.375 
Q 55.71875 40.765625 55.71875 27.296875 
Q 55.71875 13.875 49.015625 6.21875 
Q 42.328125 -1.421875 30.609375 -1.421875 
Q 18.84375 -1.421875 12.171875 6.21875 
Q 5.515625 13.875 5.515625 27.296875 
Q 5.515625 40.765625 12.171875 48.375 
Q 18.84375 56 30.609375 56 
z
" id="DejaVuSans-111"/>
       <path d="M 59.515625 10.40625 
L 59.515625 29.984375 
L 43.40625 29.984375 
L 43.40625 38.09375 
L 69.28125 38.09375 
L 69.28125 6.78125 
Q 63.578125 2.734375 56.6875 0.65625 
Q 49.8125 -1.421875 42 -1.421875 
Q 24.90625 -1.421875 15.25 8.5625 
Q 5.609375 18.5625 5.609375 36.375 
Q 5.609375 54.25 15.25 64.234375 
Q 24.90625 74.21875 42 74.21875 
Q 49.125 74.21875 55.546875 72.453125 
Q 61.96875 70.703125 67.390625 67.28125 
L 67.390625 56.78125 
Q 61.921875 61.421875 55.765625 63.765625 
Q 49.609375 66.109375 42.828125 66.109375 
Q 29.4375 66.109375 22.71875 58.640625 
Q 16.015625 51.171875 16.015625 36.375 
Q 16.015625 21.625 22.71875 14.15625 
Q 29.4375 6.6875 42.828125 6.6875 
Q 48.046875 6.6875 52.140625 7.59375 
Q 56.25 8.5 59.515625 10.40625 
z
" id="DejaVuSans-71"/>
       <path d="M 72.609375 8.6875 
L 72.609375 0 
L 43.3125 0 
L 43.3125 8.6875 
Q 51.953125 13.421875 56.78125 21.53125 
Q 61.625 29.640625 61.625 39.5 
Q 61.625 51.21875 55.171875 58.296875 
Q 48.734375 65.375 38.1875 65.375 
Q 27.640625 65.375 21.171875 58.265625 
Q 14.703125 51.171875 14.703125 39.5 
Q 14.703125 29.640625 19.53125 21.53125 
Q 24.421875 13.421875 33.109375 8.6875 
L 33.109375 0 
L 3.8125 0 
L 3.8125 8.6875 
L 19.390625 8.6875 
Q 11.671875 15.484375 8.109375 22.75 
Q 4.59375 30.03125 4.59375 39.015625 
Q 4.59375 54.546875 13.96875 64.15625 
Q 23.296875 73.78125 38.1875 73.78125 
Q 52.984375 73.78125 62.40625 64.15625 
Q 71.78125 54.59375 71.78125 39.5 
Q 71.78125 30.03125 68.3125 22.796875 
Q 64.84375 15.578125 56.984375 8.6875 
z
" id="DejaVuSans-937"/>
       <path d="M 25.390625 72.90625 
L 33.6875 72.90625 
L 8.296875 -9.28125 
L 0 -9.28125 
z
" id="DejaVuSans-47"/>
      </defs>
      <use transform="translate(0 0.125)" xlink:href="#DejaVuSans-76"/>
      <use transform="translate(55.712891 0.125)" xlink:href="#DejaVuSans-111"/>
      <use transform="translate(116.894531 0.125)" xlink:href="#DejaVuSans-115"/>
      <use transform="translate(168.994141 0.125)" xlink:href="#DejaVuSans-115"/>
      <use transform="translate(221.09375 0.125)" xlink:href="#DejaVuSans-32"/>
      <use transform="translate(252.880859 0.125)" xlink:href="#DejaVuSans-40"/>
      <use transform="translate(291.894531 0.125)" xlink:href="#DejaVuSans-71"/>
      <use transform="translate(369.384766 0.125)" xlink:href="#DejaVuSans-937"/>
      <use transform="translate(445.800781 0.125)" xlink:href="#DejaVuSans-47"/>
      <use transform="translate(479.492188 0.125)" xlink:href="#DejaVuSans-115"/>
      <use transform="translate(531.591797 0.125)" xlink:href="#DejaVuSans-41"/>
     </g>
    </g>
   </g>
   <g id="text_2">
    <g clip-path="url(#p7cca3eea6a)">
     <!-- $Z_0$ -->
     <g transform="translate(90.22 80.278047)scale(0.125 -0.125)">
      <defs>
       <path d="M 13.09375 72.90625 
L 70.3125 72.90625 
L 68.890625 65.375 
L 12.40625 8.296875 
L 58.890625 8.296875 
L 57.328125 0 
L -2.203125 0 
L -0.78125 7.515625 
L 55.71875 64.59375 
L 11.53125 64.59375 
z
" id="DejaVuSans-Oblique-90"/>
       <path d="M 31.78125 66.40625 
Q 24.171875 66.40625 20.328125 58.90625 
Q 16.5 51.421875 16.5 36.375 
Q 16.5 21.390625 20.328125 13.890625 
Q 24.171875 6.390625 31.78125 6.390625 
Q 39.453125 6.390625 43.28125 13.890625 
Q 47.125 21.390625 47.125 36.375 
Q 47.125 51.421875 43.28125 58.90625 
Q 39.453125 66.40625 31.78125 66.40625 
z
M 31.78125 74.21875 
Q 44.046875 74.21875 50.515625 64.515625 
Q 56.984375 54.828125 56.984375 36.375 
Q 56.984375 17.96875 50.515625 8.265625 
Q 44.046875 -1.421875 31.78125 -1.421875 
Q 19.53125 -1.421875 13.0625 8.265625 
Q 6.59375 17.96875 6.59375 36.375 
Q 6.59375 54.828125 13.0625 64.515625 
Q 19.53125 74.21875 31.78125 74.21875 
z
" id="DejaVuSans-48"/>
      </defs>
      <use transform="translate(0 0.09375)" xlink:href="#DejaVuSans-Oblique-90"/>
      <use transform="translate(68.505859 -16.3125)scale(0.7)" xlink:href="#DejaVuSans-48"/>
     </g>
    </g>
   </g>
   <g id="text_3">
    <g clip-path="url(#p7cca3eea6a)">
     <!-- Z     -->
     <g transform="translate(149.516875 100.890586)scale(0.125 -0.125)">
      <defs>
       <path d="M 5.609375 72.90625 
L 62.890625 72.90625 
L 62.890625 65.375 
L 16.796875 8.296875 
L 64.015625 8.296875 
L 64.015625 0 
L 4.5 0 
L 4.5 7.515625 
L 50.59375 64.59375 
L 5.609375 64.59375 
z
" id="DejaVuSans-90"/>
      </defs>
      <use xlink:href="#DejaVuSans-90"/>
      <use x="68.505859" xlink:href="#DejaVuSans-32"/>
      <use x="100.292969" xlink:href="#DejaVuSans-32"/>
      <use x="132.080078" xlink:href="#DejaVuSans-32"/>
      <use x="163.867188" xlink:href="#DejaVuSans-32"/>
     </g>
    </g>
    <g clip-path="url(#p7cca3eea6a)">
     <!-- (L/C/R) -->
     <g transform="translate(131.415312 114.887852)scale(0.125 -0.125)">
      <defs>
       <path d="M 64.40625 67.28125 
L 64.40625 56.890625 
Q 59.421875 61.53125 53.78125 63.8125 
Q 48.140625 66.109375 41.796875 66.109375 
Q 29.296875 66.109375 22.65625 58.46875 
Q 16.015625 50.828125 16.015625 36.375 
Q 16.015625 21.96875 22.65625 14.328125 
Q 29.296875 6.6875 41.796875 6.6875 
Q 48.140625 6.6875 53.78125 8.984375 
Q 59.421875 11.28125 64.40625 15.921875 
L 64.40625 5.609375 
Q 59.234375 2.09375 53.4375 0.328125 
Q 47.65625 -1.421875 41.21875 -1.421875 
Q 24.65625 -1.421875 15.125 8.703125 
Q 5.609375 18.84375 5.609375 36.375 
Q 5.609375 53.953125 15.125 64.078125 
Q 24.65625 74.21875 41.21875 74.21875 
Q 47.75 74.21875 53.53125 72.484375 
Q 59.328125 70.75 64.40625 67.28125 
z
" id="DejaVuSans-67"/>
       <path d="M 44.390625 34.1875 
Q 47.5625 33.109375 50.5625 29.59375 
Q 53.5625 26.078125 56.59375 19.921875 
L 66.609375 0 
L 56 0 
L 46.6875 18.703125 
Q 43.0625 26.03125 39.671875 28.421875 
Q 36.28125 30.8125 30.421875 30.8125 
L 19.671875 30.8125 
L 19.671875 0 
L 9.8125 0 
L 9.8125 72.90625 
L 32.078125 72.90625 
Q 44.578125 72.90625 50.734375 67.671875 
Q 56.890625 62.453125 56.890625 51.90625 
Q 56.890625 45.015625 53.6875 40.46875 
Q 50.484375 35.9375 44.390625 34.1875 
z
M 19.671875 64.796875 
L 19.671875 38.921875 
L 32.078125 38.921875 
Q 39.203125 38.921875 42.84375 42.21875 
Q 46.484375 45.515625 46.484375 51.90625 
Q 46.484375 58.296875 42.84375 61.546875 
Q 39.203125 64.796875 32.078125 64.796875 
z
" id="DejaVuSans-82"/>
      </defs>
      <use xlink:href="#DejaVuSans-40"/>
      <use x="39.013672" xlink:href="#DejaVuSans-76"/>
      <use x="94.726562" xlink:href="#DejaVuSans-47"/>
      <use x="128.417969" xlink:href="#DejaVuSans-67"/>
      <use x="198.242188" xlink:href="#DejaVuSans-47"/>
      <use x="231.933594" xlink:href="#DejaVuSans-82"/>
      <use x="301.416016" xlink:href="#DejaVuSans-41"/>
     </g>
    </g>
   </g>
   <g id="text_4">
    <g clip-path="url(#p7cca3eea6a)">
     <!-- Delay (ps) -->
     <g transform="translate(65.459258 29.703125)scale(0.125 -0.125)">
      <use xlink:href="#DejaVuSans-68"/>
      <use x="77.001953" xlink:href="#DejaVuSans-101"/>
      <use x="138.525391" xlink:href="#DejaVuSans-108"/>
      <use x="166.308594" xlink:href="#DejaVuSans-97"/>
      <use x="227.587891" xlink:href="#DejaVuSans-121"/>
      <use x="286.767578" xlink:href="#DejaVuSans-32"/>
      <use x="318.554688" xlink:href="#DejaVuSans-40"/>
      <use x="357.568359" xlink:href="#DejaVuSans-112"/>
      <use x="421.044922" xlink:href="#DejaVuSans-115"/>
      <use x="473.144531" xlink:href="#DejaVuSans-41"/>
     </g>
    </g>
    <g clip-path="url(#p7cca3eea6a)">
     <!-- Loss (G$\Omega$/s) -->
     <g transform="translate(61.7825 43.700391)scale(0.125 -0.125)">
      <use transform="translate(0 0.125)" xlink:href="#DejaVuSans-76"/>
      <use transform="translate(55.712891 0.125)" xlink:href="#DejaVuSans-111"/>
      <use transform="translate(116.894531 0.125)" xlink:href="#DejaVuSans-115"/>
      <use transform="translate(168.994141 0.125)" xlink:href="#DejaVuSans-115"/>
      <use transform="translate(221.09375 0.125)" xlink:href="#DejaVuSans-32"/>
      <use transform="translate(252.880859 0.125)" xlink:href="#DejaVuSans-40"/>
      <use transform="translate(291.894531 0.125)" xlink:href="#DejaVuSans-71"/>
      <use transform="translate(369.384766 0.125)" xlink:href="#DejaVuSans-937"/>
      <use transform="translate(445.800781 0.125)" xlink:href="#DejaVuSans-47"/>
      <use transform="translate(479.492188 0.125)" xlink:href="#DejaVuSans-115"/>
      <use transform="translate(531.591797 0.125)" xlink:href="#DejaVuSans-41"/>
     </g>
    </g>
   </g>
   <g id="text_5">
    <g clip-path="url(#p7cca3eea6a)">
     <!-- $Z_0$ -->
     <g transform="translate(90.22 80.278047)scale(0.125 -0.125)">
      <use transform="translate(0 0.09375)" xlink:href="#DejaVuSans-Oblique-90"/>
      <use transform="translate(68.505859 -16.3125)scale(0.7)" xlink:href="#DejaVuSans-48"/>
     </g>
    </g>
   </g>
   <g id="text_6">
    <g clip-path="url(#p7cca3eea6a)">
     <!-- Z     -->
     <g transform="translate(149.516875 100.890586)scale(0.125 -0.125)">
      <use xlink:href="#DejaVuSans-90"/>
      <use x="68.505859" xlink:href="#DejaVuSans-32"/>
      <use x="100.292969" xlink:href="#DejaVuSans-32"/>
      <use x="132.080078" xlink:href="#DejaVuSans-32"/>
      <use x="163.867188" xlink:href="#DejaVuSans-32"/>
     </g>
    </g>
    <g clip-path="url(#p7cca3eea6a)">
     <!-- (L/C/R) -->
     <g transform="translate(131.415312 114.887852)scale(0.125 -0.125)">
      <use xlink:href="#DejaVuSans-40"/>
      <use x="39.013672" xlink:href="#DejaVuSans-76"/>
      <use x="94.726562" xlink:href="#DejaVuSans-47"/>
      <use x="128.417969" xlink:href="#DejaVuSans-67"/>
      <use x="198.242188" xlink:href="#DejaVuSans-47"/>
      <use x="231.933594" xlink:href="#DejaVuSans-82"/>
      <use x="301.416016" xlink:href="#DejaVuSans-41"/>
     </g>
    </g>
   </g>
  </g>
 </g>
 <defs>
  <clipPath id="p7cca3eea6a">
   <rect height="146.2" width="188.19" x="7.2" y="7.2"/>
  </clipPath>
 </defs>
</svg>
