<?xml version="1.0" encoding="utf-8" standalone="no"?>
<!DOCTYPE svg PUBLIC "-//W3C//DTD SVG 1.1//EN"
  "http://www.w3.org/Graphics/SVG/1.1/DTD/svg11.dtd">
<svg xmlns:xlink="http://www.w3.org/1999/xlink" width="266.4pt" height="110.16pt" viewBox="0 0 266.4 110.16" xmlns="http://www.w3.org/2000/svg" version="1.1">
 <metadata>
  <rdf:RDF xmlns:dc="http://purl.org/dc/elements/1.1/" xmlns:cc="http://creativecommons.org/ns#" xmlns:rdf="http://www.w3.org/1999/02/22-rdf-syntax-ns#">
   <cc:Work>
    <dc:type rdf:resource="http://purl.org/dc/dcmitype/StillImage"/>
    <dc:date>2025-09-21T08:18:10.621570</dc:date>
    <dc:format>image/svg+xml</dc:format>
    <dc:creator>
     <cc:Agent>
      <dc:title>Matplotlib v3.8.4, https://matplotlib.org/</dc:title>
     </cc:Agent>
    </dc:creator>
   </cc:Work>
  </rdf:RDF>
 </metadata>
 <defs>
  <style type="text/css">*{stroke-linejoin: round; stroke-linecap: butt}</style>
 </defs>
 <g id="figure_1">
  <g id="patch_1">
   <path d="M 0 110.16 
L 266.4 110.16 
L 266.4 0 
L 0 0 
z
" style="fill: #ffffff"/>
  </g>
  <g id="axes_1">
   <g id="patch_2">
    <path d="M 106.321995 31.138666 
C 106.321995 29.95104 105.849709 28.810841 105.009931 27.971063 
C 104.170153 27.131285 103.029954 26.658999 101.842328 26.658999 
C 100.654702 26.658999 99.514503 27.131285 98.674725 27.971063 
C 97.834946 28.810841 97.36266 29.95104 97.36266 31.138666 
" clip-path="url(#p413104bb11)" style="fill: none; stroke: #000000; stroke-width: 2; stroke-linejoin: miter"/>
   </g>
   <g id="patch_3">
    <path d="M 115.28133 31.138666 
C 115.28133 29.95104 114.809044 28.810841 113.969266 27.971063 
C 113.129488 27.131285 111.989289 26.658999 110.801663 26.658999 
C 109.614037 26.658999 108.473838 27.131285 107.63406 27.971063 
C 106.794281 28.810841 106.321995 29.95104 106.321995 31.138666 
" clip-path="url(#p413104bb11)" style="fill: none; stroke: #000000; stroke-width: 2; stroke-linejoin: miter"/>
   </g>
   <g id="patch_4">
    <path d="M 124.240665 31.138666 
C 124.240665 29.95104 123.768379 28.810841 122.928601 27.971063 
C 122.088822 27.131285 120.948624 26.658999 119.760998 26.658999 
C 118.573372 26.658999 117.433173 27.131285 116.593394 27.971063 
C 115.753616 28.810841 115.28133 29.95104 115.28133 31.138666 
" clip-path="url(#p413104bb11)" style="fill: none; stroke: #000000; stroke-width: 2; stroke-linejoin: miter"/>
   </g>
   <g id="patch_5">
    <path d="M 133.2 31.138666 
C 133.2 29.95104 132.727714 28.810841 131.887936 27.971063 
C 131.048157 27.131285 129.907959 26.658999 128.720333 26.658999 
C 127.532707 26.658999 126.392508 27.131285 125.552729 27.971063 
C 124.712951 28.810841 124.240665 29.95104 124.240665 31.138666 
" clip-path="url(#p413104bb11)" style="fill: none; stroke: #000000; stroke-width: 2; stroke-linejoin: miter"/>
   </g>
   <g id="line2d_1">
    <path d="M 7.769311 31.138666 
L 25.687981 31.138666 
L 28.674426 22.179331 
L 34.647316 40.098001 
L 40.620206 22.179331 
L 46.593096 40.098001 
L 52.565986 22.179331 
L 58.538876 40.098001 
L 61.525321 31.138666 
L 79.443991 31.138666 
" clip-path="url(#p413104bb11)" style="fill: none; stroke: #000000; stroke-width: 2; stroke-linecap: round"/>
   </g>
   <g id="line2d_2">
    <path d="M 79.443991 31.138666 
L 97.36266 31.138666 
M 133.2 31.138666 
L 151.11867 31.138666 
" clip-path="url(#p413104bb11)" style="fill: none; stroke: #000000; stroke-width: 2; stroke-linecap: round"/>
   </g>
   <g id="line2d_3">
    <path d="M 151.11867 31.138666 
L 151.11867 63.750645 
M 160.078005 63.750645 
L 142.159335 63.750645 
M 160.078005 70.201366 
L 142.159335 70.201366 
M 151.11867 70.201366 
L 151.11867 102.813345 
" clip-path="url(#p413104bb11)" style="fill: none; stroke: #000000; stroke-width: 2; stroke-linecap: round"/>
   </g>
   <g id="line2d_4">
    <path d="M 151.11867 31.138666 
L 186.956009 31.138666 
L 222.793349 31.138666 
" clip-path="url(#p413104bb11)" style="fill: none; stroke: #000000; stroke-width: 2; stroke-linecap: round"/>
   </g>
   <g id="line2d_5">
    <path d="M 222.793349 31.138666 
L 222.793349 49.057336 
L 231.752684 52.043781 
L 213.834014 58.016671 
L 231.752684 63.989561 
L 213.834014 69.962451 
L 231.752684 75.935341 
L 213.834014 81.908231 
L 222.793349 84.894676 
L 222.793349 102.813345 
" clip-path="url(#p413104bb11)" style="fill: none; stroke: #000000; stroke-width: 2; stroke-linecap: round"/>
   </g>
   <g id="line2d_6">
    <path d="M 222.793349 102.813345 
L 115.28133 102.813345 
L 7.769311 102.813345 
" clip-path="url(#p413104bb11)" style="fill: none; stroke: #000000; stroke-width: 2; stroke-linecap: round"/>
   </g>
   <g id="line2d_7">
    <path d="M 222.793349 31.138666 
L 240.712019 31.138666 
L 258.630689 31.138666 
" clip-path="url(#p413104bb11)" style="fill: none; stroke: #000000; stroke-width: 2; stroke-linecap: round"/>
   </g>
   <g id="line2d_8">
    <path d="M 222.793349 102.813345 
L 240.712019 102.813345 
L 258.630689 102.813345 
" clip-path="url(#p413104bb11)" style="fill: none; stroke: #000000; stroke-width: 2; stroke-linecap: round"/>
   </g>
   <g id="text_1">
    <!-- $R$ -->
    <g transform="translate(38.706651 15.684035) scale(0.14 -0.14)">
     <defs>
      <path id="DejaVuSans-Oblique-52" d="M 1613 4147 
L 1294 2491 
L 2106 2491 
Q 2584 2491 2879 2755 
Q 3175 3019 3175 3444 
Q 3175 3784 2976 3965 
Q 2778 4147 2406 4147 
L 1613 4147 
z
M 2772 2241 
Q 2972 2194 3105 2009 
Q 3238 1825 3413 1275 
L 3809 0 
L 3144 0 
L 2778 1197 
Q 2638 1659 2453 1815 
Q 2269 1972 1888 1972 
L 1191 1972 
L 806 0 
L 172 0 
L 1081 4666 
L 2503 4666 
Q 3150 4666 3495 4373 
Q 3841 4081 3841 3531 
Q 3841 3044 3547 2687 
Q 3253 2331 2772 2241 
z
" transform="scale(0.015625)"/>
     </defs>
     <use xlink:href="#DejaVuSans-Oblique-52" transform="translate(0 0.09375)"/>
    </g>
   </g>
   <g id="text_2">
    <!-- $L$ -->
    <g transform="translate(111.36133 20.163724) scale(0.14 -0.14)">
     <defs>
      <path id="DejaVuSans-Oblique-4c" d="M 1075 4666 
L 1709 4666 
L 909 525 
L 3181 525 
L 3078 0 
L 172 0 
L 1075 4666 
z
" transform="scale(0.015625)"/>
     </defs>
     <use xlink:href="#DejaVuSans-Oblique-4c" transform="translate(0 0.09375)"/>
    </g>
   </g>
   <g id="text_3">
    <!-- $C$ -->
    <g transform="translate(128.775601 70.839131) scale(0.14 -0.14)">
     <defs>
      <path id="DejaVuSans-Oblique-43" d="M 4447 4306 
L 4319 3641 
Q 4019 3944 3683 4091 
Q 3347 4238 2956 4238 
Q 2422 4238 2017 3981 
Q 1613 3725 1319 3200 
Q 1131 2863 1032 2486 
Q 934 2109 934 1728 
Q 934 1091 1264 756 
Q 1594 422 2222 422 
Q 2656 422 3056 561 
Q 3456 700 3834 978 
L 3688 231 
Q 3316 72 2936 -9 
Q 2556 -91 2175 -91 
Q 1278 -91 773 396 
Q 269 884 269 1753 
Q 269 2309 461 2846 
Q 653 3384 1013 3828 
Q 1394 4300 1883 4525 
Q 2372 4750 3022 4750 
Q 3422 4750 3780 4639 
Q 4138 4528 4447 4306 
z
" transform="scale(0.015625)"/>
     </defs>
     <use xlink:href="#DejaVuSans-Oblique-43" transform="translate(0 0.78125)"/>
    </g>
   </g>
   <g id="text_4">
    <!-- $G$ -->
    <g transform="translate(199.33028 70.839131) scale(0.14 -0.14)">
     <defs>
      <path id="DejaVuSans-Oblique-47" d="M 3494 697 
L 3738 1919 
L 2700 1919 
L 2797 2438 
L 4453 2438 
L 4050 384 
Q 3634 156 3143 32 
Q 2653 -91 2156 -91 
Q 1278 -91 783 396 
Q 288 884 288 1753 
Q 288 2475 589 3126 
Q 891 3778 1422 4213 
Q 1756 4484 2153 4617 
Q 2550 4750 3034 4750 
Q 3472 4750 3873 4639 
Q 4275 4528 4641 4306 
L 4513 3634 
Q 4231 3928 3853 4083 
Q 3475 4238 3047 4238 
Q 2550 4238 2172 4048 
Q 1794 3859 1497 3463 
Q 1244 3125 1098 2667 
Q 953 2209 953 1734 
Q 953 1081 1287 751 
Q 1622 422 2284 422 
Q 2616 422 2925 492 
Q 3234 563 3494 697 
z
" transform="scale(0.015625)"/>
     </defs>
     <use xlink:href="#DejaVuSans-Oblique-47" transform="translate(0 0.78125)"/>
    </g>
   </g>
   <g id="patch_6">
    <path d="M 7.769311 33.826467 
C 8.482124 33.826467 9.165838 33.543263 9.669873 33.039228 
C 10.173908 32.535193 10.457112 31.851479 10.457112 31.138666 
C 10.457112 30.425853 10.173908 29.742139 9.669873 29.238104 
C 9.165838 28.734069 8.482124 28.450866 7.769311 28.450866 
C 7.056498 28.450866 6.372784 28.734069 5.868749 29.238104 
C 5.364715 29.742139 5.081511 30.425853 5.081511 31.138666 
C 5.081511 31.851479 5.364715 32.535193 5.868749 33.039228 
C 6.372784 33.543263 7.056498 33.826467 7.769311 33.826467 
z
" clip-path="url(#p413104bb11)" style="fill: #ffffff; stroke: #000000; stroke-width: 2; stroke-linejoin: miter"/>
   </g>
   <g id="patch_7">
    <path d="M 7.769311 105.501146 
C 8.482124 105.501146 9.165838 105.217942 9.669873 104.713907 
C 10.173908 104.209872 10.457112 103.526158 10.457112 102.813345 
C 10.457112 102.100532 10.173908 101.416818 9.669873 100.912783 
C 9.165838 100.408749 8.482124 100.125545 7.769311 100.125545 
C 7.056498 100.125545 6.372784 100.408749 5.868749 100.912783 
C 5.364715 101.416818 5.081511 102.100532 5.081511 102.813345 
C 5.081511 103.526158 5.364715 104.209872 5.868749 104.713907 
C 6.372784 105.217942 7.056498 105.501146 7.769311 105.501146 
z
" clip-path="url(#p413104bb11)" style="fill: #ffffff; stroke: #000000; stroke-width: 2; stroke-linejoin: miter"/>
   </g>
   <g id="patch_8">
    <path d="M 258.630689 33.826467 
C 259.343502 33.826467 260.027216 33.543263 260.531251 33.039228 
C 261.035285 32.535193 261.318489 31.851479 261.318489 31.138666 
C 261.318489 30.425853 261.035285 29.742139 260.531251 29.238104 
C 260.027216 28.734069 259.343502 28.450866 258.630689 28.450866 
C 257.917876 28.450866 257.234162 28.734069 256.730127 29.238104 
C 256.226092 29.742139 255.942888 30.425853 255.942888 31.138666 
C 255.942888 31.851479 256.226092 32.535193 256.730127 33.039228 
C 257.234162 33.543263 257.917876 33.826467 258.630689 33.826467 
z
" clip-path="url(#p413104bb11)" style="fill: #ffffff; stroke: #000000; stroke-width: 2; stroke-linejoin: miter"/>
   </g>
   <g id="patch_9">
    <path d="M 258.630689 105.501146 
C 259.343502 105.501146 260.027216 105.217942 260.531251 104.713907 
C 261.035285 104.209872 261.318489 103.526158 261.318489 102.813345 
C 261.318489 102.100532 261.035285 101.416818 260.531251 100.912783 
C 260.027216 100.408749 259.343502 100.125545 258.630689 100.125545 
C 257.917876 100.125545 257.234162 100.408749 256.730127 100.912783 
C 256.226092 101.416818 255.942888 102.100532 255.942888 102.813345 
C 255.942888 103.526158 256.226092 104.209872 256.730127 104.713907 
C 257.234162 105.217942 257.917876 105.501146 258.630689 105.501146 
z
" clip-path="url(#p413104bb11)" style="fill: #ffffff; stroke: #000000; stroke-width: 2; stroke-linejoin: miter"/>
   </g>
  </g>
 </g>
 <defs>
  <clipPath id="p413104bb11">
   <rect x="0.422657" y="0" width="265.554686" height="110.16"/>
  </clipPath>
 </defs>
</svg>
